<?xml version="1.0" encoding="UTF-8"?>
<svg id="Layer_2" data-name="Layer 2" xmlns="http://www.w3.org/2000/svg" viewBox="0 0 421.18 334.73">
  <defs>
    <style>
      .cls-1 {
        stroke-width: 1.81px;
      }

      .cls-1, .cls-2, .cls-3, .cls-4, .cls-5, .cls-6 {
        stroke-miterlimit: 10;
      }

      .cls-1, .cls-2, .cls-3, .cls-7, .cls-5, .cls-8, .cls-6 {
        fill: #fff;
      }

      .cls-1, .cls-2, .cls-3, .cls-5, .cls-6 {
        stroke: #058f92;
      }

      .cls-9 {
        fill: #a6a7aa;
      }

      .cls-9, .cls-10, .cls-11, .cls-7, .cls-12 {
        stroke-width: 0px;
      }

      .cls-10 {
        fill: #038f92;
      }

      .cls-13, .cls-12 {
        fill: #231f20;
      }

      .cls-13, .cls-8 {
        font-family: Poppins-Light, Poppins;
        font-size: 8px;
        font-weight: 300;
      }

      .cls-2 {
        stroke-width: 2.96px;
      }

      .cls-3 {
        stroke-width: 3px;
      }

      .cls-11 {
        fill: #058f92;
      }

      .cls-4 {
        fill: none;
        stroke: #231f20;
      }

      .cls-4, .cls-6 {
        stroke-width: 2px;
      }

      .cls-5 {
        stroke-width: 2.56px;
      }

      .cls-14 {
        font-family: Poppins-Bold, Poppins;
        font-size: 10px;
        font-weight: 700;
      }
    </style>
  </defs>
  <g id="Layer_1-2" data-name="Layer 1">
    <rect class="cls-5" x="1.28" y="12.9" width="320.55" height="320.55" rx="160.27" ry="160.27"/>
    <path class="cls-3" d="M206.13,43.22h-90.38c-2.36,0-4.39-1.98-4.89-4.75l-5.34-29.67c-.68-3.76,1.7-7.3,4.89-7.3h102.14c3.28,0,5.67,3.73,4.84,7.55l-6.42,29.67c-.57,2.66-2.57,4.51-4.84,4.51Z"/>
    <circle class="cls-11" cx="161.55" cy="173.17" r="101.87"/>
    <path class="cls-2" d="M195.28,118.72l-68.52-.44c-2.39-.02-4.4-1.79-4.71-4.17l-6.68-51.23c-.37-2.86,1.86-5.4,4.75-5.4h82.89c2.92,0,5.16,2.6,4.73,5.49l-7.69,51.68c-.35,2.36-2.38,4.1-4.76,4.08Z"/>
    <circle class="cls-6" cx="161.55" cy="173.17" r="37.82"/>
    <path class="cls-1" d="M188.01,159.05h-53.38c-1.36,0-2.52-.97-2.75-2.31l-4.23-24.01c-.3-1.71,1.01-3.28,2.75-3.28h62.26c1.76,0,3.08,1.6,2.74,3.32l-4.64,24.01c-.25,1.31-1.4,2.26-2.74,2.26Z"/>
    <text class="cls-14" transform="translate(133.36 79.66)"><tspan x="0" y="0">Equipment </tspan><tspan x="6.52" y="12">lifecycle </tspan><tspan x="-7.59" y="24">management</tspan></text>
    <text class="cls-14" transform="translate(140.56 149.14)"><tspan x="0" y="0">Carriers</tspan></text>
    <g>
      <path class="cls-11" d="M290.76,164.68h13.15v4.71h-13.15v-4.71ZM304.11,164h-13.54c-.29,0-.49.24-.49.48v5.05c0,.29.24.49.49.49h13.54c.29,0,.48-.24.48-.49v-5.05c0-.29-.19-.48-.48-.48"/>
      <path class="cls-11" d="M292.22,168.66h-.63c-.1,0-.15-.1-.15-.15v-2.91c0-.1.1-.15.15-.15h.63c.1,0,.15.1.15.15v2.91s-.05.15-.15.15"/>
      <path class="cls-11" d="M294.02,168.66h-.63c-.1,0-.15-.1-.15-.15v-2.91c0-.1.1-.15.15-.15h.63c.1,0,.15.1.15.15v2.91s-.05.15-.15.15"/>
      <path class="cls-11" d="M295.81,168.66h-.63c-.1,0-.15-.1-.15-.15v-2.91c0-.1.1-.15.15-.15h.63c.1,0,.15.1.15.15v2.91s-.05.15-.15.15"/>
      <path class="cls-11" d="M297.61,168.66h-.63c-.1,0-.15-.1-.15-.15v-2.91c0-.1.1-.15.15-.15h.63c.1,0,.15.1.15.15v2.91s-.05.15-.15.15"/>
      <path class="cls-11" d="M299.45,168.66h-.63c-.1,0-.15-.1-.15-.15v-2.91c0-.1.1-.15.15-.15h.63c.1,0,.15.1.15.15v2.91s-.05.15-.15.15"/>
      <path class="cls-11" d="M301.25,168.66h-.63c-.1,0-.15-.1-.15-.15v-2.91c0-.1.1-.15.15-.15h.63c.1,0,.15.1.15.15v2.91s-.05.15-.15.15"/>
      <path class="cls-11" d="M303.04,168.66h-.63c-.1,0-.15-.1-.15-.15v-2.91c0-.1.1-.15.15-.15h.63c.1,0,.15.1.15.15v2.91s-.05.15-.15.15"/>
      <path class="cls-11" d="M277.13,175.35h-.63c-.1,0-.15-.1-.15-.15v-2.91c0-.1.1-.15.15-.15h.63c.1,0,.15.1.15.15v2.91c0,.1-.05.15-.15.15"/>
      <path class="cls-11" d="M278.92,175.35h-.63c-.1,0-.15-.1-.15-.15v-2.91c0-.1.1-.15.15-.15h.63c.1,0,.15.1.15.15v2.91c.05.1-.05.15-.15.15"/>
      <path class="cls-11" d="M280.72,175.35h-.63c-.1,0-.15-.1-.15-.15v-2.91c0-.1.1-.15.15-.15h.63c.1,0,.15.1.15.15v2.91c.05.1-.05.15-.15.15"/>
      <path class="cls-11" d="M282.51,175.35h-.63c-.1,0-.15-.1-.15-.15v-2.91c0-.1.1-.15.15-.15h.63c.1,0,.15.1.15.15v2.91c.05.1-.05.15-.15.15"/>
      <path class="cls-11" d="M284.36,175.35h-.63c-.1,0-.15-.1-.15-.15v-2.91c0-.1.1-.15.15-.15h.63c.1,0,.15.1.15.15v2.91c0,.1-.05.15-.15.15"/>
      <path class="cls-11" d="M286.15,175.35h-.63c-.1,0-.15-.1-.15-.15v-2.91c0-.1.1-.15.15-.15h.63c.1,0,.15.1.15.15v2.91c0,.1-.05.15-.15.15"/>
      <path class="cls-11" d="M287.95,175.35h-.63c-.1,0-.15-.1-.15-.15v-2.91c0-.1.1-.15.15-.15h.63c.1,0,.15.1.15.15v2.91c.05.1-.05.15-.15.15"/>
      <path class="cls-11" d="M275.67,171.37h13.15v4.71h-13.15v-4.71ZM289.02,170.7h-13.54c-.29,0-.49.24-.49.48v5.05c0,.29.24.49.49.49h13.49c.29,0,.48-.24.48-.49v-5c.05-.29-.15-.53-.44-.53"/>
      <path class="cls-11" d="M292.22,175.35h-.63c-.1,0-.15-.1-.15-.15v-2.91c0-.1.1-.15.15-.15h.63c.1,0,.15.1.15.15v2.91c.05.1-.05.15-.15.15"/>
      <path class="cls-11" d="M294.07,175.35h-.63c-.1,0-.15-.1-.15-.15v-2.91c0-.1.1-.15.15-.15h.63c.1,0,.15.1.15.15v2.91c0,.1-.1.15-.15.15"/>
      <path class="cls-11" d="M295.86,175.35h-.63c-.1,0-.15-.1-.15-.15v-2.91c0-.1.1-.15.15-.15h.63c.1,0,.15.1.15.15v2.91c0,.1-.05.15-.15.15"/>
      <path class="cls-11" d="M297.8,172.3c0-.1-.1-.15-.15-.15h-.63c-.1,0-.15.1-.15.15v1.89h.97v-1.89h-.05Z"/>
      <path class="cls-11" d="M299.65,172.3c0-.1-.1-.15-.15-.15h-.63c-.1,0-.15.1-.15.15v1.89h.97v-1.89h-.05Z"/>
      <path class="cls-11" d="M301.44,172.3c0-.1-.1-.15-.15-.15h-.63c-.1,0-.15.1-.15.15v1.89h.97v-1.89h-.05Z"/>
      <path class="cls-11" d="M303.24,172.3c0-.1-.1-.15-.15-.15h-.63c-.1,0-.15.1-.15.15v1.89h.97v-1.89h-.05Z"/>
      <path class="cls-11" d="M290.62,176.76h4.37l.48-.68h-4.71v-4.71h13.15v2.82h.68v-2.96c0-.29-.24-.49-.48-.49h-13.49c-.29,0-.48.24-.48.49v5.05c-.05.29.19.48.48.48"/>
      <path class="cls-11" d="M307.27,175.16h-9.8s-.1.05-.15.05l-1.8,2.47s-.09.05-.14.05h-22.52c-.1,0-.19.1-.15.25l1.02,3.3s.1.14.15.14h31.69c.1,0,.15-.05.15-.14l1.69-5.88c.05-.09-.04-.24-.14-.24ZM304.8,180.6h-30.15l-.54-1.98,21.86-.03,1.88-2.51h8.38l-1.43,4.52Z"/>
      <path class="cls-11" d="M274.02,182.39l1.8,6.07c.44.15.87.24,1.36.24,2.13,0,3.88-1.55,4.22-3.59.34,2.04,2.09,3.59,4.22,3.59s3.83-1.5,4.22-3.49c.39,1.99,2.13,3.49,4.22,3.49s3.78-1.46,4.17-3.4c.39,1.94,2.13,3.4,4.17,3.4.44,0,.97-.15,1.36-.24l1.7-6.07h-31.45Z"/>
      <path class="cls-11" d="M299.7,177.54c0,.44-.34.78-.78.78s-.78-.34-.78-.78.34-.78.78-.78.78.34.78.78Z"/>
      <path class="cls-11" d="M304.65,177.54c0,.44-.34.78-.78.78s-.78-.34-.78-.78.34-.78.78-.78.78.34.78.78Z"/>
      <path class="cls-11" d="M302.22,177.54c0,.44-.34.78-.78.78s-.77-.34-.77-.78.34-.78.77-.78.78.34.78.78Z"/>
      <g>
        <path class="cls-7" d="M302.41,188.2c-1.79,0-3.34-1.26-3.68-2.99l-.46-2.32h6.54l-1.44,5.15c-.32.08-.67.16-.96.16ZM294.07,188.2c-1.81,0-3.38-1.3-3.73-3.09l-.43-2.22h8.31l-.46,2.31c-.35,1.76-1.87,3-3.68,3ZM285.62,188.2c-1.85,0-3.42-1.33-3.73-3.17l-.36-2.14h8.25l-.43,2.22c-.35,1.79-1.92,3.09-3.73,3.09ZM277.18,188.2c-.31,0-.62-.04-.96-.14l-1.53-5.17h6.57l-.36,2.14c-.31,1.84-1.88,3.17-3.73,3.17Z"/>
        <path class="cls-10" d="M304.15,183.39l-1.18,4.23c-.2.04-.4.08-.55.08-1.55,0-2.89-1.09-3.19-2.59l-.34-1.72h5.27M297.6,183.39l-.34,1.72c-.31,1.53-1.62,2.59-3.19,2.59s-2.94-1.13-3.24-2.69l-.32-1.62h7.1M289.18,183.39l-.32,1.62c-.3,1.56-1.67,2.68-3.24,2.68s-2.97-1.16-3.24-2.75l-.26-1.55h7.05M280.67,183.39l-.26,1.55c-.27,1.6-1.63,2.75-3.24,2.75-.18,0-.37-.02-.56-.06l-1.26-4.25h5.31M305.47,182.39h-31.45l1.79,6.07c.44.15.87.24,1.36.24,2.13,0,3.88-1.55,4.22-3.59.34,2.04,2.09,3.59,4.22,3.59s3.83-1.5,4.22-3.49c.39,1.99,2.13,3.49,4.22,3.49s3.78-1.46,4.17-3.4c.39,1.94,2.13,3.4,4.17,3.4.44,0,.97-.15,1.36-.24l1.7-6.07h0Z"/>
      </g>
    </g>
    <g>
      <path class="cls-11" d="M161.51,169.14h13.15v4.71h-13.15v-4.71ZM174.86,168.46h-13.54c-.29,0-.49.24-.49.48v5.05c0,.29.24.49.49.49h13.54c.29,0,.48-.24.48-.49v-5.05c0-.29-.19-.48-.48-.48"/>
      <path class="cls-11" d="M162.97,173.12h-.63c-.1,0-.15-.1-.15-.15v-2.91c0-.1.1-.15.15-.15h.63c.1,0,.15.1.15.15v2.91s-.05.15-.15.15"/>
      <path class="cls-11" d="M164.77,173.12h-.63c-.1,0-.15-.1-.15-.15v-2.91c0-.1.1-.15.15-.15h.63c.1,0,.15.1.15.15v2.91s-.05.15-.15.15"/>
      <path class="cls-11" d="M166.56,173.12h-.63c-.1,0-.15-.1-.15-.15v-2.91c0-.1.1-.15.15-.15h.63c.1,0,.15.1.15.15v2.91s-.05.15-.15.15"/>
      <path class="cls-11" d="M168.36,173.12h-.63c-.1,0-.15-.1-.15-.15v-2.91c0-.1.1-.15.15-.15h.63c.1,0,.15.1.15.15v2.91s-.05.15-.15.15"/>
      <path class="cls-11" d="M170.2,173.12h-.63c-.1,0-.15-.1-.15-.15v-2.91c0-.1.1-.15.15-.15h.63c.1,0,.15.1.15.15v2.91s-.05.15-.15.15"/>
      <path class="cls-11" d="M172,173.12h-.63c-.1,0-.15-.1-.15-.15v-2.91c0-.1.1-.15.15-.15h.63c.1,0,.15.1.15.15v2.91s-.05.15-.15.15"/>
      <path class="cls-11" d="M173.79,173.12h-.63c-.1,0-.15-.1-.15-.15v-2.91c0-.1.1-.15.15-.15h.63c.1,0,.15.1.15.15v2.91s-.05.15-.15.15"/>
      <path class="cls-11" d="M147.88,179.81h-.63c-.1,0-.15-.1-.15-.15v-2.91c0-.1.1-.15.15-.15h.63c.1,0,.15.1.15.15v2.91c0,.1-.05.15-.15.15"/>
      <path class="cls-11" d="M149.67,179.81h-.63c-.1,0-.15-.1-.15-.15v-2.91c0-.1.1-.15.15-.15h.63c.1,0,.15.1.15.15v2.91c.05.1-.05.15-.15.15"/>
      <path class="cls-11" d="M151.47,179.81h-.63c-.1,0-.15-.1-.15-.15v-2.91c0-.1.1-.15.15-.15h.63c.1,0,.15.1.15.15v2.91c.05.1-.05.15-.15.15"/>
      <path class="cls-11" d="M153.26,179.81h-.63c-.1,0-.15-.1-.15-.15v-2.91c0-.1.1-.15.15-.15h.63c.1,0,.15.1.15.15v2.91c.05.1-.05.15-.15.15"/>
      <path class="cls-11" d="M155.11,179.81h-.63c-.1,0-.15-.1-.15-.15v-2.91c0-.1.1-.15.15-.15h.63c.1,0,.15.1.15.15v2.91c0,.1-.05.15-.15.15"/>
      <path class="cls-11" d="M156.9,179.81h-.63c-.1,0-.15-.1-.15-.15v-2.91c0-.1.1-.15.15-.15h.63c.1,0,.15.1.15.15v2.91c0,.1-.05.15-.15.15"/>
      <path class="cls-11" d="M158.7,179.81h-.63c-.1,0-.15-.1-.15-.15v-2.91c0-.1.1-.15.15-.15h.63c.1,0,.15.1.15.15v2.91c.05.1-.05.15-.15.15"/>
      <path class="cls-11" d="M146.42,175.83h13.15v4.71h-13.15v-4.71ZM159.77,175.15h-13.54c-.29,0-.49.24-.49.48v5.05c0,.29.24.49.49.49h13.49c.29,0,.48-.24.48-.49v-5c.05-.29-.15-.53-.44-.53"/>
      <path class="cls-11" d="M162.97,179.81h-.63c-.1,0-.15-.1-.15-.15v-2.91c0-.1.1-.15.15-.15h.63c.1,0,.15.1.15.15v2.91c.05.1-.05.15-.15.15"/>
      <path class="cls-11" d="M164.82,179.81h-.63c-.1,0-.15-.1-.15-.15v-2.91c0-.1.1-.15.15-.15h.63c.1,0,.15.1.15.15v2.91c0,.1-.1.15-.15.15"/>
      <path class="cls-11" d="M166.61,179.81h-.63c-.1,0-.15-.1-.15-.15v-2.91c0-.1.1-.15.15-.15h.63c.1,0,.15.1.15.15v2.91c0,.1-.05.15-.15.15"/>
      <path class="cls-11" d="M168.55,176.76c0-.1-.1-.15-.15-.15h-.63c-.1,0-.15.1-.15.15v1.89h.97v-1.89h-.05Z"/>
      <path class="cls-11" d="M170.4,176.76c0-.1-.1-.15-.15-.15h-.63c-.1,0-.15.1-.15.15v1.89h.97v-1.89h-.05Z"/>
      <path class="cls-11" d="M172.19,176.76c0-.1-.1-.15-.15-.15h-.63c-.1,0-.15.1-.15.15v1.89h.97v-1.89h-.05Z"/>
      <path class="cls-11" d="M173.99,176.76c0-.1-.1-.15-.15-.15h-.63c-.1,0-.15.1-.15.15v1.89h.97v-1.89h-.05Z"/>
      <path class="cls-11" d="M161.37,181.22h4.37l.48-.68h-4.71v-4.71h13.15v2.82h.68v-2.96c0-.29-.24-.49-.48-.49h-13.49c-.29,0-.48.24-.48.49v5.05c-.05.29.19.48.48.48"/>
      <path class="cls-11" d="M178.02,179.62h-9.8s-.1.05-.15.05l-1.8,2.47s-.09.05-.14.05h-22.52c-.1,0-.19.1-.15.25l1.02,3.3s.1.14.15.14h31.69c.1,0,.15-.05.15-.14l1.69-5.88c.05-.09-.04-.24-.14-.24ZM175.55,185.06h-30.15l-.54-1.98,21.86-.03,1.88-2.51h8.38l-1.43,4.52Z"/>
      <path class="cls-11" d="M144.77,186.85l1.8,6.07c.44.15.87.24,1.36.24,2.13,0,3.88-1.55,4.22-3.59.34,2.04,2.09,3.59,4.22,3.59s3.83-1.5,4.22-3.49c.39,1.99,2.13,3.49,4.22,3.49s3.78-1.46,4.17-3.4c.39,1.94,2.13,3.4,4.17,3.4.44,0,.97-.15,1.36-.24l1.7-6.07h-31.45Z"/>
      <path class="cls-11" d="M170.45,182c0,.44-.34.78-.78.78s-.78-.34-.78-.78.34-.78.78-.78.78.34.78.78Z"/>
      <path class="cls-11" d="M175.4,182c0,.44-.34.78-.78.78s-.78-.34-.78-.78.34-.78.78-.78.78.34.78.78Z"/>
      <path class="cls-11" d="M172.97,182c0,.44-.34.78-.78.78s-.77-.34-.77-.78.34-.78.77-.78.78.34.78.78Z"/>
      <g>
        <path class="cls-7" d="M173.16,192.66c-1.79,0-3.33-1.26-3.68-2.99l-.46-2.32h6.54l-1.44,5.15c-.35.09-.69.16-.96.16ZM164.82,192.66c-1.81,0-3.38-1.3-3.73-3.09l-.43-2.22h8.31l-.46,2.31c-.35,1.76-1.87,2.99-3.68,2.99ZM156.37,192.66c-1.85,0-3.42-1.33-3.73-3.17l-.36-2.14h8.25l-.43,2.22c-.35,1.79-1.92,3.09-3.73,3.09ZM147.93,192.66c-.31,0-.61-.04-.96-.14l-1.53-5.17h6.57l-.36,2.14c-.31,1.84-1.87,3.17-3.73,3.17Z"/>
        <path class="cls-10" d="M174.9,187.85l-1.18,4.23c-.2.04-.4.08-.55.08-1.55,0-2.89-1.09-3.19-2.59l-.34-1.72h5.27M168.35,187.85l-.34,1.72c-.31,1.53-1.62,2.59-3.19,2.59s-2.94-1.13-3.24-2.69l-.32-1.62h7.1M159.93,187.85l-.32,1.62c-.3,1.56-1.67,2.68-3.24,2.68s-2.97-1.16-3.24-2.75l-.26-1.55h7.05M151.42,187.85l-.26,1.55c-.27,1.6-1.63,2.75-3.24,2.75-.18,0-.37-.02-.56-.06l-1.26-4.25h5.31M176.22,186.85h-31.45l1.79,6.07c.44.15.87.24,1.36.24,2.13,0,3.88-1.55,4.22-3.59.34,2.04,2.09,3.59,4.22,3.59s3.83-1.5,4.22-3.49c.39,1.99,2.13,3.49,4.22,3.49s3.79-1.46,4.17-3.4c.39,1.94,2.13,3.4,4.17,3.4.44,0,.97-.15,1.36-.24l1.7-6.07h0Z"/>
      </g>
    </g>
    <text class="cls-8" transform="translate(197.88 154.1)"><tspan x="0" y="0">Maintenance &amp; </tspan><tspan x="16.36" y="9.6">repairs</tspan></text>
    <text class="cls-13" transform="translate(248.47 91.86)"><tspan x="0" y="0">Container </tspan><tspan x="5.4" y="9.6">leasing </tspan><tspan x="-2.79" y="19.2">companies</tspan></text>
    <text class="cls-13" transform="translate(281.19 200.45)"><tspan x="0" y="0">VSAs</tspan></text>
    <text class="cls-13" transform="translate(12.51 200.45)"><tspan x="0" y="0">Terminals</tspan></text>
    <text class="cls-13" transform="translate(67.53 287.18)"><tspan x="0" y="0">Intermodal</tspan></text>
    <text class="cls-13" transform="translate(198.62 287.18)"><tspan x="0" y="0">Equipment </tspan><tspan x="5.9" y="9.6">solution </tspan><tspan x="2.9" y="19.2">providers</tspan></text>
    <text class="cls-13" transform="translate(331.36 287.96)"><tspan x="0" y="0">DCSA’s Equipment </tspan><tspan x="0" y="9.6">lifecycle standards</tspan></text>
    <text class="cls-8" transform="translate(194.75 214.27)"><tspan x="0" y="0">Monitoring</tspan></text>
    <text class="cls-8" transform="translate(142.04 252.08)"><tspan x="0" y="0">Release &amp; </tspan><tspan x="5.53" y="9.6">returns</tspan></text>
    <text class="cls-8" transform="translate(99.33 209.96)"><tspan x="0" y="0">Fleet</tspan><tspan x="-17.73" y="9.6">Management</tspan></text>
    <text class="cls-8" transform="translate(67.43 154.1)"><tspan x="0" y="0">Repositioning </tspan><tspan x=".18" y="9.6">&amp; evacuation</tspan></text>
    <path class="cls-7" d="M232.16,130.11h.16c2.08,0,3.74-1.67,3.77-3.71,0-.57-.12-1.1-.34-1.58l-2.02,2.14c-.53.54-1.38.54-1.91,0-.03-.03-.07-.09-.1-.12-.03-.04-.06-.1-.09-.13-.32-.53-.25-1.19.19-1.67l2.04-2.07c-.44-.19-.94-.32-1.48-.32-2.04.04-3.71,1.67-3.71,3.71,0,.44.1.85.22,1.26l-.28-.22c-.31-.31-.72-.47-1.13-.47s-.82.16-1.13.47c-.32.32-.48.73-.48,1.13,0,.07,0,.13.04.19-.07,0-.13-.03-.19-.03-.41,0-.82.16-1.13.47-.32.32-.48.73-.48,1.13,0,.07,0,.13.04.19-.07,0-.13-.03-.19-.03-.41,0-.82.16-1.14.47-.31.32-.47.73-.47,1.14,0,.06,0,.12.03.18-.06,0-.12-.03-.18-.03-.41,0-.82.16-1.14.47-.31.32-.47.73-.47,1.14s.16.81.47,1.13l.35.34-1.89,1.89c-.66.66-.66,1.73,0,2.39.66.66,1.73.66,2.39,0l1.89-1.89.16.16c.19.19.41.32.63.38.09.16.22.34.34.5-.41.32-.66.82-.66,1.38v2.08c0,.82.57,1.51,1.32,1.73v2.07c.21.05.42.09.63.13v-2.14h4.72v2.14c.23-.04.46-.09.69-.14v-2.06c.75-.22,1.32-.91,1.32-1.73v-2.04c0-.6-.28-1.1-.72-1.42.59-.79.94-1.73.94-2.8,0-.85-.25-1.66-.66-2.32.85-.04,1.54-.73,1.54-1.61s-.72-1.6-1.6-1.6h-.85s-.03-.06-.07-.1l-.15-.15.12-.13c.22.06.44.1.66.1ZM226.85,127.91c.19-.19.41-.26.63-.26s.47.1.63.26l2.51,2.48h-.88c-.47,0-.88.19-1.16.5l-1.73-1.73c-.19-.19-.25-.41-.25-.63s.09-.47.25-.62ZM225.09,129.7c.19-.19.41-.25.63-.25s.47.09.63.25l1.85,1.82c-.03.16-.06.32-.06.47,0,.79.56,1.45,1.29,1.57-.03.1-.1.19-.19.29l-.06.06c-.16.13-.38.19-.57.19-.22,0-.47-.1-.63-.25l-2.89-2.9c-.19-.18-.25-.4-.25-.62s.09-.48.25-.63ZM223.33,131.43c.19-.19.41-.26.63-.26s.47.1.63.26l2.89,2.89c.19.19.25.41.25.63s-.09.47-.25.63c-.19.19-.41.25-.63.25s-.47-.1-.63-.25l-2.89-2.9c-.19-.18-.25-.4-.25-.62s.09-.48.25-.63ZM224.4,137.37l-2.9-2.89c-.18-.19-.25-.41-.25-.63s.1-.47.25-.63c.19-.19.41-.25.63-.25s.47.09.63.25l2.89,2.89c.19.19.26.41.26.63s-.1.47-.26.63c-.18.19-.4.25-.62.25s-.48-.09-.63-.25ZM232.26,140.14v2.04c0,.6-.51,1.1-1.1,1.1h-5.13c-.6,0-1.1-.5-1.1-1.1v-2.04c0-.6.5-1.1,1.1-1.1h5.13c.59,0,1.1.5,1.1,1.1ZM231.57,138.44c-.13-.03-.29-.06-.44-.06h-5.1c-.19,0-.34.03-.5.06-.03-.06-.06-.1-.1-.13.29-.06.54-.19.76-.41.31-.31.47-.72.47-1.13,0-.06,0-.12-.03-.19.06,0,.12.03.19.03.41,0,.82-.15,1.13-.47.31-.31.47-.72.47-1.13,0-.06,0-.12-.03-.19.06,0,.13.03.19.03.34,0,.72-.12,1-.34.04-.03.1-.07.13-.13.22-.22.35-.47.41-.75h1.54c.47.66.79,1.44.79,2.32,0,.95-.35,1.8-.88,2.49ZM232.45,131.08c.5,0,.91.41.91.91s-.41.91-.91.91h-2.71c-.5,0-.91-.4-.91-.91s.41-.91.91-.91h2.71Z"/>
    <path class="cls-9" d="M224.19,145.27h0s.11-.02.16-.04c-.05.01-.11.02-.16.04Z"/>
    <g>
      <path class="cls-7" d="M218.48,183.26c.66.03,1.32.25,1.82.63.06.03.12.06.22.06s.22-.06.28-.13c.12-.16.09-.38-.06-.47-.63-.47-1.41-.72-2.23-.75-.19,0-.35.16-.35.35-.03.16.09.31.31.31"/>
      <path class="cls-7" d="M224.71,186.09l2.29-3.33c.1-.16.06-.38-.09-.47-.16-.1-.38-.06-.47.09l-1.89,2.8c.03.28.09.6.16.91"/>
      <path class="cls-7" d="M214.74,183.26c1.01-1.01,2.33-1.51,3.62-1.51s2.64.5,3.62,1.51c.88.88,1.38,2.04,1.48,3.21l-1.92-.88c-.16-.06-.32-.03-.41.09l-2.11,2.83-1.79-1.1c-.13-.09-.31-.06-.41.06l-2.55,2.52c-1.51-2.01-1.35-4.87.47-6.73M221.97,190.53c-1.01,1.01-2.29,1.51-3.62,1.51s-2.64-.5-3.62-1.51v-.03l2.36-2.33,1.85,1.13c.16.09.35.06.47-.1l2.14-2.86,1.98.88c-.16,1.23-.66,2.39-1.57,3.3M218.36,192.66c.19,0,.35,0,.53-.03.06,0,.12-.03.19-.03.13,0,.22-.03.35-.06.06,0,.16-.03.22-.06.09-.03.19-.03.28-.06.09-.03.16-.06.25-.06.09-.03.16-.06.25-.1.09-.03.16-.06.25-.09.06-.03.12-.06.22-.09.09-.03.19-.1.25-.13.06-.03.1-.06.16-.1.22-.12.47-.28.69-.47.16-.13.32-.28.47-.41.16-.16.28-.31.41-.47.16-.22.31-.44.44-.66.03-.06.06-.13.13-.19.06-.1.09-.19.12-.25.03-.06.06-.13.1-.19.03-.09.06-.19.09-.28.03-.06.06-.12.06-.19.03-.1.06-.19.09-.28.03-.06.03-.13.06-.19.03-.09.06-.19.06-.31,0-.06,0-.1.03-.16.03-.25.06-.53.06-.79,0-.38-.03-.72-.09-1.1-.03-.09-.03-.19-.06-.28,0-.06-.03-.13-.06-.19-.03-.09-.06-.19-.06-.25-.03-.06-.06-.16-.09-.22-.03-.06-.06-.16-.09-.22-.06-.16-.13-.28-.19-.41-.03-.06-.06-.09-.09-.16-.06-.1-.13-.22-.19-.32-.03-.06-.06-.09-.09-.16-.06-.09-.13-.19-.22-.28-.03-.03-.06-.09-.1-.13-.12-.12-.22-.28-.35-.41-1.1-1.1-2.55-1.7-4.09-1.7s-2.99.6-4.09,1.7c-1.1,1.1-1.7,2.55-1.7,4.09,0,.19,0,.35.03.54,0,.06.03.12.03.19,0,.09.03.22.03.32s.03.16.06.25c.03.09.03.16.06.25.03.09.06.19.09.28.03.06.03.12.06.19.03.1.06.22.13.32,0,.03.03.06.03.06.19.41.41.79.69,1.16.16.19.31.38.47.53,1.1,1.01,2.55,1.6,4.09,1.6"/>
      <path class="cls-7" d="M229.64,196.37l-4.15-4.15c-.13-.13-.35-.13-.47,0l-.22.22-1.51-1.51c-.13.16-.28.31-.44.47-.16.16-.32.28-.47.44l1.51,1.51-.22.22c-.13.12-.13.35,0,.47l2.64,2.64h-15.34v-4.81l1.16.82c.06.03.13.06.19.06.1,0,.19-.03.25-.09l1.26-1.26c-.16-.16-.32-.35-.47-.5l-1.07,1.07-1.32-.94v-8.68c0-.19-.16-.35-.35-.35s-.35.16-.35.35v14.68c0,.19.16.35.35.35h16.29s.06,0,.09-.03l.85.85c.13.12.35.12.47,0l1.35-1.35c.1-.13.1-.35-.03-.47"/>
    </g>
    <path class="cls-7" d="M165.47,226.33h0c-3.92-1.9-8.62-.4-10.7,3.36l-1.37-.68c-.12-.06-.25-.03-.34.03-.09.06-.15.19-.15.31l.4,4.57c0,.12.09.22.19.28.06.03.09.03.16.03s.12-.03.19-.06l3.95-2.46c.09-.06.16-.19.16-.31s-.09-.25-.19-.28l-1.37-.65c1.15-1.99,3.3-3.17,5.51-3.17.93,0,1.9.22,2.77.65,3.14,1.52,4.48,5.35,2.93,8.52-1.53,3.14-5.35,4.48-8.53,2.92-1.4-.68-2.43-1.8-3.02-3.11l-1.49.96c.78,1.59,2.05,2.92,3.76,3.77,1.15.56,2.36.81,3.58.81,3.02,0,5.94-1.68,7.34-4.57,1.96-4.04.28-8.93-3.76-10.92"/>
    <g>
      <polygon class="cls-7" points="101.83 181.06 105.63 181.06 105.63 180.06 111.32 180.06 111.32 181.06 114.66 181.06 111.32 181.06 111.32 182.19 105.63 182.19 105.63 181.06 101.83 181.06 101.83 199.46 101.83 181.06"/>
      <path class="cls-7" d="M105.57,182.51h5.79c.16,0,.25-.13.25-.25v-.88h2.74v17.8h-12.2v-17.8h3.21v.88c-.03.12.1.25.22.25M111.39,179.74h-5.82c-.16,0-.25.13-.25.25v.72h-3.55c-.16,0-.25.13-.25.25v18.52c0,.16.12.25.25.25h12.95c.16,0,.25-.13.25-.25v-18.49c0-.16-.13-.25-.25-.25h-3.05v-.72c-.03-.16-.16-.28-.28-.28M111.01,180.37v1.51h-5.06v-1.48h5.06"/>
      <path class="cls-7" d="M106.73,183.54h-3.14c-.16,0-.25.13-.25.25v3.14c0,.16.12.25.25.25h3.14c.16,0,.25-.13.25-.25v-3.14c0-.16-.09-.25-.25-.25M106.36,186.59h-2.39v-2.42h2.39v2.42Z"/>
      <path class="cls-7" d="M113.15,186.94h-4.78c-.19,0-.32-.13-.32-.31s.13-.32.32-.32h4.81c.19,0,.32.13.32.32s-.16.31-.35.31"/>
      <path class="cls-7" d="M106.73,187.98h-3.14c-.16,0-.25.13-.25.25v3.14c0,.16.12.25.25.25h3.14c.16,0,.25-.12.25-.25v-3.14c0-.16-.09-.25-.25-.25M106.36,188.61v2.39h-2.39v-2.42h2.39"/>
      <path class="cls-7" d="M113.15,191.37h-4.78c-.19,0-.32-.13-.32-.31s.13-.32.32-.32h4.81c.19,0,.32.13.32.32s-.16.31-.35.31"/>
      <path class="cls-7" d="M106.73,192.41h-3.14c-.16,0-.25.13-.25.25v3.14c0,.16.12.25.25.25h3.14c.16,0,.25-.12.25-.25v-3.14c0-.16-.09-.25-.25-.25M106.36,195.46h-2.39v-2.42h2.39v2.42Z"/>
      <path class="cls-7" d="M113.15,195.81h-4.78c-.19,0-.32-.13-.32-.31s.13-.32.32-.32h4.81c.19,0,.32.13.32.32s-.16.31-.35.31"/>
    </g>
    <g>
      <path class="cls-11" d="M251.99,67.92v-8.76c0-.12.12-.23.24-.23h9.78c.12,0,.24.12.24.23v8.76c0,.12-.12.24-.24.24h-9.78c-.12,0-.24-.08-.24-.24M263.15,67.92v-8.76c0-.59-.51-1.1-1.1-1.1h-9.82c-.59,0-1.1.51-1.1,1.1v8.76c0,.59.51,1.1,1.1,1.1h9.78c.63,0,1.14-.47,1.14-1.1"/>
      <path class="cls-11" d="M260.44,60.65h-1.02c-.12,0-.23.12-.23.24v5.54c0,.12.12.24.23.24h1.02c.12,0,.24-.12.24-.24v-5.54c0-.12-.08-.24-.24-.24"/>
      <path class="cls-11" d="M257.65,60.65h-1.02c-.12,0-.23.12-.23.24v5.54c0,.12.12.24.23.24h1.02c.12,0,.24-.12.24-.24v-5.54c0-.12-.08-.24-.24-.24"/>
      <path class="cls-11" d="M254.86,60.65h-1.02c-.12,0-.24.12-.24.24v5.54c0,.12.12.24.24.24h1.02c.12,0,.24-.12.24-.24v-5.54c0-.12-.12-.24-.24-.24"/>
      <path class="cls-11" d="M255.68,80.02c0,.12-.12.24-.24.24h-9.78c-.12,0-.24-.12-.24-.24v-8.76c0-.12.12-.23.24-.23h9.78c.12,0,.24.12.24.23v8.76ZM255.45,70.16h-9.78c-.59,0-1.1.51-1.1,1.1v8.76c0,.59.51,1.1,1.1,1.1h9.78c.59,0,1.1-.51,1.1-1.1v-8.76c0-.63-.51-1.1-1.1-1.1"/>
      <path class="cls-11" d="M253.88,72.75h-1.06c-.12,0-.24.12-.24.24v5.54c0,.12.12.24.24.24h1.02c.12,0,.23-.12.23-.24v-5.54c.04-.12-.08-.24-.2-.24"/>
      <path class="cls-11" d="M251.09,72.75h-1.02c-.12,0-.23.12-.23.24v5.54c0,.12.12.24.23.24h1.02c.12,0,.24-.12.24-.24v-5.54c0-.12-.12-.24-.24-.24"/>
      <path class="cls-11" d="M248.26,72.75h-1.02c-.12,0-.23.12-.23.24v5.54c0,.12.12.24.23.24h1.02c.12,0,.24-.12.24-.24v-5.54c0-.12-.12-.24-.24-.24"/>
      <path class="cls-11" d="M268.84,71.06v9.15l-.04.04h-10.17l-.04-.04v-9.15l.04-.04h10.17l.04.04ZM257.73,71.06v9.15c0,.51.39.9.9.9h10.17c.51,0,.9-.39.9-.9v-9.15c0-.51-.39-.9-.9-.9h-10.17c-.51,0-.9.39-.9.9"/>
      <path class="cls-11" d="M266.02,78.8h1.02c.12,0,.24-.12.24-.24v-5.58c0-.12-.12-.24-.24-.24h-1.02c-.12,0-.24.12-.24.24v5.54c0,.16.12.27.24.27"/>
      <path class="cls-11" d="M263.23,78.8h1.02c.12,0,.23-.12.23-.24v-5.58c0-.12-.12-.24-.23-.24h-1.02c-.12,0-.24.12-.24.24v5.54c0,.16.12.27.24.27"/>
      <path class="cls-11" d="M260.44,78.8h1.02c.12,0,.23-.12.23-.24v-5.58c0-.12-.12-.24-.23-.24h-1.02c-.12,0-.24.12-.24.24v5.54c-.04.16.08.27.24.27"/>
    </g>
    <text class="cls-13" transform="translate(41.8 91.86)"><tspan x="0" y="0">Depots </tspan><tspan x="5.45" y="9.6">M&amp;R </tspan><tspan x="-1.92" y="19.2">vendors</tspan></text>
    <g>
      <path class="cls-11" d="M60.6,67.89v-8.76c0-.12.12-.23.24-.23h9.78c.12,0,.24.12.24.23v8.76c0,.12-.12.24-.24.24h-9.78c-.12,0-.24-.08-.24-.24M71.75,67.89v-8.76c0-.59-.51-1.1-1.1-1.1h-9.82c-.59,0-1.1.51-1.1,1.1v8.76c0,.59.51,1.1,1.1,1.1h9.78c.63,0,1.14-.47,1.14-1.1"/>
      <path class="cls-11" d="M69.04,60.62h-1.02c-.12,0-.23.12-.23.24v5.54c0,.12.12.24.23.24h1.02c.12,0,.24-.12.24-.24v-5.54c0-.12-.08-.24-.24-.24"/>
      <path class="cls-11" d="M66.26,60.62h-1.02c-.12,0-.23.12-.23.24v5.54c0,.12.12.24.23.24h1.02c.12,0,.24-.12.24-.24v-5.54c0-.12-.08-.24-.24-.24"/>
      <path class="cls-11" d="M63.47,60.62h-1.02c-.12,0-.24.12-.24.24v5.54c0,.12.12.24.24.24h1.02c.12,0,.24-.12.24-.24v-5.54c0-.12-.12-.24-.24-.24"/>
      <path class="cls-11" d="M64.29,79.99c0,.12-.12.24-.24.24h-9.78c-.12,0-.24-.12-.24-.24v-8.76c0-.12.12-.23.24-.23h9.78c.12,0,.24.12.24.23v8.76ZM64.06,70.13h-9.78c-.59,0-1.1.51-1.1,1.1v8.76c0,.59.51,1.1,1.1,1.1h9.78c.59,0,1.1-.51,1.1-1.1v-8.76c0-.63-.51-1.1-1.1-1.1"/>
      <path class="cls-11" d="M62.48,72.72h-1.06c-.12,0-.24.12-.24.24v5.54c0,.12.12.24.24.24h1.02c.12,0,.23-.12.23-.24v-5.54c.04-.12-.08-.24-.2-.24"/>
      <path class="cls-11" d="M59.69,72.72h-1.02c-.12,0-.23.12-.23.24v5.54c0,.12.12.24.23.24h1.02c.12,0,.24-.12.24-.24v-5.54c0-.12-.12-.24-.24-.24"/>
      <path class="cls-11" d="M56.87,72.72h-1.02c-.12,0-.23.12-.23.24v5.54c0,.12.12.24.23.24h1.02c.12,0,.24-.12.24-.24v-5.54c0-.12-.12-.24-.24-.24"/>
      <path class="cls-11" d="M77.45,71.03v9.15l-.04.04h-10.17l-.04-.04v-9.15l.04-.04h10.17l.04.04ZM66.33,71.03v9.15c0,.51.39.9.9.9h10.17c.51,0,.9-.39.9-.9v-9.15c0-.51-.39-.9-.9-.9h-10.17c-.51,0-.9.39-.9.9"/>
      <path class="cls-11" d="M74.62,78.77h1.02c.12,0,.24-.12.24-.24v-5.58c0-.12-.12-.24-.24-.24h-1.02c-.12,0-.24.12-.24.24v5.54c0,.16.12.27.24.27"/>
      <path class="cls-11" d="M71.83,78.77h1.02c.12,0,.23-.12.23-.24v-5.58c0-.12-.12-.24-.23-.24h-1.02c-.12,0-.24.12-.24.24v5.54c0,.16.12.27.24.27"/>
      <path class="cls-11" d="M69.04,78.77h1.02c.12,0,.23-.12.23-.24v-5.58c0-.12-.12-.24-.23-.24h-1.02c-.12,0-.24.12-.24.24v5.54c-.04.16.08.27.24.27"/>
    </g>
    <g>
      <path class="cls-11" d="M42.79,174.69h-2.61l-2.26-1.36v-1.95h3.65c.06,0,.12-.06.12-.12v-1.26c0-.06-.06-.13-.12-.13h-.28l-9.37-4.62s-.07-.06-.07-.09c0-.06-.06-.13-.12-.13h-1.01c-.06,0-.12.07-.12.13v.03s0,.06-.04.09l-5.15,4.59c-.07-.03-.13-.06-.13-.15v-2.23c0-.07-.06-.13-.12-.13h-4.09c-.06,0-.13.06-.13.13v2.26c0,.06-.06.12-.12.12h-.79c-.06,0-.13.07-.13.13v1.26c0,.06.07.12.13.12h4.69c.06,0,.12.07.12.13v14.51c.43.24.87.46,1.32.64v-1.98c0-.06.06-.12.13-.12h3.61c.1,0,.16.12.1.19l-1.98,2.51s.06.03.1.05c.07.02.21.07.41.1l1.84-2.32c.07-.09.23-.03.23.07v2.49c.18.02.35.02.53.02.22,0,.44-.02.66-.04v-16.12c0-.06.06-.13.13-.13h5.4v1.95l-2.29,1.36h-2.42c-.38,0-.69.31-.69.69v3.49c0,.37.31.69.69.69h10.12c.16,0,.32-.06.41-.16.12-.3.22-.6.31-.91v-3.14c.04-.35-.28-.66-.66-.66ZM22.8,168.96c0,.1-.07.16-.16.16h-.82c-.09,0-.15-.06-.15-.16v-.81c0-.1.06-.16.15-.16h.82c.09,0,.16.06.16.16v.81ZM26.16,171.51c0-.06.06-.13.13-.13h3.71c.09,0,.15.13.09.19l-3.71,4.75c-.06.09-.22.03-.22-.06v-4.75ZM26.16,182.95v-4.68c0-.06.06-.09.13-.09h3.61c.1,0,.16.12.1.18l-3.62,4.66c-.06.09-.22.03-.22-.07ZM30.6,183.21c0,.06-.07.12-.13.12h-3.46c-.09,0-.16-.12-.09-.19l3.45-4.46c.07-.1.23-.03.23.06v4.47ZM30.6,176.82c0,.07-.07.13-.13.13h-3.71c-.1,0-.16-.13-.1-.19l3.71-4.78c.07-.09.23-.03.23.06v4.78ZM30.6,169.75c0,.06-.07.12-.13.12h-3.96c-.1,0-.16-.12-.1-.22l4-3.55c.06-.06.19,0,.19.1v3.55ZM31.95,169.87c-.07,0-.13-.06-.13-.12v-3.74c0-.1.1-.16.16-.1l7.64,3.74c.12.07.06.22-.06.22h-7.61ZM37.64,173.81l1.48.88h-2.96l1.48-.88ZM43.01,178.84c0,.12-.09.22-.22.22h-10.12c-.13,0-.22-.1-.22-.22v-3.49c0-.13.09-.22.22-.22h10.12c.13,0,.22.09.22.22v3.49Z"/>
      <path class="cls-11" d="M41.75,178.36h.44c.1,0,.16-.09.16-.16v-2.23c0-.09-.06-.16-.16-.16h-.44c-.09,0-.16.06-.16.16v2.23c.03.09.06.16.16.16h0Z"/>
      <path class="cls-11" d="M40.37,178.36h.44c.06,0,.16-.09.16-.16v-2.23c0-.09-.06-.16-.16-.16h-.44c-.09,0-.16.06-.16.16v2.23c0,.09.06.16.16.16h0Z"/>
      <path class="cls-11" d="M38.92,178.36h.44c.1,0,.16-.09.16-.16v-2.23c0-.09-.06-.16-.16-.16h-.44c-.09,0-.16.06-.16.16v2.23c0,.09.06.16.16.16h0Z"/>
      <path class="cls-11" d="M37.54,178.36h.44c.09,0,.16-.09.16-.16v-2.23c0-.09-.06-.16-.16-.16h-.44c-.09,0-.16.06-.16.16v2.23c0,.09.06.16.16.16h0Z"/>
      <path class="cls-11" d="M36.13,178.36h.44c.06,0,.16-.09.16-.16v-2.23c0-.09-.06-.16-.16-.16h-.44c-.09,0-.16.06-.16.16v2.23c0,.09.06.16.16.16h0Z"/>
      <path class="cls-11" d="M34.71,178.36h.44c.09,0,.16-.09.16-.16v-2.23c0-.09-.06-.16-.16-.16h-.44c-.09,0-.16.06-.16.16v2.23c0,.09.06.16.16.16h0Z"/>
      <path class="cls-11" d="M33.3,178.36h.44c.1,0,.16-.09.16-.16v-2.23c0-.09-.06-.16-.16-.16h-.44c-.09,0-.16.06-.16.16v2.23c0,.09.06.16.16.16h0Z"/>
    </g>
    <g>
      <path class="cls-11" d="M238.68,268.11c0,.19-.16.35-.35.35h-3.11c-.19,0-.35-.16-.35-.35s.16-.34.35-.34h3.11c.19,0,.35.15.35.34Z"/>
      <path class="cls-11" d="M237.7,269.75c0,.19-.16.34-.34.34h-1.29c-.19,0-.35-.15-.35-.34s.16-.35.35-.35h1.29c.18,0,.34.16.34.35Z"/>
      <path class="cls-11" d="M236.66,256.04c-2.57.03-4.65,2.11-4.68,4.68,0,1.2.38,2.3,1.19,3.12,1.33,1.32,1.39,2.54,1.39,2.54,0,.35.28.63.63.63h3.11c.35,0,.63-.28.63-.63,0,0,.06-1.41,1.35-2.7.75-.76,1.07-1.82,1.07-2.96-.03-2.57-2.11-4.65-4.69-4.68ZM239.48,263.16c-1,1-1.05,2.1-1.05,2.1,0,.27-.22.49-.49.49h-2.42c-.27,0-.49-.22-.49-.49,0,0-.05-.95-1.08-1.98-.63-.64-.93-1.49-.93-2.43.03-1.99,1.64-3.61,3.64-3.64,2.01.03,3.63,1.65,3.65,3.64,0,.89-.25,1.72-.83,2.31Z"/>
      <path class="cls-11" d="M243.8,258.96l-.91.91c-.16.16-.41.16-.57,0-.15-.15-.15-.4,0-.56l.92-.91c.15-.16.4-.16.56,0,.16.15.16.41,0,.56Z"/>
      <path class="cls-11" d="M243.8,263.84c-.16.15-.41.15-.56,0l-.92-.92c-.15-.15-.15-.4,0-.56.16-.16.41-.16.57,0l.91.91c.16.16.16.41,0,.57Z"/>
      <path class="cls-11" d="M245.03,261.1c0,.19-.16.38-.38.38h-1.29c-.19,0-.38-.19-.38-.38s.16-.38.38-.38h1.29c.22,0,.38.19.38.38Z"/>
      <path class="cls-11" d="M231.13,259.91c-.16.15-.41.15-.57,0l-.91-.92c-.15-.15-.15-.41,0-.56.16-.16.41-.16.57,0l.91.91c.16.16.16.41,0,.57Z"/>
      <path class="cls-11" d="M231.13,262.92l-.91.92c-.16.15-.41.15-.57,0-.15-.16-.15-.41,0-.57l.91-.91c.16-.16.41-.16.57,0,.16.16.16.41,0,.56Z"/>
      <path class="cls-11" d="M230.47,261.13c0,.19-.16.38-.38.38h-1.29c-.18,0-.37-.19-.37-.38s.15-.37.37-.37h1.29c.19,0,.38.15.38.37Z"/>
      <path class="cls-11" d="M245.75,274.21c.38-.66.28-1.48-.28-2.04l-1.39-1.39c-.34-.34-.75-.5-1.19-.5s-.88.16-1.2.5l-1.35,1.36h-1.73l-4.3-1.89c-.22-.09-.41-.13-.63-.13-.6,0-1.13.35-1.42.92-.03.06-.03.09-.06.15l-2.55-2.54c-.31-.32-.69-.44-1.1-.44s-.78.15-1.1.44c-.31.31-.44.69-.44,1.1s.16.78.44,1.1l4.21,4.15c.16.15.32.25.51.34.19.07.38.13.6.13h4.96c0,.44.16.88.51,1.19l1.38,1.39c.35.34.75.5,1.19.5.29,0,.57-.09.82-.22l.35.35c.22-.1.44-.2.66-.31l-.47-.51,3.11-3.11.94.93c.16-.18.32-.36.46-.54l-.93-.93ZM237.89,274.71h-5.16c-.12,0-.22-.03-.34-.06-.1-.03-.19-.09-.29-.19l-4.18-4.12c-.15-.15-.25-.37-.25-.59s.1-.44.25-.6c.16-.16.38-.25.6-.25s.44.09.6.25l3.05,3.05.03.03c.12.38.41.69.82.88l1.38.63c.19.06.38,0,.47-.19.1-.19,0-.38-.19-.47l-1.38-.6c-.31-.16-.5-.44-.5-.78,0-.13.03-.26.06-.35.16-.31.44-.5.79-.5.12,0,.25.03.34.06l4.37,1.92h1.26l-1.38,1.38c-.16.16-.26.32-.35.5ZM245,274.05l-3.46,3.46c-.19.19-.44.29-.73.29s-.53-.1-.72-.29l-1.38-1.38c-.19-.19-.29-.44-.29-.72s.1-.51.29-.7l3.46-3.45c.18-.19.44-.29.72-.29s.53.1.72.29l1.39,1.38c.37.38.37,1.04,0,1.41Z"/>
      <path class="cls-11" d="M243.02,273.68c.13,0,.28-.06.38-.16.22-.22.22-.57,0-.79-.09-.1-.25-.16-.38-.16s-.28.06-.38.16c-.22.22-.22.57,0,.79.09.09.25.16.38.16h0Z"/>
      <path class="cls-11" d="M236.5,258.86s-.08.05-.12.07c-.5.19-.91.57-1.16,1.01-.08.12-.19.21-.32.23-.09.02-.19.01-.28-.04-.22-.13-.31-.38-.19-.6.35-.63.91-1.16,1.64-1.42.22-.09.5.04.56.29.08.15,0,.35-.13.46Z"/>
    </g>
    <g>
      <path class="cls-7" d="M99.89,139.29c-.06,0-.13-.03-.16-.06-.09-.09-.09-.22,0-.31.03-.03.09-.06.16-.06s.13.03.16.06c.03.03.06.09.06.16s-.03.13-.06.16c-.03.06-.09.06-.16.06"/>
      <path class="cls-7" d="M99.89,138.54c-.13,0-.28.06-.38.16-.22.22-.22.57,0,.76.09.09.25.16.38.16s.28-.06.38-.16c.22-.22.22-.57,0-.76-.09-.09-.22-.16-.38-.16h0Z"/>
      <path class="cls-7" d="M102.56,140.18c.38-.63.29-1.48-.25-2.05l-1.38-1.38c-.32-.31-.76-.5-1.2-.5s-.84.15-1.19.5l-1.35,1.35h-1.7l-4.25-1.82c-.75-.35-1.66,0-2.01.75-.03.07-.03.1-.06.16l-2.55-2.51c-.59-.6-1.57-.6-2.17,0-.59.59-.59,1.57,0,2.16l4.15,4.09c.16.16.32.25.51.35.19.09.41.12.59.12h4.94c0,.44.16.85.5,1.2l1.39,1.38c.31.32.75.5,1.19.5.28,0,.57-.06.82-.22l.71.71c.24-.09.46-.18.69-.27l-.9-.91,3.08-3.08c.51.51,1.03,1.06,1.54,1.57.11-.1.22-.21.32-.31.06-.06.12-.12.18-.19-.5-.51-1.09-1.1-1.6-1.6ZM94.8,140.71h-5.1c-.12,0-.22-.03-.34-.06-.1-.03-.19-.1-.28-.19l-4.15-4.09c-.32-.31-.32-.85,0-1.19.15-.16.37-.25.59-.25s.44.09.6.25l3.02,3.02v.03c.16.38.44.69.82.85l1.38.59s.09.04.13.04c.12,0,.25-.07.31-.22.09-.19.03-.38-.16-.48l-1.38-.59c-.41-.19-.6-.7-.41-1.1.19-.41.69-.6,1.1-.41l4.34,1.88h.03v.04h1.23l-1.39,1.38c-.15.16-.25.31-.34.5ZM101.81,140.05l-3.43,3.4c-.19.19-.44.28-.69.28s-.5-.09-.69-.28l-1.38-1.39c-.38-.37-.38-1,0-1.38l3.42-3.43c.19-.19.44-.28.69-.28s.51.09.7.28l1.38,1.39c.38.37.38,1,0,1.41Z"/>
      <path class="cls-7" d="M102.82,132.91l-6.92-11.47c-.19-.28-.5-.47-.85-.47s-.66.15-.85.47l-7.26,11.44c-.19.32-.22.69-.03,1.01.18.31.5.5.88.5h14.18c.34,0,.69-.19.88-.5.15-.28.15-.69-.03-.98ZM101.71,133.25c-.16.26-.46.43-.76.43h-12.15c-.32,0-.6-.17-.75-.43-.16-.28-.14-.59.02-.87l6.23-9.8c.16-.28.42-.4.72-.4s.57.16.73.4l5.93,9.83c.16.25.16.6.03.84Z"/>
      <polygon class="cls-7" points="95.89 124.82 95.67 129.96 94.11 129.96 93.89 124.82 95.89 124.82"/>
      <path class="cls-7" d="M96.21,132.1c0,.63-.53,1.16-1.25,1.16-.76,0-1.29-.5-1.29-1.16,0-.25.07-.48.21-.66,0,0,0-.02,0-.02.01-.01.01-.02.02-.03.17-.35.54-.58,1.04-.58.44,0,.78.2.96.51.02.02.03.04.05.06.16.19.25.44.25.72Z"/>
    </g>
    <g>
      <line class="cls-4" x1="234.96" y1="232.83" x2="325.15" y2="287.24"/>
      <polygon class="cls-12" points="235.55 238.38 236.23 233.6 240.15 230.77 228.83 229.13 235.55 238.38"/>
    </g>
    <g>
      <g>
        <path class="cls-11" d="M95.4,267.82h-.67c-.13,0-.22-.09-.22-.22v-3.34c0-.13.1-.22.22-.22h.67c.13,0,.22.1.22.22v3.34c0,.09-.1.22-.22.22"/>
        <path class="cls-11" d="M93.27,267.82h-.67c-.13,0-.22-.09-.22-.22v-3.34c0-.13.1-.22.22-.22h.67c.13,0,.22.1.22.22v3.34c.03.09-.1.22-.22.22"/>
        <path class="cls-11" d="M91.18,267.82h-.67c-.13,0-.22-.09-.22-.22v-3.34c0-.13.1-.22.22-.22h.67c.13,0,.22.1.22.22v3.34c.03.09-.1.22-.22.22"/>
        <path class="cls-11" d="M89.08,267.82h-.67c-.13,0-.22-.09-.22-.22v-3.34c0-.13.1-.22.22-.22h.67c.13,0,.22.1.22.22v3.34c.03.09-.1.22-.22.22"/>
        <path class="cls-11" d="M86.98,267.82h-.67c-.13,0-.22-.09-.22-.22v-3.34c0-.13.1-.22.22-.22h.67c.13,0,.22.1.22.22v3.34c.03.09-.1.22-.22.22"/>
        <path class="cls-11" d="M84.88,267.82h-.67c-.13,0-.22-.09-.22-.22v-3.34c0-.13.1-.22.22-.22h.67c.13,0,.22.1.22.22v3.34c.03.09-.1.22-.22.22"/>
        <path class="cls-11" d="M82.79,267.82h-.67c-.13,0-.22-.09-.22-.22v-3.34c0-.13.1-.22.22-.22h.67c.13,0,.22.1.22.22v3.34c.03.09-.1.22-.22.22"/>
        <path class="cls-11" d="M96.58,268.52c0,.19-.16.32-.32.32h-15.13c-.16-.03-.25-.16-.25-.32v-5.18c0-.19.16-.32.32-.32h15.03c.19,0,.32.16.32.32v5.18h.03ZM92.35,271.67c-.51,0-.92-.41-.92-.92s.41-.92.92-.92.92.41.92.92-.41.92-.92.92M83.36,271.67c-.51,0-.92-.41-.92-.92s.41-.92.92-.92.92.41.92.92-.41.92-.92.92M76.53,265.95l1.21-1.91h1.62v1.91h-2.83ZM76.11,271.67c-.51,0-.92-.41-.92-.92s.41-.92.92-.92.92.41.92.92-.41.92-.92.92M96.26,262.29h-15.03c-.57,0-1.02.45-1.02,1.02v5.21c0,.1.03.22.06.32h-.29v-5.05c0-.19-.16-.32-.32-.32h-2.22l-1.65,2.48h-2.51c-.19,0-.32.16-.32.32v3.72c0,.19.16.32.32.32h1.27c-.03.16-.06.29-.06.44,0,.92.76,1.68,1.68,1.68s1.68-.76,1.68-1.68c0-.16-.03-.32-.06-.44h4c-.03.16-.06.29-.06.44,0,.92.76,1.68,1.68,1.68s1.68-.76,1.68-1.68c0-.16-.03-.32-.06-.44h5.78c-.03.16-.06.29-.06.44,0,.92.76,1.68,1.68,1.68s1.68-.76,1.68-1.68c0-.16-.03-.32-.06-.44h1.88c.13,0,.22-.13.22-.29v-.48h.16c.57,0,1.02-.44,1.02-1.02v-5.18c-.06-.57-.54-1.05-1.08-1.05"/>
      </g>
      <rect class="cls-7" x="73.65" y="266.7" width="5.7" height="2.13"/>
    </g>
    <text class="cls-14" transform="translate(127.56 25.39)"><tspan x="0" y="0">Stakeholders</tspan></text>
  </g>
</svg>