<?xml version="1.0" encoding="UTF-8"?>
<svg id="Layer_2" data-name="Layer 2" xmlns="http://www.w3.org/2000/svg" viewBox="0 0 417.76 357.48">
  <defs>
    <style>
      .cls-1 {
        font-size: 12px;
      }

      .cls-1, .cls-2 {
        font-family: Poppins-Bold, Poppins;
        font-weight: 700;
      }

      .cls-1, .cls-2, .cls-3 {
        fill: #fff;
      }

      .cls-2 {
        font-size: 14px;
      }

      .cls-4 {
        fill: #058f92;
      }

      .cls-4, .cls-3, .cls-5 {
        stroke-width: 0px;
      }

      .cls-5 {
        fill: #23212f;
      }
    </style>
  </defs>
  <g id="Layer_1-2" data-name="Layer 1">
    <rect class="cls-4" y="20.54" width="158.21" height="203.54" rx="13.67" ry="13.67"/>
    <rect class="cls-5" x="166.53" y="129.63" width="100.31" height="94.46" rx="13.67" ry="13.67"/>
    <rect class="cls-4" x="166.53" width="251.23" height="120.62" rx="13.67" ry="13.67"/>
    <rect class="cls-4" x="275.02" y="128.77" width="142.74" height="206.89" rx="13.67" ry="13.67"/>
    <rect class="cls-4" y="233.43" width="266.84" height="124.05" rx="13.67" ry="13.67"/>
    <text class="cls-1" transform="translate(61.38 170.35)"><tspan x="0" y="0">Customers of </tspan><tspan x="-31.08" y="14.4">shipping (shippers</tspan><tspan x="-44.6" y="28.8">&amp; freight forwarders)</tspan></text>
    <text class="cls-1" transform="translate(306.83 265.29)"><tspan x="0" y="0">Banks, insurers,</tspan><tspan x="3.22" y="14.4">other modes of </tspan><tspan x="-4.75" y="28.8">transport, ports, </tspan><tspan x="75.62" y="43.2">etc.</tspan></text>
    <text class="cls-1" transform="translate(181.62 87.36)"><tspan x="0" y="0">Technology</tspan><tspan x="0" y="14.4">solution providers</tspan></text>
    <text class="cls-1" transform="translate(17.11 326.1)"><tspan x="0" y="0">Authorities &amp;</tspan><tspan x="0" y="14.4">standards bodies</tspan></text>
    <g>
      <path class="cls-3" d="M134.95,134.83c-3.64,3.64-8.66,5.9-14.22,5.9s-10.58-2.26-14.22-5.9c-3.64-3.64-5.9-8.66-5.9-14.21s2.26-10.58,5.9-14.22c3.64-3.64,8.66-5.9,14.22-5.9s10.58,2.26,14.22,5.9c3.64,3.64,5.9,8.66,5.9,14.22s-2.26,10.58-5.9,14.21M120.73,97.94c-12.49,0-22.68,10.13-22.68,22.68s10.13,22.68,22.68,22.68,22.68-10.13,22.68-22.68-10.13-22.68-22.68-22.68"/>
      <path class="cls-3" d="M128.7,133.36c-1.23,1.08-2.8,2.21-3.88,3-.2.15-.3.2-.35.25h-10.23c-.49,0-.94-.2-1.28-.54-.34-.34-.54-.79-.54-1.28v-5.17c0-1.03.84-1.82,1.82-1.82h9.69c.44,0,.69.05.79.1,1.43,1.03,2.7,2.16,4.08,3.34.2.2.34.54.34.93.05.44-.15.89-.44,1.18M126.14,123.97h-10.23c-.44,0-.79-.35-.79-.79v-12.84c0-.25-.2-.39-.39-.39-.15,0-.34.1-.39.29l-.89,2.8c0,.35-.29.54-.64.54h-.2l-1.77-.44c-.44-.1-.69-.59-.54-1.03l1.77-5.02.05-.1c.15-.3,1.08-2.07,3.15-2.07h2.21c.15,1.87,1.67,3.34,3.59,3.34.98,0,1.92-.39,2.56-1.08.59-.59.98-1.43,1.03-2.31h2.31c2.02,0,3,1.77,3.15,2.07l.05.1,1.67,5.07c.15.44-.1.93-.54,1.03l-1.77.44h-.2c-.34,0-.64-.2-.74-.54l-.89-2.8c-.05-.2-.2-.29-.39-.29s-.39.15-.39.39v12.84c0,.44-.35.79-.79.79M121.08,104.98h2.31c-.15,1.18-1.13,2.12-2.36,2.12-.64,0-1.23-.25-1.67-.69-.39-.39-.64-.89-.69-1.43h2.41ZM130.32,122.34c-.79,0-1.53.2-2.16.49v-8.36c.34.25.74.39,1.18.39.15,0,.34,0,.49-.05l1.77-.44c.54-.15,1.03-.49,1.28-.98.3-.49.3-1.08.15-1.62l-1.77-5.07c-.05-.1-.05-.15-.1-.25-.25-.44-1.48-2.7-4.23-2.7h-11.66c-2.76,0-4.03,2.26-4.28,2.7-.05.1-.05.15-.1.25l-1.77,5.02c-.2.54-.15,1.13.15,1.62.3.49.74.89,1.28.98l1.77.44c.15.05.34.05.49.05.44,0,.84-.15,1.18-.39v8.71c0,1.13.89,2.02,2.02,2.02h10.18c.49,0,.93-.2,1.28-.44l.05.05c.74-.79,1.72-1.23,2.85-1.23s2.07.44,2.76,1.13,1.13,1.67,1.13,2.76-.44,2.07-1.13,2.75-1.67,1.13-2.76,1.13v.05c-.1-.44-.34-.84-.69-1.13-1.48-1.28-2.75-2.41-4.18-3.44-.44-.3-.98-.34-1.53-.34h-9.69c-1.67,0-3.05,1.38-3.05,3.05v5.16c0,1.67,1.38,3.05,3.05,3.1h9.69c.84,0,.84.05,1.62-.44,1.28-.89,2.8-2.02,3.98-3.1.44-.39.74-1.03.84-1.62,2.8-.05,5.12-2.31,5.12-5.16-.05-2.81-2.36-5.07-5.21-5.07"/>
      <path class="cls-3" d="M119.55,131.59l-.49-.15c-.3-.15-.44-.3-.44-.54,0-.3.2-.49.49-.54,0,0,.3-.05.49.05.2.05.35.25.39.44,0,.05.05.1.1.1h1.23s.1-.05.1-.1c-.1-.89-.69-1.38-1.62-1.48v-.54s-.05-.1-.1-.1h-.64c-.05,0-.1.05-.1.1v.54c-.98.1-1.72.69-1.72,1.62,0,1.23,1.03,1.48,1.87,1.67l.49.15c.3.1.49.3.49.54,0,.3-.25.54-.49.54-.25.05-.44,0-.49,0-.25-.1-.39-.25-.44-.49,0-.05-.05-.1-.1-.1h-1.23s-.1.05-.1.1c.1.89.74,1.38,1.67,1.53v.54s.05.1.1.1h.64s.1-.05.1-.1v-.54c1.13-.1,1.72-.84,1.72-1.62,0-1.28-1.08-1.48-1.92-1.72"/>
    </g>
    <g>
      <path class="cls-3" d="M206.51,49.03h-4.87c-.29,0-.54.25-.54.54s.25.54.54.54h4.87c.3,0,.54-.25.54-.54s-.25-.54-.54-.54h0Z"/>
      <path class="cls-3" d="M204.98,51.59h-2.02c-.3,0-.54.25-.54.54s.25.54.54.54h2.02c.3,0,.54-.25.54-.54s-.25-.54-.54-.54h0Z"/>
      <path class="cls-3" d="M203.9,30.66c-4.03.05-7.28,3.3-7.33,7.34,0,1.87.59,3.59,1.87,4.87,2.07,2.07,2.16,3.99,2.16,3.99,0,.54.45.99.99.99h4.87c.54,0,.98-.45.98-.99,0,0,.1-2.21,2.12-4.23,1.18-1.18,1.67-2.86,1.67-4.63-.05-4.04-3.3-7.29-7.33-7.34ZM208.49,41.99c-1.64,1.64-1.72,3.44-1.72,3.44,0,.44-.35.8-.79.8h-3.96c-.44,0-.79-.36-.79-.8,0,0-.08-1.56-1.76-3.24-1.04-1.04-1.52-2.44-1.52-3.96.04-3.27,2.68-5.91,5.95-5.95,3.27.04,5.91,2.68,5.95,5.95,0,1.44-.4,2.8-1.36,3.76Z"/>
      <path class="cls-3" d="M213.64,36.67l1.43-1.43c.25-.25.25-.64,0-.89-.25-.25-.64-.25-.89,0l-1.43,1.43c-.25.25-.25.64,0,.89.25.25.64.25.89,0h0Z"/>
      <path class="cls-3" d="M213.64,40.56c-.25-.25-.64-.25-.89,0-.25.25-.25.64,0,.89l1.43,1.43c.25.25.64.25.89,0,.25-.25.25-.64,0-.89l-1.43-1.43Z"/>
      <path class="cls-3" d="M216.39,38h-2.02c-.34,0-.59.3-.59.59s.29.59.59.59h2.02c.34,0,.59-.3.59-.59s-.25-.59-.59-.59h0Z"/>
      <path class="cls-3" d="M193.82,34.41c-.25-.25-.64-.25-.89,0-.25.25-.25.64,0,.89l1.43,1.43c.25.25.64.25.89,0,.25-.25.25-.64,0-.89l-1.43-1.43Z"/>
      <path class="cls-3" d="M194.36,40.56l-1.43,1.43c-.25.25-.25.64,0,.89.25.25.64.25.89,0l1.43-1.43c.25-.25.25-.64,0-.89-.25-.25-.64-.25-.89,0h0Z"/>
      <path class="cls-3" d="M194.21,38.64c0-.34-.3-.59-.59-.59h-2.02c-.34,0-.59.29-.59.59s.3.59.59.59h2.02c.34,0,.59-.29.59-.59h0Z"/>
      <path class="cls-3" d="M204.29,25.14c-12.54,0-22.67,10.15-22.67,22.71s10.13,22.7,22.67,22.7,22.68-10.15,22.68-22.7-10.13-22.71-22.68-22.71ZM218.51,62.13c-1.48,1.48-3.2,2.71-5.07,3.69l-.93-.98,4.87-4.88,1.62,1.63c-.15.19-.34.34-.49.54ZM200.8,57.35l-2.16-.93c-.49-.25-.79-.69-.79-1.23,0-.2.05-.4.1-.55.24-.49.69-.78,1.23-.78.2,0,.39.04.54.09l6.84,3.01h1.96l-2.16,2.17c-.25.24-.39.49-.54.78h-8.07c-.2,0-.34-.05-.54-.1-.15-.04-.29-.14-.44-.29l-6.54-6.45c-.25-.25-.4-.59-.4-.94s.15-.69.4-.93c.24-.25.59-.4.93-.4s.69.15.93.4l4.78,4.77.05.05c.19.59.63,1.09,1.27,1.38l2.17.99c.29.09.59,0,.74-.3.14-.29,0-.59-.3-.74ZM207.1,59.91l5.41-5.41c.29-.3.69-.45,1.13-.45s.84.15,1.13.45l2.17,2.16c.59.59.59,1.63,0,2.22l-5.42,5.42c-.29.29-.68.44-1.13.44s-.83-.15-1.13-.44l-2.16-2.17c-.3-.3-.45-.69-.45-1.13s.15-.79.45-1.09ZM219.74,60.75l-1.62-1.62c.59-1.04.44-2.32-.45-3.21l-2.16-2.16c-.54-.54-1.18-.79-1.87-.79s-1.38.25-1.87.79l-2.11,2.11h-2.71l-6.74-2.95c-.34-.15-.64-.2-.98-.2-.94,0-1.77.54-2.22,1.43-.05.1-.05.15-.09.25l-3.99-3.99c-.49-.49-1.08-.69-1.72-.69s-1.23.25-1.72.69c-.49.49-.69,1.08-.69,1.72s.25,1.23.69,1.73l6.59,6.5c.24.24.49.39.79.54.29.1.59.2.93.2h7.77c0,.68.25,1.37.79,1.87l2.16,2.16c.55.55,1.19.79,1.87.79.45,0,.89-.15,1.28-.34l.74.73c-2.46,1.09-5.21,1.73-8.12,1.73-5.55,0-10.57-2.27-14.21-5.91-3.64-3.65-5.91-8.67-5.91-14.23s2.27-10.59,5.91-14.24c3.64-3.64,8.66-5.91,14.21-5.91s10.58,2.27,14.22,5.91c3.64,3.65,5.9,8.67,5.9,14.24,0,4.87-1.77,9.35-4.67,12.85Z"/>
      <path class="cls-3" d="M213.84,58.29c.2,0,.44-.1.59-.25.34-.34.34-.89,0-1.23-.15-.15-.39-.25-.59-.25s-.44.1-.59.25c-.34.34-.34.89,0,1.23.15.15.39.25.59.25h0Z"/>
      <path class="cls-4" d="M203.9,32.28c-3.27.04-5.91,2.68-5.95,5.95,0,1.52.48,2.92,1.52,3.96,1.68,1.68,1.76,3.24,1.76,3.24,0,.44.35.8.79.8h3.96c.44,0,.79-.36.79-.8,0,0,.08-1.8,1.72-3.44.96-.96,1.36-2.32,1.36-3.76-.04-3.27-2.68-5.91-5.95-5.95ZM203.69,35.02c-.06.07-.14.13-.23.17-.79.3-1.43.89-1.82,1.58-.14.24-.37.38-.61.38-.11,0-.22-.03-.33-.09-.34-.19-.49-.59-.29-.93.54-.99,1.42-1.83,2.56-2.22.34-.15.78.05.88.44.11.22.03.49-.16.67Z"/>
      <path class="cls-3" d="M203.69,35.02c-.06.07-.14.13-.23.17-.79.3-1.43.89-1.82,1.58-.14.24-.37.38-.61.38-.11,0-.22-.03-.33-.09-.34-.19-.49-.59-.29-.93.54-.99,1.42-1.83,2.56-2.22.34-.15.78.05.88.44.11.22.03.49-.16.67Z"/>
    </g>
    <g>
      <path class="cls-3" d="M388.37,207.76c.2.2.49.2.69.05.2-.2.2-.49.05-.69l-.74-.74c-.2-.2-.49-.2-.69.05-.2.2-.2.49.05.69.2.15.44.39.64.64"/>
      <path class="cls-3" d="M390.19,210.27h.25c.25,0,.49.05.74.05.05-.1,0-.25-.05-.35-.15-.29-.35-.59-.49-.89-.15-.25-.44-.29-.69-.15-.25.15-.3.44-.15.69.15.2.29.44.39.64"/>
      <path class="cls-3" d="M369.88,206.93c-.25.25-.44.49-.69.79-.15.2-.15.54.05.69.2.15.54.15.69-.05.2-.25.39-.49.64-.74.2-.2.2-.49,0-.69-.15-.2-.49-.2-.69,0"/>
      <path class="cls-3" d="M381.93,227.88c-.3.05-.64.1-.93.15-.25.05-.44.3-.44.54.05.25.3.44.54.44.34-.05.69-.1,1.03-.15.25-.05.44-.3.39-.59-.05-.25-.34-.44-.59-.39"/>
      <path class="cls-3" d="M385.03,226.8c-.3.15-.59.3-.84.39-.25.1-.35.39-.25.64.1.25.39.35.64.25.3-.15.64-.29.93-.44.25-.15.34-.44.2-.64-.15-.2-.44-.34-.69-.2"/>
      <path class="cls-3" d="M378.63,228.13c-.3,0-.64-.05-.93-.1-.25-.05-.54.15-.54.39-.05.25.15.54.39.54.34.05.69.1,1.03.1.3,0,.49-.2.54-.44,0-.25-.25-.49-.49-.49"/>
      <path class="cls-3" d="M375.39,227.49c-.3-.1-.59-.25-.89-.34-.25-.1-.54,0-.64.24-.1.25,0,.54.25.64.29.15.64.24.93.39.24.1.54-.05.64-.3.1-.3-.05-.59-.3-.64"/>
      <path class="cls-3" d="M393.83,229.06c-3.64,3.64-8.66,5.9-14.22,5.9s-10.58-2.26-14.22-5.9c-3.64-3.64-5.9-8.66-5.9-14.22s2.26-10.58,5.9-14.22c3.64-3.64,8.66-5.9,14.22-5.9s10.58,2.26,14.22,5.9c3.64,3.64,5.9,8.66,5.9,14.22s-2.26,10.58-5.9,14.22M379.62,192.17c-12.49,0-22.68,10.13-22.68,22.68s10.13,22.68,22.68,22.68,22.68-10.13,22.68-22.68-10.13-22.68-22.68-22.68"/>
      <path class="cls-3" d="M383.16,208.9c-.25,0-.49-.15-.69-.59-.15-.49-1.33-4.18-1.33-4.18v6.2h-3.64v-6.39s-.59,2.51-1.28,4.38c-.2.44-.44.59-.69.59-.34,0-.69-.35-.64-.59.15-.54,1.48-4.62,1.48-4.62,0,0,.34-.74,1.13-.74.49.3,1.13.49,1.77.49s1.23-.2,1.77-.49h.15c.89,0,1.23.74,1.23.74,0,0,1.33,4.23,1.48,4.57,0,.25-.35.64-.74.64M379.27,197.68c1.33,0,2.36,1.08,2.36,2.36s-1.08,2.36-2.36,2.36-2.36-1.08-2.36-2.36,1.08-2.36,2.36-2.36M384.73,207.91c-.1-.25-.93-2.9-1.43-4.53l-.05-.1c-.15-.39-.59-.98-1.33-1.23.44-.59.69-1.28.69-2.02,0-1.87-1.52-3.35-3.35-3.35s-3.34,1.52-3.34,3.35c0,.79.29,1.52.74,2.07-.59.3-.98.79-1.13,1.13l-.05.1c-.24.69-1.38,4.13-1.52,4.67v.05c-.05.39.05.84.35,1.18.29.39.79.59,1.28.59.2,0,.59-.05.98-.34v.79c0,.54.44.98.98.98h3.64c.54,0,.98-.44.98-.98v-.79c.39.34.84.39,1.03.39.54,0,1.08-.3,1.43-.74.2-.39.25-.84.1-1.23"/>
      <path class="cls-3" d="M372.63,223.9c-.25,0-.49-.15-.69-.59-.15-.49-1.33-4.18-1.33-4.18v6.2h-3.64v-6.39s-.59,2.51-1.28,4.38c-.2.44-.44.59-.69.59-.34,0-.69-.35-.64-.59.15-.54,1.48-4.62,1.48-4.62,0,0,.34-.74,1.13-.74.49.3,1.13.49,1.77.49s1.23-.2,1.77-.49h.15c.89,0,1.23.74,1.23.74,0,0,1.33,4.23,1.48,4.57,0,.25-.35.64-.74.64M368.74,212.68c1.33,0,2.36,1.08,2.36,2.36s-1.08,2.36-2.36,2.36-2.36-1.08-2.36-2.36,1.03-2.36,2.36-2.36M374.2,222.92c-.1-.25-.93-2.9-1.43-4.53l-.05-.1c-.15-.39-.59-.98-1.33-1.23.44-.59.69-1.28.69-2.02,0-1.87-1.52-3.35-3.35-3.35s-3.34,1.53-3.34,3.35c0,.79.29,1.52.74,2.07-.59.3-.98.79-1.13,1.13l-.05.1c-.25.69-1.38,4.13-1.53,4.67v.05c-.05.39.05.84.35,1.18.29.39.79.59,1.28.59.2,0,.59-.05.98-.34v.79c0,.54.44.98.98.98h3.64c.54,0,.98-.44.98-.98v-.79c.39.34.84.39,1.03.39.54,0,1.08-.29,1.43-.74.2-.39.25-.84.1-1.23"/>
      <path class="cls-3" d="M394.32,223.9c-.25,0-.49-.15-.69-.59-.15-.49-1.33-4.18-1.33-4.18v6.2h-3.64v-6.39s-.59,2.51-1.28,4.38c-.2.44-.44.59-.69.59-.35,0-.69-.35-.64-.59.15-.54,1.48-4.62,1.48-4.62,0,0,.34-.74,1.13-.74.49.3,1.13.49,1.77.49s1.23-.2,1.77-.49h.15c.89,0,1.23.74,1.23.74,0,0,1.33,4.23,1.48,4.57,0,.25-.34.64-.74.64M390.44,212.68c1.33,0,2.36,1.08,2.36,2.36s-1.08,2.36-2.36,2.36-2.36-1.08-2.36-2.36,1.08-2.36,2.36-2.36M395.95,222.92c-.1-.25-.93-2.9-1.43-4.53l-.05-.1c-.15-.39-.59-.98-1.33-1.23.44-.59.69-1.28.69-2.02,0-1.87-1.52-3.35-3.35-3.35s-3.34,1.53-3.34,3.35c0,.79.29,1.52.74,2.07-.59.3-.98.79-1.13,1.13l-.05.1c-.25.69-1.38,4.13-1.53,4.67v.05c-.1.39.05.84.35,1.18.29.39.79.59,1.28.59.2,0,.59-.05.98-.34v.79c0,.54.44.98.98.98h3.64c.54,0,.98-.44.98-.98v-.79c.39.34.84.39,1.03.39.54,0,1.08-.29,1.43-.74.15-.39.2-.84.1-1.23"/>
      <path class="cls-3" d="M368.69,210.27c.1-.25,0-.49-.2-.64-.25-.15-.54-.05-.69.2-.1.2-.2.39-.3.59.39-.05.79-.15,1.18-.15"/>
      <path class="cls-3" d="M373.27,205.5c.05-.1.05-.2.1-.3,0-.05.05-.1.05-.15s-.05-.1-.05-.15c-.15-.25-.44-.3-.69-.15-.3.2-.59.35-.84.54-.25.15-.29.44-.1.69s.44.29.69.1c.25-.2.54-.34.79-.54,0,0,0-.05.05-.05"/>
      <path class="cls-3" d="M386.35,204.81c-.3-.2-.59-.34-.89-.49-.15-.05-.25-.05-.39,0,.1.39.25.79.34,1.13.15.1.3.15.39.25.25.15.54.05.69-.15.15-.2.1-.59-.15-.74"/>
    </g>
    <g>
      <path class="cls-3" d="M39.98,261.69c-12.55,0-22.68,10.13-22.68,22.67s10.13,22.68,22.68,22.68,22.67-10.13,22.67-22.68-10.13-22.67-22.67-22.67ZM54.19,298.58c-3.64,3.64-8.65,5.9-14.21,5.9s-10.58-2.26-14.22-5.9c-3.64-3.64-5.9-8.66-5.9-14.22s2.26-10.57,5.9-14.21c3.64-3.64,8.66-5.9,14.22-5.9s10.57,2.26,14.21,5.9,5.91,8.66,5.91,14.21-2.27,10.58-5.91,14.22Z"/>
      <path class="cls-3" d="M38.21,273.15c0,.89.69,1.57,1.57,1.57s1.57-.69,1.57-1.57-.69-1.57-1.57-1.57-1.57.69-1.57,1.57h0Z"/>
      <path class="cls-3" d="M56.8,276.59l-16.68-9.44c-.19-.1-.39-.1-.59,0l-16.33,9.44c-.24.15-.34.45-.29.69.05.25.29.44.59.44h3.54c-.1.15-.2.35-.2.54,0,.5.4.84.84.84h.15v11.17h-.15c-.49,0-.84.39-.84.83,0,.15.05.25.1.4h-2.01c-.2,0-.4.1-.55.19-.14.15-.19.35-.19.54v3.99c0,.2.1.39.19.54.15.15.35.2.55.2h29.81c.19,0,.39-.1.53-.2.15-.15.2-.34.2-.54v-3.99c0-.19-.1-.39-.2-.54-.19-.09-.39-.19-.53-.19h-2.22c.05-.1.1-.25.1-.4,0-.44-.35-.83-.79-.83v-11.17c.44-.05.79-.39.79-.84,0-.19-.05-.39-.2-.54h4.08c.3,0,.55-.19.6-.44.04-.24-.05-.54-.3-.69ZM54.14,293.02v2.73h-28.38v-2.73h28.38ZM29.11,290.27v-11.12h3.44v11.12h-3.44ZM34.27,277.72h1.92c-.1.15-.2.35-.2.54,0,.5.4.84.84.84h.05v11.17c-.49,0-.89.39-.89.83,0,.15.05.25.1.4h-1.72c.05-.1.1-.25.1-.4,0-.44-.3-.78-.69-.83v-11.17c.39-.05.69-.44.69-.84,0-.19-.05-.39-.2-.54ZM38.11,290.27v-11.12h3.44v11.12h-3.44ZM43.42,277.72h1.77c-.1.15-.2.35-.2.54,0,.5.4.84.84.84h.05v11.17h-.05c-.49,0-.84.39-.84.83,0,.15.05.25.1.4h-1.57c.05-.1.1-.25.1-.4,0-.44-.35-.83-.84-.83v-11.17c.44,0,.84-.39.84-.84,0-.19-.05-.39-.2-.54ZM47.11,290.27v-11.12h3.44v11.12h-3.44ZM25.76,276.54l14.07-8.16,14.31,8.16h-28.38Z"/>
    </g>
    <text class="cls-2" transform="translate(176.27 174.74)"><tspan x="0" y="0">DCSA &amp; </tspan><tspan x="0" y="16.8">Ocean </tspan><tspan x="0" y="33.6">Carriers</tspan></text>
  </g>
</svg>