<?xml version="1.0" encoding="UTF-8"?>
<svg id="Layer_2" data-name="Layer 2" xmlns="http://www.w3.org/2000/svg" viewBox="0 0 225.7 155.6">
  <defs>
    <style>
      .cls-1 {
        fill: #f2b10c;
      }

      .cls-2 {
        fill: #001647;
      }
    </style>
  </defs>
  <g id="Layer_1-2" data-name="Layer 1">
    <g>
      <polygon class="cls-1" points="225.7 84.8 225.7 155.6 209.7 155.6 209.7 110.6 199.9 126.3 190.5 141.5 181 126.3 171.3 110.6 171.3 155.6 155.3 155.6 155.3 84.8 174.1 84.8 190.5 111.1 206.8 84.8 225.7 84.8"/>
      <g>
        <path class="cls-2" d="m104.8,33.6s-.2.1-.7.4c-.5.2-1.1.6-1.9,1.1-1.6,1-3.8,2.7-6.1,5-2.2,2.4-4.4,5.5-5.7,9.3-.7,1.9-1.1,3.9-1.2,6s0,4.2.4,6.3c.4,2.1,1.1,4.1,1.9,5.9.9,1.8,2,3.4,3.4,4.7,2.8,2.6,6.4,4.1,9.5,4.7s5.9.4,7.7.1c.9-.2,1.6-.4,2.1-.5.5-.2.7-.2.7-.2l.5-.1.4.9-.5.2s-.3.1-.7.3c-.5.2-1.2.5-2.2.8s-2.2.6-3.6.7-3,.2-4.8,0c-1.7-.2-3.6-.7-5.5-1.4-1.9-.7-3.8-1.8-5.5-3.3s-3.3-3.4-4.3-5.5-1.7-4.4-2.1-6.7c-.4-2.3-.4-4.7-.1-7,.2-2.3.8-4.5,1.6-6.6,1.6-4.1,4.2-7.4,6.7-9.7,2.5-2.4,5-3.9,6.7-4.8.9-.5,1.6-.8,2.1-1s.7-.3.7-.3l.5-.2.4.9h-.4Z"/>
        <path class="cls-2" d="m155.2,104.1c-.1-3.1-.1-6.3-.2-9.4-.1-3.1-.1-6.3-.1-9.4l-.1-9.4v-28.3c0-3.1.1-6.3.2-9.4.1-1.6.1-3.1.2-4.7.1-1.6.2-3.1.3-4.7v-.1h0c.4-2,1.2-3.9,2.2-5.6.3-.5.6-.8.8-1.3.3-.4.6-.8,1-1.2.7-.8,1.4-1.5,2.2-2.2.8-.6,1.6-1.3,2.5-1.8s1.8-1,2.7-1.4c1.9-.8,3.8-1.4,5.8-1.6h0v1c-1.7-.2-3.4-.3-5.1-.2l-1.3.1c-.4,0-.8.1-1.2.1-.4.1-.8.1-1.2.1-.4.1-.8.1-1.2.2-1.6.3-3.3.7-4.9,1.2-.8.3-1.6.5-2.4.8-.8.3-1.6.6-2.4.9h0l-.2.1-.2-.1c-3-1.1-6-2.2-9.1-3.2-3-1-6.1-1.9-9.1-2.8-3.1-.9-6.1-1.7-9.2-2.4-1.5-.4-3.1-.7-4.6-1s-3.1-.6-4.7-.9c-3.1-.5-6.2-1-9.3-1.3-1.6-.2-3.1-.3-4.7-.4-1.6-.1-3.1-.2-4.7-.3-3.2-.2-6.3-.2-9.5-.2-1.6,0-3.2,0-4.7.1l-4.7.2c-3.2.2-6.3.4-9.5.7s-6.3.6-9.5,1c-3.2.4-6.3.9-9.4,1.4-3.1.5-6.3,1.1-9.4,1.7-3.1.7-6.2,1.3-9.3,2.1-3.1.8-6.2,1.6-9.2,2.5s-6.1,1.9-9,3c-3,1.2-5.9,2.4-8.6,4l-.6-.8c2.6-2,5.4-3.6,8.3-5.1,2.9-1.5,5.9-2.7,8.9-3.9,3-1.2,6.1-2.2,9.2-3.2,3.1-1,6.2-1.9,9.3-2.7s6.3-1.6,9.5-2.2c3.2-.7,6.4-1.2,9.6-1.7s6.4-1,9.7-1.3c3.2-.4,6.5-.6,9.7-.8l4.9-.2c1.6,0,3.3-.1,4.9-.1,3.3,0,6.5.1,9.8.3,1.6.1,3.3.2,4.9.3l2.4.2,2.4.3c3.2.4,6.5,1,9.7,1.7,1.6.3,3.1.7,4.7,1.1,1.6.4,3.1.9,4.7,1.4,3.1.9,6.2,2,9.2,3.2,3,1.2,6,2.5,8.9,3.9s5.8,3,8.6,4.6h-.5c.7-.6,1.4-1.2,2.2-1.7s1.6-.9,2.4-1.3c.4-.2.8-.4,1.3-.5.4-.2.9-.3,1.3-.5.9-.3,1.8-.5,2.7-.6s1.8-.3,2.8-.3h1.4c.5,0,.8.1,1.4.1,1.8.2,3.6.6,5.3,1.4l1.1.5-1.1.5h0c-1.8.8-3.5,1.6-5.1,2.5-.8.5-1.6,1-2.4,1.5-.8.5-1.5,1.1-2.2,1.7s-1.4,1.2-2,1.9c-.3.3-.6.6-.9,1l-.9,1.1c-1.1,1.5-2.1,3.1-3,4.8h0v-.2c.1,1.6.2,3.1.3,4.7.1,1.6.1,3.1.2,4.7.1,3.1.1,6.3.1,9.4,0,6.3-.1,12.6-.1,18.9,0,3.1,0,6.3-.1,9.4l-.2,9.4c-.1,3.1-.1,6.3-.2,9.4-.1,3.1-.2,6.3-.3,9.4l-1.4-.1Z"/>
        <path class="cls-2" d="m61.8,114.5s-.1-.3-.2-.8c-.1-.6-.3-1.4-.6-2.4-.1-.5-.2-1.1-.4-1.7-.1-.6-.2-1.3-.3-2.1-.2-1.5-.4-3.2-.4-5,0-.9,0-1.9-.1-2.9,0-1,.1-2,.2-3.1.1-2.1.4-4.3.8-6.6.2-1.1.5-2.3.7-3.4.3-1.2.5-2.3.9-3.5s.7-2.3,1.1-3.5c.4-1.1.9-2.3,1.3-3.4.2-.6.4-1.2.7-1.7l.8-1.7c.6-1.1,1-2.2,1.7-3.3.6-1,1.2-2.1,1.8-3.1.6-1,1.3-2,1.9-2.9.3-.5.6-.9,1-1.4.3-.5.7-.9,1-1.3.7-.9,1.4-1.7,2-2.5.7-.8,1.4-1.5,2.1-2.2.3-.4.7-.7,1-1.1.3-.3.7-.6,1-1,1.4-1.2,2.6-2.4,3.8-3.2,1.2-.9,2.2-1.7,3.1-2.2,1.8-1.1,2.9-1.7,2.9-1.7l.5.9s-1,.7-2.6,2c-.9.6-1.8,1.5-2.9,2.4s-2.2,2.1-3.4,3.4c-.3.3-.6.6-.9,1s-.6.7-.9,1.1c-.6.7-1.2,1.5-1.9,2.3-.6.8-1.2,1.7-1.8,2.5-.3.4-.6.9-.9,1.3-.3.5-.6.9-.9,1.4-.6.9-1.2,1.9-1.8,2.9-.5,1-1.1,2-1.6,3-.6,1-1,2.1-1.5,3.2s-1,2.1-1.4,3.2-.9,2.2-1.3,3.3c-.3,1.1-.7,2.2-1,3.3-.4,1.1-.6,2.2-.9,3.3-.3,1.1-.6,2.2-.8,3.3-.4,2.2-.8,4.3-1,6.3-.1,1-.3,2-.3,2.9,0,1-.1,1.9-.1,2.8-.2,1.8-.1,3.4-.1,4.8v2c.1.6.1,1.2.1,1.7.1,1.1.1,1.9.2,2.4,0,.6.1.9.1.9l-.7.1Z"/>
        <path class="cls-2" d="m115.7,76.6s.9,1.9,2,4.7c.6,1.4,1.2,3.1,1.8,4.9.6,1.8,1.3,3.7,1.9,5.7.3,1,.6,1.9.9,2.9s.6,1.9.8,2.8c.5,1.8,1,3.6,1.4,5,.8,3,1.1,5,1.1,5l-1,.3s-.9-1.9-2-4.7c-.6-1.4-1.2-3.1-1.8-4.9-.3-.9-.6-1.8-.9-2.8s-.6-1.9-.9-2.9c-.6-1.9-1.2-3.9-1.7-5.7-.5-1.8-1-3.6-1.4-5-.8-3-1.1-5-1.1-5l.9-.3Z"/>
        <path class="cls-2" d="m83.4,45s-.9.3-2.4.9c-.4.1-.8.3-1.3.5-.4.2-.9.4-1.5.7-1,.5-2.2,1-3.4,1.7-.6.3-1.3.7-1.9,1-.6.4-1.3.8-2,1.3-1.4.8-2.7,1.9-4.1,3-.7.6-1.3,1.2-2,1.8-.3.3-.7.6-1,.9l-1,1c-.6.7-1.3,1.3-1.9,2s-1.2,1.4-1.8,2.1-1.1,1.5-1.7,2.2l-.8,1.1-.7,1.2c-.5.8-1,1.5-1.5,2.3-.4.8-.9,1.6-1.3,2.3-.4.8-.8,1.6-1.1,2.3-.4.8-.7,1.5-1,2.3-.6,1.5-1.2,2.9-1.6,4.3-.2.7-.4,1.3-.6,1.9-.2.6-.3,1.2-.5,1.8-.3,1.1-.5,2.1-.7,2.9-.3,1.6-.5,2.5-.5,2.5l-.5-.1s.1-.9.4-2.6c.1-.8.3-1.8.6-2.9.1-.6.3-1.2.4-1.8.2-.6.4-1.3.6-2,.4-1.4.9-2.8,1.5-4.4.3-.8.6-1.5,1-2.3s.7-1.6,1.1-2.4c.4-.8.9-1.6,1.3-2.4.4-.8,1-1.6,1.5-2.4l.8-1.2.8-1.1c.6-.8,1.1-1.6,1.7-2.3.6-.7,1.2-1.4,1.9-2.2.6-.7,1.3-1.4,2-2l1-1c.3-.3.7-.6,1-.9.7-.6,1.4-1.2,2.1-1.8,1.4-1.1,2.8-2.2,4.2-3,.7-.4,1.4-.9,2-1.3.7-.4,1.3-.7,2-1,1.2-.7,2.5-1.2,3.5-1.6.5-.2,1-.4,1.5-.6.5-.2.9-.3,1.3-.4,1.6-.5,2.5-.8,2.5-.8l.1.5Z"/>
        <path class="cls-2" d="m125.1,84.8s.3.8.7,2.1c.4,1.3.9,3,1.4,4.7s.9,3.4,1.2,4.7c.3,1.3.5,2.2.5,2.2l-.5.1s-.3-.8-.7-2.1c-.4-1.3-.9-3-1.4-4.7s-.9-3.4-1.2-4.7c-.3-1.3-.5-2.2-.5-2.2l.5-.1Z"/>
        <path class="cls-2" d="m.4,40.4s.1,1.3.3,3.5c.1.6.1,1.2.2,1.9s.2,1.4.3,2.2c.1.8.3,1.6.4,2.5.2.9.4,1.8.6,2.7s.4,1.9.7,2.9c.3,1,.6,2,.9,3.1s.7,2.1,1.1,3.2.7,2.2,1.2,3.3c.9,2.2,1.8,4.6,3,6.8,1,2.3,2.4,4.5,3.6,6.8,1.4,2.2,2.6,4.4,4.1,6.5,1.4,2.1,3,4.1,4.4,6,.7.9,1.5,1.8,2.3,2.7.7.9,1.5,1.8,2.3,2.5.8.8,1.5,1.6,2.2,2.3.7.8,1.5,1.4,2.2,2.1s1.4,1.3,2,1.9c.7.6,1.3,1.1,1.9,1.6,1.2,1,2.2,1.9,3.2,2.6,1.8,1.4,2.8,2.1,2.8,2.1l-.3.4s-1.1-.8-2.9-2.1c-.9-.6-2-1.5-3.2-2.5-.6-.5-1.3-1-2-1.6s-1.3-1.2-2.1-1.9c-.7-.7-1.5-1.3-2.2-2.1-.7-.8-1.5-1.5-2.3-2.3s-1.5-1.7-2.3-2.5c-.8-.9-1.6-1.8-2.3-2.7-1.5-1.9-3.1-3.9-4.5-6-1.5-2.1-2.8-4.3-4.2-6.5-1.2-2.3-2.5-4.5-3.6-6.9-1.1-2.3-2.1-4.6-3-6.9-.5-1.1-.8-2.3-1.2-3.4-.4-1.1-.8-2.2-1-3.3-.3-1.1-.6-2.1-.8-3.1-.3-1-.4-2-.6-3s-.4-1.9-.6-2.7c-.1-.9-.2-1.7-.3-2.5-.1-.8-.2-1.5-.3-2.2-.2-.6-.2-1.3-.2-1.8-.2-2.3-.2-3.6-.2-3.6h.4Z"/>
      </g>
      <path class="cls-2" d="m164.3,67.1v50.1h0c0,10.4-6.7,19.3-16,22.6-2.5.9-5.2,1.4-8,1.4s-5.5-.5-8-1.4c-8.2-2.9-14.4-10.2-15.7-19.1l6.8-3.4,8.9-4.5v4.5h0c0,4.4,3.6,8,8,8s7.6-3.2,8-7.3v-50.9h16Z"/>
    </g>
  </g>
</svg>