<?xml version="1.0" encoding="UTF-8"?>
<svg id="Layer_2" data-name="Layer 2" xmlns="http://www.w3.org/2000/svg" viewBox="0 0 137.91 116.46">
  <defs>
    <style>
      .cls-1 {
        fill: #556e69;
      }

      .cls-1, .cls-2, .cls-3, .cls-4, .cls-5, .cls-6, .cls-7, .cls-8, .cls-9, .cls-10, .cls-11, .cls-12, .cls-13 {
        stroke-width: 0px;
      }

      .cls-2 {
        fill: #5b493f;
      }

      .cls-3 {
        fill: none;
      }

      .cls-4 {
        fill: #b9a47a;
      }

      .cls-5 {
        fill: #cc8908;
      }

      .cls-6 {
        fill: #e5ad02;
      }

      .cls-7 {
        fill: #fff;
      }

      .cls-8 {
        fill: #f5eacc;
      }

      .cls-9 {
        fill: #110e18;
      }

      .cls-10 {
        fill: #7a8c76;
      }

      .cls-11 {
        fill: #927556;
      }

      .cls-12 {
        fill: #070300;
      }

      .cls-13 {
        fill: #d3af75;
      }
    </style>
  </defs>
  <g id="Layer_1-2" data-name="Layer 1">
    <g>
      <g>
        <path class="cls-9" d="M35.4,110.42h0s0,0,0,0h0Z"/>
        <path class="cls-9" d="M23.25,44.4c0,.12-.04.23-.15.28-.91.42-2.34-.91-3.44-.53-1.5.52-2.6,2.99-3.33,4.26-1,1.72-1.89,3.5-3,5.16-1.18,1.78-2.66,3.11-4.22,4.54-1.45,1.31-2.41,3.22-3.37,4.91-1.58,2.78-2.65,5.68-3.38,8.78-.16.65-.46,1.75-1.35,1.55-.3-.06-.51-.32-.65-.59-.44-.83-.41-1.83-.27-2.76.78-5.17,4.43-10.12,8.06-13.72,1.38-1.37,3.25-2.24,4.34-3.91.95-1.47,1.31-3.2,2.15-4.71.8-1.43,2.11-2.52,3.47-3.41,1.65-1.08,3.71-1.56,5.14.15Z"/>
        <path class="cls-9" d="M25.47,43.76c-.17,0-.23,1.02-.25,1.42-.02-.03-.04-.05-.07-.08-.06-.5-.3-.76-.57-1.36-.87-1.86-1.61-3.61-2.64-5.22-1.57-2.46-3.9-4.68-5.96-6.74-2.16-2.16-4.53-4.14-7.21-5.63-1.26-.69-2.41-.99-3.77-1.39-.64-.18-2.77-.67-2.57-1.68.28-1.5,3.24-.18,4.06.25,7,3.67,13.63,8.82,16.84,16.32.36,1.04,1.04,3.07,1.88,3.8.06.12.08.29.26.31Z"/>
        <rect class="cls-9" x="47.02" y="75.21" width=".01" height=".01"/>
        <path class="cls-9" d="M23.25,42.91h-.01s-.04-.06-.06-.09c0,0,.03-.03.05-.04.02.04.03.08.02.13Z"/>
        <path class="cls-10" d="M111.48,35.23c-.24.1-.48.2-.72.3h-.01c.24-.1.49-.2.73-.3Z"/>
        <path class="cls-5" d="M82.3,90.68c-.28-.57-.29-.65-.5-.6.15.41.36.8.59,1.17-.04-.19-.07-.38-.09-.57ZM82.97,91.28c-.13.13-.14.3-.15.47.12.1.26.16.42.17h.04c-.1-.21-.11-.48-.31-.64ZM83.92,91.58c-.07-.13-.15-.26-.26-.36-.01,0-.01.02-.01.03-.09.17-.07.34-.06.5.12-.13.18-.3.11-.44.07.09.14.18.22.27ZM84.4,91.82c.03-.27.06-.54.1-.81-.2.25-.12.52-.1.81ZM84.51,90.99s-.01.01-.01.02c0,.02.01.03.02.05,0-.02,0-.05,0-.07ZM84.65,91.32s-.04-.02-.05-.04c.02.06.05.12.09.17-.02-.05-.03-.09-.04-.13ZM85.56,92.2s.01.01.02.01v-.03s-.02.02-.02.02ZM85.62,91.55c.02-.18.03-.35.04-.53-.23.07-.14.3-.04.53ZM85.94,91.14c-.06-.04-.13-.09-.2-.14-.03,0-.05.01-.07.02.11.15.25.28.42.37-.06-.07-.12-.15-.15-.25ZM87.03,90.36c-.22.25-.16.55-.13.83l.24-.72s-.08-.06-.11-.11ZM87.68,90.05c-.1-.07-.21-.13-.31-.2v.03c.15.14.3.27.45.4-.05-.07-.1-.15-.14-.23ZM88.19,89.63v.03s.01.03.02.04c0-.02,0-.05-.02-.07ZM88.65,90.98s0,.01,0,.01t.02.02s-.01-.02-.01-.03ZM88.83,88c.01.11.03.22.05.33.01.01.02.02.02.04v-.34s-.04-.02-.07-.03ZM88.84,89.9s.06.09.09.14v-.1s-.06-.02-.09-.04Z"/>
        <path class="cls-5" d="M89.68,93.95c-.08.11-.37-.18-.41-.22-.11-.1-.1-.11-.21-.22-.23-.23-.6-.49-.7-.45-.09.03.06.18.1.25.08.15.04.08.13.23.2.3-.03-.06.17.24.1.15.18.23.2.37,0,.05.11.15.06.2-.1.11-.26-.14-.32-.19-.09-.07-.29-.23-.37-.35-.12-.17-.22-.36-.41-.46-.21-.11-.48-.09-.71-.06-.29.05-.25.19-.33.42-.04.12-.09.24-.17.33-.14.17-.39.2-.53.36-.13.14-.17.34-.2.53-.07.65.09,1.35.33,1.95.14.36.34.66.57.93-.71-.61-1.51-1.38-2.29-2.31-.23-.27-.1-.14-.41-.54-.06-.07,0,0-.15-.18-.95-1.29-1.9-3.38-2.43-5.22.04-.01.16.51.19.5.15.41.36.8.59,1.17,0,.01.02.03.03.04.11.17.32.34.48.46.17.12.32.17.52.11.25-.08.31-.29.3-.53.24.22.39.6.64.8-.02-.02.06-.45.07-.49.02-.21.04-.42.08-.63,0,.02.01.03.02.05.11.22.15.45.34.63.23.23.38.23.58.45,0,0,.12-.08.12-.08.03-.36,0-.69.12-1.03.11-.06.56.42.64.46.1.04.29.13.4.1.16-.04.21-.48.25-.61.12-.38.25-.75.37-1.13-.01.04.55.36.61.42.05.1.17.03.26.11.12.11-.22-.42-.08-.35-.35-1.01-.18-1.08-.52-2.1.46.61.69,1.11,1.1,1.76.02.04.01-.03.04,0,0-.04,0-.13,0-.17,0-.61.16-.88.16-1.5.21.27.27.61.35.85.21.63.49,1.21.58,1.77.16,1.06.46,1.83.51,2.86-.31-.11-.58-.32-.92-.34-.47.09.43.57.27.78Z"/>
        <path class="cls-5" d="M67.03,91.06c-.52.53-.77,1.2-1.05,1.86,0,0-.01.02-.02.07-.13.48-.71,2.87-1.72,3.57-.41.29-.81.97-2.07.76-.11-.38-1.69-.92-2.04-1.28-.41-.78-.09-1.92-.09-1.92,0,0,.06-.23.1-.3.42-.64.79-1.29,1.54-1.63,2.42.74,4.2.36,4.93-2.14h.22c.11.33-.12.73.2,1.01Z"/>
        <path class="cls-9" d="M110.81,110.09c-.08.13-.24.22-.39.26-.88.26-1.79-.17-2.64-.51s-2.05-1.33-2.89-1.33c-.26,0-.62-.25-.86-.31-.17-.04-.93-.71-1.02-.85-1.47-2.24-2.28-4.71-2.98-7.3-.62-2.3-.19-1.92-1.11-4.11.48.14.97-.16,1.32-.5.31-.3.73-.93,1.19-.99s1.24.11,1.61.38c.67.49,1.2,1.39,1.63,2.39.36.82.51,2.44.82,3.8.33,1.44.89,3.3.9,4.78,0,.74-.32.89.1,1.5.43.63,1.12,1.04,1.82,1.33s1.45.49,2.13.82c.22.11.46.28.43.52,0,.05-.02.09-.04.13Z"/>
        <path class="cls-9" d="M87.04,94.45h0s-.01.01-.01.01v-.02h.01Z"/>
        <path class="cls-9" d="M98.41,106.13c-.34-.32-.87-.27-1.21-.56-.52-.43-.71-1.41-1.04-1.99-.42-.76-.95-1.48-1.6-2.07-.48-.43-1.02-.78-1.48-1.22-.25-.23-.5-.49-.63-.81-.3-.73-.3-1.48-.34-2.25-.06-1.2-.48-2.43-1.35-3.29-.11-.11-.3-.37-.43-.42-.17-.06-.32-.17-.48-.25-.13-.07-.39-.2-.53-.1-.09.06-.05.19,0,.28.08.13.2.23.31.35.03.03.08.11.05.15-.03.04-.08.02-.11,0-.26-.1-.41-.37-.61-.55-.19-.18-.59-.46-.65-.34-.02.03.05.09.06.12.07.19.17.33.29.5.08.1.15.22.2.35.03.07.06.15.07.22,0,.16-.17-.05-.22-.11-.17-.23-.29-.41-.5-.61-.28-.26-.94-.57-1.25-.13-.09.13-.07.33-.13.48-.1.24-.41.26-.6.4-.19.15-.22.43-.26.67-.19,1.01.29,2.14.95,2.89.76.88,1.83,1.53,2.96,1.79.41.09.39.49.42.84.06.79.43,1.53.94,2.12.57.67,1.32,1.15,2.04,1.63,1.44.98,3.1,1.72,4.12,3.19.42.6.95.98,1.27.08.18-.51.14-.99-.25-1.37Z"/>
        <rect class="cls-9" x="79.79" y="18.8" width=".01" height=".01"/>
        <path class="cls-6" d="M77.92,46.9c.33-.02.65-.05.98-.06-.33-.02-.66.01-.98.06ZM75.64,42.81c.54-.02,1.04-.07,1.36-.1-.39.02-.86.05-1.36.1ZM71.86,45.37c.26.03.47.02.56-.03-.17.02-.36.03-.56.03Z"/>
        <path class="cls-6" d="M80.56,50.4c.74-.25,1.69.01,2.47-.03-.35-.32-1.08-.98-1.43-1.3.39-.05.99.18,1.38.14-.04,0-.2-.17-.24-.2-.4-.3-.64-.65-1.11-.83s-1.22-.39-1.71-.39c0,0,2.55.32,2.55.32-.73-.84-1.45-1.34-2.38-1.42.3.03.62-.02.92,0,.27.02.53.05.8.07.67.06,1.31.02,1.98-.07.03,0,.06,0,.09-.01-.16-.11-.28-.43-.46-.49-.54-.19-1.01-.41-1.55-.6s-1.16-.19-1.72-.23l2.42-.47-.08-.5c-1.13.09-2.23.38-3.38.47,1.29-.51,2.7-1.16,3.49-2.27-.03.02-.27-.37-.35-.32-.96.49-1.79,1.01-2.82,1.11.87-.36,1.58-1.07,2.01-1.94-1.25.72-2.43,1.36-3.86,1.57,1.06-.62,2.95-1.83,3.74-2.77-2.08-1.1-4.89.08-6.67,1.24-.29.2-.56.39-.79.57-.22.18-.41.34-.55.48.45.27,1.43.3,2.31.27-1.51.14-3.32.44-4.34,1.09-.25.16-.52.7-.57,1-.03.2.6.4,1.11.47-1.15.03-2.72-.11-3.68-.01.16.63-.11,1.19-.19,1.84-.36.06-.58.24-.94.3.15.36,1.35,1.03,1.5,1.39-.73.08-1.79-.64-2.41-1.03-.07.46.16,1.49.09,1.95-.91-.21-3.02-1.64-3.71-1.02-3.05-.01-4.27,1.69-7.17,2.61.46-.92,2.03-1.1,2.3-1.89-.03,0-.05-.01-.08,0-2.19-.23-5.52,1.4-6.28,3.35-.02.04-.03.08-.04.12-.13.37-.16.74-.07,1.12-.11.55,1.66,2.95,1.55,3.49.29-.19.6-1.04.7-1.39-.5,1.86-1.83,4.83,1.14,6.13.17-.45.32-1.26.48-1.89,0-.07.03-.13.05-.2.04-.12.07-.24.11-.35-.27,1.81.43,4.13,1.51,5.6.3-1.19.67-2.38,1.49-3.29.04,1.65.42,3.43,1.87,4.67.1-.55-.06-1.02.03-1.57-.01.08.14.29.18.36.07.12.14.23.23.34.17.22.36.41.57.58.31.26.62.51.95.74.31.22.67.38.96.61-.89-.68-1.67-1.63-1.97-2.71.92,1.18,2.19,2.4,3.49,3.14-.25-.85-.83-2.13-1.08-2.98,1.44,1.12,3.32,3.22,4.83,4.04-.19-.54-.91-1.76-1.11-2.3.83,1.05,2.04,2.57,3.09,3.38-.29-1.45-1.23-3.41-1.99-4.71.99,1.02,2.2,2.57,3.2,3.59.2-.47.39-.93.69-1.44.03-.05.25.27.27-.04.45.52.96,1.22,1.42,1.74-.01-.47-.19-1.21-.2-1.68.55.39,1.33,1.14,1.88,1.54.19-1.35-.68-3.22.08-4.48-.22-.39-.95-.89-1.17-1.28,1,.55,2.44,1.37,3.44,1.92-.32-.4-1.23-1.29-1.56-1.69.81.38,2.04,1.12,2.85,1.5-.29-.59-.88-1.27-1.5-1.81-.05-.05-.11-.1-.17-.15-.12-.11-.24-.21-.36-.29-.05-.04.05.03,0,0,.03.02-.09-.08-.07-.06.6.32,1.37.68,1.92.77-.22-.49-.64-1.22-.64-1.76.5,0,1.04.13,1.59.4.09.04.18.1.27.15.11.06.2.12.29.18.09.05.17.11.26.17-1.21-1.32-2.55-2.63-4.04-3.61,1.42.67,3.17,1.68,4.6,2.35-.87-1.16-2.05-2.26-3.25-2.99,1.02.63,1.93,1.39,3.12,1.61-.48-1.14-1.65-2.72-2.58-3.55.09.06.17.11.26.17.02.02.05.03.07.05,0,.01.03.02.04.03.11.08.23.15.34.24.8.59,1.67,1.29,2.41,1.77.1-.34.48-.81.73-1.07-1.06-1.4-2.46-2.63-4.04-3.39,1.51.59,2.59,1.29,3.61,2.39.02.02.04.04.08.08.05.05.09.09.13.14-.26-1.54-1.26-2.94-2.6-3.52,1.17.4,1.91,1.03,2.9,1.59-.45-.64-1.04-1.57-1.49-2.21.49.27,1.18.93,1.66,1.19-.1-.42-.26-1.06-.56-1.53-.35-.59-.53-.83-.93-1.17.47.28.82.91,1.3,1.22.03.02.05.04.07.05-.03-.02-.05-.05-.06-.09-.17-.36.33-1.24.75-1.06-.84-1.31-1.71-1.48-2.68-1.36ZM77,42.71c-.32.03-.82.08-1.36.1.5-.05.97-.08,1.36-.1ZM76.8,57.11h-.01c.52-.47,2.21,1.19,2.54,1.51-.91-.07-1.68-1.18-2.53-1.51Z"/>
        <path class="cls-8" d="M47.17,47.36s-.02.04-.01.06h-.01s-.06,0-.09.01c.04-.02.07-.04.11-.07Z"/>
        <path class="cls-8" d="M48.77,50.11s-.02.08,0,.12c-.02,0-.04-.02-.06-.04.02-.03.05-.05.07-.08Z"/>
        <path class="cls-8" d="M49.73,50.51s0,.02,0,.02c-.15.01-.29,0-.43-.05.12.02.26.03.43.03Z"/>
        <path class="cls-8" d="M50.14,47.99s-.03.02-.05.03c-.03-.02-.07-.04-.11-.05.07,0,.11,0,.16.02Z"/>
        <path class="cls-8" d="M50.18,51.27h0c.12-.12.18-.05,0,0Z"/>
        <path class="cls-8" d="M57,33.27c0,.06-.01.11-.02.17-.06.45-.15.9-.35,1.31.09-.42.09-1.37.33-1.47.01,0,.02-.01.04-.01Z"/>
        <path class="cls-8" d="M60.25,34.2s-.06-.03-.09-.04c.03,0,.04-.02.06-.02.01.02.02.04.03.06Z"/>
        <path class="cls-8" d="M62.06,39.2c-.19.27-.37.54-.56.81-.06.09-.12.18-.18.27-.15.22-.3.44-.44.66.13-.23.21-.38.23-.41.06-.08.12-.17.17-.25h.01s.01-.01.01-.01c.03-.06.08-.13.13-.19.2-.3.41-.59.63-.88Z"/>
        <path class="cls-8" d="M111.14,30.29c-.09.11-.19.2-.31.26-.07.05-.14.1-.21.13-.19.11-.4.19-.6.27-.54.2-1.08.4-1.63.59-.55.19-1.11.38-1.66.56-7.8,2.55-16.35,4.12-24.42,4.22,2.21-2.52,5.27-3.1,8.18-3.23t.02,0s.04.01.05,0c.66-.03,1.32-.03,1.95-.03.71,0,1.43.01,2.15.01.52,0,1.04,0,1.56-.02.27-.01.54-.02.81-.04,1.88-.12,3.7-.46,5.33-1.37h0c.07-.04.13-.08.2-.12-.07.01-.13.01-.2.02-1.26.11-2.52.22-3.78.33-.35.03-.7.06-1.05.09-1.34.12-2.67.24-4.01.36-2.19.19-4.4.38-6.5,1.04-2.44.75-4.65,2.1-6.97,3.14-.18.09-.37.18-.55.25-.53.22-1.07.44-1.62.62-.07.02-.14.04-.21.06-1.87.6-3.84.83-5.77,1.19-.21.04-.42.09-.63.13-.63.12-1.25.26-1.87.44-.43.12-.86.27-1.28.44-.21.08-.41.15-.61.23-1.41.59-2.74,1.37-3.94,2.32-.01,0-.01.01-.02.01-.08.06-.16.13-.24.19-.01.02-.02.04-.03.06h0s-.01.04-.02.05t-.01.02c-.51,1.15-2.03,2.35-3.03,1.64-.78,2.05-1.65,3.4-2.44,5.36.13-.95.89-1.88,1.16-2.8.08-.26.14-.61.21-.98.01-.07.03-.15.05-.23.04-.18.09-.37.15-.54.03-.08.06-.16.1-.24,0-.02.01.02.02,0-.07.1-.18.1-.27.1h-.01c-.11,0-.21-.08-.19-.24,0-.01,0-.02.01-.03,0-.02,0-.04.02-.06.01-.03.03-.08.06-.13.02-.05.05-.1.08-.17.04-.08.09-.17.13-.27.25-.48.59-1.14.92-1.75.21-.41.42-.8.58-1.1,0,.01.01.01.01.02.04.1.09.17.16.21.04.04.08.06.13.07.05.03.11.04.17.05h.01s.02.01.03.01h.05c.08.01.16.01.25-.01.02,0,.04-.01.06-.02.22-.11.38-.18.57-.28.18-.08.4-.05.58-.13,0,0,.03-.01.04-.02,9-4.12,18.26-7.84,28-9.63,3.17-.58,6.38-.95,9.59-1.32,2.5-.29,4.99-.58,7.49-.87.6-.07,1.22-.14,1.83-.21.11-.02.21-.03.32-.04.38-.04.81-.07,1.09.19.32.31.24.86-.04,1.2Z"/>
        <path class="cls-5" d="M104.91,56.79s-.1.07-.14.11c0-.01-.02-.03-.02-.04-.53.24-1.06.47-1.59.71-.01,0-.02.01-.03.01-1.63.73-3.25,1.44-4.88,2.17-.01,0-.02.01-.04.01-.31.14-.62.27-.93.41-.48.22-1.43.26-1.88.52l1.38,1.68c.12.17.24.35.35.52.15.22.28.45.41.67.23.39.44.78.63,1.18-.06-.13-.13-.25-.21-.37-.53-.87-1.11-1.58-1.74-2.35-.1-.14-.2-.27-.31-.41-.23-.3-.47-.5-.74-.69-.14-.11-.29-.21-.44-.32-.31-.23-.61-.53-.91-.79-.05.03-.13.07-.02-.02-.07-.3-.54-.38-.61-.66-.55-.76-.35-.54-.82-.97-.19-.24-.76.07-1.06-.19-.54-.44-.47-1.18-.65-1.35-1.42-1.34-2.91-3.38-3.16-5.41-.24-1.93-.44-4.03-.06-5.91.26-1.31.42-2.4.77-3.69.18-.65.8-1.51.99-2.16.06-.2.44-.33.49-.54.03-.13.17-.56.17-.67,0-.01.14.13.15.11,0-.01,0-.02,0-.04.17-.08.34-.13.52-.09-.01.03-.01.05-.02.09-.09.42,0,.86-.1,1.29v.09c-.02.07-.04.15-.07.23,1.06-.69,1.71-1.36,2.95-1.88,1.16-.55,3.27-.1,4.5-.14,1.66-.05,3.3-.34,4.95-.53.09.1.2.17.33.25,1.49.27,15.84-.25,11.21,4.92-1.54,1.72-12.4.83-14.07.64-2.59-.3-6.04-1.87-8.64-1.47-1.36.24-2.17,1.06-2.52,2.42-.02.07-.03.14-.04.22-.22,1.88,1.65,3.9,3.01,4.93,2.01,1.52,4.9,2.4,7.14,3.54,1.03.53,2.22,1.26,3.25,1.79.54.28.25.7.77,1.02.3.18,1.15.98,1.47.98.02,0,.03.01.05.03.07.05.13.1.2.15Z"/>
        <path class="cls-7" d="M41.56,54.29c-2.07,3.67-4.33-4.41-4.97-5.24.51-.99,1.15-2.2,1.8-3.1,3.32.28,4.45,6.09,3.17,8.34Z"/>
        <path class="cls-11" d="M74.76,76.48h0s-.01,0-.01,0h.01Z"/>
        <path class="cls-2" d="M41.94,38.82s.01.05.01.08v-.08h-.01Z"/>
        <path class="cls-11" d="M41.95,38.82v.08s-.01-.05-.01-.08h.01Z"/>
        <path class="cls-13" d="M44.1,56.98c-.3,1.59-.63,3.35-1.59,4.64-1.41,1.89-2.98,3.86-4.87,5-.74.45-1.76,1.05-2.64,1.16.29-.4,1.03-.77,1.47-1,5.47-2.79,8.11-9.08,7.23-15.02-.28-1.86-.85-4.19-2.31-5.53-.49-.45-1.4-.87-2.18-.77-.5.06-.72.28-.95.66-.34.55-.82,1.25-1.15,1.85-2.63,4.87-3.74,12.85-3.65,15.83-1.04-1.21-.83-3.68-.69-5.68.22-3.02,1.38-5.84,2.62-8.59,1.08-2.4,2.51-5.25,5.01-4.49.89.27,1.58.97,2.1,1.73,1.57,2.3,1.98,5.44,1.81,8.17-.04.67-.09,1.37-.22,2.03Z"/>
        <path class="cls-4" d="M136.76,6.08c-2.53,7.83-9.53,14.31-17.26,16.81.8,1.02,2.21,1.45,2.88,2.56.63,1.04.4,2.43-.28,3.45-.67,1.02-1.7,1.73-2.74,2.37-3.09,1.92-5.69,3.38-8.45,4.45-.72.28-1.45.53-2.21.76h-.01c-1.71.51-3.52.89-5.61,1.14-2.72.34-5.88.47-9.78.42-.25.08-.39.03-.86.03-.24,0-.45.13-.69.15-.4.03-.81.06-1.23.09-.08,0-.14.01-.17.01-.11.02-.22.02-.33.03h0c-.27.02-.53.04-.81.06-.08.01-.17.02-.26.02-2.17.18-4.51.37-6.8.54-.09,0-.17,0-.26.02-.54.04-1.07.07-1.59.11-.03,0-.06,0-.09.01-1.78.13-3.48.24-4.99.32,0,0-.02,0-.03.01-.09,0-.18.01-.27.01.27-.07.54-.14.81-.2,7.2-1.8,16.11-1.81,23.39-2.53,1.52-.15,3.05-.34,4.58-.6.61-.09,1.22-.2,1.82-.33.23-.03.45-.08.68-.13,1.4-.3,2.79-.65,4.15-1.08,1.02-.33,2.03-.7,3.01-1.11.59-.25,1.18-.52,1.75-.8.58-.29,1.14-.59,1.7-.92,1.21-.71,2.36-1.52,3.45-2.44.01-.01.03-.02.04-.04.1-.09.2-.18.3-.28.19-.19.38-.39.55-.61,0-.01,0-.02.02-.03.08-.11.16-.23.24-.35.12-.18.21-.36.29-.54.08-.18.13-.36.17-.55.06-.3.06-.59-.04-.87-.04-.16-.12-.32-.24-.47-.25-.33-.61-.55-.99-.76-.06-.03-.13-.07-.19-.1-.12-.07-.25-.13-.36-.2h-.01c-.12-.08-.23-.15-.33-.22h-.01c-.08-.07-.15-.13-.22-.2-.07-.07-.13-.13-.18-.21-.03-.05-.06-.11-.09-.17-.03-.05-.05-.11-.07-.18-.03-.11-.05-.22-.05-.32,0-.05,0-.11.01-.16.01-.35.17-.65.45-.9.04-.04.08-.08.12-.12.02-.03.04-.05.07-.06.21-.16.47-.31.75-.44.08-.05.17-.08.25-.11.22-.09.46-.18.71-.26.81-.26,1.66-.6,2.5-1.03.36-.18.7-.39,1.04-.6.81-.5,1.57-1.08,2.23-1.74.12-.12.24-.24.35-.36.1-.12.21-.25.31-.37.2-.24.4-.53.37-.85,0-.08-.02-.15-.05-.22-.02-.04-.04-.08-.07-.12-.04-.05-.08-.11-.13-.17-.06-.09-.15-.18-.24-.27-.2-.19-.4-.37-.62-.55-.06-.06-.12-.11-.18-.14-1.23-1-2.68-1.84-4.04-2.43-.02-.02-.05-.03-.08-.03-.44-.2-.87-.36-1.27-.48-.08-.03-.15-.06-.23-.08,1.66-.06,2.93.16,3.93-.85.45-.45.78-.99,1-1.59t0-.02c.04-.11.07-.23.1-.34.2-.64.26-1.33.21-1.99,0-.16-.04-.31-.07-.47-.01-.02-.01-.03-.01-.04-.19-.81-.68-1.58-1.38-2.01-.03,0-.04-.02-.06-.03-.22-.12-.46-.19-.7-.21h-.02s-.05-.01-.07,0c-.64,0-1.24.37-1.39,1.02-.02.11-.03.21-.03.32,0,.14.02.29.04.43,0,.03,0,.06,0,.08.03.18.06.35.08.52v.09s.01.1.01.14c.01.05.01.09.01.13,0,.1,0,.2-.01.3,0,.19-.03.37-.08.55-.04.16-.09.33-.15.49-.03.11-.08.22-.14.33-.05.13-.12.26-.2.39-.08.16-.18.32-.29.47-.59.87-1.4,1.66-2.17,2.35-.45.41-.91.82-1.37,1.21-.15.14-.31.28-.46.4-.79.66-1.61,1.3-2.46,1.87-.29.19-.57.36-.87.53-.17.09-.34.18-.51.27-.4.2-.8.38-1.21.53-.31.13-.64.24-.97.33-1.49.41-3.04.49-4.59.57-.32.02-.64.04-.96.06-.42.03-.84.07-1.26.11-.38.04-.77.08-1.15.13-.65.07-1.3.15-1.95.25-.3.04-.6.09-.9.13-.26.04-.52.09-.79.13-1,.16-1.99.34-2.99.53-.5.09-1.01.19-1.52.29-.49.08-.97.18-1.46.27.78-.39,1.55-.81,2.31-1.25,3.29-1.94,6.26-4.4,9-7.11.1-.46-.49-.25-.89,0-.68.43-1.35.87-2.01,1.32,0,0-.01.01-.02.01-2.13,1.42-4.22,2.9-6.27,4.44-.04.03-.08.06-.13.09-2.4,1.8-4.74,3.67-7.01,5.62-1.47,1.27-2.92,2.56-4.39,3.82-.16.14-.32.28-.49.42-1.75,1.48-3.55,2.91-5.45,4.16-.05.03-.1.07-.15.1-.87.56-1.76,1.08-2.68,1.56-1.7.88-4.07,1.81-5.99,1.68,1.81-.65,3.7-1.77,5.42-2.95.73-.5,1.43-1.02,2.08-1.51,2.56-1.93,5.13-3.86,7.69-5.8.47-.35.93-.7,1.4-1.06-.08.02-.15.04-.23.06-1.01.26-2.03.53-3.04.79-.06.02-.12.03-.18.05,4.99-3.36,9.99-6.71,14.98-10.07,2.13-1.43,4.26-2.86,6.43-4.21.01-.01.03-.02.04-.03,1.02-.63,2.05-1.25,3.1-1.85C114.85,3.81,122.53.14,130.5.02c1.75-.03,3.99-.13,5.38,1.1,1.33,1.18,1.42,3.27.88,4.96Z"/>
        <path class="cls-2" d="M50.97,53.78h-.01s0,0,0,0h.02Z"/>
        <path class="cls-2" d="M50.98,53.79h-.02.01s0,0,.01,0Z"/>
        <path class="cls-1" d="M54.63,66.99l-.05.05c-.1-.11-.2-.22-.3-.33.18.02.32.07.35.28Z"/>
        <path class="cls-11" d="M87.37,89.85v.03s-.02-.01-.03-.02c-.03.1-.07.21-.1.31,0-.12-.25-.34.13-.32Z"/>
        <path class="cls-5" d="M102.97,91.93c.01.54-.06,1.07-.12,1.6-.02.17-.01,1.11-.08,1.16-.24.17-.54.18-.83.16-.24-.02-.54-.11-.76,0-.18.09-.29.27-.38.43-.1.18-.22.33-.36.49-.25.29-.59.53-.99.49-.15-.01-.26-.09-.39-.15-.16-.07-.31-.05-.47-.1-.47-.17-.7-.3-1.34-.89-.48-.43-.75-.89-1.01-1.46-.3-.67-.32-.78-.84-1.66-.05-.08-.48-1.86-.46-1.86.05.04.17.11.22.15.04-.06-.04.05,0,0,.69-.99.64.02,1,.66.08.14.17-.53.31-.45.22.13.42.81.55,1.08.14.27.35-1.11.61-.93.36.25.62,1.58.78,1.28-.03.07.23.5.27.56.32.48.78-.24.95-.5.33-.5,1.29-.84,1.18-1.55-.02-.13-.06-.27-.13-.44.03.08.62-.45.67-.49.28-.23.52-.19.85-.14-.02-.22-.18-.38-.14-.61.04-.25.15-.49.44-.15.13,0,.25.01.28.18.18,1.03.17,2.06.2,3.14Z"/>
        <path class="cls-11" d="M43.88,58.04c.01-.06.02-.12.03-.18.04.07.03.13-.03.18Z"/>
        <path class="cls-2" d="M101.06,78.36s-.03-.06-.03-.09c0-.01.02-.02.04-.04.03.05.03.09-.01.13Z"/>
        <path class="cls-11" d="M82.55,52.92s-.07,0-.08-.07l.03-.03c.06.01.09.06.05.1Z"/>
        <path class="cls-9" d="M47.04,95.63s-.01.02-.01.02c0,.04,0,.07-.01.09-.04.11-.05.24-.08.36v.02s-.01.02-.01.03v.02s-.01-.01-.01-.02c-.01-.02-.02-.03-.04-.04h-.01s-.04-.03-.06-.03c-.03-.01-.06-.01-.09-.01h-.06s-.04.01-.06.02c-.01,0-.02.01-.04.01-.02.01-.05.03-.07.05-.05.02-.09.05-.14.1-.03.04-.07.07-.11.11-.06.06-.11.11-.16.17-.05.06-.1.11-.15.17-.01.02-.03.03-.05.05-.04.06-.09.11-.13.16-.01,0-.01.01-.02.02-.05.06-.09.12-.16.18h-.01c-.08.08-.16.16-.27.2-.04.01-.08.02-.12.02-.03,0-.06-.01-.08-.02h-.01s.02.01.03.02c.02.01.04.01.07.01h.02c.48.11,1.41-.74,1.68-.95.03-.02.05-.04.06-.04h.01c.02-.05.07-.47.1-.69,0-.03.01-.06.01-.08-.01.02-.02.03-.02.05ZM45.06,97.3h.01s0,0,0,0c0,0-.01.01-.01,0ZM45.13,96.47h0s-.08.02-.12.04h0s0,.02,0,.02c.04.06.07.1.07.14h.01s-.01.07-.02.09c.05-.08.08-.17.06-.24v-.02s0-.02-.01-.03ZM44.86,96.57s-.05.02-.07.03c-.07.03-.13.07-.19.1-.02,0-.04.02-.06.04-.08.04-.17.1-.24.16-.04.03-.08.07-.12.12-.02.02-.03.04-.04.05.04-.04.08-.08.13-.11.02-.02.05-.03.07-.04.21-.13.45-.21.64-.39-.04,0-.08.01-.12.04ZM44.03,97.17c-.04.06-.08.11-.11.17,0-.01-.01-.01-.01-.02-.01-.02-.03-.04-.04-.05.01.03.03.05.05.09h0s.01.04.02.05c.01-.03.02-.05.03-.08.01-.01.01-.03.02-.04,0-.01.01-.02.02-.03,0-.04.03-.08.05-.11-.01,0-.02,0-.03.02ZM44.91,97.15s.02.04.04.06c-.03-.06-.02-.14.02-.22,0-.01.01-.03.02-.04,0-.02,0-.03.01-.05.01-.02.01-.03.02-.04-.08.07-.16.15-.11.29ZM43.1,95.66v.02h.01v-.02Z"/>
        <g>
          <path class="cls-5" d="M47.03,95.43s.01.23,0,.31c-.04.14-.08.13-.12.27-.1-.09-.27-.03-.39.03s-.27.2-.36.3c-.22.24-.35.51-.57.75-.08.09-.17.19-.29.23s-.19-.06-.25-.17c-.13-.23.25-.52.15-.76-.49.13-.98.53-1.28.94-.07-.1-.05-1.79-.12-1.89-.22.14-.45.16-.7.25-.26.09-.57,1.71-.65,1.97-.24.77-.33,1.67-.41,2.47-.03.33-.06.66.03.98s.32.61.63.7c.31.08.63-.05.92-.19.44-.21.88-.47,1.16-.87.29-.43.62-1.08.43-1.56-.08-.2-.07-.29.07-.46.05-.05.05-.15.25-.35.53-.51.62-.52,1.07-.98.34-.34.64-.76.69-1.23.02-.14.01-.44-.12-.53-.06-.04-.12-.21-.14-.19Z"/>
          <path class="cls-5" d="M47.02,97.76h.01v-.02h-.01v.02Z"/>
          <path class="cls-5" d="M47.19,95.69c-.04.1.06.37.03.48-.03.14-.29.73-.31.87.37-.45,1.18-1.47,1.53-2.08h0v-.06l-.77.43c-.06.13-.46.23-.49.36Z"/>
        </g>
        <path class="cls-9" d="M35.4,110.41h0v.02h0s0-.02,0-.02Z"/>
        <path class="cls-9" d="M74.95,26.14s-.06.04-.09.07c-.34.31-.74.44-1.17.49.48-.34.95-.6,1.26-.56Z"/>
        <g>
          <path class="cls-6" d="M74,26.64c-.34,1.86-1.47,2.21-2.81,3.54-.45.45-1.17,1.8-1.8,1.79s-1.09-1.63-.8-2.2c-1.15.71-2.63.88-3.91.45-.16.24-.32.48-.48.72-.47-.09-.95-.17-1.42-.26-.16.45-.32.89-.48,1.34-.75-.79-1.23-1.21-2.32-1.15.39.94,1.18,2.64,1.02,3.64-.3-.35-.44.03-.74-.32.31.83-.71.21-.18.92-1.17-.43-2.2-1.21-2.94-2.21.02.92-.16,1.85-.53,2.7l-.75-1.87c-.16.47-.44.9-.81,1.24l-.7-1.19c.3.8,0,1.1-.2,1.94l-1.52-1.73c.02.88-.27,1.77-.83,2.47-.02-.5-.18-1-.46-1.42l-.75,1.92c-.52-.61-.29-.92-.81-1.53.23.92-.41,1.57-.45,2.52-.36-.08-.69-.3-.9-.6l-1.17,4.17c-.49-1.52-4.06-.24-3.65-.07-.2-.37-.46-1.41-.98-.98,0-.61-.01-1.22-.02-1.83-.16.41-.47.77-.84,1-.32-.43-.44-1.23-.2-1.93-.58.7-.63,1.54-1.01,2.37-.09-1.04-.04-2.09.17-3.12l-.52,2.03c-.01-.4-.12-.8-.31-1.15-.19.34-.92.68-1.11,1.02.18-1.25.47-2.25.65-3.5-.43.9-.44,1.56-.88,2.45l-.41-1.34-.71,1.39c-.86-.93-.39-2.46.35-3.5s.6-2.95,1.83-3.28c.31-.08,1.14-.15,1.46-.16.74-.04.36-2.74,1.84-3.17.32-.09.76-.08,1.09-.1.6-.04.62-2.33,1.63-2.44.23-.02.72.61.97.55.31-.08,0-1.98.29-2.08.22-.08.67,1.36.96,1.34.34-.02.4-1.78.66-1.77s.44,1.22.75,1.16c.24-.04.22-1.59.49-1.58.37.02.82,1.53,1.18,1.42.14-.04.8-1.68,1.04-1.61.32.1.41,1.34.66,1.3.09-.01.3-1.93.62-1.92.28,0,.37,1.19.58,1.22.33.05,1.3-1.5,1.55-1.5.31,0-.37,1.37-.22,1.37.25,0,1.6-1.97,2.26-1.85.29.05-.26,1.68.16,1.72.31.03,1.12-2.07,1.67-1.8.26.13-.78,1.79-.49,1.9.42.16,1.47-2.14,2-2.03.39.08-.32,1.32-.09,1.39.51.17,1.45-1.68,2.02-1.39.39.19-.44,1.36-.13,1.4.23.03,1.33-1.35,1.64-1.26.57.16-.22,1.5,0,1.62.34.19,1.55-1.89,2.05-1.65.41.2-.4,1.32-.23,1.43.35.23,1.42-1.6,1.67-1.54.28.07-.67,2.26-.29,2.34s1.62-2.49,2.01-2.35c.33.11.02,1.6.37,1.62s.86-1.34,1.2-1.23c.2.06-.01,1.57.21,1.68,0,0,1.01-.84,1.23-.77.27.09.35.33.39.89.73-.31,1.18.85,1.06,1.64-.02.11.17,1.64.15,1.75Z"/>
          <polygon class="cls-6" points="73.81 21.79 73.81 21.79 73.81 21.8 73.81 21.8 73.81 21.79"/>
        </g>
        <path class="cls-6" d="M115.35,38.47c-1.29-1.02-2.98-1.38-4.21-2.53-.28-.27-.39-.14-.8-.04-.23.06-.6.19-.82.26-.27.09-.56.25-.84.31-.58.13-.84.26-1.42.38-1.14.24-2.4.47-3.55.67-.05,0-1.18.14-1.11.14,2.63.06,2.81.29,3.59.31,2.61.06,5.24.34,7.67,1.37.38.16.79.37.95.76.13.3.08.66-.06.96-.88,1.88-3.06,2.3-4.94,2.33-3.79.05-7.69-.73-11.45-1.19-2.61-.32-7.33-1.97-8.99,1.07-.57,1.04-.54,2.35-.07,3.44.53,1.23,1.59,2.19,2.68,2.93,2.05,1.39,4.32,2.39,6.56,3.43,1.04.48,2.06,1,3.05,1.58.51.3,1.02.61,1.51.94.37.25,1.18.98,1.6,1.06.19.04.14-.12.3-.17,1.4-1.35,2.78-2.72,4.03-4.22.21-.25.4-.54.7-.71,1.37-1.35,2.35-2.83,3.59-4.19.01-.06.03-.11.05-.17.5-.28.64-.68.91-1.26.64-1.39,1.03-2.86,1.24-4.37.03-.26.05-.52.08-.78.17-.59.31-1.18.27-1.8,0-.13-.43-.41-.53-.49Z"/>
        <path class="cls-8" d="M107.36,11.01c.36-.92,4.15-5.14,5.07-3.87.83,1.15-4.15,4.2-5.07,3.87Z"/>
        <path class="cls-8" d="M132.34,11.95c-.1.83-.65,1.5-1.28,2.15-.49.5-1.68,1.78-2.5,1.53-.71-.22-1.89-1.79-2.49-2.25-.69-.53-1.26-.75-.77-1.61.59-1.03,1.82-1.86,2.66-2.66.13-.12.26-.25.43-.31,1.4-.51,3.48.87,3.86,2.19.1.35.12.67.09.97Z"/>
        <path class="cls-4" d="M103.47,10.54s-.01.01-.02.01c-.03.03-.06.05-.09.08-.48.4-1,.82-1.32,1.09.52-.38,1.03-.78,1.5-1.23.07-.05.13-.11.19-.17-.09.06-.17.14-.26.22ZM116.03,15.17s-.1.06-.15.09c.05-.03.1-.05.14-.07.05-.05.11-.1.17-.15-.06.05-.12.1-.16.13Z"/>
        <path class="cls-8" d="M118.92,11.81c-2.17,2.55-5.18,3.63-8.43,4-1.54.18-3.09.24-4.63.42-1.44.17-2.95.97-4.42.75.47-1.09,1.74-1.78,2.69-2.44,1.12-.77,2.28-1.48,3.45-2.17,1.32-.78,2.65-1.53,3.95-2.33,1.1-.67,2.37-1.95,3.6-2.29.28-.08.62-.01.79.22.12.17.13.4.1.6-.05.29-1.71,3.14-1.6,3.18,1.36.46,3.05-.26,4.49.04Z"/>
        <path class="cls-5" d="M93.3,38.03c-1.24.52-1.89,1.19-2.95,1.89h0c.22-.56-.13-1.04,0-1.6.08,0,.53-.05.61-.06,1.04-.11.86-.15,1.63-.22.24,0,.47,0,.71,0Z"/>
        <g>
          <path class="cls-8" d="M137.08,81.83c.05.33.22.62.42.89.12.15.22.33.13.49s-1.2-.91-1.01-.41c.14.36.47,1.24.32,1.29-.21.07-1.11-.79-.94-.41.15.35,1.11,2.36.69,2.33-.28-.02-.62-.5-1.15-.6.36.5.94,1.44.91,1.68-.05.42-1.14-.77-1.05-.58.24.52.6,1.97.44,2.31-.1.21-1.38-1.07-1.56-.8s1.47,1.8,1.14,2.07c-.25.21-1.8-1.52-1.98-1.33-.2.22,1.24,2.47.96,2.6-.32.15-1.99-1.57-2.03-1.44-.07.21,1.65,2.63,1.43,3.06-.12.24-2.53-2.49-2.56-2.31-.02.1,1.24,1.75,1.02,1.94-.32.28-1.99-1.48-2.02-1.41-.12.29,1.31,1.94,1.07,2.16-.13.12-1.53-1.06-1.77-1.12-.45-.11,1.12,1.59.93,1.87-.3.45-2.1-1.72-2.29-1.58-.32.23,1.62,2.05,1.14,1.99-.33-.04-2.56-1.59-2.8-1.35-.21.22,2.41,1.54,1.96,1.81s-1.99-1.09-2.1-.95.9,1.26.61,1.37c-.56.21-1.76-1.64-1.9-1.38-.08.15.95,1.04.73,1.21-.35.27-1.54-.95-1.7-.76-.19.22,1.19.88.93,1.45-.11.25-.86-.8-1.08-.68-.18.1.16.7-.03.83-.33.24-1.25-1.05-1.88-1.58.11-1.45-.06-3.25-.42-5.22.43-.3.83-.67,1.13-.86.95-.59,1.63-.99,2.48-1.75,1.62-1.44,3.39-2.74,4.77-4.42,1.29-1.56,2.97-2.75,3.97-4.49.82-1.43,2.11-3.48,2.49-5.2.11,0,.33.85.41,1.02.31.61.6,1.67.51,2.57-.13,1.24-.32,1.49-.33,1.62-.09.65,1.07,1.9.82,1.98-.33.12-.69-.11-.71.08-.04.4.74,1.29.73,1.41-.04.28-.9.09-.82.61Z"/>
          <path class="cls-4" d="M136.23,73.02c-.38,1.72-1.42,3.29-2.24,4.72-1,1.74-2.68,2.93-3.97,4.49-1.38,1.68-3.15,2.98-4.77,4.42-.85.76-1.53,1.16-2.48,1.75-.3.19-.7.56-1.13.86.36,1.97.53,3.77.42,5.22.03.79-.2,1.06-.58,1.09-.24.02-.54.08-.86-.02-.28-.08-.43-.18-.99-.39-.46-.16-1.01-.31-1.31-.22-.18.06.52,1.02.24,1.08-.65.14-1.92-.91-2.1-.88-.26.05.89,1.11.79,1.2-.28.25-1.91-1-2.43-1.06-.28-.03.77.83.62.89-.38.16-.9-.41-1.48-.79-.18-.12-.67-.47-.77-.4s.27.46.55.79c.16.2.59.45.39.52-.22.08-.54-.11-.69-.18-.84-.41-1.69-1.04-1.8-.95-.15.13,1.41,1.24.82,1.34-.91.15-2.39-.99-3.75-1.9-.61-.41-1.31-1.08-1.77-1.77-.42-.63-.63-1.32-.41-1.95.52.4,1.28.39,1.57.78,1.12-.18,1.84,1.15,2.46,2.09-.03-.26-.11-.66-.18-1.03-.01-.06-.03-.11-.04-.17-.04-.2-.07-.39-.09-.53.43.52,1.2,1.29,1.86,1.46-.09-.42-.46-1.23-.55-1.65.46.31,1.2,1.01,1.66,1.31,0-.33-.21-1.07-.21-1.4.13.06.28.16.44.26h0c.4.28.84.65,1.17.82-.08-.33-.38-.92-.47-1.25.32.12.73-.37,1.05-.26,1.32-.56,2.61-.6,3.93-1.17.29.14.39-.35.69-.22.07-.83.96-.81,1.77-1.03.22-.06.43-.13.62-.24,3.74-2.21,6.86-5.25,9.58-8.63,1.37-1.7,2.5-3.57,3.81-5.28.37-.49.09-1.81.64-1.75Z"/>
        </g>
        <path class="cls-9" d="M136.52,71.31s0,.07,0,.11c.1,3.12-1.88,5.77-3.77,8.11-2.72,3.38-6.76,7.04-10.5,9.25-.19.11-.4.41-.62.47-.66-3.55-1.95-7.95-3.17-11.51.58-.43,1.18-.84,1.82-1.18,1.56-.83,2.78-1.59,4.19-2.72s2.62-2.39,3.82-3.68c1.81-1.95,4.06-4.18,4.49-6.9.06-.4.02-.91.26-1.26.21-.12.15-.16.3-.13.15.03.27.31.35.42,1.91,2.53,2.7,5.87,2.82,9Z"/>
        <path class="cls-12" d="M126.09,72.54c-.14.21-.26.38-.38.52.11-.21.28-.4.38-.52Z"/>
        <path class="cls-12" d="M126.36,72.2c-.04.06-.09.14-.19.24.06-.08.1-.15.19-.24Z"/>
        <path class="cls-12" d="M126.85,71.62c-.1.11-.19.21-.28.31.03-.04.07-.09.11-.14l.17-.17Z"/>
        <path class="cls-12" d="M118.47,77.75c1.22,3.56,2.51,7.96,3.17,11.51-.41.29-.81.83-1.11.58-.09-.08-.23-.43-.34-.4-.14.03-.07.18-.05.29.05.31.06.4.14.78.03.14.09.38,0,.42-.09.04-.23,0-.36-.09-.29-.2-.84-.73-.78-.57.8,1.89-.07.57-1.08.63-.14,0-.21.12-.19.21.13.56.27.78-.23.71-.2-.03-.64-.25-.83-.34-.1-.04-.2-.11-.32-.1-.18.16.33.82.09.83-.39.01-1-.88-1.13-.83-.25.1.21,1.19.03,1.2-.4.02-1.02-1.1-1.27-.89-.12.1.7,1.26.53,1.31-.43.13-.86-.6-1.31-.85-.1-.06-.2-.13-.32-.13s.32,1.27.21,1.31c-.6.21-1.46-1.48-1.63-1.27-.12.15.68,1.17.68,1.62,0,.15-.27.02-.45-.08-.66-.35-1.51-1.33-1.6-1.37-.11-.04,0,.24,0,.35.01.06.03.11.04.17.1.34.37.94.23,1.03-.29.19-1.5-.5-1.75-.71-.23-.19-.3-.29-.34-.33-.11-.11-.48-.75-.67-.58-.17.15.14.64-.04.66-.09,0-.22-.25-.26-.34-.23-.48-.56-1.01-.97-1.36-.02.3.01.6.08.89.03.12.16.81.27.85-.06-.02-.17-.04-.19-.05-.5-.23-.78-.77-1.06-1.21-.38-.6-.73-1.22-1.05-1.86-.51-1.1-.98-2.23-1.38-3.38-.3-.88-.4-1.81-.42-2.75,0-.55.34-.31.57-.07.45.44.92.52,1.54.4,2.53-.47,4.88-.95,7.18-2.11,2.25-1.13,4.34-2.57,6.35-4.08Z"/>
        <path class="cls-9" d="M127.77,53.52c.04,2.38-.83,4.73-2.38,6.86-1.27,1.75-2.86,3.27-4.61,4.54-1.82,1.32-3.9,2.67-5.82,3.56,0-.36-3.13-4.81-3.48-5.25-2.01-2.5-4.36-4.51-6.79-6.56,1.05-1.39,2.56-2.59,3.76-3.87s2.4-2.61,3.57-3.94c2.59-2.94,3.45-6.08,3.86-9.88-.01.12,2.55,1.86,2.81,2.09,2.92,2.64,5.54,4.13,7.62,7.54.97,1.6,1.43,3.26,1.46,4.91Z"/>
        <path class="cls-6" d="M133.35,61.89c-.04,1.5-.98,3.3-1.69,4.48-1.05,1.75-2.5,3.23-3.92,4.68-1.55,1.58-3.26,3-5.1,4.22-.26.17-4.04,2.33-4.16,2.47-1.66-4.86-3.31-8.79-3.51-9.27.03-.02.07-.04.1-.05.63-.21,1.45-1.23,2.05-1.62.82-.53,1.68-.98,2.54-1.45,1.46-.8,2.8-1.75,3.97-2.95,2.37-2.45,3.83-5.72,4.16-9.12.52.61.96,1.37,1.47,1.98.82.98,1.65,2.01,2.35,3.09.53.82,1.13,1.87,1.51,2.79.13.33.26.43.25.73Z"/>
        <path class="cls-5" d="M118.47,77.75c-1.77,1.33-3.54,2.66-5.47,3.74-2.26,1.26-4.98,2.2-7.54,2.57-1.03.15-.95,0-1.97-.2-.1-.02-.65-.54-.64-.43-.04-1.41-.55-2.72-.84-4.08-.24-1.12-.48-2.25-.48-3.38,0-.3.04-.94.11-1.31.05-.09.12-.02.19-.1,1.26-1.44,3.62-1.98,5.33-2.69,1.23-.51,2.57-1.02,3.84-1.54,1.33-.55,2.62-1.34,3.95-1.83,1.44,2.93,2.46,6.17,3.52,9.25Z"/>
        <path class="cls-6" d="M126.36,72.2c-.04.06-.09.14-.19.24.06-.08.1-.15.19-.24Z"/>
        <path class="cls-6" d="M126.85,71.62c-.1.11-.19.21-.28.31.03-.04.07-.09.11-.14l.17-.17Z"/>
        <path class="cls-6" d="M127.75,54.61c-.03.14-.06.28-.1.42-.02.09-.05.18-.09.26.08-.23.14-.45.19-.68Z"/>
        <path class="cls-13" d="M133.34,88.6s-.02-.03-.02-.02.01.03.02.02Z"/>
        <path class="cls-9" d="M54.55,110.97c-.39.57-.89,1.01-1.41,1.46-.45.39-1.02.74-1.34,1.26-.31.51-.32,1.19-.42,1.78-.04.22-.08.45-.19.65-.12.2-.33.35-.56.34-.28-.02-.48-.29-.52-.56-.04-.27.05-.54.16-.8.37-.9.93-1.74,1.12-2.7.15-.81.07-1.31.69-1.92.4-.4.82-.75,1.12-1.23.31-.48.52-.99,1-1.35.04-.03.07-.07.09-.11.12-.53.17-1.07.37-1.58.03-.07.06-.14.09-.21.21.43-.17,1.33.07,1.65.23.32.76.22,1.04.51.47.48-1.03,2.4-1.31,2.81Z"/>
        <path class="cls-9" d="M61.61,99.37c-.36,1.54-.66,3.39-1.15,4.23-.04.07-.2.17-.27.12.03-.21.07-.41.1-.62-.06.01-.12.01-.18.01-1.08,1.03-1.85,2.31-2.71,3.51-.12.17-.27.31-.41.47l-.09-.09c.04-.51-.72-.23-.81-.55-.16-.54.55-.85.83-1.23.26-.35.86-.94.69-1.44-.28-.78-.34-.19-.77-.28-.14-.29.27-.6-.04-.88-.02-.1-.09-.15-.19-.13-1.34-3.69,3.26-6.3,3.51-6.44h.01c.35.35,1.93.89,2.04,1.27.14.5-.44,1.53-.56,2.05Z"/>
        <path class="cls-11" d="M47.02,97.75h.01s-.01.01-.01.01h0Z"/>
        <path class="cls-9" d="M48.97,93.53c-.08.3-.1.56-.23.88-.07.16-.17.33-.28.47-.09.1-.22.17-.34.23-.2.09-.37.26-.54.41-.23.2-.46.4-.71.58s-.51.31-.75.49c-.16.12-.31.25-.44.4s-.22.3-.43.34c-.23.05-.34-.19-.27-.38.05-.15.14-.28.15-.44-.29,0-.53.15-.73.34-.16.15-.26.37-.44.49-.23.16-.26-.17-.27-.32-.02-.32-.03-.64-.04-.97,0-.09,0-.18-.04-.26-.13-.31-.37.04-.52-.13,0-.25-.01-.5-.01-.74.1-1.29-.11-2.63.18-3.93.2-.91,1.07-2.15,1.61-2.68.34-.34-.69-1.46-.66-1.87.08-.36.32-.51.31-.77.25-.57.44-.77.76-1.18.07.17.19.04.26.21.02.05.14.01.14.07l.07-.04c.13-.12.09.02.31-.02-.01.03,0,.05,0,.08h.22c-.03.46-.26,1.86.08,2.17.14-.08.05-.06.08-.18.03-1.31.88-.7.61.09.07.15-.05.24.12.37.27-.17.06-.27.38-.46.2.13.11.43.29.59.25-.1.15-.48.48-.57.13.16.14.35.1.55-.56.34-.4.87-.32,1.34.04.25.06.5.13.75.44,1.52.88,2.65.73,4.08Z"/>
        <path class="cls-9" d="M60.11,103.11c-1.08,1.03-1.85,2.31-2.71,3.51-.12.17-.27.31-.41.47l-.09-.09c.04-.51-.72-.23-.81-.55-.16-.54.55-.85.83-1.23.26-.35.86-.94.69-1.44-.28-.78-.34-.19-.77-.28-.14-.29.27-.6-.04-.88-.02-.1-.09-.15-.19-.13-.06.07-.1.14-.17.21-.28.27-.5.62-.68.97-.08.16-.16.33-.24.49-.09.17-.19.33-.27.5-.21.43-.39.88-.5,1.35.21.43-.17,1.33.07,1.65.23.32.76.22,1.04.51.1-.02.2-.02.28-.06,1.07-.58,3.46-3.43,3.46-3.43l.03-.04c.09-.15.19-.29.29-.43.09-.16.18-.32.27-.48.03-.21.07-.41.1-.62-.06.01-.12.01-.18.01Z"/>
        <path class="cls-11" d="M94.3,15.34s0,.01-.01.01h0s.01-.01.01-.01Z"/>
        <path class="cls-10" d="M94.3,15.34s0,.01-.01.01h0s.01-.01.01-.01Z"/>
        <path class="cls-10" d="M94.3,15.34s0,.01-.01.01h0s.01-.01.01-.01Z"/>
        <rect class="cls-2" x="79.79" y="18.8" width=".01" height=".01"/>
        <path class="cls-3" d="M74.88,26.14c-.06,0-.12.01-.18.03-.04.01-.07.01-.11.03-.04.01-.07.02-.11.04-.16.06-.32.15-.49.26-.1.06-.2.13-.3.2.1-.01.21-.03.31-.05.12-.03.23-.06.34-.11.09-.04.17-.08.25-.13.05-.03.09-.06.13-.09.05-.04.1-.07.14-.11.03-.03.06-.05.09-.07h-.07ZM73.84,27.25c-.13.13-.27.27-.42.4-.05.06-.1.12-.16.17-.19.2-.37.41-.56.61-.18.2-.36.4-.52.59-.07.08-.14.16-.2.23.46-.45.93-.9,1.4-1.35.01-.01.03-.03.05-.04h0s.05-.05.07-.08c.06-.05.12-.11.18-.15,0-.02.01-.01.01-.01.07-.08.14-.14.21-.2.34-.33.68-.64,1.03-.95-.34.16-.71.44-1.09.78ZM69.91,29.98c-.2.19-.41.39-.61.58M69.3,31.89s-.02.01-.02.01l-.04.04c-.52.52-1.03,1.04-1.52,1.57-.48.52-.95,1.05-1.4,1.58.3-.33.66-.71,1.12-1.21.3-.32.6-.64.91-.96.3-.32.61-.64.92-.96.09-.09.18-.19.27-.28l.06-.06c.3-.31.61-.62.92-.93-.41.4-.82.79-1.22,1.2ZM63.73,38.08c-.44.42-.95.83-1.46,1.26-.15.14-.31.27-.47.41-.1.08-.2.17-.3.26.19-.27.37-.54.56-.81-.18.24-.36.49-.53.74-.02.03-.04.06-.06.09h-.01v.02h0s-.01.02-.02.03h-.01s-.01.02-.02.03c-.04.03-.07.06-.1.1-.01.01-.02.02-.03.04-.03.02-.06.05-.09.08-.08.09-.16.17-.25.26-.03.03-.07.07-.1.1-.04.04-.08.08-.12.12-.08.08-.16.17-.25.27-.09.1-.19.21-.28.33-.13.16-.27.34-.41.53-.1.14-.21.3-.31.46-.09.13-.18.26-.25.41-.03.03-.05.06-.07.1-.02.03-.04.06-.05.09-.02.03-.04.06-.05.09-.1.18-.2.38-.3.58-.2.41-.38.85-.53,1.32-.07.24-.14.48-.2.74-.07.25-.12.51-.16.78-.05.27-.08.55-.1.84-.03.28-.04.58-.04.88,0,.24.01.49.03.74,0,.13.01.27.03.41,0,.04.01.09.01.13.01-.06.02-.11.04-.17,0-.05.02-.1.04-.15.01-.04.02-.08.03-.12.04-.14.09-.28.16-.42.05-.11.09-.22.15-.33,0-.01,0-.02,0-.03.01-.01.01-.03.02-.04.01-.02.02-.04.03-.06.18-.35.38-.71.52-1.06.05-.1.09-.21.12-.31,0-.01.01-.01.01-.02.01-.03.02-.06.03-.09.08-.26.14-.61.21-.98.01-.07.03-.15.05-.23.04-.18.09-.37.15-.54.03-.07.05-.14.09-.21,0-.01,0-.02.01-.03,0-.02,0-.03.02-.05-.03.04-.07.07-.1.09-.03.01-.05.03-.06.03-.04.02-.08.03-.11.03h-.01c-.11,0-.21-.08-.19-.24,0-.01,0-.02.01-.03,0-.02,0-.04.02-.06.01-.03.03-.08.06-.13.02-.05.05-.1.08-.17.04-.08.09-.17.13-.27.25-.48.59-1.14.92-1.75.21-.41.42-.8.58-1.1h0s.03-.05.04-.07c-.01.03-.02.06-.03.09-.02.04-.03.08-.05.12-.06.15-.16.48-.02.57.02.01.05.02.09.01.08-.01.19-.08.31-.19t.02-.02l.03-.03s.08-.07.12-.12c.01-.01.03-.03.04-.05.72-.79,1.77-2.44,1.94-2.65.41-.5.73-.88.97-1.2-.17.19-.34.37-.53.55Z"/>
        <path class="cls-5" d="M73.42,27.65c-.05.06-.1.12-.16.17-.19.2-.37.41-.56.61-.18.2-.36.4-.52.59-.07.08-.14.16-.2.23-.03.04-.07.07-.1.1l-.04.04-.5.59s-.6.52-.77.67c-.01,0-.03.03-.05.04-.41.4-.82.79-1.22,1.2.08-.07.16-.14.24-.21l.06-.06h.02c.46-.4.88-.84,1.33-1.23.04-.04.1-.08.15-.11.02-.03.05-.05.07-.06.01-.01.01-.02.02-.02.62-.49,1.7-1.23,2.12-1.7.08-.09.11-.23.11-.41h0c.02-.08.01-.16.01-.23v-.05c0-.05-.01-.1-.01-.16ZM75.13,26.21c-.05-.04-.11-.07-.18-.07-.03.02-.06.04-.09.07-.04.04-.09.07-.14.11-.04.03-.08.06-.13.09-.08.05-.16.09-.25.13-.11.05-.22.08-.34.11-.1.02-.21.04-.31.05-.33.04-.29.5-.27.95.15-.13.29-.27.42-.4.38-.34.75-.62,1.09-.78.08-.08.15-.15.23-.22-.01-.02-.02-.03-.03-.04ZM78.13,40.35s-.02.01-.03.01c-1.18.25-2.31.72-3.45,1.13-.52.18-1.04.35-1.56.48-1.18.3-2.1.91-3.3,1.17-.86.18-1.78.46-2.61.78-1.75.69-3.13,1.13-4.74,2.2-.07.04-.37.2-.44.24-.39.16-.61.29-1.03.37-.58.11-1.13.41-1.59.77-.25.19-.47.42-.66.66-.1.12-.36.44-.55.59-.04.03-.1.12-.14.14-.13.09-.11.02-.14.17-.03-.14-.14.04-.15-.1-.02-.25-.03-.5-.03-.74,0-.3.01-.6.04-.88.02-.29.05-.57.1-.84.04-.27.09-.53.16-.78.06-.26.13-.5.2-.74.15-.47.33-.91.53-1.32.09-.2.19-.4.3-.58.01-.03.03-.06.05-.09.01-.03.03-.06.05-.09.02-.04.04-.07.07-.1.28-.46.59-.9.93-1.32.28-.34.57-.66.88-.97.02-.02.03-.04.04-.05.04-.04.07-.07.1-.09.04-.05.07-.09.11-.13.03-.02.06-.05.1-.09,0,0,.03-.05.06-.08.01-.01.01-.02.05-.04.1-.1.21-.2.32-.29.14-.11.28-.23.42-.34.25-.21.5-.41.75-.62.27-.23.53-.46.76-.71.19-.18.36-.36.54-.56.01-.02.02-.03.05-.06,0-.01,0-.02.02-.03.05-.06.09-.11.14-.17.57-.72.87-1.1,1.52-1.81.11-.12.21-.24.32-.36.45-.53.92-1.06,1.4-1.58.49-.53,1-1.05,1.52-1.57l.04-.04c.03-.46-.46-2.05-.54-2.5-.06-.35.01-.76-.24-1.01-.03.37-.15.81-.4,1.08-.1-.09-.14-.25-.18-.39-.06-.21-.13-.4-.33-.54-.07-.05-.23.57-.26.61-.23.32-.42.2-.72.07-.14-.06-.33-.06-.41.06-.11.18.09.46-.06.61-.13.13-.35-.02-.48-.15-.29-.3-.6-.58-.94-.82-.05-.04-.11-.08-.17-.07-.16,0-.19.23-.16.39.06.32.13.64.23.95-.34-.2-.57-.49-.8-.81-.04.25-.1.49-.18.73-.37-.08-.53-.68-.9-.61-.21.04-.31.3-.29.52.03.21.13.41.15.63.02.21-.08.47-.29.52-.17.03-.34-.1-.44-.24-.19-.26-.27-.58-.47-.84-.19-.26-.58-.43-.83-.22-.13.11-.19.3-.34.37-.2.09-.43-.07-.56-.25-.13-.18-.24-.4-.45-.48.02.61.3,1.17.5,1.74.19.58.31,1.23.03,1.77-.33-.07-.47-.44-.55-.76-.08-.32-.18-.68-.48-.82.05.57.28,1.12.66,1.56.31.36.73.68.8,1.14-.9-.12-1.73-.64-2.23-1.39-.28-.42-.49-.94-.95-1.15.08.55.08,1.12,0,1.67-.01.13-.03.26-.05.39,0,.01,0,.02-.01.03-.03.18-.07.36-.12.54-.04.12-.07.23-.12.37-.02.06-.04.13-.07.19-.63-.55-.29-1.64-.74-2.35-.36.24-.33.76-.4,1.18-.03.23-.19.51-.42.47-.16-.03-.25-.19-.32-.34-.29-.62-.57-1.25-.86-1.87.15.72.31,1.44.46,2.16.03.15.06.3.03.45-.03.15-.15.29-.3.3-.13.01-.25-.07-.34-.17-.26-.28-.34-.69-.47-1.06-.14-.37-.4-.75-.79-.79-.1.52.01,1.06-.03,1.58-.05.53-.35,1.1-.87,1.17.14-.47.15-.95.03-1.43-.02-.11-.09-.24-.2-.24-.09,0-.16.08-.2.16-.22.38-.34.83-.32,1.27,0,.2.03.39-.03.57-.06.19-.26.34-.44.27-.13-.05-.2-.19-.25-.32-.09-.22-1.11-2.6-1.33-1.66-.11.47.18.94.43,1.42.33.63.59,1.26-.31,1.83-.03-.22-.05-.45-.1-.66-.06-.3-.17-.59-.43-.85-.26.42-.31,1.1-.39,1.74,0,.02,0,.03-.01.04v.03c-.04.36-.1.71-.2.99-.06.17-.14.32-.21.47-.1.2-.2.4-.25.65-.01.05,0,.11.02.19.07.37.18.95-.29.49-.38-.37-.67-.91-.98-1.34-.12-.15-.24-.32-.42-.39-.33-.14-.72.1-.9.4-.09.16-.22.36-.34.59-.11.18-.2.36-.24.52-.08.32-.41.6-.51.9-.15.44-.06.86-.15,1.32-.01.02-.01.03-.02.05,0,.04-.01.07-.02.12-.02.08-.03.16-.04.25.04-.3.22.27.44.07.08-.07.11-.1.13-.1,0,.02-.18.26.16.26,0,.25,1.29-1.16,1.18-.92.3-.17-.75,1.43-.45,1.26-.44.58.52,0,.28.68.11-.15.29-.62.47-.86.04-.07.09-.12.13-.14.04-.03.08-.04.1-.04.08,0,.08.15.12.49.02.12-.22.03-.3.12-.59.68.27.37-.15,1.18-.11.21-.63.9-.41.97.49.14,1.24-.65,1.41-.64.26,0,.26.6.17.65.33-.18.21.03.58-.03.13-.02.28.17.31.31,0,.06-.21.16-.24.22-.29.48.1.41-.19.89-.02.03-.04.06-.05.09-.01.02-.02.04-.01.06-.01.04-.01.08.04.14.05.03.11.02.16,0,.42-.12.04-.01.47.09.03.06.07.16.03.22-.13.21-.11.09-.31.24s-.17.4-.07.63c.09-.05.15-.09.23-.13.06-.02.12-.05.17-.06.01-.01.02-.01.03-.01.33-.12.22-.14.78-.16-.65.18,0,0-.4.53-.04.06-.08.13-.08.21,0,.03.01.04.02.08.06.13.23.13.36.12.34-.03.1.18.43.09,0,.37.12.27-.14.52-.05.05-.1.11-.11.2,0,.08.06.16.12.23.35.41.79.75,1.13,1.16.25.29.23.72.47,1.02.18.2.44.36.72.44.06.03.13.05.2.05.11.03.23.04.34.03.3.1.56.13.75.08.22-.06.35-.39.47-.55.24-.35.61-.6,1-.76.2-.08.4-.14.61-.18.24-.04.48-.01.72-.04.25-.03.5-.11.72-.24.24-.14.45-.33.7-.44.28-.12.6-.16.88-.29.15-.07.51-.16.48,0-.02.15-.18.26-.27.4-.08.11-.28.28-.17.39.33.34.95-.36,1.42-.61.34-.19.67-.36.97-.38.1.06.17.14.22.23.13.25-.03.71.23.82s.43-.55.53-.89c.08-.24.24-.72.5-.53.14.1.03.33.07.49.05.18.08.46.31.5.26.04.38-.31.49-.54.14-.3.27-.85.62-.72.24.09.17.46.22.7.04.2.12.53.27.53.23,0,.41-.52.45-.8.09-.45.09-.84.98-.73.09.01.27.13.49.26.33.19.73.36.91.21.2-.17.09-.61,0-1.05-.07-.37-.27-.76-.18-.81.36-.23.66.48,1.01.65.51.26,1.35.81,1.66.25.17-.32-.36-.5-.57-.73-.92-1,.27-.72.68-.62,0,0,.25.1.32,0,.13-.19-.41-.7-.09-.73.16-.02.31-.16.32-.26.01-.16-.19-.4-.39-.52-.19-.11-.38-.2-.38-.38,0-.37,1.22-.37,2.38-.29.28.02.73.22,1.05-.04.07-.06.04-.14-.1-.17-.24-.06-.55-.16-.58-.22-.05-.09.32-.09.41-.14.17-.08.21-.18.19-.41-.01-.1-.19-.31-.05-.41.31-.21,1.52-.64,2.32-.88.16-.05.31-.08.47-.12.02,0,.03-.01.05-.01.83-.14,2.07-.08,2.53-.46.1-.08-.98-.03-1.8-.02-.91.01-1.72-.05-1.29-.43.38-.35,1-.37,1.65-.36.9.01,1.84.1,2.32-.52.17-.23.28-.67.29-1.13-.14.02-.26.12-.42.19Z"/>
        <g>
          <path class="cls-4" d="M114.36,27.52c-.03.05-.06.1-.1.14-.04.06-.08.11-.12.17-.27.4-.57.75-.93.92-.03.02-.05.03-.08.04-.79.31-1.65-.32-2.47-.52-2.12-.5-4.31.46-6.45.84-5.2.93-10.8.02-15.62,2.17.34-.16.68-.33,1.03-.49.32-.15.64-.29.97-.44,4.86-2.11,9.97-3.44,15.24-4.35,1.44-.24,3.45-.42,4.81-.93,4.82-1.83,8.11-7.07,12.34-8.66-.42-.13-.86-.15-1.29-.09-.15.02-.29.05-.44.09-.15.04-.3.09-.44.14-.72.28-1.4.73-2,1.22-.3.25-.59.51-.88.77-.82.74-1.61,1.42-2.71,1.77-.05.01-.84-.03-.89-.01-1.02.38-1.7.13-3.51-.09-4.28-.53-8.55-.06-12.73.92-.42.1-.85.2-1.27.31-.06.02-.13.04-.2.05-.38.1-.75.21-1.13.32-.33.09-.67.18-1,.28-2.85.85-6.51,1.86-8.13,4.36,1.29.02,2.62-1.09,3.79-1.64,1.29-.6,2.62-1.13,3.97-1.58.09-.03.19-.06.28-.09,3.35-1.12,6.85-1.78,10.37-1.97.11-.01.22-.02.33-.02,1.07-.04,2.15-.05,3.22-.01h.06c-.05.05-.11.1-.16.15t-.02.02c-1.03.88-2.36,1.26-3.74,1.5-.66.12-1.34.21-2,.3-4.71.66-9.26,2.05-13.66,3.87-.21.09-.42.18-.63.27-.42.18-.84.36-1.27.55-1.99.86-3.96,1.82-5.89,2.82-6.52,3.37-13.75,7.33-19.41,10.61-.02.01-.03.03-.04.03s-.01.01-.02.01c-.07.05-.14.07-.19.11-.02.02-.05.03-.07.04h-.01c-.1.06-.19.12-.28.17.06-.01.12-.02.2-.04.01,0,.02-.01.03-.01.11-.03.24-.07.39-.12.02,0,.04-.01.06-.02.31-.1.69-.24,1.15-.41,0,0,.03-.01.04-.02,4.61-1.76,15.95-6.78,23.17-8.48,4.97-1.17,10.05-1.84,15.11-2.5,2.95-.39,5.68-.67,8.63-1.05.37-.05.97-.07,1.26.16.39.3.37.82.06,1.2-.08.1-.17.18-.26.25-.07.05-.14.1-.21.13-.24.16-.52.26-.79.36-.48.17-.96.34-1.44.5-.55.19-1.11.38-1.66.56-6.82,2.16-13.91,3.47-21.05,3.87-.91.05-1.87.07-2.7-.25.74-.43,1.44-.94,2.2-1.34,1.62-.86,3.46-1.18,5.31-1.29t.02,0s.04.01.05,0c.7-.03,1.4-.04,2.1-.04s1.33.01,2,.02c.52,0,1.04,0,1.56-.02.27-.01.54-.02.81-.04,1.1-.06,2.19-.2,3.26-.49.62-.17,1.24-.4,1.83-.67.09-.05.2-.11.24-.21h0s.01-.07,0-.1c-.01-.1-.11-.19-.22-.22-.1-.03-.2-.02-.3,0-.04.01-.09.02-.13.03-1.03.26-2.08.42-3.13.52-.35.03-.7.06-1.05.09-1.4.09-2.81.12-4.23.22-1.42.09-2.89.42-4.31.6-1.28.16-2.55.59-3.74,1.11-1.78.78-3.47,1.77-5.2,2.61-.18.09-.37.18-.55.25-.15.08-.29.15-.44.21-.38.17-.78.3-1.18.41-.07.02-.14.04-.21.06-.79.21-1.6.35-2.4.52-.91.18-1.82.36-2.73.54-.21.04-.42.08-.64.13-.21.04-.42.09-.63.13-1.07.24-2.13.52-3.15.88-.21.08-.41.15-.61.23-1.44.56-2.8,1.29-3.94,2.32-.01,0-.01.01-.02.01-.09.08-.18.17-.27.25h0s-.07.07-.1.1c.02-.01.05-.02.07-.03.34-.14.68-.27,1.03-.4.25-.1.49-.19.74-.27.03-.01.06-.02.09-.04.06-.02.11-.04.16-.06.01-.01.02-.02.03-.02.26-.09.51-.17.77-.26.08-.03.16-.06.25-.09.4-.14.8-.27,1.21-.4.19-.06.38-.12.57-.18.39-.13.79-.25,1.18-.36.83-.25,1.67-.48,2.52-.7.02,0,.03,0,.05,0,.09-.03.17-.05.26-.07,0,0,.01,0,.02-.01.11-.03.23-.06.34-.09.02,0,.03-.01.05-.01,1.05-.26,2.1-.5,3.16-.73.12-.03.23-.05.35-.07,3.8-.81,7.67-1.42,11.51-1.9.27-.04.54-.08.81-.11,1.84-.23,3.69-.47,5.54-.75.08,0,.15-.02.23-.04,5.66-.87,11.25-2.12,16.3-4.68.35-.16.7-.34,1.04-.54.11-.06.22-.12.33-.19.42-.22.84-.47,1.25-.73,1.26-.79,2.93-2.57,2.84-4.07-.62.29-1.06,1.07-1.52,1.79ZM92.24,26.73c.17-.06.34-.12.52-.18.1-.03.18-.06.28-.09.13-.04.26-.09.39-.13,2.35-.74,4.22-1.32,6.59-1.73.51-.09,1.31-.51,1.81-.64,1.84-.45,4.29-.35,5.74-1.34.09-.06.17-.11.26-.16.09-.06.2-.1.3-.14.07-.02.13-.05.19-.09.41-.17.79-.31,1.15-.67.43-.44,2.96-.71,3.47-.05.7.92-2.6,2.58-3.4,2.8-1.17.31-2.53.45-3.75.61-1.28.18-2.55.47-3.8.76-.54.17-1.04.27-1.42.33-1.89.32-3.44.86-5.35,1.1-4.31,1.54-6.29,2.41-10.14,4.02-3.37,1.41-6.64,2.74-10.16,4.17-.02.01-.03.01-.05.02-.05.02-.11.04-.16.06-.02.01-.06.02-.13.03h0c-.07.01-.17.01-.33.02.83-.5.64-.47,1.11-.7,3.44-1.69,5.81-3.3,9.37-4.77,2.35-.97,4.62-2.17,7.01-3.05.17-.07.34-.12.51-.18Z"/>
          <path class="cls-4" d="M98.73,12.53c-1,.52-3.24,1.66-4.98,2.62-.15.08-.3.17-.46.26-.59.34-1.09.65-1.43.88-1.23.86-2.56,1.66-3.79,2.51-.65.46-1.32.9-1.98,1.35-.05.04-.1.07-.15.1-.02.01-.03.03-.05.04-.6.41-1.18.83-1.75,1.27-.82.64-1.59,1.33-2.4,2.07-1.24,1.17-2.45,2.37-3.73,3.49-2.12,1.85-4.15,3.8-6.28,5.64-.63.54-1.2,1.15-1.76,1.76-.89.97-1.78,1.93-2.7,2.87-.84.86-1.84,1.65-3,2.04-.36.12-.57.04-.77.4-.04.06-.88.74-.9.7-.09.1-.68.37-.51.09.04-.07,1.3-1.07,1.33-1.11,1.02-1.11,2.22-2.04,3.25-3.14.12-.12.23-.25.34-.38.97-1.14,1.97-2.29,3.03-3.35,1.7-1.7,3.42-3.4,5.24-4.98s3.84-3.11,5.72-4.72c.22-.19.44-.37.67-.54.17-.13.34-.26.51-.39.64-.49,1.31-.94,1.97-1.41.26-.19.53-.37.79-.57.31-.22.61-.44.9-.67.64-.48,1.29-.97,1.95-1.43,1.2-.85,2.4-1.68,3.63-2.47.82-.52,1.66-1.03,2.53-1.46.41-.2,1.47-.73,1.89-.9,1.07-.44,2.16-.66,2.67-.63.12,0,.2.02.23.06Z"/>
        </g>
        <path class="cls-8" d="M128.19,15.99s-.04-.08-.07-.12c-.04-.05-.08-.11-.13-.17s-.11-.12-.16-.17c-.23-.23-.46-.44-.7-.65-.06-.06-.12-.11-.18-.14-1.2-1.04-2.57-1.86-4.04-2.43-.02-.02-.05-.03-.08-.03-.51-.2-1.03-.37-1.56-.51.1.01.19.02.29.03,1.03.1,2.1.16,3.01-.32.85-.44,1.4-1.27,1.69-2.2t0-.02c.04-.11.07-.23.1-.34.09-.34.15-.68.18-1.03.04-.48.04-.97-.04-1.43-.01-.02-.01-.03-.01-.04-.09-.5-.26-.97-.57-1.36-.2-.26-.49-.49-.81-.65-.03,0-.04-.02-.06-.03-.22-.1-.46-.18-.7-.21h-.02s-.05-.01-.07,0c-.31-.04-.6,0-.87.11-.48.21-.58.7-.55,1.23,0,.14.02.29.04.43,0,.03,0,.06,0,.08.02.21.06.4.08.58v.03s.01.1.01.14c.01.05.01.09.01.13.01.04.01.08.01.11,0,.06,0,.13-.02.19,0,.19-.03.37-.08.55-.03.17-.08.33-.15.49-.03.11-.08.22-.14.33-.05.13-.12.26-.2.39-.08.16-.18.32-.29.47-.51.73-1.19,1.39-1.84,2-.56.53-1.12,1.06-1.7,1.56-.15.14-.31.28-.46.4-.79.68-1.6,1.32-2.46,1.87-.29.19-.57.36-.87.53-.17.09-.34.18-.51.27-.4.2-.8.38-1.21.53-.18.07-.37.13-.56.19-1.61.5-3.31.6-5,.71-.32.02-.64.04-.96.06-.42.03-.84.07-1.26.11-.38.04-.77.08-1.15.13-.65.07-1.3.15-1.95.25-.3.04-.6.09-.9.13-.26.04-.52.09-.79.13-1,.16-1.99.34-2.99.53-.5.09-1.01.19-1.52.29-.49.1-.99.19-1.49.29,0,0,.02,0,.03-.02.78-.39,1.55-.81,2.31-1.25,3.04-1.74,5.9-3.8,8.51-6.14.42-.38.98-1.39.42-1.4-.16-.01-.6.18-.73.27-.7.49-1.4.99-2.1,1.48,0,0-.01.01-.02.01-.94.67-1.88,1.33-2.82,1.99-1.15.81-2.31,1.62-3.45,2.45-.04.03-.08.06-.13.09-1.97,1.42-3.92,2.89-5.78,4.46-1.92,1.61-3.74,3.33-5.62,4.98-.16.14-.32.28-.49.42-.97.84-1.96,1.66-2.98,2.44-.8.61-1.62,1.19-2.47,1.72-.05.03-.1.07-.15.1-2.5,1.56-5.24,2.77-8.14,3.2,1.74-.77,3.34-1.8,4.89-2.91.67-.48,1.33-.98,1.99-1.47,2.6-1.95,5.19-3.89,7.78-5.84.47-.35.93-.7,1.4-1.06-.08.02-.15.04-.23.06-1.06.3-2.11.59-3.18.89.05-.03.09-.06.14-.1,6.5-4.45,13.23-8.79,19.76-13.23,0,0,0-.01.02-.01.02-.02.05-.04.07-.05.46-.31.92-.63,1.38-.94.01-.01.03-.02.04-.03-2.1,1.1-4.31,1.9-6.46,2.95h-.02c-.72.35-1.42.73-2.12,1.15-.83.51-1.73,1.02-2.61,1.53-.15.08-.3.17-.46.26-.32.18-.63.36-.94.54-2.18,1.26-4.25,2.67-6.26,4.2-.05.04-.1.07-.15.1-.02.01-.03.03-.05.04-1.39,1.06-2.76,2.15-4.1,3.3t-.02.02h0s-.01.02-.02.02c-2.49,2.1-4.89,4.31-7.29,6.51-2.58,2.37-6.35,5.46-9.59,8.23l-.06.06s-.05.05-.1.09c-.49.4-.96.8-1.41,1.2-.15.13-.31.26-.45.4-.25.22-.49.43-.7.61h-.01c-.06.07-.11.12-.16.16-.03.02-.06.04-.09.07-.06.06-.12.11-.17.16,0,.02-.03.03-.04.05-.02.02-.05.04-.07.06-.02.01-.03.03-.04.03s-.01.01-.02.01h0c-.04.05-.05.06-.08.08,6.57-3.28,15.13-8.52,21.7-11.78,1.23-.61,2.48-1.2,3.74-1.77.43-.19.85-.37,1.27-.55.21-.09.42-.18.63-.27,4.88-2.04,9.96-3.58,15.21-4.12.15-.01.3-.03.45-.05,1.41-.16,2.93-.43,3.74-1.5t.02-.02c.03-.05.07-.1.1-.15.02-.02.03-.05.05-.08-1.09-.01-2.18.01-3.27.09-.11,0-.22,0-.33.02-3.52.24-7.01.91-10.37,1.97-.09.03-.19.06-.28.09-2.55.82-5.02,1.87-7.38,3.14.38-1.01,1.4-1.61,2.37-2.08,2.05-1.01,4.19-1.83,6.38-2.48.38-.11.75-.22,1.13-.32.07-.01.14-.03.2-.05.42-.11.85-.21,1.27-.31,4.31-.95,8.78-1.21,13.17-.73,1.25.14,2.67.41,3.88.06,1.11-.33,1.94-1.12,2.79-1.92.29-.26.58-.52.88-.77.6-.49,1.28-.94,2-1.22.15-.06.29-.1.44-.14.15-.04.29-.07.44-.09.45-.08.91-.07,1.36.07-.02,0-.05.01-.07.02-1.64.3-5.67,3.73-8.71,6.52-.76.7-3.18,1.76-4.13,2.18-1.08.49-2.31.51-3.5.59-5.51.4-11.29,2.51-16.05,4.65-.33.15-.65.29-.97.44-.35.16-.69.33-1.03.49,2.09-.58,3.79-.94,5.94-1.24,3.75-.53,8-.4,11.7-1.23,1.4-.32,2.85-.81,4.23-.4.74.21,1.45.68,2.21.55.17-.03.32-.09.46-.17.03-.01.05-.02.08-.04.36-.21.65-.55.93-.92.04-.06.08-.11.12-.17.04-.04.07-.09.1-.14.42-.55.83-1.1,1.46-1.3-.75,1.88-2.27,3.25-4.03,4.31-.11.07-.22.13-.33.19-.34.2-.69.38-1.04.54-.65.33-1.32.61-1.98.87-4.61,1.82-9.43,3-14.32,3.81-.08.02-.15.03-.23.04-2.1.35-4.23.62-6.35.86-.88.09-1.77.18-2.65.26-2.06.19-4.13.35-6.15.81-.92.21-1.83.49-2.71.83-.1.04-.21.08-.31.12-.11.04-.22.09-.33.15h-.02c-.2.07-.38.16-.57.25-.19.08-.38.18-.56.27-.01,0-.02.01-.03.01-.14.06-.28.13-.42.21h-.01s-.02.01-.03.02c-.04.01-.08.04-.12.06.79.02,1.59-.02,2.38-.13h.02c.18-.02.37-.05.56-.08h.03c.21-.03.41-.07.56-.1.05-.01.09-.02.13-.03.04-.01.09-.02.13-.03.05-.01.1-.01.15-.02.18-.03.36-.06.55-.08.62-.08,1.43-.17,2.06-.25.03-.01.06-.01.09-.01.23-.03.43-.06.58-.09h.02s.08-.02.12-.03c7.35-1.87,10.54-1.5,18.09-2.25,1.52-.15,3.06-.34,4.59-.61.61-.09,1.22-.2,1.82-.33.23-.03.45-.08.68-.13,1.4-.3,2.79-.65,4.15-1.08,1.02-.33,2.03-.7,3.01-1.11.59-.25,1.18-.52,1.75-.8.58-.29,1.14-.59,1.7-.92,1.21-.71,2.36-1.52,3.45-2.44.01-.01.03-.02.04-.04.1-.09.2-.18.3-.28.19-.19.38-.39.55-.61,0-.01,0-.02.02-.03.08-.11.16-.23.24-.35.12-.18.21-.36.29-.54.08-.18.13-.36.17-.55.06-.3.06-.59-.04-.87-.05-.16-.13-.32-.24-.47-.25-.33-.61-.55-.99-.76-.06-.03-.13-.07-.19-.1-.12-.07-.25-.13-.36-.2h-.01c-.12-.08-.23-.15-.33-.22h-.01c-.08-.07-.15-.13-.22-.2-.07-.07-.13-.13-.18-.21-.03-.05-.06-.11-.09-.17-.03-.05-.05-.11-.07-.18-.03-.11-.05-.22-.05-.32,0-.05,0-.11.01-.16.04-.33.21-.64.45-.9.04-.04.08-.08.12-.12.02-.03.04-.05.07-.06.03-.04.07-.06.1-.09.2-.15.42-.26.65-.35.08-.05.17-.08.25-.11.28-.11.57-.19.85-.28.81-.27,1.61-.6,2.36-1.01.36-.18.7-.39,1.04-.6.8-.51,1.54-1.09,2.23-1.74.12-.12.24-.24.35-.36.11-.1.21-.2.31-.31.21-.23.42-.49.42-.8,0-.12-.04-.22-.1-.33ZM94.29,15.35h0s.01-.01.01-.01c0,0,0,.01-.01.01ZM95.24,20.7c-.73.25-1.94.95-2.85.95-.13,0-.26-.02-.37-.05.9-.69,1.49-1.62,2.44-2.15.09.38.44.36.71.46.21.07.44.08.66.12-.06.34-.41.44-.59.67Z"/>
        <path class="cls-8" d="M109.59,24.52c-.17.05-.34.1-.5.14-1.32.33-2.68.43-4.03.58-10.78,1.25-22.52,7.83-31.38,10.44,5.64-4.35,14.96-7.92,22.73-10.31,2.6-.8,5.24-1.46,7.92-1.98,1.43-.28,2.93-.54,4.21-1.27.5-.28.93-.79,1.5-.91.7-.15,1.56-.19,2.26-.1.19.03.49.18.63.3.38.32,0,.93-.33,1.3-.79.89-1.87,1.46-3.01,1.81Z"/>
        <path class="cls-9" d="M79.33,58.62c-.91-.07-1.68-1.18-2.53-1.51h-.01c.52-.47,2.21,1.19,2.54,1.51Z"/>
        <polygon class="cls-2" points="66.72 66.55 66.69 66.52 66.72 66.55 66.72 66.55"/>
        <path class="cls-9" d="M45.78,100.01c-.11-.53-.18-.85-.5-1.3-.02-.02-.15.11-.17.09-.28.3-.17.48-.11.89.06.47-.15.94-.48,1.27-.33.34-.77.55-1.2.73-.14.05-.28.11-.42.13h-.04c-.06,0-.11,0-.16-.02-.03,0-.06-.01-.09-.02-.08-.03-.14-.07-.19-.13-.02-.01-.03-.03-.04-.04-.18-.23-.21-.6-.21-.91.01-.37.02-.74.03-1.12,0-.18,0-.37,0-.55,0-.09.02-.2,0-.3,0,0,0,0,0,0-.01-.03.1-.39.07-.41-.24-.18-.56.58-.65.72-.18.28-.34.56-.5.85-.62,1.15-1.1,2.37-1.6,3.58-.33.8-.67,1.6-1.07,2.37-1.15,2.2-2.77,4.13-4.59,5.83-.58.54-1.22,1.12-1.42,1.89-.03.09-.04.2.03.27.06.05.15.04.23.03.66-.09,1.34-.2,1.9-.57.67-.44,1.08-1.18,1.64-1.75.88-.88,2.1-1.32,3.1-2.07,1.34-1.02,2.2-2.54,3.25-3.86.88-1.12,1.93-2.11,2.65-3.34.39-.68.69-1.48.53-2.25ZM35.4,110.43h0s0-.01,0-.01h0Z"/>
        <polygon class="cls-11" points="75.07 25.57 75.05 25.6 75.07 25.58 75.07 25.57"/>
        <path class="cls-4" d="M95.83,20.03c-.06.34-.35.5-.59.67-.71.51-2.3,1.15-3.22.9.9-.69,1.49-1.62,2.44-2.15.09.38.44.36.71.46.21.07.44.08.66.12Z"/>
        <path class="cls-8" d="M47.02,97.75h.01s-.01.01-.01.01h0Z"/>
        <line class="cls-3" x1="43.12" y1="95.69" x2="43.1" y2="95.68"/>
        <path class="cls-9" d="M79.79,18.8h0s.01.01.01.01h0s-.01-.01-.01-.01Z"/>
        <path class="cls-12" d="M80.99,22.94c-1.19,1.01-1.84,1.57-3.57,2.97-3.58,2.91-6.8,6.07-9.89,9.49-.18.2-.35.39-.53.59-.11.13-.22.26-.34.38-1.03,1.1-2.23,2.03-3.25,3.14-.27.25-1.01.96-1.53,1.45-.12.11-.23.22-.32.3-.08.05-.15.08-.21.12.72-.79,1.77-2.44,1.94-2.65.45-.55.79-.96,1.05-1.3.05-.06.09-.11.14-.17.5-.61,1.01-1.21,1.52-1.81.11-.12.21-.24.32-.36.3-.33.66-.71,1.12-1.21,1.01-1.08,2.03-2.14,3.08-3.19.05-.04.1-.09.14-.13.28-.27.55-.53.82-.79.1-.1.23-.23.36-.38.55-.55,1.1-1.08,1.66-1.61-.04.02-.08.03-.11.04-.7.16-.73-1.42-.76-1.68-.11-.96-.45-2.82.69-3.05,2.69-.53,4.38-.09,6.55-.14.11,0,1.05.04,1.12-.01Z"/>
        <path class="cls-4" d="M64.85,38.37c-.17.21-2.23,1.9-3.04,2.67-.06.06-.2.19-.26.23-.04.04-.05.05-.08.07-.04.03-.07.06-.1.08-.05.05-.1.08-.14.11-.02.02-.04.03-.06.04t-.02.02c-.1.06-.19.11-.31.19-.05.03-.1.06-.15.11h-.01c-.2.14-.35.23-.45.27-.47.17-.15-.56-.04-.76.09-.12.19-.23.28-.33.09-.1.17-.19.25-.27.04-.04.08-.08.12-.12.03-.03.07-.07.1-.1.09-.09.17-.17.25-.26.08-.09.16-.17.25-.25.02-.03.04-.05.07-.07,1.01-.92,7.44-7.69,9.63-8.43-.32.9-5.83,6.24-6.28,6.79Z"/>
        <path class="cls-9" d="M70.52,30.69c-1.05,1.05-2.07,2.11-3.08,3.19-.46.5-.82.88-1.12,1.21.45-.53.92-1.06,1.4-1.58.89-.97,1.85-1.9,2.8-2.82Z"/>
        <path class="cls-9" d="M74.93,26.47c-1.05.94-2.07,1.91-3.08,2.91.82-.89,2.08-2.45,3.08-2.91Z"/>
        <rect class="cls-9" x="79.79" y="18.8" width=".01" height=".01"/>
        <path class="cls-4" d="M47.06,47.43s.06-.01.09-.01h.01s0-.04.01-.06c-.04.03-.07.05-.11.07ZM48.7,50.19s.04.03.06.04c-.01-.03-.01-.06,0-.1v-.02s-.05.05-.07.08ZM75.66,38.79c-.14.01-.27.03-.4.05-1.92.21-3.79.7-5.62,1.35-.02.01-.05.01-.07.02-.04.02-.09.03-.13.05-.33.12.02-.01-.63.18-.43.12-.33.17-.54.14-.03-.01-.08-.02-.14-.03-.41.1-.82.21-1.23.32-1.11.47-2.61.95-3.64,1.62-.03.02-.05.03-.08.05-.42.28-1.03.38-1.5.57-.52.2-1.01.49-1.46.83-.16.12-.49.59-.77.78-.06.05-.12.08-.2.1h-.06c-.12-.03.3-.93.35-1.01.39-.62.79-1.24,1.14-1.91.01-.03.02-.06.04-.09,0-.01.01-.02.02-.03.03-.07.13-.26.23-.48.21-.42.43-.95.31-1.02-.02.02-.06.05-.12.1-.03.02-.06.05-.1.09-.04.03-.08.07-.13.12-.03.03-.07.07-.1.1-.04.04-.08.08-.12.12-.08.08-.16.17-.25.27-.09.1-.19.21-.28.33-.13.16-.27.34-.41.53-.1.14-.21.3-.31.46-.09.13-.18.26-.25.41-.03.03-.05.06-.07.1-.02.03-.04.06-.05.09-.02.03-.04.06-.05.09-.1.18-.2.38-.3.58-.2.41-.38.85-.53,1.32-.07.24-.14.48-.2.74-.07.25-.12.51-.16.78-.05.27-.08.55-.1.84-.03.28-.04.58-.04.88,0,.24.01.49.03.74.01.18.12-.18.14,0,.1-.2.05.12.15-.07.8-1.58,2.04-2.05,2.75-3.92,1,.71,2.16-1.09,2.67-2.24,2.74-1.1,5.5-2.13,8.38-2.95.19-.06.37-.12.56-.17h.03c1.08-.3,2.15-.57,3.24-.83ZM76.03,38.74c-.13.01-.25.03-.37.05-.14.01-.27.03-.4.05-1.45.21-2.49.52-3.13.8-.01.01-.02.01-.02.01-.02,0-.03.02-.05.03h-.02c-.08.04-.15.07-.21.11.39,0,1.05-.01,1.74-.03h.22s.28-.01.28-.01c.02,0,.03-.01.05-.01.53-.02,1.05-.04,1.43-.08-.23.01-.45.01-.65,0h-.02c-.27,0-.5-.03-.61-.08.05,0,.42-.13.43-.13.18-.07.35-.13.53-.19.23-.06.45-.16.65-.3.06-.03.14-.07.16-.14,0-.01.01-.08-.01-.08Z"/>
        <path class="cls-9" d="M45.61,85.13h0s.04-.02.06-.04c-.02.01-.04.03-.06.04Z"/>
        <g>
          <path class="cls-12" d="M104.75,56.86s.01.03.02.04c.04-.04.09-.07.14-.11-.05.02-.11.05-.16.07ZM114.2,68.88c-.38.2-.76.38-1.15.55.15-.06.31-.12.47-.19.26-.1.51-.25.77-.4-.03.01-.06.02-.09.04ZM115,68.43s-.03.03-.05.01h-.01s-.01-.01-.01-.01c-.08.08-.16.14-.25.19.09-.05.19-.1.28-.14.03-.02.07-.04.1-.05h-.06Z"/>
          <path class="cls-12" d="M95.8,61.09c-.09-.08-.18-.15-.27-.24.17.34.69.87.95,1.2.1.09.21.18.31.29-.3-.42-.64-.84-.99-1.25Z"/>
          <path class="cls-12" d="M102.66,86.35l-.04-.16c-1.71-7.93-.89-17.03-5.83-23.85-.1-.11-.21-.2-.31-.29-.26-.33-.78-.86-.95-1.2-2.46-2.11-5.05-4.54-6.33-7.57-1.96-4.36-1.94-9.72.36-13.98.26-.48.49-.9.3-1.06-4.91-.19-10,.8-14.91,1.17-3.47-.15-6.87.71-10.01,2.25-3.04,1.54-6.46,4.2-7.21,7.54,3.52-2.79,7.87-4.56,12.17-5.98,2.96-.88,6.01-2.29,8.93-3.28.41.15.05,1.13.51.96,1.29-.43-.29.92-.73,1.26-.17.25-1.98,1.15-1.24,1.07,1.2-.14,3.32-1.42,3.66-1.31.32.1-.98.99-1.32,1.19-1,.47-.69.48-.04.34.71-.08,2.37-1.01,2.4-.86.24.96-2.16,1.79-3.22,2.23-.06.04-.28.13-.06.14.83-.02,2.4-.29,3.29-.31.11,0-.02.06-.31.14-.45.21-3.1.63-1.24.79,4.69.89,2.37.9-.54,1.04-.03.01-.59.06-.27.21.36.07,1.84.46,2.19.8.36.32-1.05,0-1.27.04-.29-.04-1.26-.08-1.22.05.07.21,1.56.18,2.05.48.72.32,1.58.84.18.78-1.19.12,1.89,1.19.21,1.15-.63-.03-1.67.22-1.72.29-.05.07.89-.02,1.51.24.32.13.65.31.92.52.21.22.18.22-.22.13-.62-.09-.03.77-.06,1.02-.18-.01-.41-.33-.63-.51-.75-.64-.96-.44-.3.17.51.4,1.68,2.49.28,1.47-.63-.46-.98-.65-.63-.17.37.53.99,1.51.87,1.53-.43.08-1.42-.98-2.42-1.19-.35-.08-.47-.02-.07.2,1.08.55,3.01,2.99,2.54,3.01-.31,0-2.27-2.06-3.7-2.31-.26-.05-.24,0-.03.13,1.38.76,2.46,1.51,3.44,2.69.14.2.48.71.38.95-.09.35-.52.41-.8.3-.68-.3-2.05-1.5-2.61-1.72.05.08.3.33.57.62,3.36,4.05.5,1.88-1.74,1.1.82.58,2.27,1.59,3.04,2.5.16.2.09.23-.14.14-1.16-.48-2.77-1.51-3.88-1.88,1.09,1.14,2.82,2.37,3.94,3.46.18.24-2.29-1.51-2.14-.36,0,.39.73,1.37-.08,1.13-.43-.08-1.81-.92-.73-.07.39.39,1.19,1.14,1.01,1.35-.2.21-1.77-.92-2.27-.93-.06.08.71.79.9,1.01.82.95-2.65-1.52-2.83-1.33-.1.06.76.89.8,1.13.11.32-.9-.1-.74.35.06.25.27.54.23.8-.06.31-.51.67-.24,1.21.22.54,1.13,1.13.91,1.74-.34.39-1.56-1.57-1.71-.99-.01.29.06.59.1.87.04.42-.08.39-.33.09-.34-.41-.83-1.25-1.28-1.1-.36.12-.6.63-.7,1.04-.24.54-1.42-1.27-1.79-1.54-.63-.64-2-2.43-.82-.48,2.36,5.15,1.03,3.14-1.5.45-.24.08.82,1.63.47,1.6-1.38-.64-2.36-1.98-3.6-2.95-.57-.5-.91-.63-.43.46,1.83,3.82-1.87-.16-2.64-1.08-.06-.04-.21-.22-.18-.02.21.86,1.23,1.78,1.02,1.81-.55.08-1.16-1-1.83-1.91-.32-.02.15,1.55-.24,1.27-.78-.92-1.31-2.55-1.39-3.85-.03-.14-.03-.47-.18-.5-.22-.06-.71.79-.96,1.35-.44.97-.53,2.36-1.25.76-.41-.88-.69-1.91-.75-2.8-.07-.6.05-1.61-.04-1.52-.19.18-.29,1.21-.53,1.68-.2.39-.47-.38-.49-.45-.14-.34-.19-.63-.33-1.05-.4-1.18-.39-2.45-.39-3.67-.02-.6-.67,1.19-.73.66-.08-.66.36-1.84-.07-2.46-1.01-1.38-2.39-2.8-3.47-4.11-.48-.61.72-1.34-.4-1.36-.24-.04-.34-.16-.22-.34-.04-.19,1.56-.88.76-.78-.35-.07-1.75.73-1.26-.01.15-.24.32-.5.21-.6-.09-.1-.42-.08-.64-.14-.63-.21.34-1.21.2-1.48,0-.19-.29-.22-.59-.37-.24-.13-.45-.35-.66-.42-.23-.11-.54.08-.77.21-.16.08-.24.07-.22-.06.03-.2.31-.68.59-1.09.15-.42,1.61-1.6.57-1.46-.29.06-.69.3-.94.46-.99.77.39-1.63.13-1.63-.05-.09-.3.11-.63.33-.71.5-2.12,1.07-1.41-.49,1.27-3.24-.37-.01-.49-1.39-.24-2.67-.82.51-.81-1.56.08-1.78-.76.75-.9-.34,0-.22.09-.61.13-.86.19-1.4-1.01,1.66-1.3,1.54-.07-.06-.03-.51.02-.98.08-.85.19-2.15.07-1.76-.17.45-.28,1.22-.44,1.65-.06.16-.1-.06-.18-.43-.07-.37-.2-.53-.35-.34-.09.14-.17.31-.23.46-.03.05-.07.14-.09.19-.04.05-.06.06-.06,0,.04-.67.46-2.68.47-3.46-.07,0-.37.76-.58,1.29-.2.5-.42,1.12-.58,1.21-.22.06-.26-.41-.32-.61-.15-.74-.29-.52-.51.02-.95,1.91-.36-1.71-.86-2.06-.28-.26-.27,1.67-.52,1.89-.36.26-.36-2.23-.85-1.23-.15.18-.35.81-.63.53-.23-.27-.44-1.07-.77-.86-.1.04-.19.15-.27.29-.25.41-.39.9-.62.78-.24-.09-.58-.53-.86-.34-.38.18-.55,1.29-.85,1.46-.21.16-.53-.13-.84-.22-.44-.16-.56.47-.84.7-.16.06-.48-.33-.6-.15-.13.14-.08.86-.2.98-.09.14-.33-.14-.53-.18-.34-.07-.4.86-.67,1.08-.28.25-.7.05-.92.43-.14.21-.21.56-.29.94-.24.94-.05,1.91-.81,2.2-.4.11-.98.01-.89.6.14.57.24,1.28.1,1.79-.25.7-1.02-.86-1.32-1.13-.5-.64-.86-1.27-1.02-1.01-.17.76-.26,1.71-.83,2.31-.44.45-.73.86-.67,1.37.03.26,0,.58-.33.55-.19,0-.35-.02-.49.13-.05.14.16.46.25.76.22.59-.52.94-.4,1.51.03.27.16.63.07.97-.16,1.14-1.86.85-2.1,1.68.16,6.42.8,13.07,3.82,18.85.2.35.45.68.74.93.52.53,1.23.44,1.43.79.34,2.52,1.87,4.34,4.51,4.66,1.3.25-.65-2.48-.72-2.87-.03-.11.03-.09.15.08,1.76,3.27,5.67,3.25,8.83,2.26,4.09-1.12,8.82-2.42,11.18-6.28.26-.44.37-.61.23-.08-1.45,5.29-3.02,10.88-4.06,16.19-.03.43.28-.16.36-.31.46-1.03,1.5-.98,1.45.18,0,.35.01.83.14,1.13.04.08.09.11.15.08.51-.49.54-.02.95.4,2.18,2.23,4.34-.64,5.32-2.6,1.76-3.08,2.74-6.6,2.92-10.14.13-2.55-.17-5.13-.81-7.59.33.51.71,1.05.91,1.63.19.59.31,1.16.59,1.72.62,1.24,1.53,2.37,2.46,3.38.6.66,1.28,1.24,2.02,1.74.79.53,1.62.86,2.5,1.21.72.29.91.37.8,1.03-.31,2.74-2.17,5.2-3.03,7.79-.32,1.38-.74,3.12-.79,4.46,0,.14.03.22.06.26.07.07.16.01.23.11.19.64.6,1.7,1.4,1.92,1.48.62,3.42.29,4.22-1.21.34-.51.52-1.33.79-.29.04.07.08.05.14-.07.24-.61.65-1.8,1-2.53,1.58-2.89,1.44-6.44.18-9.42-.02-.28.43.29.61.51.51.4.66,1.55,1.29,1.23.13-.1-.17-2.52,0-2.44.23.09.82,1.38,1,1.44.35.14.35-.13.39-.23-.02-.43.05-1.11-.09-2.28.08-.19.68,1.42.85,1.23.19-.08.24-.64.41-.56.2.2.12.55.13.91.03.74.48.76.49.4.04-1.01-.3-2.55.6-.95.31.52.61,1.02.79.35.16-.59-.03-1.64.3-1.51.54.33.6,1.63,1.11,1.7.28.04.13-2.05.29-2.28.07-.12.32.52.49.89.17.34.43,1.05.62.79.1-.1.13-1.14.45-1.18.35.01.88,1.03,1.05,1.2.31.27.42-.43.61-.75.2-.62.69-.44,1.26-.07.32-.11.33-1.54.7-1.56.16.03.45.18.59.23.27-.01.52-1.33.75-1.18.31,3.25-2.47,8.56-2.51,11.28.13.53.27-.44.4-.86.11-.45.1-.27.06.05-.17,1.44-.12,3.66.29,2.04.04-.12.07-.16.09-.06.03.18.02.87.11,1.37.26,1.29.66,2.83,1.87,3.51.37.08.55-.19.78-.11.25.1.42-.05.52-.27.22-.23.59.51.88.36.22-.08.23-.51.42-.55.21-.06.67.21.97-.09.31-.28.41-.97.66-1.04.25-.1.67.27.73-.01.13-.35-.48-1.86-.37-1.88.04-.05.23.28.45.65.92,1.44.56-1.86.63-2.31-.04-2.85-.09-5.9-.14-8.8.12-2.46-.28-4.77-2.38-6.3-.17-.17-.28-.36.14-.24.51.11,1.59.76,1.84.11.66-1.06,1.41-3.47,2.04-4.39.02,0,.02.08,0,.2.03.48-1.72,6.06-.7,4.84.04-.07.14-.2.19-.27.17-.15.41-.77.45-.29-.05.51-1.79,10.19-.46,6.91.22-.4.02.64.02,1-.04.93-.1,2.23.16,1.63.02-.06.08-.18.11-.24.05-.13.1-.26.14-.31.03-.06.05-.06.05.01,0,.25-.14.97-.15,1.46-.04.76.13.86.36.39.44-.57.03,1.47.56,1.06.2-.16.35-.4.37-.06.16,3.29,2.57,5.91,4.71,8.18.34.17.23-.51.44-.3.18.12.57.87.87.68.16-.17.12-.69.27-.52,1.05,2.15,3.09.91,4.1-.71.99-1.42,1.27-3,.74-4.65ZM43.52,59.38c-1.41,3.46-4.38,6.93-7.92,8.24-.06-.05.16-.26.43-.43.86-.51,1.74-.97,2.53-1.62,4.48-3.44,6.12-9.69,4.96-14.95-.44-2.05-1.28-4.55-3.46-5.19-.47-.15-1.41-.03-1.67.52.41.37,1.44.72,1.84,1.27,1.67,1.67,2.19,4.65,1.43,6.8-.47,1.2-1.47,1.55-2.28.59-1.12-1.33-1.79-3.65-2.56-5.34-.22-.36-.41-.08-.57.19-2.16,4.29-3.71,9.18-2.85,14.02-.59-1.22-.69-3.48-.64-4.9v-.17c.12-2.92,1.39-6.46,2.81-9.23.96-1.98,2.5-5.24,5.21-3.95,4.14,2.75,3.99,9.92,2.74,14.15Z"/>
          <path class="cls-12" d="M115,68.43v.03s-.01.01-.01.01v.02c-1.8,1.32-4.41,1.99-6.51,2.99-2.37,1.13-4.64,1.54-6.54,3.15-.25.22-.31.12-.32-.2-.04-4-1.7-9.19-4.83-12.09-.1-.11-.21-.2-.31-.29-.26-.33-.78-.86-.95-1.2-.06-.11-.16-.11-.13-.16,2.97-1.04,5.88-2.49,8.8-3.79.26-.11.58-.27.85-.13,3.88,3.21,7.86,7.03,9.95,11.66Z"/>
        </g>
      </g>
      <line class="cls-3" x1="95.39" y1="60.68" x2="95.4" y2="60.69"/>
    </g>
  </g>
</svg>