<?xml version="1.0" encoding="UTF-8"?>
<svg id="Layer_2" data-name="Layer 2" xmlns="http://www.w3.org/2000/svg" viewBox="0 0 140.18 118.03">
  <defs>
    <style>
      .cls-1 {
        fill: #261b18;
      }

      .cls-1, .cls-2, .cls-3, .cls-4, .cls-5, .cls-6, .cls-7, .cls-8, .cls-9 {
        stroke-width: 0px;
      }

      .cls-2 {
        fill: #f36b2a;
      }

      .cls-3 {
        fill: #706d6f;
      }

      .cls-4 {
        fill: #483023;
      }

      .cls-5 {
        fill: #a83e23;
      }

      .cls-6 {
        fill: #d7e2ef;
      }

      .cls-7 {
        fill: #130b09;
      }

      .cls-8 {
        fill: #35251b;
      }

      .cls-9 {
        fill: #1c1311;
      }
    </style>
  </defs>
  <g id="Layer_1-2" data-name="Layer 1">
    <g>
      <g>
        <path class="cls-9" d="M46.28,43.12h0c-.06.03-.1.07-.15.11h.2c0-.06-.01-.1-.04-.11ZM24.14,48.94c-.08.23-.19.47-.32.72-.18.36-.39.72-.6,1.09-.02.02-.03.03-.03.04-.1.16-.2.31-.29.47-.03.04-.05.08-.08.12,0,0-.01.01-.01.02-.5.8-.95,1.51-1.04,1.89-.02.11-.04.25-.06.42.2-.64.52-1.24.86-1.82.07-.11.13-.22.2-.33.22-.37.46-.74.68-1.12.19-.34.38-.68.53-1.03.08-.17.15-.34.21-.52-.01.02-.03.03-.05.05ZM22.02,56.87s-.07-.07-.08-.11c-.08-.12-.14-.24-.2-.36-.05-.11-.1-.23-.13-.35-.02-.05-.03-.1-.05-.16-.02.59-.01,1.08.05,1.22.17.37.67.47,1.16.53-.3-.2-.56-.46-.75-.77Z"/>
        <path class="cls-9" d="M34.74,38.75s-.02-.02-.03-.04c0,0,0-.01-.01-.01-.03-.05-.08-.1-.12-.15.06.11.14.23.23.34-.03-.05-.05-.1-.07-.14ZM34.9,39.02s.04.07.07.1h.01s-.05-.07-.08-.1ZM39.67,40.77c.22,0,.43-.02.65-.03.02,0,.05,0,.07-.01-.24.02-.48.03-.72.04Z"/>
        <path class="cls-9" d="M64.6,52.8c-.03.06-.07.1-.11.15-.06.1-.15.19-.25.26,0,.01-.01.01-.01.01-.02.03-.05.05-.08.06-.02.02-.04.04-.06.05-.07.04-.14.07-.21.1-2.02-4.78-3.75-7.75-6.35-12.25-.51.68-1.07.77-1.1,1.62-.51-.24-2.05-.26-2.15-.81-.45-.22-.49-.55-.87-.24-.39.32,0,.51-.04,1.01-.28,3.38-2.72,1.97-4.07,2.56-1.01-.8-1.85-1.35-2.87-2.15-.21,1-.44,1.22-.65,2.21-.08.37.13.76.34,1.06.24.36.53.51.62.93.06.34.42,2.22.14,2.41-1.24.8-3.74-.49-4.09.93-.19.77.2,1.59.79,2.12.59.54,1.34.84,2.08,1.14.06.74-.36,1.46-.94,1.93-.58.47-2.41,1.36-3.12,1.59-.72.23-1.42.42-2.12.58h-.02s-.01.01-.02.01h-.03c-.13.03-.26.06-.38.09-3.29.7-6.44.76-9.74.72h-.09c-1.64-.02-3.31-.07-5.06-.08h-.48c.33-.19.23-.72-.06-.96-.3-.24-.69-.31-1.02-.49-.23-.12-.42-.29-.56-.49-.04-.03-.07-.07-.08-.11-.08-.12-.14-.24-.2-.36-.05-.11-.1-.23-.13-.35-.04-.16-.07-.33-.08-.5-.05-.73.16-1.45.41-2.14.19-.52.4-1.02.63-1.52.08-.17.16-.33.24-.49,0-.01.01-.02.01-.02.3-.59.63-1.17,1-1.72.05-.08.1-.17.16-.25.33-.49.68-.97,1.05-1.43.08-.1.16-.19.23-.29.19-.22.39-.45.6-.68.69-.75,1.43-1.45,2.22-2.09t.02-.02h.01c.3-.26.61-.51.93-.74.56-.41,1.17-.82,1.73-1.28.25-.19.5-.4.72-.61.13-.12.26-.25.38-.39.44-.48.79-1,.99-1.59h0c.08-.23.14-.47.17-.71.05-.39.02-2.08.65-1.88.02.01.04.02.06.03.04.01.08.04.12.07.02.01.03.03.05.04.24.2.45.43.65.68,0,.01.01.02.02.03.04.05.09.1.12.15.01,0,.01.01.01.01,0,.02.02.03.03.04.02.04.04.09.07.14.02.04.06.09.09.13.03.03.05.07.08.1h.02v.03s.03.05.05.07c.14.16.3.3.46.43.03.03.06.06.09.09.96.84,2.3,1.04,3.59,1.04.16,0,.32,0,.48-.01.24-.01.48-.02.72-.04.49-.03.97-.08,1.45-.16,1.2-.15,2.37-.41,3.53-.78.14-.04.28-.09.41-.14.29-.09.59-.19.88-.27.15-.04.3-.08.45-.11.07-.02.15-.04.23-.05.07-.02.14-.03.22-.04.01-.01.02-.01.03,0,.11-.01.22-.02.33-.03.85-.06,1.78.18,2.34.83.02.01.03.02.04.04,0,.01.01.02.02.03.06-.05.13-.11.19-.16.3-.26.61-.51.93-.76.09-.07.18-.14.28-.21.09-.07.19-.14.29-.21,0-.01.01-.01.01-.01.78-.56,1.6-1.06,2.49-1.44.18-.08.36-.15.54-.22h.01c.26-.09.51-.17.77-.24,0-.01-.01-.03-.01-.04.36-.09.72-.15,1.09-.2.05-.01.11-.01.17-.01h0c.2-.02.42-.04.65-.04.65,0,1.34.12,1.91.47h0c.21.23.36.51.5.78,1.17,2.21,2.34,4.4,3.5,6.6,0,0,.01,0,0,.01.05.08.12.15.16.23.16.3.29.61.37.94.01.02.02.04.02.06.03.11.05.23.06.35,0,.24-.03.47-.09.7h0c-.05.26-.11.5-.14.76-.07.59.07,1.17.26,1.74.04.12.09.24.13.36.12.35.25.71.35,1.07.19.72.18,1.61-.18,2.22Z"/>
        <path class="cls-9" d="M15.13,54.63s-.06-.05-.09-.08c.01.03.02.06.04.08.02.02.05.03.08.04l-.03-.04Z"/>
        <path class="cls-2" d="M34.36,33.45c-.23.15-.44.31-.65.49-.1.09-.2.18-.31.27-.08.08-.16.15-.24.23h0c-.14.13-.28.26-.42.39.14-.29.36-.53.61-.75h0s.01-.01.01-.01c.1-.09.18-.18.29-.25.05-.03.1-.06.15-.1h.01c.16-.1.32-.18.49-.25,0,0,.01-.01.02-.01.01-.01.03-.01.04-.01Z"/>
        <path class="cls-2" d="M37.71,34.43s-.05-.03-.07-.06c-.01-.01-.02-.02-.04-.03-.09-.05-.17-.12-.25-.19-.2-.18-.36-.4-.55-.6-.04-.04-.08-.08-.12-.12-.07-.06-.15-.11-.23-.15.02,0,.04,0,.06.01h.02c.44.16.82.44,1.06.89.05.07.08.15.11.23t.01.02Z"/>
        <path class="cls-2" d="M43.66,32.58c-.38.19-.76.38-1.13.58-.48.26-.96.56-1.45.83.11-.07.21-.15.32-.22.06-.04.13-.07.19-.11.44-.3.87-.59,1.29-.79t.02-.01c.1-.05.17-.09.27-.12h0c.12-.06.23-.1.34-.12.05-.02.1-.03.15-.04Z"/>
        <path class="cls-2" d="M59.74,37.08c-1.63-.63-3.48-.57-5.08.11-1.6.67-3,1.75-4.35,2.84-.55-.89-2.49-.93-3.51-.64s-3.98,1.38-7.13,1.38c-2.33,0-3.96-.2-5.29-2.34-.26-.42-.89-.9-1.14-.48-.07.12-.06.27-.06.41.03,1.5-.11,2.41-1.82,4-1.1,1.02-2.38,1.82-3.51,2.83-2.59,2.32-4.94,4.93-6.57,8.01-.53,1-1.16,2.06-2.17,2.57-.9.44-2,.29-2.86-.22-.85-.51-1.44-.96-1.9-1.84-1.52-2.92-1.9-6.26.13-9.84,1.62-2.87,4.86-5.17,8.05-5.98,3.37-.85,7.1-.29,9.69-2.6.59-.53,1.16-1.17,1.79-1.64.63-.47,1.48-.92,2.2-.62.58.25.97.99,1.51,1.31,1.31.79,2.78-.11,4.11-.86.4-.23.94-.55,1.35-.76,2.42-1.25,5.03-2.07,7.68-2.68.34-.08.67-.15,1-.21.27-.05.52-.17.78-.19.56-.05,1.01-.2,1.5.07,1.13.63,2.09,1.57,2.73,2.53.9,1.33,1.51,2.87,2.47,4.15.13.17.26.51.41.68Z"/>
        <path class="cls-2" d="M52.29,29.76s-.22.03-.22.03c-.62.1-1.22.23-1.83.38-.86.24-1.75.49-2.59.77,1.48-.57,3.06-1.07,4.49-1.18h.15Z"/>
        <path class="cls-2" d="M32.53,35.03s-.02.02-.02.02v-.02h.02Z"/>
        <path class="cls-2" d="M33.94,33.74c-.08.06-.15.13-.23.2-.1.09-.2.18-.31.27-.08.08-.16.15-.24.23v-.07c.12-.06.16-.16.19-.29h0s.01-.01.01-.01c.18,0,.29-.08.29-.25,0-.04,0-.07-.01-.11h.01s.09,0,.15.01h.01s.09.02.13.02Z"/>
        <path class="cls-2" d="M37.96,34.57c-.08-.04-.17-.08-.25-.14-.03-.02-.05-.03-.07-.06-.01-.01-.02-.02-.04-.03-.3-.23-.53-.53-.8-.79-.04-.04-.08-.08-.12-.12.13,0,.26.06.37.18l.54.57c.1.1.2.21.29.31h.02s.04.06.06.08Z"/>
        <path class="cls-2" d="M40.69,34.07c.79-.46,1.43-1.22,2.44-1.23-.58.3-1.16.6-1.72.93-.34.2-.71.4-1.09.57.12-.1.24-.2.37-.27Z"/>
        <path class="cls-2" d="M43.52,32.6s.1-.01.15-.02c-.06.02-.1.05-.16.07.01-.01.01-.03.01-.05Z"/>
        <path class="cls-2" d="M45.87,31.61s-.04.01-.06.02h0s.04-.02.06-.02Z"/>
        <path class="cls-6" d="M39.75,15.56h-.01c-.76-1.64-3.69-3.57-5.37-3.99-.39-.11-.72-.13-.93-.04-.71.29-.97-.12-1.69.91-.26.38-.46.57-.72.72-.02.01-.04.02-.05.02-.21.12-.48.21-.86.36-.38.15-.75.27-1.11.38-.06.02-.12.04-.18.06-1.65.51-3.14.8-4.3,1.8-.03.02-.05.05-.09.07-.07.06-.14.12-.2.2-.79.75-1.42,1.91-1.83,3.76.32.51.62.99.91,1.43,0,.02.01.03.02.05.25.38.48.73.69,1.06.03.04.06.08.09.13,4.52,6.85,3.32,2.22,11.85-2.64,1.29-.58,3.81-2.28,3.96-3.57,0-.23-.07-.47-.18-.71Z"/>
        <path class="cls-6" d="M31.58,12.78c.01.05.02.1.02.15-.01-.05-.02-.1-.03-.16.07.02.13.04.19.05-.06-.01-.12-.02-.18-.04Z"/>
        <path class="cls-6" d="M32.49,12.07c-.05,0-.1.01-.15.04h0c.04-.05.08-.06.15-.04Z"/>
        <path class="cls-6" d="M33.87,12.53c-.07-.01-.14-.02-.2-.04-.13-.04-.25-.09-.37-.14.19.07.39.14.57.18Z"/>
        <path class="cls-4" d="M45.38,118.03l-.02-.05h.05s-.03.05-.03.05Z"/>
        <path class="cls-8" d="M70.09,39.31v59.72c0,.18-1.09-.6-1.16-.67-.39-.43-.59-.9-.78-1.44-.43-1.2-.69-2.46-.88-3.71-.37-2.52-.44-5.07-.93-7.57,0-.07-.03-.13-.05-.19l.14-.46c-.69-3.54-.96-10-1.02-16.71v-.18c0-.58,0-1.17,0-1.75-.01-.36-.01-.71-.01-1.07-.01-7.87.21-15.53.32-18.68.36-.39.85-.92.89-1.01.12-.25.17-.52.21-.78.28-1.61.43-3.3.94-4.85.01.03.03.04.04.05.21.14.57-.72.66-.95.02-.04-.06-.21-.12-.35.12-.17.26-.35.4-.5.22-.24.61-.95.76-.21.05.35.17,1.23.6,1.31Z"/>
        <path class="cls-4" d="M61.08,94.93h-.12c.04-.1.08-.03.12-.01h0ZM65.99,79.42c-.07-1.38-.43-7.11-.51-10.8,0-.22-.07-.21-.07-.63,0-.35.13-2.09-.23-2.02-.61.11-2.06,2.33-3,4.15-.31.6-.65,1.21-.93,1.7-.55.94-1.18,1.88-1.84,2.76-1.92,2.58-2.93,6.26-4.1,9.23-1.33,3.36-2.94,6.89-3.74,10.42-.7,3.07-.78,6.29-1.23,9.41-.01.01-.01.02-.01.03-.05.35-.11.71-.17,1.06-.06.33-.12.67-.31.94-.2.29-.48.43-.81.33-.03-.14.03-.87.13-1.66.01-.1.02-.21.03-.33.1-.8.24-1.6.37-1.89.02-.07.05-.11.08-.11-.06,0-.12,0-.17,0-.35,0-.65.14-.9.36l-.03.03c-.58.52-.92,1.49-1.2,2.25h0c-.08.22-.15.42-.22.58-.12.27-.32.6-.62.57-.37-.04-.43-.56-.36-.93.01-.03.01-.06.02-.09.04-.27.07-.58-.07-.78-.03-.04-.07-.07-.11-.1-.04-.02-.08-.04-.13-.06-.06-.01-.12-.01-.18,0-.03,0-.06.01-.09.02-.1.03-.2.08-.31.16-.06.04-.11.08-.16.12-.72.62-2.27,1-2.87,2.28-.01,0,.38.87.38.87-.56,1.19-.62,2.41.64,3.17.12.08.24.15.34.22.12.08.22.16.3.26.14.12.24.26.31.43-.07.04-.14.07-.22.1h-.01c-.22.08-.46.11-.72.11h-.01c-.36,0-.74-.06-1.1-.14-.28-.05-.55-.11-.8-.16-.05.16-.39.13-.49.21-.01.01-.2.08-.2.09-.54.49-1.41-.46-2.28-.79-.19-.07-.18.18-.34.17.06.14.13.28.19.42.08.17.15.35.23.52.03.06.05.11.08.17-.1.02-.21.04-.31.06-1.32.23-2.69.21-4.01-.05-.02-.01-.04-.01-.06-.01-.02-.01-.04-.01-.06-.01-.03-.01-.06-.02-.09-.03-.08-.02-.16-.04-.24-.06-.07-.02-.13-.04-.2-.06-.48-.1-.95-.49-1.4-.44-.3.08-.1.48-.15.72-.03.14-.06.28-.09.42-.15-.01-.29-.02-.44-.04h-.03c-.09-.01-2.51-.6-2.6-.61,1.51.11,4.35,2.27,4.97,2.87.31.3,1.04-.45,1.59-.6,1.81-.51,3.51.94,5.05,2.02,1.73,1.23,4,2.11,5.97,1.31,1.94-.8,2.92-2.93,3.74-4.86,2.36-5.61,5.97-9.77,9.26-14.8,1.49-2.28,2.74-3.78,3.74-6.3.31-.76,2.59-4.12,3.25-6.6-.27-2.83-.39-4.54-.44-5.57Z"/>
        <path class="cls-4" d="M61.08,94.92h0s-.12.01-.12.01c.04-.1.08-.03.12-.01Z"/>
        <path class="cls-1" d="M65.71,46.6c-.15,5.86.5,12.89-.81,16.96.75-2.36-1.1-1.76-1.02-2.21.06-.32.1-.56-.38-1.6-.14-.31.36-.33.54-.29-.78-1.27.69-1.86.74-2.89-1.03-.69-.98-1.44-.84-2.52.21-1.6,1.41-3.35.14-5.15-.56-1.72.61-3.07-.49-4.62.78.49,1.09,3.53,2.12,2.32Z"/>
        <path class="cls-9" d="M60.6,45.49c-.14-.3-.28-.56-.41-.78h.01c.14.22.27.48.4.78Z"/>
        <path class="cls-9" d="M61.67,48.49c-.15-.48-.3-.98-.47-1.47.17.49.33,1,.47,1.47Z"/>
        <path class="cls-9" d="M63.59,44.83s0,.01-.02.02h-.02s.02-.02.02-.03t.02.01Z"/>
        <path class="cls-4" d="M32.49,12.07c-.05,0-.1.01-.15.04h0c.04-.05.08-.06.15-.04Z"/>
        <path class="cls-4" d="M61.08,94.92h0s-.12.01-.12.01c.04-.1.08-.03.12-.01Z"/>
        <path class="cls-4" d="M16.8,76.32c-.06.27-.12.54-.18.82-.07.1-.11.21-.11.33-.05-.49.06-.99.27-1.5t.01.02c0,.11,0,.22.01.33Z"/>
        <path class="cls-4" d="M17.15,82.05h0s-.01,0-.01,0h.01Z"/>
        <path class="cls-4" d="M21.06,81.45c-.67-.51-1.42-.94-2.31-1.24l-.02-.02s-.01,0-.01,0h.01s.1-.01.15-.01c.11,0,.22.01.34.04.1.03.2.06.3.1.07.03.15.06.22.1.08.04.15.08.22.13.07.04.14.09.22.15.12.08.23.17.35.28.01,0,.02.01.03.02.04.03.07.06.1.09.02.01.03.03.05.05.12.09.23.2.35.32Z"/>
        <path class="cls-6" d="M21.29,6.6c-.02,1.26-6.29,2.67-5.4,1.13.86-.38-1.42-4.59-.94-6.12.33-1.04,5.56,1.67,5.1,1.47,3.39,1.48,2.64,2.47,1.23,3.52Z"/>
        <path class="cls-8" d="M18.95,69.96s-.01-.02-.02-.03c.05-.02.05,0,.02.03Z"/>
        <path class="cls-8" d="M68.45,39.06c-.09.23-.45,1.09-.66.95-.01,0-.03-.02-.04-.05-.14-.24-.31-1.25-.34-1.41-1.96-11.33-5.46-22.3-7.85-33.54-.26-1.24-.51-2.48-.74-3.73-.05-.24-.43-1.29.08-1.21.24.04.43,1.34.49,1.58,3.2,12.06,6.4,24.14,8.82,36.38.03.16.06.33.05.48,0,.03.03.11.07.2.06.14.14.31.12.35Z"/>
        <path class="cls-8" d="M23.59,60.81s-.04.06-.06.1c.01-.03.03-.07.05-.1h0Z"/>
        <path class="cls-8" d="M68.45,39.06c-.09.23-.45,1.09-.66.95-.01,0-.03-.02-.04-.05,0-.01.01-.02.01-.03.14-.42.32-.83.56-1.2,0-.01.01-.01.01-.02.06.14.14.31.12.35Z"/>
        <path class="cls-8" d="M23.58,60.81s-.04.07-.05.1c.02-.04.04-.07.06-.1h0Z"/>
        <path class="cls-8" d="M47.05,58.91c.32-.49-.68-.75-2.47-.85-.05,0-.1-.01-.15-.01-1.08-.06-2.43-.06-3.95,0-.35,0-.7.01-1.04.03,0-.01-.01-.01-.02-.01h-.01c-.15.02-.3.03-.46.03-3.02.15-6.49.44-9.66.79h-.08c-3,.34-7.97,2.7-9.51,3.77-1.83,1.27-6.53,8.57-6.58,12.39-.02,1.4,1.01,1.35,1.83.59-.64.6.32,1.32,1.57,1.32h.14c1.81-.08,4.11-1.71,2.97-7.37-.32-1.62-.37-3.39.6-4.34,1.93-1.9,2.54-2,4.75-1.94.33,0,.82-.19,1.13.01.7.48,2.86-.96,3.45-1.41.05-.04.1-.07.12-.09.19-.17.39-.32.59-.45,5.55-3.85,13.95,3.04,16.84-.46.15-.18-.1-1.94-.06-2Z"/>
        <path class="cls-9" d="M54.43,29.61c-.21-.26-.42-.52-.64-.78-4.16-4.94-8.86-9.39-14.05-13.28,0,1.23-1.11,2.13-2.1,2.84-3.6,2.57-9.96,6.96-10.41,6.9-1.12-.14-2.19-1.52-3.11-2.81-.03-.05-.06-.09-.09-.13-.09-.14-.19-.28-.29-.42-.15-.22-.29-.43-.4-.64,0-.02-.02-.03-.02-.05-.62-1.16-.67-2.27-.11-3.62.2-.47.63-1.15,1.03-1.57.06-.08.13-.14.2-.2.04-.02.06-.05.09-.07.03-.02.06-.03.09-.05,1.21-.65,2.74-1.21,4.21-1.75.06-.02.12-.04.18-.06.69-.25,1.35-.5,1.97-.74.01,0,.03-.01.05-.02.19-.08.38-.15.56-.23.31-.13,1.4-.38,2.02-.47.05-.01.09-.02.13-.02.38-.02.78-.37.69-.74-.01-.05-.03-.08-.06-.14-.09-.18-.26-.3-.42-.41-3.7-2.51-7.53-4.82-11.47-6.93-.2-.1-.41-.21-.63-.19-.02,0-.04,0-.06.02-.55.1-.63.87-.73,1.43-.34,2.09-3.12,3.32-4.89,2.16,1.43-.27,2.11-2.12,1.6-3.49-.45-1.22-1.53-2.08-2.74-2.67-.13-.07-.27-.13-.4-.19C12.13.16,6.51-1.26,5.15,2.19c-.4,1.01-.45,2.14-.78,3.18-.02.07-.04.13-.07.2-.17.47-.39.92-.65,1.35-.39.67-.87,1.3-1.34,1.92C1.34,10.11.33,11.44.03,13c-.3,1.57,1.63,1.61,1.74,3.19.02.31-.66.91-.71,1.22-.18,1.05,3.16,2.58,4.23,4.35.75,1.26.46,2.88.93,4.27.45,1.36,1.6,2.48,1.68,3.91.14,2.49-2.97,4.13-3.18,6.61-.12,1.48.84,2.88.82,4.37-.03,1.97-1.77,3.82-1.16,5.7.41,1.22,1.7,1.94,2.31,3.08.84,1.56.25,3.55.92,5.18.65,1.59,2.32,2.48,3.93,3.06,3.24,1.17,6.8,1.56,10.22,1.21.4-.04.81-.09,1.22-.15.21-.03.93-.13,1.16-.19.55-.14-.2-.4-.34-.78-.1-.27-.25-.53-.49-.7-.39-.29-.91-.3-1.28-.65-.39-.38-.31-1.09-.32-1.62-.03-1.3.68-2.36,1.06-3.5.03-.1.08-.2.13-.3.08-.16.17-.31.29-.47,0-.01.01-.02.03-.04.06-.1.14-.21.23-.31.3-.39.66-.78.87-1.23s.51-.81.72-1.25c-.14.29-.53.57-.75.81-.26.28-.52.57-.77.85-.54.6-1.13,1.16-1.55,1.86-.71,1.2-1,2.66-2.02,3.66-.79.78-1.92.97-2.97.65-1.13-.34-2-1.11-2.53-2.15-.2-.39-.36-.81-.49-1.23-.49-1.58-.93-3.32-.69-4.98.18-1.3.7-2.53,1.4-3.64.12-.19.24-.37.37-.55,1.12-1.58,2.61-2.89,4.28-3.85,1.81-1.04,3.86-1.67,5.95-1.81.02,0,.04,0,.07,0,1.21-.07,2.43-.11,3.58-.51,1.05-.37,2.07-.83,2.97-1.5.87-.65,1.55-1.56,2.48-2.14.49-.3,1.1-.49,1.67-.34s.89.61,1.29.99c.5.48,1.18.67,1.87.6.83-.09,1.58-.49,2.28-.91,2.35-1.39,4.88-2.44,7.48-3.24,1.15-.35,2.32-.61,3.5-.82.52-.09,1.02-.13,1.52.09.27.12.6.38.9.4-.06-.21-.28-.42-.42-.59ZM19.79,32.82c-.21-.14-.78-.57-.91-.78-.5-.79-1.16-1.16-1.5-2.03-.09-.21.16-.24.29-.43.15-.26.2-.47.5-.41,1.09.24,2.15.64,3.13,1.19.5.29.72.62.76.95.09.78-.89,1.59-1.82,1.84-.37.1-.13-.12-.45-.33ZM14.15,26.83c-.97-.13-1.44-.86-1.43-1.81,0-.42.04-1.43.45-1.65.45-.24.66-.8.48-1.29-.1-.26-.29-.48-.51-.67-.5-.42-.66-.95.06-1.18.62-.2,1.34-.17,1.99-.13.54.02,1.15.03,1.68.19.89.26,1.77.72,2.1,1.66.25.68.07,1.38-.3,2-.28.46-.5.92-.85,1.33-.27.31-.52.64-.84.91-.14.13-.3.23-.47.31-.36.17-.77.25-1.19.3-.39.05-.78.09-1.17.03ZM11.26,16.01c.15-.79,1.06-1.9,1.89-1.09.14.13.26.26.35.41.02.04.04.08.05.12.02.05.03.11.05.17.14.6-.1,1.13-.37,1.7-.15.31-.22.74-.55.8s-.5-.15-.73-.38c-.12-.12-.23-.28-.31-.42-.24-.41-.46-.85-.38-1.31ZM13.05,11.21s.02-.08.04-.13c0-.01,0-.02.01-.03,0-.01,0-.02.01-.03.06-.15.16-.33.29-.49.53-.72,1.76-.64,1.9-.17.01.02.01.05.01.07.01.07.01.13.01.2,0,0,0,.01-.01.02-.05.32-.22.73-.37.9-.05.04-.08.09-.13.12-.08.07-.18.12-.27.16-.18.11-.38.16-.58.19-.09.02-.18.03-.27.04h-.07c-.11.01-.22.01-.32-.04-.07-.03-.12-.08-.15-.14-.03-.04-.05-.09-.06-.13-.08-.16-.08-.36-.04-.54ZM10.73,23.95c-.24.08-.61-.33-.83-.19-.02.02-.49-.04-.5-.02-.15.16.4.75.3.95-.18.37-.62.3-.85-.04-.24-.34-.16-.71.11-1.03.42-.49,1.07-.96,1.64-.44.24.22.45.66.13.77Z"/>
        <path class="cls-4" d="M63.48,59.62c.02.07.04.13.06.2-.02-.06-.04-.13-.07-.2h0c.02-.05.05-.08.08-.09-.03.02-.05.05-.07.09Z"/>
        <path class="cls-4" d="M64.08,59.46s-.07-.01-.1-.01h-.07s.04-.01.06-.01h.01s.07.01.1.02Z"/>
        <path class="cls-9" d="M46.32,43.23h-.2c.14-.16.2-.14.2,0Z"/>
        <path class="cls-9" d="M30.11,61.86c-.1.02-.16.03-.2.04h0s.1-.03.2-.04Z"/>
        <path class="cls-1" d="M46.32,43.23h-.2c.14-.16.2-.14.2,0Z"/>
        <path class="cls-5" d="M30.18,96.19c-.49-.35-.93-.77-1.32-1.26.6.17,1.08.53,1.32,1.26Z"/>
        <path class="cls-5" d="M34.25,99.96c-1.39-.88-2.42-1.57-2.58-3.01-.15-.03-.29-.08-.45-.15.05-.01.11,0,.16,0,.09.01.18.03.27.03h0s.01.01.02.01h.01s.02.08.05.13c.29.78,1.41,2.1,2.51,2.99Z"/>
        <path class="cls-5" d="M33,103.97c-.6-.34-1.32-.38-1.77-.06.14-.15.34-.24.55-.27.01-.01.02-.01.03,0h.01c.07,0,.14.01.21.02.18.02.36.05.54.08h.01c.14.05.28.13.42.23Z"/>
        <path class="cls-5" d="M35.12,104.43s.01,0,0,.02t-.01.01s-.05.01-.08.01c.06-.01.09-.02.09-.04Z"/>
        <path class="cls-5" d="M36.3,101.36c-.31-.24-.62-.46-.91-.66.28.13.52.2.73.18.04.03.07.07.09.1,0,.02.02.04.03.06s.02.04.02.06c.01.03.02.06.02.09.01.05.01.11.02.17Z"/>
        <path class="cls-5" d="M17.15,82.05h0s-.01,0-.01,0h.01Z"/>
        <path class="cls-5" d="M19.31,80.63h0s-.01,0-.01,0h.01Z"/>
        <path class="cls-5" d="M21.06,81.45c-.67-.51-1.42-.94-2.31-1.24l-.02-.02s-.01,0-.01,0h.01s.1-.01.15-.01c.11,0,.22.01.34.04.1.03.2.06.3.1.07.03.15.06.22.1.08.04.15.08.22.13.07.04.14.09.22.15.12.08.23.17.35.28.01,0,.02.01.03.02.04.03.07.06.1.09.02.01.03.03.05.05.12.09.23.2.35.32Z"/>
        <path class="cls-2" d="M38.45,111.59c-3.32-4.1,5.06-5.89-8.27-15.4-5.22-4.75-4.58-14.44-12.52-16.68-2.37-2.05.58-4.63-3.06-5.48-2.75.14-1.25,3.87-2.12,7.23-.18.66-.44,1.73-.82,2.54-.6,1.32-.99,1.97-.91,3.16.1,1.42.4,2.76.72,3.7.26.78,1.64.74,2.5,2.13s.31,2.61.82,3.32c.55.77,1.81.23,3.03,1.96,1.28,1.82.26,2.65.61,3.1.47.61,2.34.51,3.9,2.34,2.19,2.57,1.16,3.52,1.74,4.07.4.39,1.65-.23,3.35,1.16,1.74,1.44.64,2.85,1.44,3.22.75.36,1.64.5,2.56,1.09-.05-.35-.22-.07-.21-.38,0-.12-.01-.1.11-.11.12-.02,0,0,.11.01,1.47.62-.31-1.79,1.38-.87,1,.59,6.79,1.32,5.64-.1ZM17.15,82.05s0,0-.01,0h.01ZM17.34,86.95c-.09.01-.18.01-.27-.01-1.34-.25-1.75-2.11-1.58-3.26l.07-.08c.78-2.21,3.88,2.62,1.78,3.35ZM19.26,92.46c-.06-2.26,3.18-2.58,3.31.09.39,2.71-3.25,2.1-3.31-.09ZM26.26,100.59c-1.05,1.03-3.17-.99-2.07-2.12,2.17-1.22,4.98.49,2.07,2.12ZM33.33,107.68s-.15-.02-.15,0c-1.73-1.25-3.62-4.38-.6-3.95,1.08.27,3.07,4.76.75,3.94Z"/>
        <path class="cls-5" d="M24.69,86.12c-.08-.16-.16-.29-.25-.45.09.08.17.12.22.12.03.1.03.21.03.33Z"/>
        <path class="cls-5" d="M27.75,93.23c-1.03-1.89-1.75-4.19-2.73-6.36l.15.03c.22.35.54.17.83.17.1.08.21.15.32.22.92,1.94,1.16,3.92,1.43,5.94Z"/>
        <path class="cls-8" d="M54.63,76.83v.02h.01v-.02ZM54.63,76.83v.02h.01v-.02ZM54.63,76.83v.02h.01v-.02ZM54.63,76.83v.02h.01v-.02ZM54.63,76.83v.02h.01v-.02ZM54.63,76.83v.02h.01v-.02ZM38.75,108.73h-.01c.01.09.02.17.05.23-.02-.07-.03-.14-.04-.23ZM54.33,76.94h-.02s.02.01.03.01h0ZM54.63,76.83v.02h.01v-.02ZM61.98,63.13s.01.03.02.04v-.02s-.02-.01-.02-.02ZM54.63,76.83v.02h.01v-.02ZM54.63,76.83v.02h.01v-.02ZM54.63,76.83v.02h.01v-.02ZM54.63,76.83v.02h.01v-.02Z"/>
        <path class="cls-8" d="M63.2,68.25c-.07.03-.14.04-.2,0,.06.02.13.01.2,0Z"/>
        <path class="cls-1" d="M13.03,14.58s0,.04.02.04h.01s-.02-.03-.03-.04Z"/>
        <path class="cls-6" d="M22.07,31.21c.44,4.34-3.46,1.65-4.78-1.09.13-2.43,4.64-.29,4.78,1.09Z"/>
        <path class="cls-2" d="M34.98,39.12s0,.02.02.03v-.02h-.02ZM34.9,39.02s.04.07.07.1h.01s-.05-.07-.08-.1ZM34.74,38.75s-.02-.02-.03-.04c0,0,0-.01-.01-.01-.03-.05-.08-.1-.12-.15.06.11.14.23.23.34-.03-.05-.05-.1-.07-.14ZM39.67,40.77c.22,0,.43-.02.65-.03.02,0,.05,0,.07-.01-.24.02-.48.03-.72.04Z"/>
        <path class="cls-5" d="M35,39.13v.02s-.03-.02-.02-.03h.02Z"/>
        <polygon class="cls-4" points="45.41 117.99 45.38 118.03 45.36 117.98 45.41 117.99"/>
        <path class="cls-6" d="M19.09,23.2c-.05.18-.12.36-.19.53-.36.82-.89,1.54-1.52,2.17-.48.48-1.04.92-1.7,1.09-.51.13-1.05.09-1.57-.02-.32-.07-.64-.17-.89-.39-.26-.23-.4-.57-.51-.9-.25-.74-.43-1.51-.52-2.3-.09-.79-.09-1.61.22-2.33.89-2.05,3.52-1.42,5.08-.61.38.2.75.43,1.05.73s.54.68.61,1.1c.05.31.02.62-.07.93Z"/>
        <path class="cls-6" d="M10.28,24.77c-1.05.63-3.09-.32-.77-1.67,1.67-.97,1.77,1.07.77,1.67Z"/>
        <path class="cls-6" d="M8.07,3.31c-1.05.63-3.09-.32-.77-1.67,1.67-.97,1.77,1.07.77,1.67Z"/>
        <path class="cls-6" d="M6.83,6.59c-1.05.63-3.09-.32-.77-1.67,1.67-.97,1.77,1.07.77,1.67Z"/>
        <path class="cls-4" d="M60.2,44.71h-.01c.13.22.27.48.41.78-.13-.3-.26-.56-.4-.78ZM61.2,47.02c.17.49.32.99.47,1.47-.14-.47-.3-.98-.47-1.47Z"/>
        <path class="cls-8" d="M19.09,67.8c0,.15-.02.31-.02.46h-.01c.01-.16.02-.31.02-.46h0Z"/>
        <path class="cls-4" d="M64.08,59.46s-.07-.01-.1-.01h0s.07,0,.1.01Z"/>
        <path class="cls-7" d="M63.55,59.53s-.05.05-.07.09h-.01c.02-.05.05-.08.08-.09Z"/>
        <path class="cls-7" d="M63.98,59.44h0s-.07.01-.07.01c.02-.01.04-.01.06-.01h.01Z"/>
        <path class="cls-8" d="M63.54,59.82c-.02-.06-.04-.13-.07-.2h.01c.02.07.04.13.06.2Z"/>
        <path class="cls-1" d="M61.09,62.62c-.79-2.47-4.15-2.35-6.19-3.12,1.39-.39,4.21-1.03,5.62-1.31-4.41-.43-13.08-.09-17.59-.19,1.79.04,4.44.42,4.12.91.55,7.69-12.05-2.69-16.94,2.45-3.01,3.17-8.67-.34-10.6,5.02.92-2.56,2.2.91,6.72,2.3,10.3,3.17,11.45.32,22.85-2.19,2.28-.5,4.12-.56,5.26-1.37,2.33-.62,4.37-2.2,6.78-2.4-.01-.03-.02-.07-.03-.1Z"/>
        <path class="cls-1" d="M25.93,68.59c-.61-.21-1.11-.62-1.57-1.09.47.45.98.86,1.57,1.09Z"/>
        <path class="cls-1" d="M30.16,67.55c-1.13.79-2.37,1.47-3.93,1.13,1.25-.17,2.57-.6,3.93-1.13Z"/>
        <path class="cls-1" d="M30.11,61.86c-.1.02-.16.03-.2.04h0s.1-.03.2-.04Z"/>
        <path class="cls-1" d="M41.4,63.73c-.4.1-.84.2-1.29.31-.17.05-.35.09-.53.13-.1.02-.19.05-.29.07-.25.07-.5.13-.75.19-.9.22-1.82.45-2.65.66,1.96-.8,3.84-1.4,5.51-1.36Z"/>
        <path class="cls-1" d="M43.87,64.5h0c-.02-.05-.03-.09-.04-.12,0,0,.02.01.03.02.16.09.31.19.45.3-.24-.03-.39-.1-.44-.2Z"/>
        <path class="cls-1" d="M57.4,60.13c-.69-.16-1.36-.29-1.96-.47.21.05.48.11.78.18.11.02.23.05.35.08.26.06.54.13.83.21Z"/>
        <path class="cls-1" d="M58.42,63.45s-.11.06-.17.09-.13.07-.2.11l-.39.21c-.13.07-.25.14-.37.21-.18.1-.35.2-.5.3-.05.03-.09.06-.14.09-.05.03-.09.06-.13.09-.08.05-.16.1-.22.15-.03.02-.06.04-.09.06-.02.02-.05.04-.07.06l-.08.08s-.01.02-.01.02c-.01.01,0,.02.03.02-.07.02-.15.03-.23.05-.14.02-.3.04-.46.06-.2.02-.41.04-.64.05-.13.01-.27.02-.41.02,1.43-.39,2.75-1.11,4.08-1.67Z"/>
        <path class="cls-1" d="M61.11,62.66s-.01-.03-.02-.04c-.13-.53-.42-.94-.8-1.27.09.07.17.14.25.21.15.14.27.28.36.43.06.08.1.16.13.25.03.09.06.17.07.26.01.05.01.11.01.16Z"/>
        <path class="cls-1" d="M32.09,97.03s0,.01,0,.01c0,0,0-.01-.01-.01-.11-.01-.22-.02-.33-.06-.03-.05-.04-.09-.05-.13,0-.01.01-.01.02-.01.02,0,.05.01.09.03.03.02.07.04.12.07.05.02.11.06.17.1Z"/>
        <path class="cls-9" d="M19.26,92.46c-.06-2.26,3.18-2.58,3.31.09.39,2.71-3.25,2.1-3.31-.09Z"/>
        <path class="cls-9" d="M26.49,100.87c-1.04.45-2.46-.28-2.69-1.38-.25-1.52,1.82-1.71,2.88-1.3,1.48.46,1.18,2.09-.01,2.61l-.17.08Z"/>
        <path class="cls-1" d="M37.81,79.86c.27.16.47.09.6-.12-.2.04-.4.08-.6.12ZM34.69,90.2c-.63.69-1.36,1.48-1.42,2.33-.09,1.3,1.87-.11,2.36.41-.28-1.11-.61-1.55-.94-2.74ZM40.02,79.36c-.2-2.58-2.07-3.78-1.53-5.01.03-.06.07-.14.11-.21.02-.03.04-.06.06-.09.02-.03.04-.05.06-.08.05-.06.1-.12.17-.19.01-.02.03-.04.05-.06,0,0,.01-.01.02-.01h0c.07-.09.15-.17.23-.25-.35-.14-.65-.14-1.27,1.31.04-.1.1-.1.16-.02.36.49.9,4.08.33,4.99.54-.11,1.08-.24,1.61-.38ZM35.79,93.58c-.27.1-.91-.05-.94-.02-.15.15-.19.65-.15,1.28h0c.02.48.08,1.01.18,1.52.49-.19.89-.36.92-.39.01-.01.02-.02.03-.02,0-.02.03-.04.04-.05.03-.03.06-.06.09-.09h-.03s.01-.02.01-.03c0,0,.01,0,.01-.01.01-.03.02-.06.03-.1.02-.04.03-.1.04-.16.06-.43-.04-1.09-.23-1.93ZM44.05,69.77c.87-.71,1.62-1.44,2.04-2.18-.32.43-1.13,1.27-2.04,2.18ZM50.61,66.48c-.53-.05-1.15-.37-1.79-.78h-.01c-.61-.17-1.15-.23-1.64-.21,1.18.31,2.34.98,3.44,1h.06s-.04,0-.06-.01ZM45.49,65.97s-.06-.09-.09-.13c-.09-.12-.18-.25-.28-.36-.22-.26-.45-.49-.7-.69-.03-.03-.07-.06-.11-.09-.14-.11-.29-.21-.45-.3,0,.03,0,.06.01.09h0c.03.11.08.21.15.32.14.26.38.54.66.83.17.18.34.35.52.52.41.4.8.77.97,1.02-.21-.46-.44-.86-.68-1.21Z"/>
        <path class="cls-1" d="M48.89,74.36c-.14-.53-.26-.91-.38-1.16-.7-.76-.57-1.01-.61-1.88-.04-.91.26-1.62.55-2.19.61-1.29,1.32-2.12,1.88-2.64.09-.08.83-.9.9-.98-.08-.04-.91.44-.99.41-.66-.31-.88-.06-1.43-.21-.61-.17-1.15-.23-1.64-.21-.63.02-1.18.2-1.68.48-.1.06-.2.12-.29.19-1.83,1.27-3.11,4.16-6.01,7.3-.08.08-.16.16-.23.25-.02.03-.04.05-.07.07-.07.07-.12.13-.17.19-.02.03-.04.05-.06.08-.24.26-.43.49-.58.7-1.17,1.51-.81,2.17-1.85,7.58-.01.07-.02.15-.04.23-.48,2.46-.94,4-1.51,5.49-.03.06-.05.11-.08.19-.07.18-.14.36-.22.56-.5,1.21-1.09,2.5-1.84,4.3-.85,2.05-5.23,1.35.36,5.92.78.64,1.65,1.13,2.49,1.68.12.08.26.38.4.48.09.07.15-.09.24-.02.09.06.17.13.27.2.19.15.35.36.49.59.36.55.64,1.24,1.08,1.66.27.26.6.41,1.04.39.09-.03.17-.06.25-.09.24-.1.43-.21.57-.33,1.1-.92-.21-2.4-.21-2.47,0-2.08.3-5.27.3-5.78,0-1.86.19-3.09.52-3.95.31-.8.74-1.27,1.25-1.62.9-.62,2.04-.86,3.14-1.93,2.71-2.62,2.15-3.91,2.37-3.29-.43-2.13-.42-3.62-.15-4.67.51-2.02,1.97-2.42,3.1-2.58.71-.11,1.29-.11,1.41-.37.52-1.15-6.15-.34-2.57-2.56Z"/>
        <path class="cls-8" d="M62,63.15v.02s-.02-.03-.02-.04c0,.01.01.01.02.02Z"/>
        <path class="cls-8" d="M63,68.26c.06.03.13.02.2,0-.07.02-.14.03-.2,0Z"/>
        <path class="cls-6" d="M13.54,17.1c-.06.12-.12.24-.19.36-.13.22-.26.42-.43.61-.07.07-.14.14-.24.17-.11.03-.23-.02-.33-.07-.2-.11-.38-.26-.54-.43-.28-.31-.47-.7-.55-1.11s-.03-.85.13-1.23c.26-.63.99-1.15,1.63-.68.22.16.37.39.48.63.16.33.26.71.23,1.08-.02.24-.09.47-.2.69Z"/>
        <path class="cls-8" d="M13.03,14.58s0,.04.02.04h.01s-.02-.03-.03-.04Z"/>
        <path class="cls-6" d="M15.32,10.69c0,.25-.05.49-.19.69-.14.2-.36.34-.58.44-.27.12-.56.21-.86.23-.19.01-.42-.02-.53-.17-.06-.08-.08-.18-.09-.28-.05-.37.05-.75.26-1.06.37-.55,1.12-.84,1.74-.54.08.04.16.09.21.17.04.07.05.16.05.25,0,.09,0,.18,0,.26Z"/>
        <path class="cls-9" d="M46.24,67.32c-.04.08-.08.16-.13.24,0,.01-.01.02-.02.03-.42.74-1.17,1.47-2.04,2.18-1.65,1.36-3.75,2.63-4.86,3.69-.08.08-.16.16-.25.26-.02.02-.04.04-.05.06-.07.07-.12.13-.17.19-.02.03-.04.05-.06.08-.02.03-.04.06-.06.09-.04.07-.08.15-.11.21-.54,1.23,1.33,2.43,1.53,5.01.03.36-.48.77-1.15,1.2-.13.08-.27.17-.41.25-.1.06-.21.12-.31.18-.02.01-.03.02-.05.03l-.36.21c-.17.09-.33.19-.48.29-.33.2-.62.39-.82.58-.03.02-.06.05-.09.09-.04.04-.07.08-.13.16-.04.07-.05.14-.03.21.39,1.19,4.04-3.21,2.19,1.69-.11.3-.35.5-.58.72l-.83.8-1.67,1.61c-.24.23-.47.47-.63.77s-.23.62-.35.93c-.17.44-.43,1.06-.64,1.48-.41.81-.63,1.47-.98,2.3-.16.37-.27.7-.28,1.11,0,.29,0,.59.01.88.02.6.07,1.21.02,1.82-.02.27-.07.88-.46.86-1.22-.03-1.98-1.33-2.76-2.21-.32-.36-.61-.74-.87-1.14-.53-.79-1.02-1.53-1.4-2.39-1.06-2.4-2.01-5.09-3.42-7.33-.42-.67-.69-1.22-1.19-1.82-.9-.98-1.94-1.69-3.14-2.27-.75-.36-1.47-.7-2.03-1.33-.79-.88-.81-2.06-.37-3.12.52-1.21,1.46-2.42,2.07-3.56.6-1.09.55-1.9.12-2.93-.12-.3-.05-.72-.05-1.14s.03-.89.1-1.34c.02-.08.03-.15.06-.24.06-.27.15-.52.27-.73.1-.19.23-.35.38-.47.16-.11.32-.19.48-.26.14-.06.27-.1.4-.12,1.29-.3,2.2.77,3.21,1.82.06.07.12.13.18.19.04.05.09.1.14.16l.2.2c.47.45.98.86,1.57,1.09.1.03.2.06.3.09,1.25-.17,2.57-.6,3.94-1.13,1.86-.74,3.78-1.67,5.64-2.43.01,0,.02-.01.04-.01.01-.01.03-.01.04-.02,1.96-.8,3.84-1.4,5.52-1.36.88.02,1.68.22,2.42.65,0,0,.02.01.03.02.16.09.31.19.45.3.04.03.08.06.11.09.25.2.48.43.7.69.1.11.19.24.28.36.03.04.06.09.09.13.24.35.47.75.68,1.21.03.04.05.08.07.14Z"/>
        <path class="cls-9" d="M33.4,107.88c-1.12-.26-2.18-1.52-2.43-2.64-.35-1.4.78-2.18,1.99-1.32,1.12.6,2.73,3.89.59,3.98l-.15-.02Z"/>
        <path class="cls-9" d="M17.51,86.93c-1.47.48-2.89-2.64-1.84-3.83,1.61-.83,3.24,2.84,1.95,3.77l-.11.06Z"/>
        <path class="cls-1" d="M64.96,56.86c.09-.92-.41-2.06-.6-2.81-.65-2.61-1.53-5.16-2.55-7.65-.6-1.48-2.09-6-4.24-5.92-.52.02-1.02.45-1.47,1.44-.28.61-1.98-.7-2.54-.5-1.58.55.22,2.48-1.22,3.19-.44.22-2.29.26-2.81.25-.74-.01-2.3-2.22-3.26-1.74-.06.03-.1.07-.15.11-.86.78-.65,2.41-.57,2.55,3.72,6.32-3.35,2.04-2.91,5.52.64,5.07,1.53,4.51-3.66,6.79.14-.01.29-.01.46-.01.34-.02.69-.03,1.04-.03,1.26-.03,2.59-.02,3.95,0,.05,0,.1.01.15.01,3.22,0,6.45.11,9.67.14,1.67.01,3.34.01,5.01,0,1.44,0,3.1.2,4.52-.07.36-.07.72-.25.93-.55.15-.21.22-.45.25-.72Z"/>
        <path class="cls-8" d="M65.76,57.06c-5.15-11.58-14.05-4.47-7.33.57-5.92,1.87-9.2,6.8-10.43,11.7-.55,2.19-.63,3.25.27,3.91.54.39-.43,1.06-.68,1.62-.81,1.8,1.71.14-.92,5.3-3.94,7.74-10.36,9.76-11.09,20.58-.02.24.25.58.35.78.14.26.34.54.42.83.37,1.29,1.08,2.43,1.57,3.68.29.74-.32,1.49-.68,2.1-.43.73-1,1.75-.36,2.53.11.12.24.24.42.36.17.11.79.41.89.16q.07-.18.07-.28c0-.2-.03-.23-.07-.39-.03-.14-.07-.28-.14-.41,1.02,1.1,3.38,1.96,5.21,1.46,1.92-.52-.47-2.23-.64-4.29-.04-.53.43-2.73,3.07-1.73,1.16.43,2.33.37,2.67.48,6.06,1.94,9.02-32.76,17.04-39.6.08-4.03.59-5.46.35-9.36Z"/>
        <path class="cls-6" d="M41.21,110.85c.09-1.9-1.11-2.55-2.46-2.12-3.43,1.09,2.32,5.15,2.46,2.12Z"/>
        <path class="cls-6" d="M45.12,112.88c.38-1.56-.94-2.15-2.08-1.79-2.89.92,1.57,3.89,2.08,1.79Z"/>
        <ellipse class="cls-9" cx="69" cy="39.87" rx=".34" ry=".69"/>
      </g>
      <g>
        <path class="cls-9" d="M93.86,43.21h.2s-.09-.08-.15-.11h0s-.04.05-.04.11ZM115.99,48.87c.06.18.13.35.21.52.15.35.34.69.53,1.03.22.38.46.75.68,1.12.07.11.13.22.2.33.34.58.66,1.18.86,1.82-.02-.17-.04-.31-.06-.42-.09-.38-.54-1.09-1.04-1.89,0-.01-.01-.02-.01-.02-.03-.04-.05-.08-.08-.12-.09-.16-.19-.31-.29-.47,0-.01-.01-.02-.03-.04-.21-.37-.42-.73-.6-1.09-.13-.25-.24-.49-.32-.72-.02-.02-.04-.03-.05-.05ZM117.41,57.62c.49-.06.99-.16,1.16-.53.06-.14.07-.63.05-1.22-.02.06-.03.11-.05.16-.03.12-.08.24-.13.35-.06.12-.12.24-.2.36-.01.04-.04.08-.08.11-.19.31-.45.57-.75.77Z"/>
        <path class="cls-9" d="M105.37,38.87c.09-.11.17-.23.23-.34-.04.05-.09.1-.12.15-.01,0-.01.01-.01.01,0,.02-.02.03-.03.04-.02.04-.04.09-.07.14ZM105.2,39.1h.01s.05-.06.07-.1c-.03.03-.05.07-.08.1ZM99.79,40.71s.05.01.07.01c.22.01.43.03.65.03-.24-.01-.48-.02-.72-.04Z"/>
        <path class="cls-9" d="M75.58,52.78c.03.06.07.1.11.15.06.1.15.19.25.26,0,.01.01.01.01.01.02.03.05.05.08.06.02.02.04.04.06.05.07.04.14.07.21.1,2.02-4.78,3.75-7.75,6.35-12.25.51.68,1.07.77,1.1,1.62.51-.24,2.05-.26,2.15-.81.45-.22.49-.55.87-.24.39.32,0,.51.04,1.01.28,3.38,2.72,1.97,4.07,2.56,1.01-.8,1.85-1.35,2.87-2.15.21,1,.44,1.22.65,2.21.08.37-.13.76-.34,1.06-.24.36-.53.51-.62.93-.06.34-.42,2.22-.14,2.41,1.24.8,3.74-.49,4.09.93.19.77-.2,1.59-.79,2.12-.59.54-1.34.84-2.08,1.14-.06.74.36,1.46.94,1.93.58.47,2.41,1.36,3.12,1.59.72.23,1.42.42,2.12.58h.02s.01.01.02.01h.03c.13.03.26.06.38.09,3.29.7,6.44.76,9.74.72h.09c1.64-.02,3.31-.07,5.06-.08h.48c-.33-.19-.23-.72.06-.96.3-.24.69-.31,1.02-.49.23-.12.42-.29.56-.49.04-.03.07-.07.08-.11.08-.12.14-.24.2-.36.05-.11.1-.23.13-.35.04-.16.07-.33.08-.5.05-.73-.16-1.45-.41-2.14-.19-.52-.4-1.02-.63-1.52-.08-.17-.16-.33-.24-.49,0-.01-.01-.02-.01-.02-.3-.59-.63-1.17-1-1.72-.05-.08-.1-.17-.16-.25-.33-.49-.68-.97-1.05-1.43-.08-.1-.16-.19-.23-.29-.19-.22-.39-.45-.6-.68-.69-.75-1.43-1.45-2.22-2.09t-.02-.02h-.01c-.3-.26-.61-.51-.93-.74-.56-.41-1.17-.82-1.73-1.28-.25-.19-.5-.4-.72-.61-.13-.12-.26-.25-.38-.39-.44-.48-.79-1-.99-1.59h0c-.08-.23-.14-.47-.17-.71-.05-.39-.02-2.08-.65-1.88-.02.01-.04.02-.06.03-.04.01-.08.04-.12.07-.02.01-.03.03-.05.04-.24.2-.45.43-.65.68,0,.01-.01.02-.02.03-.04.05-.09.1-.12.15-.01,0-.01.01-.01.01,0,.02-.02.03-.03.04-.02.04-.04.09-.07.14-.02.04-.06.09-.09.13-.03.03-.05.07-.08.1h-.02v.03s-.03.05-.05.07c-.14.16-.3.3-.46.43-.03.03-.06.06-.09.09-.96.84-2.3,1.04-3.59,1.04-.16,0-.32,0-.48-.01-.24-.01-.48-.02-.72-.04-.49-.03-.97-.08-1.45-.16-1.2-.15-2.37-.41-3.53-.78-.14-.04-.28-.09-.41-.14-.29-.09-.59-.19-.88-.27-.15-.04-.3-.08-.45-.11-.07-.02-.15-.04-.23-.05-.07-.02-.14-.03-.22-.04-.01-.01-.02-.01-.03,0-.11-.01-.22-.02-.33-.03-.85-.06-1.78.18-2.34.83-.02.01-.03.02-.04.04,0,.01-.01.02-.02.03-.06-.05-.13-.11-.19-.16-.3-.26-.61-.51-.93-.76-.09-.07-.18-.14-.28-.21-.09-.07-.19-.14-.29-.21,0-.01-.01-.01-.01-.01-.78-.56-1.6-1.06-2.49-1.44-.18-.08-.36-.15-.54-.22h-.01c-.26-.09-.51-.17-.77-.24,0-.01.01-.03.01-.04-.36-.09-.72-.15-1.09-.2-.05-.01-.11-.01-.17-.01h0c-.2-.02-.42-.04-.65-.04-.65,0-1.34.12-1.91.47h0c-.21.23-.36.51-.5.78-1.17,2.21-2.34,4.4-3.5,6.6,0,0-.01,0,0,.01-.05.08-.12.15-.16.23-.16.3-.29.61-.37.94-.01.02-.02.04-.02.06-.03.11-.05.23-.06.35,0,.24.03.47.09.7h0c.05.26.11.5.14.76.07.59-.07,1.17-.26,1.74-.04.12-.09.24-.13.36-.12.35-.25.71-.35,1.07-.19.72-.18,1.61.18,2.22Z"/>
        <path class="cls-9" d="M125.02,54.65s.06-.02.08-.04c.02-.02.03-.05.04-.08-.03.03-.06.05-.09.08l-.03.04Z"/>
        <path class="cls-2" d="M105.82,33.43c.23.15.44.31.65.49.1.09.2.18.31.27.08.08.16.15.24.23h0c.14.13.28.26.42.39-.14-.29-.36-.53-.61-.75h0s-.01-.01-.01-.01c-.1-.09-.18-.18-.29-.25-.05-.03-.1-.06-.15-.1h-.01c-.16-.1-.32-.18-.49-.25,0,0-.01-.01-.02-.01-.01-.01-.03-.01-.04-.01Z"/>
        <path class="cls-2" d="M102.47,34.41s.05-.03.07-.06c.01-.01.02-.02.04-.03.09-.05.17-.12.25-.19.2-.18.36-.4.55-.6.04-.04.08-.08.12-.12.07-.06.15-.11.23-.15-.02,0-.04,0-.06.01h-.01s0,.01,0,.01c-.44.15-.82.43-1.06.88-.05.07-.08.15-.11.23t-.01.02Z"/>
        <path class="cls-2" d="M96.52,32.56c.38.19.76.38,1.13.58.48.26.96.56,1.45.83-.11-.07-.21-.15-.32-.22-.06-.04-.13-.07-.19-.11-.44-.3-.87-.59-1.29-.79t-.02-.01c-.1-.05-.17-.09-.27-.12h0c-.12-.06-.23-.1-.34-.12-.05-.02-.1-.03-.15-.04Z"/>
        <path class="cls-2" d="M80.44,37.06c1.63-.63,3.48-.57,5.08.11,1.6.67,3,1.75,4.35,2.84.55-.89,2.49-.93,3.51-.64s3.98,1.38,7.13,1.38c2.33,0,3.96-.2,5.29-2.34.26-.42.89-.9,1.14-.48.07.12.06.27.06.41-.03,1.5.11,2.41,1.82,4,1.1,1.02,2.38,1.82,3.51,2.83,2.59,2.32,4.94,4.93,6.57,8.01.53,1,1.16,2.06,2.17,2.57.9.44,2,.29,2.86-.22.85-.51,1.44-.96,1.9-1.84,1.52-2.92,1.9-6.26-.13-9.84-1.62-2.87-4.86-5.17-8.05-5.98-3.37-.85-7.1-.29-9.69-2.6-.59-.53-1.16-1.17-1.79-1.64-.63-.47-1.48-.92-2.2-.62-.58.25-.97.99-1.51,1.31-1.31.79-2.78-.11-4.11-.86-.4-.23-.94-.55-1.35-.76-2.42-1.25-5.03-2.07-7.68-2.68-.34-.08-.67-.15-1-.21-.27-.05-.52-.17-.78-.19-.56-.05-1.01-.2-1.5.07-1.13.63-2.09,1.57-2.73,2.53-.9,1.33-1.51,2.87-2.47,4.15-.13.17-.26.51-.41.68Z"/>
        <path class="cls-2" d="M87.89,29.74s.22.03.22.03c.62.1,1.22.23,1.83.38.86.24,1.75.49,2.59.77-1.48-.57-3.06-1.07-4.49-1.18h-.15Z"/>
        <path class="cls-2" d="M107.65,35.01s.02.02.02.02v-.02h-.02Z"/>
        <path class="cls-2" d="M106.24,33.72c.08.06.15.13.23.2.1.09.2.18.31.27.08.08.16.15.24.23v-.07c-.12-.06-.16-.16-.19-.29h0s-.01-.01-.01-.01c-.18,0-.29-.08-.29-.25,0-.04,0-.07.01-.11h-.01s-.09,0-.15.01h-.01s-.09.02-.13.02Z"/>
        <path class="cls-2" d="M102.22,34.55c.08-.04.17-.08.25-.14.03-.02.05-.03.07-.06.01-.01.02-.02.04-.03.3-.23.53-.53.8-.79.04-.04.08-.08.12-.12-.13,0-.26.06-.37.18l-.54.57c-.1.1-.2.21-.29.31h-.02s-.04.06-.06.08Z"/>
        <path class="cls-2" d="M99.5,34.06c-.79-.46-1.43-1.22-2.44-1.23.58.3,1.16.6,1.72.93.34.2.71.4,1.09.57-.12-.1-.24-.2-.37-.27Z"/>
        <path class="cls-2" d="M96.67,32.59s-.1-.01-.15-.02c.06.02.1.05.16.07-.01-.01-.01-.03-.01-.05Z"/>
        <path class="cls-2" d="M94.32,31.6s.04.01.06.02h0s-.04-.02-.06-.02Z"/>
        <path class="cls-6" d="M100.25,16.25c.15,1.29,2.67,2.99,3.96,3.57,8.53,4.86,7.33,9.49,11.85,2.64.03-.05.06-.09.09-.13.21-.33.44-.68.69-1.06,0-.02.02-.03.02-.05.29-.44.59-.92.91-1.43-.41-1.85-1.04-3.01-1.83-3.76-.06-.08-.13-.14-.2-.2-.04-.02-.06-.05-.09-.07-1.16-1-2.65-1.29-4.3-1.8-.06-.02-.12-.04-.18-.06-.36-.11-.73-.23-1.11-.38-.38-.15-.65-.24-.86-.36-.01,0-.03-.01-.05-.02-.26-.15-.46-.34-.72-.72-.72-1.03-.98-.62-1.69-.91-.21-.09-.54-.07-.93.04-1.68.42-4.61,2.35-5.37,3.98h-.01c-.11.25-.18.49-.18.72Z"/>
        <path class="cls-6" d="M108.61,12.77c-.01.05-.02.1-.02.15.01-.05.02-.1.03-.16-.07.02-.13.04-.19.05.06-.01.12-.02.18-.04Z"/>
        <path class="cls-6" d="M107.7,12.06c.05,0,.1.01.15.04h0c-.04-.05-.08-.06-.15-.04Z"/>
        <path class="cls-6" d="M106.32,12.52c.07-.01.14-.02.2-.04.13-.04.25-.09.37-.14-.19.07-.39.14-.57.18Z"/>
        <path class="cls-4" d="M94.77,117.97h.05s-.02.04-.02.04l-.03-.04Z"/>
        <path class="cls-8" d="M70.09,39.29v59.72c0,.18,1.09-.6,1.16-.67.39-.43.59-.9.78-1.44.43-1.2.69-2.46.88-3.71.37-2.52.44-5.07.93-7.57,0-.07.03-.13.05-.19l-.14-.46c.69-3.54.96-10,1.02-16.71v-.18c0-.58,0-1.17,0-1.75.01-.36.01-.71.01-1.07.01-7.87-.21-15.53-.32-18.68-.36-.39-.85-.92-.89-1.01-.12-.25-.17-.52-.21-.78-.28-1.61-.43-3.3-.94-4.85-.01.03-.03.04-.04.05-.21.14-.57-.72-.66-.95-.02-.04.06-.21.12-.35-.12-.17-.26-.35-.4-.5-.22-.24-.61-.95-.76-.21-.05.35-.17,1.23-.6,1.31Z"/>
        <path class="cls-4" d="M79.1,94.9s.08-.09.12.01h-.12,0ZM73.75,84.97c.66,2.48,2.94,5.84,3.25,6.6,1,2.52,2.25,4.02,3.74,6.3,3.29,5.03,6.9,9.19,9.26,14.8.82,1.93,1.8,4.06,3.74,4.86,1.97.8,4.24-.08,5.97-1.31,1.54-1.08,3.24-2.53,5.05-2.02.55.15,1.28.9,1.59.6.62-.6,3.46-2.76,4.97-2.87-.09.01-2.51.6-2.6.61h-.03c-.15.02-.29.03-.44.04-.03-.14-.06-.28-.09-.42-.05-.24.15-.64-.15-.72-.45-.05-.92.34-1.4.44-.07.02-.13.04-.2.06-.08.02-.16.04-.24.06-.03.01-.06.02-.09.03-.02,0-.04,0-.06.01-.02,0-.04,0-.06.01-1.32.26-2.69.28-4.01.05-.1-.02-.21-.04-.31-.06.03-.06.05-.11.08-.17.08-.17.15-.35.23-.52.06-.14.13-.28.19-.42-.16.01-.15-.24-.34-.17-.87.33-1.74,1.28-2.28.79,0-.01-.19-.08-.2-.09-.1-.08-.44-.05-.49-.21-.25.05-.52.11-.8.16-.36.08-.74.14-1.1.14h-.01c-.26,0-.5-.03-.72-.11h-.01c-.08-.03-.15-.06-.22-.1.07-.17.17-.31.31-.43.08-.1.18-.18.3-.26.1-.07.22-.14.34-.22,1.26-.76,1.2-1.98.64-3.17,0,0,.39-.87.38-.87-.6-1.28-2.15-1.66-2.87-2.28-.05-.04-.1-.08-.16-.12-.11-.08-.21-.13-.31-.16-.03-.01-.06-.02-.09-.02-.06-.01-.12-.01-.18,0-.05.02-.09.04-.13.06-.04.03-.08.06-.11.1-.14.2-.11.51-.07.78,0,.03,0,.06.02.09.07.37.01.89-.36.93-.3.03-.5-.3-.62-.57-.07-.16-.14-.36-.22-.57h0c-.28-.77-.62-1.74-1.2-2.26l-.03-.03c-.25-.22-.55-.35-.9-.36-.05,0-.11,0-.17,0,.03,0,.06.04.08.11.13.29.27,1.09.37,1.89.01.12.02.23.03.33.1.79.16,1.52.13,1.66-.33.1-.61-.04-.81-.33-.19-.27-.25-.61-.31-.94-.06-.35-.12-.71-.17-1.06,0-.01,0-.02-.01-.03-.45-3.12-.53-6.34-1.23-9.41-.8-3.53-2.41-7.06-3.74-10.42-1.17-2.97-2.18-6.65-4.1-9.23-.66-.88-1.29-1.82-1.84-2.76-.28-.49-.62-1.1-.93-1.7-.94-1.82-2.39-4.04-3-4.15-.36-.06-.23,1.67-.23,2.02,0,.41-.07.41-.07.63-.08,3.69-.44,9.42-.51,10.8-.05,1.03-.17,2.74-.44,5.57Z"/>
        <path class="cls-4" d="M79.1,94.9h0s.12.01.12.01c-.04-.1-.08-.03-.12-.01Z"/>
        <path class="cls-1" d="M74.47,46.58c.15,5.86-.5,12.89.81,16.96-.75-2.36,1.1-1.76,1.02-2.21-.06-.32-.1-.56.38-1.6.14-.31-.36-.33-.54-.29.78-1.27-.69-1.86-.74-2.89,1.03-.69.98-1.44.84-2.52-.21-1.6-1.41-3.35-.14-5.15.56-1.72-.61-3.07.49-4.62-.78.49-1.09,3.53-2.12,2.32Z"/>
        <path class="cls-9" d="M79.58,45.47c.14-.3.28-.56.41-.78h-.01c-.14.22-.27.48-.4.78Z"/>
        <path class="cls-9" d="M78.51,48.47c.15-.48.3-.98.47-1.47-.17.49-.33,1-.47,1.47Z"/>
        <path class="cls-9" d="M76.59,44.81s0,.01.02.02h.02s-.02-.02-.02-.03t-.02.01Z"/>
        <path class="cls-4" d="M107.7,12.06c.05,0,.1.01.15.04h0c-.04-.05-.08-.06-.15-.04Z"/>
        <path class="cls-4" d="M79.1,94.9h0s.12.01.12.01c-.04-.1-.08-.03-.12-.01Z"/>
        <path class="cls-4" d="M123.38,76.3c.06.27.12.54.18.82.07.1.11.21.11.33.05-.49-.06-.99-.27-1.5t-.01.02c0,.11,0,.22-.01.33Z"/>
        <path class="cls-4" d="M123.03,82.03h0s.01,0,.01,0h-.01Z"/>
        <path class="cls-4" d="M119.12,81.43c.67-.51,1.42-.94,2.31-1.24l.02-.02s.01,0,.01,0h-.01s-.1-.01-.15-.01c-.11,0-.22.01-.34.04-.1.03-.2.06-.3.1-.07.03-.15.06-.22.1-.08.04-.15.08-.22.13-.07.04-.14.09-.22.15-.12.08-.23.17-.35.28-.01,0-.02.01-.03.02-.04.03-.07.06-.1.09-.02.01-.03.03-.05.05-.12.09-.23.2-.35.32Z"/>
        <path class="cls-6" d="M118.89,6.59c.02,1.26,6.29,2.67,5.4,1.13-.86-.38,1.42-4.59.94-6.12-.33-1.04-5.56,1.67-5.1,1.47-3.39,1.48-2.64,2.47-1.23,3.52Z"/>
        <path class="cls-8" d="M121.23,69.94s.01-.02.02-.03c-.05-.02-.05,0-.02.03Z"/>
        <path class="cls-8" d="M71.73,39.04c.09.23.45,1.09.66.95.01,0,.03-.02.04-.05.14-.24.31-1.25.34-1.41,1.96-11.33,5.46-22.3,7.85-33.54.26-1.24.51-2.48.74-3.73.05-.24.43-1.29-.08-1.21-.24.04-.43,1.34-.49,1.58-3.2,12.06-6.4,24.14-8.82,36.38-.03.16-.06.33-.05.48,0,.03-.03.11-.07.2-.06.14-.14.31-.12.35Z"/>
        <path class="cls-8" d="M116.59,60.79s.04.06.06.1c-.01-.03-.03-.07-.05-.1h0Z"/>
        <path class="cls-8" d="M71.73,39.04c.09.23.45,1.09.66.95.01,0,.03-.02.04-.05,0-.01-.01-.02-.01-.03-.14-.42-.32-.83-.56-1.2,0-.01-.01-.01-.01-.02-.06.14-.14.31-.12.35Z"/>
        <path class="cls-8" d="M116.59,60.79s.04.06.06.1c-.01-.03-.03-.07-.05-.1h0Z"/>
        <path class="cls-8" d="M93.07,60.89c2.89,3.5,11.29-3.39,16.84.46.2.13.4.28.59.45.02.02.07.05.12.09.59.45,2.75,1.89,3.45,1.41.31-.2.8,0,1.13-.01,2.21-.06,2.82.04,4.75,1.94.97.95.92,2.72.6,4.34-1.14,5.66,1.16,7.29,2.97,7.37h.14c1.25,0,2.21-.72,1.57-1.32.82.76,1.85.81,1.83-.59-.05-3.82-4.75-11.12-6.58-12.39-1.54-1.07-6.51-3.43-9.51-3.77h-.08c-3.17-.35-6.64-.64-9.66-.79-.16,0-.31-.01-.46-.02h-.01s-.02-.01-.02,0c-.34-.02-.69-.03-1.04-.03-1.52-.06-2.87-.06-3.95,0-.05,0-.1.01-.15.01-1.79.1-2.79.36-2.47.85.04.06-.21,1.82-.06,2Z"/>
        <polygon class="cls-3" points="97.99 18.16 97.99 18.17 98 18.16 97.99 18.16"/>
        <path class="cls-9" d="M85.33,30.18c.3-.02.62-.28.9-.4.49-.21,1-.17,1.52-.09,1.18.2,2.35.46,3.5.82,2.61.8,5.13,1.85,7.48,3.24.71.42,1.46.82,2.28.91.69.08,1.36-.12,1.87-.6.4-.38.73-.85,1.29-.99s1.18.04,1.67.34c.93.58,1.6,1.49,2.48,2.14.89.67,1.92,1.13,2.97,1.5,1.15.4,2.37.43,3.58.51.02,0,.04,0,.07,0,2.09.14,4.13.77,5.95,1.81,1.68.96,3.17,2.27,4.28,3.85.13.18.25.36.37.55.69,1.1,1.22,2.34,1.4,3.64.23,1.66-.2,3.4-.69,4.98-.13.42-.29.83-.49,1.23-.53,1.04-1.41,1.81-2.53,2.15-1.05.32-2.18.13-2.97-.65-1.02-1-1.31-2.47-2.02-3.66-.42-.7-1.01-1.26-1.55-1.86-.26-.28-.51-.57-.77-.85-.22-.24-.61-.52-.75-.81.21.44.52.81.72,1.25s.57.84.87,1.23c.09.1.17.21.23.31.02.02.03.03.03.04.12.16.21.31.29.47.05.1.1.2.13.3.38,1.14,1.09,2.2,1.06,3.5,0,.53.07,1.24-.32,1.62-.37.35-.89.36-1.28.65-.24.17-.39.43-.49.7-.14.38-.89.64-.34.78.23.06.95.16,1.16.19.41.06.82.11,1.22.15,3.42.35,6.98-.04,10.22-1.21,1.61-.58,3.28-1.47,3.93-3.06.67-1.63.08-3.62.92-5.18.61-1.14,1.9-1.86,2.31-3.08.61-1.88-1.13-3.73-1.16-5.7-.02-1.49.94-2.89.82-4.37-.21-2.48-3.32-4.12-3.18-6.61.08-1.43,1.23-2.55,1.68-3.91.47-1.39.18-3.01.93-4.27,1.07-1.77,4.41-3.3,4.23-4.35-.05-.31-.73-.91-.71-1.22.11-1.58,2.04-1.62,1.74-3.19-.3-1.56-1.31-2.89-2.28-4.16-.47-.62-.95-1.25-1.34-1.92-.26-.43-.48-.88-.65-1.35-.03-.07-.05-.13-.07-.2-.33-1.04-.38-2.17-.78-3.18-1.36-3.45-6.98-2.03-9.48-.9-.13.06-.27.12-.4.19-1.21.59-2.29,1.45-2.74,2.67-.51,1.37.17,3.22,1.6,3.49-1.77,1.16-4.55-.07-4.89-2.16-.1-.56-.18-1.33-.73-1.43-.02-.02-.04-.02-.06-.02-.22-.02-.43.09-.63.19-3.94,2.11-7.77,4.42-11.47,6.93-.16.11-.33.23-.42.41-.03.06-.05.09-.06.14-.09.37.31.72.69.74.04,0,.08.01.13.02.62.09,1.71.34,2.02.47.18.08.37.15.56.23.02.01.04.02.05.02.62.24,1.28.49,1.97.74.06.02.12.04.18.06,1.47.54,3,1.1,4.21,1.75.03.02.06.03.09.05.03.02.05.05.09.07.07.06.14.12.2.2.4.42.83,1.1,1.03,1.57.56,1.35.51,2.46-.11,3.62,0,.02-.01.03-.02.05-.11.21-.25.42-.4.64-.1.14-.2.28-.29.42-.03.04-.06.08-.09.13-.92,1.29-1.99,2.67-3.11,2.81-.45.06-6.81-4.33-10.41-6.9-.99-.71-2.1-1.61-2.1-2.84-5.19,3.89-9.89,8.34-14.05,13.28-.22.26-.43.52-.64.78-.14.17-.37.38-.42.59ZM119.94,33.13c-.93-.25-1.91-1.06-1.82-1.84.04-.33.26-.66.76-.95.98-.55,2.04-.95,3.13-1.19.3-.06.35.15.5.41.13.19.38.22.29.43-.34.87-1,1.24-1.5,2.03-.13.21-.7.64-.91.78-.32.21-.08.43-.45.33ZM124.86,26.78c-.42-.05-.83-.13-1.19-.3-.17-.08-.33-.18-.47-.31-.32-.27-.57-.6-.84-.91-.35-.41-.57-.87-.85-1.33-.37-.62-.55-1.32-.3-2,.33-.94,1.21-1.4,2.1-1.66.53-.16,1.14-.17,1.68-.19.65-.04,1.37-.07,1.99.13.72.23.56.76.06,1.18-.22.19-.41.41-.51.67-.18.49.03,1.05.48,1.29.41.22.45,1.23.45,1.65,0,.95-.46,1.68-1.43,1.81-.39.06-.78.02-1.17-.03ZM128.54,17.3c-.08.14-.19.3-.31.42-.23.23-.4.44-.73.38s-.4-.49-.55-.8c-.27-.57-.51-1.1-.37-1.7.02-.06.03-.12.05-.17.01-.04.03-.08.05-.12.09-.15.21-.28.35-.41.83-.81,1.74.3,1.89,1.09.08.46-.14.9-.38,1.31ZM127.09,11.73s-.03.09-.06.13c-.03.06-.08.11-.15.14-.1.05-.21.05-.32.04h-.07c-.09-.01-.18-.02-.27-.04-.2-.03-.4-.08-.58-.19-.09-.04-.19-.09-.27-.16-.05-.03-.08-.08-.13-.12-.15-.17-.32-.58-.37-.9-.01-.01-.01-.02-.01-.02,0-.07,0-.13.01-.2,0-.02,0-.05.01-.07.14-.47,1.37-.55,1.9.17.13.16.23.34.29.49.01.01.01.02.01.03.01.01.01.02.01.03.02.05.03.09.04.13.04.18.04.38-.04.54ZM129.58,23.16c.57-.52,1.22-.05,1.64.44.27.32.35.69.11,1.03-.23.34-.67.41-.85.04-.1-.2.45-.79.3-.95,0-.02-.48.04-.5.02-.22-.14-.59.27-.83.19-.32-.11-.11-.55.13-.77Z"/>
        <path class="cls-4" d="M76.7,59.6c-.02.07-.04.13-.06.2.02-.06.04-.13.07-.2h0c-.02-.05-.05-.08-.08-.09.03.02.05.05.07.09Z"/>
        <path class="cls-4" d="M76.1,59.44s.07-.01.1-.01h.07s-.04-.01-.06-.01h-.01s-.07.01-.1.02Z"/>
        <path class="cls-9" d="M93.86,43.21h.2c-.14-.16-.2-.14-.2,0Z"/>
        <path class="cls-9" d="M110.07,61.84c.1.02.16.03.2.04h0s-.1-.03-.2-.04Z"/>
        <path class="cls-1" d="M93.86,43.21h.2c-.14-.16-.2-.14-.2,0Z"/>
        <path class="cls-5" d="M110,96.17c.49-.35.93-.77,1.32-1.26-.6.17-1.08.53-1.32,1.26Z"/>
        <path class="cls-5" d="M105.93,99.94c1.39-.88,2.42-1.57,2.58-3.01.15-.03.29-.08.45-.15-.05-.01-.11,0-.16,0-.09.01-.18.03-.27.03h0s-.01.01-.02.01h-.01s-.02.08-.05.13c-.29.78-1.41,2.1-2.51,2.99Z"/>
        <path class="cls-5" d="M107.18,103.95c.6-.34,1.32-.38,1.77-.06-.14-.15-.34-.24-.55-.27-.01-.01-.02-.01-.03,0h-.01c-.07,0-.14.01-.21.02-.18.02-.36.05-.54.08h-.01c-.14.05-.28.13-.42.23Z"/>
        <path class="cls-5" d="M105.06,104.41s-.01,0,0,.02t.01.01s.05.01.08.01c-.06-.01-.09-.02-.09-.04Z"/>
        <path class="cls-5" d="M103.88,101.34c.31-.24.62-.46.91-.66-.28.13-.52.2-.73.18-.04.03-.07.07-.09.1,0,.02-.02.04-.03.06s-.02.04-.02.06c-.01.03-.02.06-.02.09-.01.05-.01.11-.02.17Z"/>
        <path class="cls-5" d="M120.87,80.61h0s.01,0,.01,0h-.01Z"/>
        <path class="cls-5" d="M119.12,81.43c.67-.51,1.42-.94,2.31-1.24l.02-.02s.01,0,.01,0h-.01s-.1-.01-.15-.01c-.11,0-.22.01-.34.04-.1.03-.2.06-.3.1-.07.03-.15.06-.22.1-.08.04-.15.08-.22.13-.07.04-.14.09-.22.15-.12.08-.23.17-.35.28-.01,0-.02.01-.03.02-.04.03-.07.06-.1.09-.02.01-.03.03-.05.05-.12.09-.23.2-.35.32Z"/>
        <path class="cls-2" d="M107.37,111.67c1.69-.92-.09,1.49,1.38.87.11-.01-.01-.03.11-.01.12.01.11-.01.11.11.01.31-.16.03-.21.38.92-.59,1.81-.73,2.56-1.09.8-.37-.3-1.78,1.44-3.22,1.7-1.39,2.95-.77,3.35-1.16.58-.55-.45-1.5,1.74-4.07,1.56-1.83,3.43-1.73,3.9-2.34.35-.45-.67-1.28.61-3.1,1.22-1.73,2.48-1.19,3.03-1.96.51-.71-.05-1.91.82-3.32s2.24-1.35,2.5-2.13c.32-.94.62-2.28.72-3.7.08-1.19-.31-1.84-.91-3.16-.37-.82-.64-1.88-.82-2.54-.87-3.36.63-7.09-2.12-7.23-3.64.85-.69,3.43-3.06,5.48-7.94,2.24-7.3,11.93-12.52,16.68-13.33,9.51-4.95,11.3-8.27,15.4-1.15,1.42,4.64.69,5.64.1ZM124.62,83.58l.07.08c.17,1.15-.24,3.01-1.58,3.26-.09.02-.18.02-.27.01-2.1-.73,1-5.56,1.78-3.35ZM117.61,92.53c.13-2.67,3.37-2.35,3.31-.09-.06,2.19-3.7,2.8-3.31.09ZM115.99,98.45c1.1,1.13-1.02,3.15-2.07,2.12-2.91-1.63-.1-3.34,2.07-2.12ZM107.6,103.72c3.02-.43,1.13,2.7-.6,3.95,0-.03-.15.02-.15,0-2.32.82-.33-3.67.75-3.94Z"/>
        <path class="cls-5" d="M115.49,86.1c.08-.16.16-.29.25-.45-.09.08-.17.12-.22.12-.03.1-.03.21-.03.33Z"/>
        <path class="cls-5" d="M112.43,93.21c1.03-1.89,1.75-4.19,2.73-6.36l-.15.03c-.22.35-.54.17-.83.17-.1.08-.21.15-.32.22-.92,1.94-1.16,3.92-1.43,5.94Z"/>
        <path class="cls-8" d="M85.54,76.82h.01s0-.01-.01,0ZM85.54,76.82h.01s0-.01-.01,0ZM85.54,76.82h.01s0-.01-.01,0ZM85.54,76.82h.01s0-.01-.01,0ZM85.54,76.82h.01s0-.01-.01,0ZM85.54,76.82h.01s0-.01-.01,0ZM101.39,108.94c.03-.06.04-.14.05-.23h-.01c-.01.09-.02.16-.04.23ZM85.84,76.93s.02,0,.03-.01h-.03ZM85.54,76.82h.01s0-.01-.01,0ZM78.18,63.13v.02s.02-.03.02-.04c0,.01-.01.01-.02.02ZM85.54,76.82h.01s0-.01-.01,0ZM85.54,76.82h.01s0-.01-.01,0ZM85.54,76.82h.01s0-.01-.01,0ZM85.54,76.82h.01s0-.01-.01,0ZM85.54,76.82h.01s0-.01-.01,0Z"/>
        <path class="cls-8" d="M76.98,68.23c.07.03.14.04.2,0-.06.02-.13.01-.2,0Z"/>
        <path class="cls-1" d="M127.12,14.6h.01s.04-.01.02-.04c-.01.01-.02.03-.03.04Z"/>
        <path class="cls-6" d="M118.11,31.2c-.44,4.34,3.46,1.65,4.78-1.09-.13-2.43-4.64-.29-4.78,1.09Z"/>
        <path class="cls-2" d="M105.18,39.11v.02s.03-.02.02-.03h-.02ZM105.2,39.1h.01s.05-.06.07-.1c-.03.03-.05.07-.08.1ZM105.37,38.87c.09-.11.17-.23.23-.34-.04.05-.09.1-.12.15-.01,0-.01.01-.01.01,0,.02-.02.03-.03.04-.02.04-.04.09-.07.14ZM99.79,40.71s.05.01.07.01c.22.01.43.03.65.03-.24-.01-.48-.02-.72-.04Z"/>
        <path class="cls-5" d="M105.18,39.11v.02s.03-.02.02-.03h-.02Z"/>
        <polygon class="cls-4" points="94.77 117.97 94.8 118.01 94.82 117.96 94.77 117.97"/>
        <path class="cls-6" d="M121.09,23.18c.05.18.12.36.19.53.36.82.89,1.54,1.52,2.17.48.48,1.04.92,1.7,1.09.51.13,1.05.09,1.57-.02.32-.07.64-.17.89-.39.26-.23.4-.57.51-.9.25-.74.43-1.51.52-2.3.09-.79.09-1.61-.22-2.33-.89-2.05-3.52-1.42-5.08-.61-.38.2-.75.43-1.05.73s-.54.68-.61,1.1c-.05.31-.02.62.07.93Z"/>
        <path class="cls-6" d="M129.9,24.76c1.05.63,3.09-.32.77-1.67-1.67-.97-1.77,1.07-.77,1.67Z"/>
        <path class="cls-6" d="M132.12,3.3c1.05.63,3.09-.32.77-1.67-1.67-.97-1.77,1.07-.77,1.67Z"/>
        <path class="cls-6" d="M133.36,6.58c1.05.63,3.09-.32.77-1.67-1.67-.97-1.77,1.07-.77,1.67Z"/>
        <path class="cls-4" d="M79.58,45.47c.14-.3.28-.56.41-.78h-.01c-.14.22-.27.48-.4.78ZM78.51,48.47c.15-.48.3-.98.47-1.47-.17.49-.33,1-.47,1.47Z"/>
        <path class="cls-8" d="M121.09,67.78c0,.15.02.31.02.46h.01c-.01-.16-.02-.31-.02-.46h0Z"/>
        <path class="cls-4" d="M76.1,59.44s.07-.01.1-.01h0s-.07,0-.1.01Z"/>
        <path class="cls-7" d="M76.63,59.51s.05.05.07.09h.01c-.02-.05-.05-.08-.08-.09Z"/>
        <path class="cls-7" d="M76.2,59.42h0s.07.01.07.01c-.02-.01-.04-.01-.06-.01h-.01Z"/>
        <path class="cls-8" d="M76.64,59.8c.02-.06.04-.13.07-.2h-.01c-.02.07-.04.13-.06.2Z"/>
        <path class="cls-1" d="M79.06,62.7c2.41.2,4.45,1.78,6.78,2.4,1.14.81,2.98.87,5.26,1.37,11.4,2.51,12.55,5.36,22.85,2.19,4.52-1.39,5.8-4.86,6.72-2.3-1.93-5.35-7.59-1.85-10.6-5.02-4.89-5.14-17.49,5.24-16.94-2.45-.32-.49,2.33-.87,4.12-.91-4.51.09-13.18-.24-17.59.19,1.41.28,4.24.92,5.62,1.31-2.04.77-5.4.65-6.19,3.12-.01.03-.02.07-.03.1Z"/>
        <path class="cls-1" d="M114.25,68.57c.61-.21,1.11-.62,1.57-1.09-.47.45-.98.86-1.57,1.09Z"/>
        <path class="cls-1" d="M110.02,67.53c1.13.79,2.37,1.47,3.93,1.13-1.25-.17-2.57-.6-3.93-1.13Z"/>
        <path class="cls-1" d="M110.07,61.84c.1.02.16.03.2.04h0s-.1-.03-.2-.04Z"/>
        <path class="cls-1" d="M98.78,63.71c.4.1.84.2,1.29.31.17.05.35.09.53.13.1.02.19.05.29.07.25.07.5.13.75.19.9.22,1.82.45,2.65.66-1.96-.8-3.84-1.4-5.51-1.36Z"/>
        <path class="cls-1" d="M96.31,64.48h0c.02-.05.03-.09.04-.12,0,0-.02.01-.03.02-.16.09-.31.19-.45.3.24-.03.39-.1.44-.2Z"/>
        <path class="cls-1" d="M82.78,60.11c.69-.16,1.36-.29,1.96-.47-.21.05-.48.11-.78.18-.11.02-.23.05-.35.08-.26.06-.54.13-.83.21Z"/>
        <path class="cls-1" d="M81.76,63.43s.11.06.17.09.13.07.2.11l.39.21c.13.07.25.14.37.21.18.1.35.2.5.3.05.03.09.06.14.09.05.03.09.06.13.09.08.05.16.1.22.15.03.02.06.04.09.06.02.02.05.04.07.06l.08.08s.01.02.01.02c.01.01,0,.02-.03.02.07.02.15.03.23.05.14.02.3.04.46.06.2.02.41.04.64.05.13.01.27.02.41.02-1.43-.39-2.75-1.11-4.08-1.67Z"/>
        <path class="cls-1" d="M79.07,62.64s.01-.03.02-.04c.13-.53.42-.94.8-1.27-.09.07-.17.14-.25.21-.15.14-.27.28-.36.43-.06.08-.1.16-.13.25-.03.09-.06.17-.07.26-.01.05-.01.11-.01.16Z"/>
        <path class="cls-1" d="M108.09,97.01s0,.01,0,.01c0,0,0-.01.01-.01.11-.01.22-.02.33-.06.03-.05.04-.09.05-.13,0-.01-.01-.01-.02-.01-.02,0-.05.01-.09.03-.03.02-.07.04-.12.07-.05.02-.11.06-.17.1Z"/>
        <path class="cls-9" d="M120.92,92.44c.06-2.26-3.18-2.58-3.31.09-.39,2.71,3.25,2.1,3.31-.09Z"/>
        <path class="cls-9" d="M113.69,100.86c1.04.45,2.46-.28,2.69-1.38.25-1.52-1.82-1.71-2.88-1.3-1.48.46-1.18,2.09.01,2.61l.17.08Z"/>
        <path class="cls-1" d="M101.77,79.72c.13.21.33.28.6.12-.2-.04-.4-.08-.6-.12ZM104.55,92.92c.49-.52,2.45.89,2.36-.41-.06-.85-.79-1.64-1.42-2.33-.33,1.19-.66,1.63-.94,2.74ZM101.77,79.72c-.57-.91-.03-4.5.33-4.99.06-.08.12-.08.16.02-.62-1.45-.92-1.45-1.27-1.31.08.08.16.16.23.24h0l.02.02s.04.04.05.06c.07.07.12.13.17.19.02.03.04.05.06.08.02.03.04.06.06.09.04.07.08.15.11.21.54,1.23-1.33,2.43-1.53,5.01.53.14,1.07.27,1.61.38ZM104.16,95.49c.01.06.02.12.04.16.01.04.02.07.03.1,0,.01.01.01.01.01,0,.01.01.02.01.03h-.03s.06.06.09.09c.01.01.03.03.04.05.01,0,.02.01.03.02.03.03.43.2.92.39.1-.51.16-1.04.18-1.51h0c.04-.64,0-1.14-.15-1.29-.03-.03-.67.12-.94.02-.19.84-.29,1.5-.23,1.93ZM94.09,67.57c.42.74,1.17,1.47,2.04,2.18-.91-.91-1.72-1.75-2.04-2.18ZM89.51,66.47h.06c1.1-.02,2.26-.69,3.44-1-.49-.02-1.03.04-1.64.21h-.01c-.64.41-1.26.73-1.79.78-.02.01-.04.01-.06.01ZM94.01,67.16c.17-.25.56-.62.97-1.02.18-.17.35-.34.52-.52.28-.29.52-.57.66-.83.07-.11.12-.21.15-.31h0s.01-.07.01-.1c-.16.09-.31.19-.45.3-.04.03-.08.06-.11.09-.25.2-.48.43-.7.69-.1.11-.19.24-.28.36-.03.04-.06.09-.09.13-.24.35-.47.75-.68,1.21Z"/>
        <path class="cls-1" d="M88.72,76.9c.12.26.7.26,1.41.37,1.13.16,2.59.56,3.1,2.58.27,1.05.28,2.54-.15,4.67.22-.62-.34.67,2.37,3.29,1.1,1.07,2.24,1.31,3.14,1.93.51.35.94.82,1.25,1.62.33.86.52,2.09.52,3.95,0,.51.3,3.7.3,5.78,0,.07-1.31,1.55-.21,2.47.14.12.33.23.57.33.08.03.16.06.25.09.44.02.77-.13,1.04-.39.44-.42.72-1.11,1.08-1.66.14-.23.3-.44.49-.59.1-.07.18-.14.27-.2.09-.07.15.09.24.02.14-.1.28-.4.4-.48.83-.55,1.71-1.04,2.49-1.68,5.6-4.57,1.21-3.86.36-5.92-.75-1.8-1.34-3.09-1.84-4.3-.08-.2-.15-.38-.22-.56-.03-.08-.05-.13-.08-.19-.57-1.49-1.03-3.03-1.51-5.49-.02-.08-.03-.16-.04-.23-1.04-5.41-.68-6.07-1.85-7.58-.15-.21-.34-.44-.58-.7-.02-.03-.04-.05-.06-.08-.05-.06-.1-.12-.17-.19-.03-.02-.05-.04-.07-.07-.07-.09-.15-.17-.23-.25-2.9-3.14-4.18-6.03-6.01-7.3-.09-.07-.19-.13-.29-.19-.5-.28-1.05-.46-1.68-.48-.49-.02-1.03.04-1.64.21-.55.15-.77-.1-1.43.21-.08.03-.91-.45-.99-.41.07.08.81.9.9.98.56.52,1.27,1.35,1.88,2.64.29.57.59,1.28.55,2.19s.09,1.12-.61,1.88c-.12.25-.24.63-.38,1.16,3.58,2.22-3.09,1.41-2.57,2.56Z"/>
        <path class="cls-8" d="M78.18,63.13v.02s.02-.03.02-.04c0,.01-.01.01-.02.02Z"/>
        <path class="cls-8" d="M76.98,68.23c.07.03.14.04.2,0-.06.02-.13.01-.2,0Z"/>
        <path class="cls-6" d="M126.64,17.08c.06.12.12.24.19.36.13.22.26.42.43.61.07.07.14.14.24.17.11.03.23-.02.33-.07.2-.11.38-.26.54-.43.28-.31.47-.7.55-1.11s.03-.85-.13-1.23c-.26-.63-.99-1.15-1.63-.68-.22.16-.37.39-.48.63-.16.33-.26.71-.23,1.08.02.24.09.47.2.69Z"/>
        <path class="cls-8" d="M127.12,14.6h.01s.04-.01.02-.04c-.01.01-.02.03-.03.04Z"/>
        <path class="cls-6" d="M124.87,10.68c0,.25.05.49.19.69.14.2.36.34.58.44.27.12.56.21.86.23.19.01.42-.02.53-.17.06-.08.08-.18.09-.28.05-.37-.05-.75-.26-1.06-.37-.55-1.12-.84-1.74-.54-.08.04-.16.09-.21.17-.04.07-.05.16-.05.25,0,.09,0,.18,0,.26Z"/>
        <path class="cls-9" d="M93.94,67.3c.04.08.08.16.13.24,0,.01.01.02.02.03.42.74,1.17,1.47,2.04,2.18,1.65,1.36,3.75,2.63,4.86,3.69.08.08.16.16.25.26.02.02.04.04.05.06.07.07.12.13.17.19.02.03.04.05.06.08.02.03.04.06.06.09.04.07.08.15.11.21.54,1.23-1.33,2.43-1.53,5.01-.03.36.48.77,1.15,1.2.13.08.27.17.41.25.1.06.21.12.31.18.02.01.03.02.05.03l.36.21c.17.09.33.19.48.29.33.2.62.39.82.58.03.02.06.05.09.09.04.04.07.08.13.16.04.07.05.14.03.21-.39,1.19-4.04-3.21-2.19,1.69.11.3.35.5.58.72l.83.8,1.67,1.61c.24.23.47.47.63.77s.23.62.35.93c.17.44.43,1.06.64,1.48.41.81.63,1.47.98,2.3.16.37.27.7.28,1.11,0,.29,0,.59-.01.88-.02.6-.07,1.21-.02,1.82.02.27.07.88.46.86,1.22-.03,1.98-1.33,2.76-2.21.32-.36.61-.74.87-1.14.53-.79,1.02-1.53,1.4-2.39,1.06-2.4,2.01-5.09,3.42-7.33.42-.67.69-1.22,1.19-1.82.9-.98,1.94-1.69,3.14-2.27.75-.36,1.47-.7,2.03-1.33.79-.88.81-2.06.37-3.12-.52-1.21-1.46-2.42-2.07-3.56-.6-1.09-.55-1.9-.12-2.93.12-.3.05-.72.05-1.14s-.03-.89-.1-1.34c-.02-.08-.03-.15-.06-.24-.06-.27-.15-.52-.27-.73-.1-.19-.23-.35-.38-.47-.16-.11-.32-.19-.48-.26-.14-.06-.27-.1-.4-.12-1.29-.3-2.2.77-3.21,1.82-.06.07-.12.13-.18.19-.04.05-.09.1-.14.16l-.2.2c-.47.45-.98.86-1.57,1.09-.1.03-.2.06-.3.09-1.25-.17-2.57-.6-3.94-1.13-1.86-.74-3.78-1.67-5.64-2.43-.01,0-.02-.01-.04-.01-.01-.01-.03-.01-.04-.02-1.96-.8-3.84-1.4-5.52-1.36-.88.02-1.68.22-2.42.65,0,0-.02.01-.03.02-.16.09-.31.19-.45.3-.04.03-.08.06-.11.09-.25.2-.48.43-.7.69-.1.11-.19.24-.28.36-.03.04-.06.09-.09.13-.24.35-.47.75-.68,1.21-.03.04-.05.08-.07.14Z"/>
        <path class="cls-9" d="M106.78,107.87c1.12-.26,2.18-1.52,2.43-2.64.35-1.4-.78-2.18-1.99-1.32-1.12.6-2.73,3.89-.59,3.98l.15-.02Z"/>
        <path class="cls-9" d="M122.68,86.92c1.47.48,2.89-2.64,1.84-3.83-1.61-.83-3.24,2.84-1.95,3.77l.11.06Z"/>
        <path class="cls-1" d="M75.47,57.56c.21.31.57.48.93.55,1.42.27,3.08.06,4.52.07,1.67,0,3.34,0,5.01,0,3.22-.02,6.45-.14,9.67-.14.05,0,.1-.01.15-.01,1.36-.02,2.69-.03,3.95,0,.35,0,.7.01,1.04.03.17,0,.32,0,.46.01-5.19-2.28-4.3-1.72-3.66-6.79.44-3.48-6.63.8-2.91-5.52.08-.14.29-1.77-.57-2.55-.05-.04-.09-.08-.15-.11-.96-.48-2.52,1.73-3.26,1.74-.52.01-2.37-.03-2.81-.25-1.44-.71.36-2.64-1.22-3.19-.56-.2-2.26,1.11-2.54.5-.45-.99-.95-1.42-1.47-1.44-2.15-.08-3.63,4.44-4.24,5.92-1.02,2.49-1.9,5.04-2.55,7.65-.19.76-.69,1.9-.6,2.81.03.26.1.51.25.72Z"/>
        <path class="cls-8" d="M74.78,66.41c8.02,6.84,10.98,41.54,17.04,39.6.34-.11,1.51-.05,2.67-.48,2.64-1,3.11,1.2,3.07,1.73-.17,2.06-2.56,3.77-.64,4.29,1.83.5,4.19-.36,5.21-1.46-.07.13-.11.27-.14.41-.04.16-.07.19-.07.39q0,.1.07.28c.1.25.72-.05.89-.16.18-.12.31-.24.42-.36.64-.78.07-1.8-.36-2.53-.36-.61-.96-1.36-.68-2.1.48-1.24,1.2-2.39,1.57-3.68.08-.29.28-.56.42-.83.11-.2.37-.54.35-.78-.73-10.82-7.15-12.85-11.09-20.58-2.63-5.16-.1-3.5-.92-5.3-.25-.56-1.23-1.23-.68-1.62.9-.65.82-1.72.27-3.91-1.23-4.9-4.51-9.83-10.43-11.7,6.72-5.04-2.18-12.15-7.33-.57-.24,3.9.27,5.33.35,9.36Z"/>
        <path class="cls-6" d="M98.97,110.83c-.09-1.9,1.11-2.55,2.46-2.12,3.43,1.09-2.32,5.15-2.46,2.12Z"/>
        <path class="cls-6" d="M95.07,112.87c-.38-1.56.94-2.15,2.08-1.79,2.89.92-1.57,3.89-2.08,1.79Z"/>
        <ellipse class="cls-9" cx="71.19" cy="39.86" rx=".34" ry=".69"/>
      </g>
    </g>
  </g>
</svg>