<?xml version="1.0" encoding="UTF-8"?>
<svg id="Layer_2" data-name="Layer 2" xmlns="http://www.w3.org/2000/svg" viewBox="0 0 303.41 376.8">
  <defs>
    <style>
      .cls-1 {
        fill: #0e181f;
      }

      .cls-1, .cls-2, .cls-3, .cls-4, .cls-5, .cls-6, .cls-7, .cls-8, .cls-9, .cls-10, .cls-11, .cls-12, .cls-13, .cls-14, .cls-15, .cls-16 {
        stroke-width: 0px;
      }

      .cls-2 {
        fill: #070c10;
      }

      .cls-3 {
        fill: #445b5c;
      }

      .cls-4 {
        fill: #909389;
      }

      .cls-5 {
        fill: #e2ddd2;
      }

      .cls-6 {
        fill: #b1360b;
      }

      .cls-7 {
        fill: none;
      }

      .cls-8 {
        fill: #252d35;
      }

      .cls-9 {
        fill: #6e747b;
      }

      .cls-10 {
        fill: #594536;
      }

      .cls-11 {
        fill: #c0beb7;
      }

      .cls-12 {
        fill: #f9faf7;
      }

      .cls-13 {
        fill: #c39f7b;
      }

      .cls-14 {
        fill: #f26b2b;
      }

      .cls-15 {
        fill: #343b43;
      }

      .cls-16 {
        fill: #392e27;
      }
    </style>
  </defs>
  <g id="Layer_1-2" data-name="Layer 1">
    <g>
      <path class="cls-14" d="M99.56,358.26c.17.11-.91.35-1.19.58-.86.27-.41.15-1.44.39-4.19.99-6.71.84-10.87,1.52-3.98.63-11.78-.41-12.75-.8-1.34-.54,10.4-3.39,1.81-3.73-.3-5.81,12.58-2.81,14.27-6.4l.05.08c1.96-.09,3.62-.88,5.67-1.22.62-.11.97-.33,1.49-.47.56-.14.8-.09,1.58-.36l.11-.02c3.21-.51,6.31-1.39,9.2-2.91.72,1.03,2.01.45,2.9,1.04.12.12.24.24.36.36l.03.03c.47.45.41,1.69,1.58,1.07.84-.8,4.77-5.42,4.01-7.38-.17-.44-.14-1.03.02-1.46.68-1.12,1.6-2.11,2.07-3.33.14-.35.12-.48.84-1.24l.02-.02h-.02c.62-1.57.94-2.82,1.69-4.19.3-.56.56-.84.77-1.36.41-.94.56-1.27.86-2.38,1.09-4.04,1.12-6.68,1.4-10.06.26.29.71.59,1.28.91.24.12.48.26.75.38.39.2.83.39,1.3.59,1.52.66,3.29,1.33,4.78,1.9.23.09.44.18.65.26.15.08.3.14.45.2.23.09.42.18.62.26.2.09.36.17.53.24.2.09.36.17.5.26.26.17.42.3.45.41v.02c-.02,1.66-.51,3.17-1.31,4.57-2.66,4.59-3.76,9.7-5.1,14.74h.03c-.11.09-.21.21-.32.33-.48,1.09-.74,2.2-.54,3.39-.09,2.31,1.75,5.07.68,6.41-.09.11-10.83,1.1-12.31,1.52-4.1,1.15-8.54,1.99-12.39,3.59-.65.29-4.03,1.8-4.53,2.29Z"/>
      <path class="cls-14" d="M155.46,362.64c-2.28-.05-4.56-.09-6.84-.14-4.5-3.64-16.61,2.38-21.29,3.49-7.23,1.69-18.44,2.69-24.78-2.22.66-.8,1.44-1.06,2.08-1.41,1.66-.92,2.57-1.15,4.26-1.55,6.42-1.49,13.21-3.95,17.7-4.39,8.49-.81,19.62,4.24,27.49,1.96.36.29.77.54,1.12.86,1.13,1.04,1.69,2.14.26,3.39Z"/>
      <polygon class="cls-12" points="104.63 171.85 104.61 171.87 104.61 171.85 104.63 171.85"/>
      <path class="cls-9" d="M215.17,195.3c1.07,1.24,2.1,1.97,3.05,3.03,1.76,1.97,3.2,4.22,4.92,6.23,1.35,1.58,2.48,3.15,3.77,4.92,1.09,1.49,1.97,4.66,3.7,3.98.81-.32.42-1.54.48-2.58.13-2-1.31-3.48-1.74-5.46-.83-3.84-2.52-7.42-4.27-10.92-2.52-5.04-6.43-9.25-10.44-13.23-.94-.93-1.93-1.79-2.93-2.66-.18-.15-.34-.35-.54-.47-.11-.06-.18-.14-.27-.24-.53-.54-.94-.96-1.67-1.45-.54-.68-.67-.9-1.69-1.25-.45-.38-.76-.6-1.02-1.11-.14-.14-.52-.02-.65-.15-.56-.32-.4-.42-1.25-.83-.25-.49-.41-.28-.84-.42-.05-.28-.31.08-.42-.02-1.06-.91-1.98-1.36-2.97-2.04-.14-.17-.25-.3-.38-.47-.09-.12-.28-.37-.42-.42-.36-.13-.56-.15-.86-.42-1.55-1.44-3.56-2.36-5.61-2.75-.89-.17-2.78-.86-4.18-1.52-.23-.11,1.83-1.13,1.81-1.19-1.25-4.07-8.81-4.97-12.76-6.68-4.6-2-10.2-7.33-14.09-4.22,0,0,0,.01,0,.02-.21,1.01-.99,1.37-2.11,1.03s-4.29-2.25-5.58-2.12c-3.33.35-4.07.02-7.38-.62-3.8-.73-7.69-.9-11.45-.09-12.76,2.75-35.83,3.73-25.77,17.32.5.68.76.64,1.42,1.51,1.87,2.47-.23,5.76.45,8.53.65,2.61,1.74,5.58,4.16,6.76,1.42.69,3.46-.25,3.76,2.11.03.27-.14.61.06.8,3.64,3.44,8.19,12.37,10.06,15.57.35.59.72,1.24,1.28,1.66,6.64,5.02,2.67-4.09,4-5.82.42-.55,1.69,4.93,3.4,5.43,1.26.37,2.66-.92,3.3-.85,1.07.11,5.43,7.82,7.79,11.32.22.33.54.58.85.83,4.49,3.64,2.03-1.85,3.88-2.45,2.93-.94,3.03,8.59,6.95,3.82,1.21-1.46-1.05-15-.95-13.72.29,3.74,7.91,18.47,10.27,18.65,1.96.15,2.81-2.56,2.05-4.19-.67-1.44-3.7-11.59-2.94-11.83,2.54-.81,3.71,11.47,3.8,12.27.19,1.71,3.44,3.73,4.95,2.69,1.77-1.23.55-4.25,1.77-6.05,1.04-1.54,7.32,10.23,7.59,10.09,5.26-2.77-1.55-15.27.26-16.39,2.35-1.45,7.57,12.53,12.19,8.19.9-.84,1.15-2.06,1-3.29-.19-1.56.38-1.98,1.84-1.36s2.21.08,1.93-1.55c-.19-1.1-.38-2.17-.38-3.27,0,0,0-.01,0-.02-.03-.1-.14-.16-.17-.27,0-.03.08-.14.14-.12.13.05-.03.27.03.39,1.29,2.57,3.45,5.51,6.31,5.88,1.28.17,4.17-3.29,4.54-3.17,1.47.46,4.65,6.29,5.9,3.73,2.78-5.7-3.78-11.49-6.94-16.7-.42-.69-.49-1.51-1.1-2.2l.15-.17ZM164.21,154.47c-.11-.07,0-.26.12-.18.11.07,0,.26-.12.18Z"/>
      <path class="cls-2" d="M223.72,267.5c-4-1.42-8.13-3.06-11.77-5.02,3.27,1.36,7.5,3.17,11.77,5.02Z"/>
      <path class="cls-2" d="M269.39,282.81c2.52.75,4.98,1.6,7.3,2.61-3.15-.63-7.03-1.63-7.3-2.61Z"/>
      <path class="cls-2" d="M242.79,275.71c-1.52-.54-10.32-4.42-18.95-8.16,4.66,1.64,9.11,2.99,12.33,4.18,13.32,4.96,28.37,10.56,42.81,10.15.17.45.59.91-.06,1.33-.6-.06-9.52-1.28-9.54-.5,0,.03,0,.08.02.11-8.8-2.64-18.47-4.22-26.6-7.11Z"/>
      <path class="cls-2" d="M280.68,287.33c-1.27-.69-2.61-1.33-3.98-1.9,1.93.39,3.59.65,3.97.69,0,.41.02.8.02,1.21Z"/>
      <path class="cls-1" d="M293.02,329.68l.25-.29v-.02c-.06-.09.01.3-.05.23-.02-.03-.23.69-.2.08-.03-.05.03.02,0,0-.02-.02-.09.05-.1.05-.14-.12-.18.26-.33.2-.08-.03-.5-.07-.58-.09-.07-.02-.69-.3-.76-.31-.4-.04-.25-.63-.49-.98l-.02-.02c-.24-.68-.92-1.01-1.3-1.57-1.22-1.8-3.12-3.17-3.32-5.57.51.18.98.44,1.42.74h.02c.44.3.86.65,1.27.98.83.66,1.66,1.36,2.7,1.71.09.05.18.08.26.12v-.02c-.03-.08-.08-.15-.11-.24v-.02c-.2-.77-.72-1.28-1.33-1.7-.14-.11-.29-.2-.42-.29-.68-.44-1.34-.89-2.01-1.36-.33-.24-.65-.48-.98-.72-.32-.24-.63-.48-.97-.74-.78-.6-1.58-1.24-2.37-1.86-.36-.29-.72-.56-1.09-.85-1.07-.85-2.17-1.66-3.29-2.43-.5-.33-1-.66-1.52-1-.51-.32-1.04-.62-1.57-.91-.72-.39-1.46-.74-2.22-1.06,2.99-8-20.14-11.62-25.12-13.04-.88-.26-1.87-.57-2.93-.94-.35-.12-.71-.24-1.07-.38-.74-.26-1.51-.53-2.28-.78-.78-.27-1.57-.54-2.35-.8-1.71-.54-3.41-1.06-5.01-1.4-.29-.06-.57-.12-.84-.17-.32-.06-.63-.12-.94-.15-.11-.02-.21-.03-.32-.05-.3-.05-.59-.08-.88-.09-.33-.03-.65-.05-.95-.05-.18,0-.36,0-.53.02-.27.02-.54.05-.78.08-.17.03-.32.06-.47.09-.11.02-.2.05-.29.08-.23.05-.44.12-.63.21-.35.14-.66.32-.95.51-.26.18-.48.38-.68.59-.26.26-.45.51-.65.78-.23.32-.41.65-.6.98-.21.38-.41.75-.6,1.12-.08.14-.39.09-.81-.05-.24-.08-.51-.18-.78-.27-.24-.09-.47-.18-.69-.26-.09-.03-.18-.06-.26-.08-.09-.02-.18-.05-.26-.06-.2-.03-.36-.03-.45.03-.14.09-.27.17-.39.24-.12.08-.24.15-.35.24-.12.09-.23.17-.33.24-.68.48-1.24.98-1.9,1.57-.14.14-.29.27-.44.41-.08.06-.14.14-.21.2-.15.14-.29.29-.44.45-.08.08-.15.17-.23.24-.24.26-.47.54-.69.85-.15.2-.29.39-.42.6-.14.21-.27.42-.38.63-.18.32-.33.63-.42.95-.08.25-.13.49-.15.73-.02.23,0,.46.06.68.03.15.09.32.2.47,0-.06.27-.05.75.03.14.03.3.05.47.08.12.02.23.03.35.06.18.03.36.06.56.09.12.03.24.05.38.08.48.11,1.03.21,1.61.33.2.03.39.08.6.14.2.05.41.09.62.14.27.06.54.12.81.18.47.11.94.21,1.42.32.11.02.2.05.3.08.26.05.51.11.77.18.33.06.66.15,1.01.24.54.14,1.1.27,1.64.41.66.17,1.31.33,1.95.51.57.15,1.13.32,1.67.47.29.08.57.15.86.24.83.26,1.58.5,2.26.72.14.05.26.09.38.14.12.05.24.09.36.14.12.05.23.08.33.12.23.08.42.17.6.24.09.05.18.08.26.12.35.15.6.3.78.44.05.03.08.06.09.08.18.15.26.27.2.39.09-.11.17-.23.21-.36.21-.65-.23-1.54-.23-2.38,0-.11.02-.21.03-.32.02-.11.05-.21.08-.3.03-.11.09-.21.15-.32.06-.09.14-.2.23-.29.08-.08.17-.15.26-.23.2-.15.42-.29.72-.41.12,2.82,1.01,4.22,1.87,4.65.06.05.12.08.18.09h.05c.06.03.12.05.17.05.21.05.41.02.57-.06.12-.05.21-.14.3-.23.23-.27.35-.68.26-1.21-.02-.09-.03-.17-.06-.26,0,0,.02-.02,0-.02-.03-.11-.06-.21-.11-.32-.03-.09-.08-.18-.11-.27-.08-.15-.17-.3-.27-.47-.08-.12-.17-.26-.27-.39v-.02c-.11-.12-.21-.26-.33-.39-.12-.14-.26-.29-.39-.42-.39-.38-.84-.77-1.4-1.18v-.02c.03-.21.08-.41.15-.57.09-.23.21-.42.39-.57.06-.08.14-.14.23-.2.11-.08.23-.14.36-.18.05-.03.11-.05.17-.06.12-.05.26-.08.41-.09.11.39.38.91.81,1.51.09.14.21.29.33.45,2.7,3.39,9.57,9.14,15.87,13.81.42.32.84.62,1.25.92,1.24.91,2.44,1.75,3.58,2.52.39.27.75.51,1.12.75,3.59,2.37,6.26,3.77,6.61,3.23,0-.02-.02-.05-.06-.09-.02-.02-.05-.06-.09-.09-.03-.03-.08-.08-.12-.12-.44-.45-1.58-1.48-3.23-2.9-.18-.15-.36-.32-.54-.48-.91-.8-2.04-1.78-3.35-2.91-.32-.26-.65-.54-1-.84-.02-.03-.03-.05-.06-.06-.69-.59-1.42-1.24-2.19-1.9-.38-.32-.74-.63-1.12-.98.03.03,0,0-.12-.11-.06-.05-.12-.11-.21-.18,0,0-.08-.08-.24-.21-.38-.33-.75-.66-1.12-.98-1.57-1.37-3.2-2.81-4.74-4.18-.72-.66-1.42-1.3-2.08-1.9-.15-.14-.3-.27-.45-.41-.38-.33-.74-.68-1.09-1l-.54-.54c-.11-.09-.23-.21-.36-.35-.12-.11-.24-.21-.35-.32-.11-.12-.21-.23-.32-.32-.81-.83-1.4-1.46-1.64-1.84v-.02c.02-.48.03-.95.15-1.39.12-.45.35-.84.75-1.19.12.39.26.77.41,1.15.05.12.09.24.15.36.12.3.26.6.41.89.39.77.83,1.51,1.33,2.22.23.33.47.65.71.97,1,1.27,2.14,2.43,3.38,3.55.41.38.83.74,1.25,1.09,2.56,2.14,5.4,4.07,7.98,6.01.86.63,1.69,1.28,2.47,1.93.05.03.11.09.17.14.02-.02.02,0,.03.02.2.17.48.38.83.65.21.14.44.32.69.51.33.26.71.54,1.12.85.41.32.84.63,1.3.98,0,0,0-.01.02,0,.45.36.94.72,1.42,1.09,1,.74,2.05,1.55,3.11,2.38.53.41,1.06.83,1.57,1.24.26.2.53.41.78.62.51.42,1.01.81,1.48,1.21,1.45,1.18,2.73,2.31,3.67,3.23.12.12.23.23.33.33.21.23.39.42.54.6.15.2.29.36.38.51.05.08.09.15.12.21.11.21.14.38.08.48-2.11-.68-4.13-1.66-6.32-2.08-2.38-1.24-4.77-2.47-7.15-3.71-.83-.62-1.61-1.3-2.49-1.83-3.2-1.98-6.43-3.91-9.64-5.85-3.39-2.49-7.27-6.58-11.23-8.03-2.26-.81-4.92.66-4.77.68-2.9-.18-8.71-3.83-10.94-1.33-2.08-1.1-4.56-1.16-6.5-2.57-.89-.65-1.64-.66-2.29.32-.88-.94-1.81-1.49-3.23-1.72-1.93-.32-3.46-1.89-5.15-2.94-1.12-.33-3.52.3-4.65.68-2.34.75.17.62-.78,1.98-.39.54-2.17-.86-2.76-.24,0,0-.02.11-.05.32-.03.12-.05.29-.08.45-.11.59-.29,1.57-.45,2.55-.03.12-.06.26-.08.38-.05.18-.08.36-.11.56-.06.27-.11.54-.15.78-.02.06-.03.12-.05.18-.03.15-.06.27-.08.38-.02.03-.02.06-.02.08-.02.08-.03.14-.05.2-.05.15-.06.24-.08.27,0,.02-.02.02-.02.02.47,1.67-5.42,2.28-6.62,1.63-1.48-.44-2.57-1.34-3.33-2.69-.26-.45-.56-.68-.81-.53-.05.03-.11.08-.15.14-.09.12-.18.3-.24.54v.02c-.06.33-.14.57-.23.77-.03.08-.08.14-.12.2-.14.18-.3.29-.53.32-.24.05-.54.02-.91-.06-.11-.02-.21-.05-.3-.08-.09-.03-.18-.06-.26-.09-.2-.08-.35-.18-.47-.32-.05-.05-.09-.11-.12-.17-.05-.06-.08-.14-.09-.21-.09-.32-.02-.72.23-1.21.11-.42.2-.83.29-1.25.02-.02.02-.03.03-.06s.02-.08.05-.12c.06-.15.14-.42.24-.77.11-.36.24-.83.39-1.36.12-.41.24-.86.38-1.34.15-.59.32-1.21.47-1.84.08-.27.15-.56.21-.83.02-.08.03-.15.06-.23.03-.12.06-.23.08-.35.08-.32.15-.63.21-.92.03-.12.06-.24.09-.36.06-.32.12-.62.18-.92.03-.14.06-.27.08-.39.05-.26.09-.5.12-.72.03-.11.05-.21.05-.32.08-.54.09-.94.03-1.13-.02-.03-.03-.06-.06-.09-.02-.02-.05-.03-.06-.03h.05c.09,0,.17.02.23.05.08.05.14.09.18.15.05.05.08.11.11.17.03.06.05.12.08.18,0,.02.02.05.03.08.03.14.06.3.08.47.03.26.05.53.05.83.02.29.02.59.02.89.02.3.03.57.05.84.02.12.03.26.06.36.02.12.05.24.09.35.03.08.06.15.09.21.06.09.14.17.21.21.06.03.12.05.2.06,1.03.12.89-5.6.83-6.13.11-.66.23-1.31.33-1.96.03-.33.08-.68.11-1.01.6-1.9.39-3.74-.53-5.51-.2-.38-.23-.77-.14-1.19.03-.05.09-.11.08-.14-.03-.09-.11-.18-.17-.26-.03-.14-.06-.27-.11-.41,1.93-1.33.78-2.58-.08-3.85-.59-2.07-.42-4.32-1.55-6.25,0-.15-.02-.29-.02-.44.12-9.91-6.88-16.14-15.06-19.96-9.31-4.33-18.15-8.24-26.99-13.53-20.6-12.54-34.88-42.7-41.52-64.85.26-1.99-.77-3.88-.42-5.87.42-2.5.86-5.01,1.28-7.53,1.1-2.41,1.58-4.98,2.04-7.57.39-.54,1.4-1.06.08-1.67-.03-.29-.06-.56-.09-.85.03-.98.05-1.98.08-2.96,2.17-.38,3.88-1.78,5.75-2.78,1.83-.97,3.79-1.8,5.13-3.5.33-.03.65-.12.83-.44,4.63.91,8.99,3.14,13.9,2.69.45-.05,1.22.17.78,1.04-12.46,3.89-24.1.5-25.77,17.32-1.24,3.32-.48,6.68-.18,10.02.26,2.22.75,4.38,1.3,6.55,2.01,8,5.93,15.16,9.58,22.45,5.25,11.72,13.16,23.67,22.65,32.55.23.21.92.8,1.89,1.55.24.2.5.39.75.6.14.09.29.2.42.32.42.32.86.66,1.33,1,.47.33.95.68,1.42,1.01.95.69,1.93,1.34,2.82,1.86.15.08.3.17.45.26,1.55.89,2.82,1.34,3.26.92.06-.06.11-.12.14-.21.02-.05.03-.09.03-.15.03-.09.03-.2.02-.32h0s-.02-.06-.03-.11c-.02-.03-.03-.06-.06-.09-.03-.05-.06-.08-.09-.12-.03-.05-.08-.09-.14-.14-.11-.11-.21-.21-.35-.33-.27-.23-.59-.51-.97-.81-1.9-1.54-4.83-3.76-5.21-4.93-.03-.09-.05-.17-.05-.24,0-.18.08-.32.24-.42-.11.06-.05.2.12.38.03.05.06.09.12.14.77.8,3.05,2.32,4.75,3.43,1.01.68,1.83,1.19,2.01,1.31.21.15.42.32.62.48.41.36.78.74,1.18,1.12.2.18.39.36.6.56.41.36.81.69,1.28.94.24.12.48.24.74.32.26.09.53.15.83.18.36.05.63.05.84.02.14,0,.26-.03.35-.06.09-.03.17-.09.2-.14.03-.02.05-.06.06-.09.27-.54-.8-1.69.06-2.2.83-.48,4.32,2.88,5.3,3.2.53.24,1.04.45,1.58.65.54.2,1.09.36,1.64.48.18-.08.35-.17.5-.27.3-.18.57-.41.81-.69.11-.15.21-.3.32-.47,5.63,1.77,7.03,5.81,13.97,5.18.69,0,1.09.6,1.63.88.59.84,1.57,1.63,2.73,2.28.02.02.03.03.06.05.33.18.68.36,1.03.51.06.03.14.06.21.09.33.15.66.27,1,.39h.02c.06.02.14.05.23.08s.15.05.23.08c.06.02.12.03.18.05.11.03.2.06.29.09.12.03.23.06.33.08.06.02.12.03.18.05.06.02.12.03.18.05.05.02.11.03.17.03.91.18,1.77.24,2.49.15.14-.01.27-.03.39-.06.2-.05.38-.09.54-.17.02,0,.03,0,.05-.02.05-.02.09-.05.15-.08.02,0,.02-.02.02-.02.09-.05.18-.09.26-.17.02.01.02,0,.03-.02.05-.03.09-.06.14-.11.02-.02.03-.02.03-.05.21-.2.35-.44.41-.74.03-.08.05-.14.03-.23,0,0,.02,0,0-.02.03-.18.02-.38-.02-.57,0-.06-.02-.14-.03-.21-.01-.11-.04-.21-.07-.33-.04-.14-.07-.27-.12-.41-.05-.12-.09-.24-.15-.36-.05-.08-.08-.15-.11-.23l-.33-.63c.86.26,1.4.09,1.27-.97.11.23.21.44.35.65.54.98,1.25,1.93,2.08,2.81.24.29.51.56.8.8.27.29.56.53.86.78.53.44,1.09.88,1.67,1.3.21.15.41.3.62.44.26.18.53.36.81.54.26.17.54.33.81.51.42.24.86.5,1.3.75.05.03.11.06.15.09.05.02.09.05.14.09-.72-.3-1.4-.57-2.02-.81-.18-.08-.35-.15-.51-.21-1.24-.5-2.2-.85-2.78-1.01-.06-.02-.12-.03-.17-.05-.24-.08-.38-.09-.41-.06-.71.78-.29,1.8.92,2.96.41.39.91.8,1.48,1.21.42.3.89.62,1.39.95.35.23.69.44,1.06.65.56.33,1.13.66,1.75,1,1.01.57,2.1,1.13,3.23,1.69,1.6.78,3.29,1.57,4.99,2.34.48.23.98.44,1.46.65.5.21.98.42,1.46.63,1.7.74,3.39,1.45,4.99,2.08.68.29,1.34.54,1.98.8,0,0,0-.01.02,0,.72.29,1.4.56,2.07.81.12.05.24.09.36.14,1.6.63,2.96,1.15,3.97,1.52.08.02.15.05.21.08.2.08.36.14.51.2.32.12.59.23.77.29,2.55.94,5.12,1.92,7.73,2.87,2.61.97,5.24,1.93,7.89,2.85,3.53,1.22,7.11,2.37,10.71,3.33,1.77.48,3.53.92,5.3,1.3.06.02.12.03.17.05.89.2,1.77.38,2.66.54.91.17,1.81.32,2.72.47,1.83.29,3.64.51,5.45.65.18.03.32.08.41.14.2.14.18.38-.08.69l-.02.02c-.89.29-1.84.44-2.87.5-8.19.51-20.35-5.25-26.9-7.54-.62-.21-1.77-.69-3.27-1.31-1-.41-2.16-.89-3.41-1.42-2.5-1.04-5.42-2.23-8.28-3.32-1.43-.54-2.85-1.06-4.21-1.52-.42-.15-.84-.29-1.25-.42-2.04-.68-3.88-1.19-5.3-1.42-.18-.03-.36-.06-.53-.08-.15-.03-.29-.05-.42-.05-.92-.09-1.57.02-1.86.35-.24-.24-.48-.48-.74-.69-1.01-.89-2.13-1.61-3.29-2.26-.29-.17-.57-.33-.88-.48-.59-.32-1.18-.62-1.77-.94-.42-.29-.86-.54-1.3-.8-.33-.18-.66-.36-1-.54-.35-.17-.68-.33-1.03-.48-.38-.17-.75-.32-1.15-.45-.33-.11-.66-.21-1-.3-.95-.51-1.86-1-2.72-1.46-.59-.32-1.15-.62-1.72-.91-.91-.47-1.81-.92-2.73-1.31-.39-.18-.78-.35-1.18-.5-.39-.17-.8-.32-1.21-.47-.36-.14-.75-.26-1.13-.38-1.16-.36-2.4-.68-3.74-.94-.05-.02-.11-.02-.17-.05-.06-.02-.14-.03-.21-.05-.15-.03-.35-.06-.56-.12-.18-.03-.39-.09-.62-.14-.63-.15-1.43-.33-2.29-.51-.33-.08-.68-.15-1.03-.23-.69-.15-1.43-.3-2.17-.47-.36-.09-.74-.17-1.1-.23-.56-.11-1.1-.21-1.61-.32-.35-.08-.69-.14-1.01-.18-.3-.05-.6-.09-.88-.14-.08-.03-.15-.03-.23-.05-.6-.08-1.15-.14-1.58-.17-.54-.03-.92-.01-1.09.09t-.02.02s-.03,0-.03.03t-.02.02s-.02.02-.02.02c0,0,.02,0,.05.02s.09.05.17.08c.08.05.18.11.3.17h.02c.15.09.35.2.57.32.23.14.48.27.77.42.02,0,.02.02.02.02.23.14.48.27.74.42.08.05.17.09.26.14.38.2.88.48,1.51.84.48.27,1.01.57,1.55.86.8.45,1.78,1,2.9,1.63.21.12.41.23.62.35.88.48,1.87,1.04,2.99,1.67.26.14.51.29.78.44.62.33,1.33.72,2.11,1.16.45.26.89.5,1.33.74.81.45,1.69.94,2.61,1.43.21.12.44.24.65.36.42.23.84.45,1.25.68.21.11.41.23.6.32.08.05.14.08.21.12.33.18.65.35.97.51.97.53,1.92,1.03,2.79,1.48.23.12.44.23.65.33.06.03.12.06.18.09.15.08.3.15.44.23.06.03.11.05.17.08.21.11.42.21.63.32l.57.29c.06.03.14.06.21.09.03.02.08.03.11.05.38.17.69.3.94.39.09.03.17.06.23.08.32.23.63.45.95.63.3.18.62.36.94.53.03.02.08.03.11.05.3.15.62.3.95.42.33.14.68.26,1.03.36.21.06.44.12.65.17.27.08.53.12.78.17.51.11,1.04.17,1.57.21.24.02.48.03.72.05.5.01,1.01.01,1.51,0,.29-.02.57-.03.88-.06.8.12,1.6.29,2.4.45.39.09.8.18,1.19.27.8.2,1.6.41,2.38.63.8.23,1.6.47,2.38.72,1.55.5,3.09,1.04,4.63,1.6,4.1,1.51,8.18,3.15,12.21,4.45,1.74.56,3.68,1.13,5.69,1.71,2.79.83,5.67,1.66,8.15,2.52,1.4.48,2.69.98,3.73,1.48,5.73,6.58,11.54,13.1,17.55,19.45,4.65,4.92,9.13,10,13.69,15.01h-.02c-.41-.09-.81-.17-1.22-.24-.42-.08-.81-.15-1.24-.23v-.02c-.18-.54-.5-.57-.62-.45-.09.08-.09.23.08.36.08.08.21.17.41.23.97.75,1.95,1.51,2.93,2.26.81.62.88.21.91-.26,0-.08,0-.14.02-.2v-.06s0-.09.02-.12v-.02s0-.03,0-.05c2.67,2.53,4.42,5.72,6.08,8.92.83,1.61-.6,1.18-1.45,1.04-.44-.36-.84-.71-1.28-1.09h-.02c-.05-.11-.08.34-.14.24-.05-.11-.12-.15-.18-.24-.09-.15-.09-.06-.21-.2-.02-.02-.1-.3-.13-.33l-.18-.2c-.11.42-.15-.28-.2-.31-.1-.09-.22-.25-.33-.33-.11-.09-.38-.4-.49-.47-.15-.11-.18-.2-.34-.31s-.14-.28-.31-.37h-.02v-.02c-.21-.2-.35-.16-.56-.36-.21-.21-.46-.57-.69-.89l-.02-.02c-.15-.15-.27-.27-.41-.41-.43-.21-.57-.37-.84-.85-.05-.08-.17.11-.23.07-.02-.05.05.02,0,0-.05-.03-.1.01-.15,0-.03-.02-.31-.11-.34-.11-.09-.03-.13-.22-.22-.22l.1-.16c-.15-.15-.27-.27-.42-.41v-.02l-.41-.41v-.08c0-.08-.12.35-.14.28,0-.05-.18-.34-.21-.38l-.34-.37Z"/>
      <path class="cls-2" d="M129.1,101.74c-.06.08-.09.15-.09.26-.09.03-.08-.05.09-.26Z"/>
      <path class="cls-2" d="M180.64,138.24c-.74-.09-1.55-.32-2.37-.6-.2-.08-.41-.15-.62-.23-.41-.17-.83-.33-1.25-.51h-.02c-1.06-.45-2.11-.97-3.11-1.46-.8-.39-1.57-.75-2.28-1.06-.18.03-.35.05-.51.06-1.36.12-2.52-.26-3.49-1.12v-.02c.02-.41.17-.71.45-.91.11-.08.21-.12.35-.17.05.05.09.08.12.11.05.02.09.05.12.08.12.08.2.08.21.02.05-.06.03-.21-.03-.39-.01-.08-.05-.15-.08-.23-.08-.23-.18-.48-.29-.72-.17-.36-.33-.71-.44-.95-.03-.08-.06-.12-.08-.14-.05-.09-.08-.15-.09-.18t-.02-.02v-.02s-.06-.05-.11-.06c-.06-.05-.14-.08-.21-.12-.12-.06-.24-.14-.41-.21-.03,0-.05-.02-.08-.03-.11-.06-.2-.11-.3-.15-.03-.02-.06-.03-.11-.06-.18-.09-.38-.18-.57-.3-.03-.02-.05-.03-.08-.03-.29-.14-.57-.29-.88-.44-1.64-.83-3.59-1.8-4.56-2.23-.14-.08-.24-.12-.33-.17-.03-.02-.06-.03-.08-.03-.05-.02-.09-.03-.12-.05-.03-.02-.05-.03-.06-.03-2.4-.48-5.21-.36-8.09-.14-3.41.26-6.93.63-10.03.26-5.05-.6-11.94-.41-16.79-3.08-.94-.51-1.81-1.15-2.55-1.9-.15-.15-.3-.3-.44-.47-.21-.83-.91-1.07-1.54-1.36-.21-.09-.42-.18-.6-.32v-.02c-.02-3,3.17-1.33,3.89-2.04.05-.05.09-.11.11-.2.14-.54.08-.95-.11-1.28-.09-.15-.18-.27-.3-.41-.11-.12-.23-.24-.36-.35-.08-.08-.14-.14-.21-.18-.14-.12-.27-.24-.41-.36-.08-.06-.14-.12-.21-.2-.33-.33-.62-.74-.75-1.3h.01c.86-.3,1.83-.33,2.73-.54.91-.2,1.74-.56,2.32-1.54,2.35-2.05.85-1.39,1.86-3.8.26-.62,1.67-1.36,2.17-2.19.21-.39-1.09-1.75-1.06-2.49.26-.05,1.42-.97,2.25-1.67.24-.21.47-.41.62-.54.17-.17.27-.27.27-.29v-.02c.2-.14.39-.24.59-.35.71-.39,1.45-.68,2.17-1.01.21-.09.42-.2.62-.3.23-.11.45-.23.66-.36.44-.26.86-.56,1.27-.94,8.51-7.91-2.47-5.22-2.41-9.01.02-1.51,4.45-1.83,5.34-2.63,1.27-1.12,2.29-3.08,2.61-4.8.65-3.5,1.24-1.54-1.01-4.98-.24-.36-1.37-3.05-1.45-3.05-1.81-.32-2.64,4.26-5.78,2.99.62-1.9,3.11-4.78,4.42-6.85.18-.3.33-.59.47-.84,1.69-3.36,2.7-7.39,3.83-10.97.38-1.19,3.71-17.07.6-14.82-1.18.11-1.69,1.06-2.04,1.92-.81,1.92-2.34,2.64-4.21,2.97-.57-.32-1.16-.63-1.74-.95v-.02h-.02c-1.1-1.75-2.88-2.55-4.63-3.43-.98-.38-1.81-1.01-2.72-1.49-2.11-1.13-3.88-2.99-6.41-3.3-2.84-1.84-5.49-3.92-8.13-6.04,1.28-1.89,20.67,9.78,26.36,6.82,7.97-4.15-6.14-20.17-5.33-20.43,14.91,15.19,24.53,44.38,23.25,65.41-.65,10.8-6.22,22.92-.84,33.19,4.65,8.92,14.89,16.48,23,22l.02.02Z"/>
      <path class="cls-12" d="M139.8,318.49c-1.27-.26-2.55-.5-3.83-.75-4.3-1.93-8.65-3.7-12.81-5.9-3.91-2.4-7.82-4.81-11.72-7.23-.88-.54-1.74-1.12-2.61-1.67-22.1-11.92-41.67-30.69-56.13-51.04-14.53-20.45-30.22-46.35-31.26-72.12-.59-2.75-.45-5.54-.35-8.31.02-.32.03-.62.05-.94-.06-.57-.06-1.13.2-1.67.03-.27.05-.53.06-.8.27-7.44,2.49-14.36,5.33-21.17,4.57-10.89,11.17-20.61,17.53-30.46.33.02.56.2.72.48-5.54,8.9,27.02,16.93,28.11,17.97h.02s.02.03.02.05c6.9,2.64,13.82,5.6,20.75,6.08,10.38.74,13.59,3.52,17.1,13.17-.03.98-.05,1.98-.08,2.96.03.29.06.56.09.85-.3.35-.57.71-.53,1.21-1.24,1.61-1.96,3.49-2.53,5.43-.78,1.58-1.58,3.18-2.38,4.77,0,.45,0,.89-.41,1.21-.53.29-.45.8-.5,1.28v.02l.02-.02.05-.02c-.05.39-.11.78-.15,1.18-1.27,2.28-1.96,4.74-2.17,7.33-5.19,6.68,4.95,28.5,7.79,34.72-.6,5.31,8.63,14.47,11.74,18.47-.09,0-3.95,4.95-3.53,4.95-.75.26-3.64-1-3.55-1.12-1.57,2.11,2.16,6.52,1.28,7.23-1.34,1.12-7.29-7.63-8.28-8.48-.95-.83-6.73-3.86-7.2-3.38-1.48,1.49,4.72,5.45,2.85,6.87-2.05,1.54-5.88-10.28-6.91-11.56-2.17-2.72-6.1-4.59-8.81-6.91-.45-.39-4.65-4.04-4.74-4.07-1.34-.29-2.47,2.17-3.35,1.71-1.6-.86-2.26-5.33-4.24-7-1.42-1.19-2.35-.54-3.65-2.1-1.83-2.2-.78-6.55-3.02-8.46-.86-.74-2.93.09-4.22-.38-.24-.8-.48-1.6-.72-2.4-.3-1.71-1.18-2.1-2.66-1.13-1.42-1.25-4.18-5.1-6.4-7.45-1.74-1.86-4.16-3.02-5.39-5.16-.57-1.01.05-4.35-1.1-4.6-.48.33-.91.74-1.28,1.19-2.08-.78-2.87-5.36-2.87.97-.47-.83-.41-5.98-1.64-5.66-2.01.51.24,3.85-1.49,4.22-1.81.38-1.16-6.34-2.91-6.2-2.73.2.81,2.38-3.35,1.34-1.33-.33-2.85-3.41-3.3-3.33-1.51.23-.53,6.53-1.13,7.65-.38-.2-.45-.54-.5-.92.59-8.99-5.25,3.17-5.01,7.08.17,2.85,5.49,24.53,9.17,24.82.18,1.84.24,3.7.57,5.51.17.92-.02,2.16,1.21,2.64,0,4.47,4.54,8.3,6.64,12.09,1.67,3.05,3.83,10.26,7.57,11.24.06.06.11.14.15.21-.11.54-.09,1.04.65,1.09,1.03,1.18,1.06,2.91,2.26,3.97,2.07,6.59,9.22,13.66,13.72,18.76,5.88,6.68,13.19,13.35,20.23,18.82,1.16.75,1.93,2.11,3.46,2.32,1.4,1.63,3,3.02,4.9,4.03,3.39,2.84,7.15,5.16,10.85,7.56,1.09.71,1.74,2.02,3.15,2.23,5.82,1.22,12.28,7.3,17.67,9.94,2.93,1.45,11.45,3.3,12.84,6.85Z"/>
      <path class="cls-6" d="M127.36,317.87c1.52.66,3.29,1.31,4.78,1.9-1.49-.57-3.26-1.24-4.78-1.9Z"/>
      <path class="cls-6" d="M132.15,319.77c.89.35,1.67.66,2.25.95-.57-.27-1.36-.59-2.25-.95Z"/>
      <path class="cls-1" d="M135.04,87.51c-.06,3.79,10.92,1.1,2.41,9.01-.41.38-.83.68-1.27.94-.21.14-.44.26-.66.36-.2.11-.41.21-.62.3-.72.33-1.46.62-2.17,1.01-.21.09-.39.21-.59.35h-.02s.02,0,.02.02-.11.12-.27.29c-.15.14-.38.33-.62.54-.83.71-1.99,1.63-2.25,1.67-.03.74,1.27,2.1,1.06,2.49-.5.83-1.92,1.57-2.17,2.19-1.01,2.41.5,1.75-1.86,3.8-1.22-1.27-2.78-.72-4.22-.81-6.1.24-7.6-5.58-12.4-7.83-5.33-2.5-13.28-.51-18.88.03-7.74.75-15.33,1.9-22.9,3.7-3.2.75-14.27,5.99-17.25,4.66.41-.6.83-1.22,1.24-1.83,4.15-4.27,8.04-8.77,11.8-13.38.21-.26.29-.62.42-.94,1.81.84,3.33,2.32,5.46,2.53,3.35,1.48,6.88,1.95,10.5,2.04,20.64,1.9,43.8-5.07,54.95-23.6,3.14,1.27,3.97-3.3,5.78-2.99.08,0,1.21,2.69,1.45,3.05,2.25,3.44,1.66,1.48,1.01,4.98-.32,1.72-1.34,3.68-2.61,4.8-.89.8-5.33,1.12-5.34,2.63Z"/>
      <path class="cls-15" d="M219.74,240.72c.38-.17.82-.54,1.26.84.62,6.74,36.52,22.64,41.18,18.83,1.56,1.77,3.12,3.54,4.68,5.31-.26.89-.85,1.4-1.76,1.55-5.6-1.96-11.17-3.98-16.79-5.86-11.3-3.79-22.18-8.39-31.5-16.06-1.42-1.69-2.92-3.29-4.7-4.61.16-1.11,1.05-1.47,1.94-1.63,2.73-.5,5.47-.9,8.21-1.34,1.06-.37,2.64.42,3.19-.67,1.07-2.14,2.97-3.15,4.81-4.31.14-.15.29-.3.43-.44h0c2.68-.78,5.35-1.06,8.04-.02.23.09.54,0,.82-.02,0,0-.04,0-.04,0,.08.19.18.3.36.09,3.51,2.15,6.06,7.17,8.32,10.47,2.15,3.15,6.48,7.36,7.79,10.75-3.27.92-10.66-3.97-13.38-5.27-3.06-1.46-6.32-2.74-9.15-4.65-1.72-1.16-3.72-3.75-5.68-4.24-.28-.5-.7-.79-1.29-.81-.05-.03-.11-.05-.16-.08.05.03.1.06.15.09.24.52.65.81,1.22.89,3.77,7.4,21.92,14.14,29.59,15.45,1.45,1.3,2.02,3.33,3.71,4.44-2.77,6.09-36.07-16.18-39.97-17.84-.28-.5-.67-.83-1.27-.83h.01Z"/>
      <path class="cls-15" d="M236.14,230.74c-2.11,1.61-6.38-2.28-7.2-1.42-.62.66,1.36,2.61,1.74,3.02-.15.14-.29.29-.44.42-1.84,1.16-3.74,2.17-4.81,4.32-.54,1.1-2.13.3-3.18.68-.21-.75-2.73-4.78-4.19-4.01-1,.54,1.27,1.93-.03,2.5-2.81,1.24-8.49-14.44-10.12-13.7-2.66,1.19,5.45,7.44,3.56,8.9-2.79,2.19-8.28-8.75-8.25-8.77-.74.2.41,4.57-.06,5.45-1.3,2.43-2.02,1.16-4.03,1.74,0-.08-4.78.5-4.36.75-2.1-.62-3.88-3.55-5.28-5.01,4.42-3.86-1.55-15.27.26-16.39,2.35-1.45,7.06,11.9,12.19,8.19.78-.95,1.12-2.05,1-3.29-.23-1.55.39-2.01,1.84-1.36,1.48.6,2.13.09,1.93-1.55-.24-1.09-.38-2.17-.38-3.27v-.02c2.1,1.96,4.19,3.92,6.31,5.88.57,1.19,2.88,4.84,4.33,5.12,2.17.39,1.55-3.03,2.34-2.94,3.12.36,4.96,8.69,8.06,7.05,2.73-1.43-.11-11.18-.44-13.55,1.48,1.1,2.16,2.94,3.7,3.98,1.21,1.99,2.85,3.7,3.8,5.85-1.42,1.28,4,9.67,1.74,11.42Z"/>
      <path class="cls-15" d="M206.28,244.94c3.55,3.53,7.58,6.46,11.72,9.25,7.32,6.41,20.7,9.66,29.75,12.75,7.67,2.62,23.22,2.6,28.07,9.63-26.74-2.11-54.93-11.58-74.57-30.38h0c-.14-.15-.28-.3-.42-.44l-.15-.22c-.03-.12.12,0,.1-.12.56-.93,1.29-1.61,2.38-1.9,2.87-.77,5.73-1.58,8.6-2.38,1.37,1.56,2.59,3.28,4.53,4.23,1.79,6.21,17.93,12.18,23.26,14.21,9.35,3.56,18.81,6.87,28.53,9.29.77.57,1.46,1.33,2.55,1.22.57.58,1.15,1.16,1.72,1.73-16.81-.06-39.13-9.5-53.45-18.06-3.82-3.79-7.82-8.88-12.6-8.83l-.02.02Z"/>
      <path class="cls-1" d="M275.82,276.57c-4.85-7.03-20.4-7.01-28.07-9.63-9.04-3.09-22.43-6.34-29.75-12.75.22-.3.53-.42.89-.44,14.32,8.56,36.64,18,53.45,18.06,2.91,1.34,33.91,15.04,28.52,18.54-.03-.03-15.33.91-17.07.91,5.25,1.15,10.54.58,15.8.72.33.25.67.49,1,.74-1.36,4.6-17.14,1.3-19.67.96-1.51-.2-15.67-3.15-16.34-1.72-4.17-1.99-12.02-3.93-17.55-5.71-8.23-2.65-16.67-6.75-25.2-8.13.01-.36.02-.71.03-1.07,1.09-.34,1.28-1.17,1.19-2.16,2.11-2.48,24.85,7.89,28.54,9.19,7.36,2.58,21.83,9.55,29.77,7.04.37-.46.26-.75-.32-.84.15-1.02.1-2.01-.37-2.95,0-.4,0-.8,0-1.19-.25-1.17-.51-2.34-1.75-2.92.64-.42.23-.88.05-1.33-1.16-1.44-1.46-3.42-2.94-4.66-.07-.21-.15-.43-.22-.64Z"/>
      <path class="cls-12" d="M30.27,57.15c-2.7,5.9-3.95,12.09-3.38,18.57.09.98.02,2.1.98,2.81.41.41.29.71-.21.89-.69.27-1.4.53-2.1.8-.57-.06-1.18.11-1.24-.89-.08-1.36-.39-2.72-.62-4.09-.6-6.99-.47-13.87,3.12-20.2.94-2.55,2.49-4.71,4.24-6.73.18-1.31,1.52-2.02,1.78-3.29l-.11-.06.42-.44c.56-.56,9.54-8.81,9.04-9.52-.32-.44-10.29,4.8-11.56,5.33-.48.16-1.35.64-1.65.62,1.9-1.66,4.97-3.29,7.16-4.5,4.77-2.64,8.48-6.43,11.77-10.7,4.86-4.04,6.68-5.78,6.34,1.51-.65,2.79-1.3,5.58-1.95,8.37.21.73.21.81-.32,1.12-.08.08-.11.18-.09.29-2.87,7.2-3.95,14.64-3.32,22.38.36,4.45,1.12,8.86,1.8,13.25h-.03s-.02.02-.02.03c-.26.02-.48.02-.69-.03-.09-.02-.18-.03-.27-.08-.11-.05-.2-.09-.3-.15-.09-.06-.18-.14-.26-.23-.06-.06-.14-.15-.2-.24-.12-.18-.23-.41-.32-.66-1.33-3.5-2.46-7.06-3.11-10.76-.02-.27-.02-.54-.05-.81-.3-3.24-1.13-6.47-.38-9.76.29-1.25-.4-2.64.08-3.74-.23-2.48.34-4.08,1.78-6.34-.15-.93.39-.84.62-1.27,1.09-2.69,2.16-5.37,3.24-8.06,1.36-1.67,3.44-6.47.23-5.43-.63.2-6.8,7.57-6.71,8.43.83-.09,2.93-2.72,3.64-2.01.03.41-.05.78-.21,1.16-.03.14-.05.26-.06.39-.33.31-.13.53-.78.88-.15.27-.3.54-.45.81-.57.83-.71,1.04-1.64,1.24-1.09.75-1.77,1.84-2.49,2.9q-.08.38-.45.94c-.76,1.06-.88,1.26-1.67,2.1-3.03,2.91-5.54,6.22-7.24,10.06-.89,1.31-1.64,2.69-1.96,4.26l-.39.86Z"/>
      <path class="cls-12" d="M50.38,72.66v.03h-.05s.02-.02.02-.03h.03Z"/>
      <path class="cls-15" d="M263.83,311.34c3.15,3.98,8.49,7.08,12.17,10.7,2.9,2.85,10.74,8.32,11.5,12.25-.06.07-.12.14-.17.21-2.44-1.64-31.64-24.31-32.53-22.85-.25.41,26.01,20.81,28.29,23.26-.08,1.2,1.2,1.7,1.4,2.75-.94-.5-2.11-.42-2.96-1.16.84-1.56-15.89-13.62-17.64-15.05-6.29-5.18-15.54-9.9-18.08-18.14-.28-3.35,11.35,4.56,12.16,4.88,4.63,1.84,8.85,1.67,13.44,4.41h0c.14.13.29.27.43.42h0c.14.17.28.35.43.53.1.1.2.21.3.31.32.28.63.57.95.85,1.99,3.61,7.12,6.52,9.96,9.68,3.56,3.95,7.35,7.81,10.69,11.94-5.99-4.49-11.1-9.71-16.68-14.65-3.02-2.67-9.11-9.99-13.59-10.38l-.05.05Z"/>
      <path class="cls-6" d="M42.2,35c.5.71-8.48,8.96-9.04,9.52-.14.15-.18.36-.32.5h0c-.26,1.27-1.6,1.98-1.78,3.29-1.75,2.02-3.3,4.18-4.24,6.73-3.59,6.34-3.73,13.22-3.12,20.2.23,1.37.54,2.73.62,4.09.06,1,.66.83,1.24.89-1.18.62-2.43,1.21-1.54,2.93-.89,1.24-1.99,2.23-3.32,2.97-.65.38-1.25.74-1.52-.36-2.44-5.84-4.66-11.72-3.38-18.26.6-4.78,2.07-9.32,4.06-13.69-.17-.17-.35-.33-.51-.5-.44.47-.86.94-1.3,1.4-3.59,6.19-4.47,12.98-4.33,19.99.2,1.15,5.12,13.08,4.44,13.37-.57.23-1.43-1.09-2.05-2.23-.09-.17-.17-.33-.26-.5-.18-.38-.32-.69-.39-.88l.05-.05c-.72-1.54-.98-3.29-2.02-4.69-.6.24-.57.71-.36,1.18.6,1.33,1.22,2.66,1.84,3.98,0,.02.02.02.02.03h.02c.18.35,1.45,3.2,1.36,3.44-.54,1.52-2.96,1.33-3.38-.36-2.37-3.44-3.42-7.35-4.1-11.41-.17-.91-.32-1.83-.47-2.73-.17-.02-.33-.02-.5-.02-.12,2.67-.03,5.48.65,8.09.33,1.34,3.91,6.99,3.71,7.74-.39,1.52-9.29,4-7.91,7.17,0,.05.02.09.05.14C-.36,101.81-.21,92.73.17,88.35c-.06-7.11,1.49-13.85,4.56-20.26l3.65-6.76c.3-.62.5-.78.84-1.27.42-.74.15-.24.42-.75.29-.32.57-.63.86-.95.74-1.09.86-1.21,1.66-2.49q1.24-1.57,2.53-2.94c.36-.38.03-.03.39-.41.15-.03.26-.41.41-.44.29-.17,0,0,.45-.41.44-.44.3-.24.83-.85.32-.27.62-.65.83-.83,1.55-1.49,3.15-2.75,4.62-4.24v.02c.14-.14.27-.27.42-.41.14-.15.29-.29.44-.44.2-.17.03-.03.39-.39.65-.45.44-.35,1.3-.86,1.43-.95,2.07-1.45,3.79-2.5,1.03-.56,1.24-.5,2.08-.84,1.27-.53,11.24-5.76,11.56-5.33Z"/>
      <path class="cls-12" d="M260.13,327.62c-10.94.69-22.17-1.8-33.26-1.58-12.31-.03-24.62-.05-36.94-.08-1.13-.98-2.76.56-3.83-.74-1.04.35-2.01.18-2.9-.47v-1.61c.98-.24,2.05-.2,2.87-.94.62-.53.75-1.33,1.09-2.02-.1-.53-.35-.21.27-.86.06-.42.11-.84.17-1.27,1.55-.77,1.36.51,2.93.57,1.87.06,3.27-.78,5.3-.98,1.21.65,7.09.05,6.62-1.63,0,0,.02,0,.02-.02.95-1.07,1.6.02,2.37.35.29.27.59.47,1,.45.51.3,1.04.51,1.64.45.35.23.71.47,1.07.69,7.38.95,14.68,2.9,22.06,4.04,2.69.42,18.3,4.86,19.75,3.23.03-.44.06-.86.08-1.3,1.78.53,3.55,1.1,5.33,1.57,1.61.42,3.14.98,4.38,2.13Z"/>
      <path class="cls-6" d="M56.34,92.12c-7.42,2.92-16.66,3.38-24.53,3.94-8.32.59-19.21-1.97-27.1.42,1.49-1.15,2.68-2.77,4.47-3.45,7.44-2.82,13.98-7.43,21.26-10.56.05.21.09.41.14.61-.36.42-.14.84.14,1.11,3.15,3.02,5.55,6.96,10.14,8.21-2.61.74-20.47-3.39-20.25-3.9-1.2,2.7,20.8,8.74,20.44,3.97.24.12.48.35.72.34,4.86-.21,9.72-.45,14.58-.69Z"/>
      <path class="cls-2" d="M283.09,334.91c-2.28-2.45-28.54-22.85-28.29-23.26.89-1.46,30.09,21.2,32.53,22.85.78.78,1.35,1.83,2.58,2.03.06.04.11.07.17.11-.06-.03-.11-.07-.17-.1-.62-.95-1.35-1.76-2.4-2.24-.76-3.93-8.61-9.4-11.5-12.25-3.68-3.62-9.01-6.72-12.17-10.7,0,0,.05-.05.05-.05,4.48.39,10.57,7.71,13.58,10.38,5.59,4.94,10.69,10.16,16.68,14.65-3.34-4.13-7.13-7.99-10.69-11.94-2.84-3.15-7.97-6.07-9.96-9.68.15-.15.29-.29.44-.44,5.21,3.76,10.15,7.84,14.5,12.6.63.69,1.18,1.61,2.3,1.68h.01c.5,1.32,1.38,1.49,2.53.85,0,0-.02-.02-.02-.02,0,.36.09.67.43.86h0c.14.14.28.28.42.42h0c.14.14.29.28.43.42,0,0-.01-.01-.01-.01.2.31.49.43.85.43h0c.42.43.23.3.85.84,0,0,0,0,0,0l.42.42s-.01-.01-.01-.01c.57.55.46.48,1.28,1.28,0,0-.01-.01-.01-.01,1.12.75,1.29.88,2.53,2.53h0c.82.68.77.92.93,1.6,2.29,1.67-2.23.54-2.5.5-.41.02-.79-.09-1.13-.34,1.03-.21-1.12,1.37-1.74,1.51-2.85.65-4.51.72-8.15-1.2-1.05-1.9-2.94-2.73-4.73-3.69Z"/>
      <path class="cls-14" d="M107.52,344.5v.02h.02l.08-.09-.09.08Z"/>
      <path class="cls-14" d="M86.82,349.11c-4.87.11-9.78.09-14.64.72-3.12-.68-6.25-1.42-9.29-2.43-.63-.21-1.39-.29-1.51-1.16,5.4-.68,10.79-1.51,16.14-2.53,2.37.05,4.65-.91,7-.85,4.06.12,8.12.15,12.15.85,2.81-.02,5.61-.03,8.42-.05,1.93.27,3.5-1.01,5.31-1.27,1,1.19,0,2.38-.02,3.58-.89-.59-2.17-.02-2.9-1.04.02-.15-.6.78-.6.65-.72.14-.45.06-1.18.2-1.72.83-3.63,1.1-5.52,1.83l-13.37,1.51Z"/>
      <path class="cls-6" d="M178.35,368.58c-.36.12-3.88-1.8-4.32-1.86-.17-.08-.33-.15-.51-.21-.42-.06-.84-.12-1.27-.17-1.54-.72-3.17-.14-4.75-.42h-.02c-.24-.3-.45-.54-.66-.75-1.42-1.39-2.17-.69-2.38-1.03-.02-.05-.03-.11-.03-.18-.05-.38.14-1.34.51-3.64.72-4.41,3.05-8.9,3.29-13.34.12-2.04.83-9.29.29-10.8-.88-2.43-4.83-2.14-5.1-4.62v-.02c.71.35,1.43.65,2.17.92.74.26,1.49.5,2.25.72,1.83.54,3.74.89,5.4,1.93v.02c-.09.42-.2.83-.29,1.25-.05.15-.11.29-.17.44-.03.6-.08,1.21-.11,1.81-.45,1.19-.77,2.43-.71,3.71-1.92,3.53-2.1,14.5-.33,17.96.45.86,8.74,7.53,6.73,8.27Z"/>
      <path class="cls-5" d="M15.5,84.43l-.05.05c-.03-.09-.05-.14-.05-.17.02,0,.02.02.03.03s.05.05.06.09Z"/>
      <path class="cls-14" d="M36.97,78.53c-1.28.83-2.55,1.66-3.83,2.47-.91.5-1.8.98-2.7,1.46-7.27,3.14-13.82,7.74-21.26,10.56-1.78.68-2.97,2.29-4.47,3.44-.2.08-.42.14-.36.38-1.39-3.17,7.51-5.64,7.91-7.17.2-.75-3.38-6.4-3.71-7.74-.68-2.61-.77-5.42-.65-8.09.17,0,.33,0,.5.02.15.91.3,1.83.47,2.73.68,4.06,1.74,7.97,4.1,11.41.42,1.69,2.84,1.89,3.38.36.09-.24-1.18-3.09-1.36-3.44h-.02s-.02-.02-.02-.03c0,0,.02,0,.03.02.17-.15.3-.29.47-.44.08.18.21.5.39.88.09.17.17.33.26.5.62,1.15,1.48,2.46,2.05,2.23.68-.29-4.24-12.22-4.44-13.37-.14-7.02.74-13.81,4.33-19.99.44-.47.86-.94,1.3-1.4.17.17.35.33.51.5-1.99,4.36-3.46,8.9-4.06,13.69-1.28,6.53.94,12.42,3.38,18.26.27,1.1.88.74,1.52.36,1.33-.74,2.43-1.74,3.32-2.97,3.83-2.1,7.86-3.76,12.03-5.07.33.11.71.09.92.45Z"/>
      <path class="cls-2" d="M207.39,166.09c.21.83,1.1.97,1.4,1.57,0,.12.54.08.45.36-.79.18-2.07-.32-2.88-.47-2.46-1.25-4.3-3.3-6.43-4.98,3.12-2.07,4.77-.42.89-3.15-1.6-1.15-3.29-1.12-4.8-2.23-2.79-2.05-4.66-4.9-7.82-6.79,2.84-5.15-5.69-7.17-7.83-8.78,1.01.75.66-2.87.66-2.97l.03-.03c1.07.6,9.64,4.56,9.34,5.67-.08.32-1.74.29-1.95.32,3.02,1.71,7.23,4.92,9.45,7.57.75.91-1.19.78.08,2.26,3.82,4.47,8.93,7.62,12.18,12.72-1.18.39-1.66-.92-2.78-1.07Z"/>
      <path class="cls-12" d="M56.34,92.12c-4.86.23-9.72.48-14.58.69-.23.01-.48-.22-.72-.34,0,0-.07-.09-.07-.09l-.12.02c-4.58-1.24-6.99-5.19-10.14-8.21-.28-.27-.5-.69-.14-1.11.84-.34,1.72-.33,2.6-.37.51.67,1.07,1.27,1.97,1.4,4.9,5.26,10.73,8.06,18.1,7.07,1.7-.23,3.09-.66,3.9-2.27,1.22-1.39,1.58-3.04,1.47-4.84.63-.46.49-1.57,1.46-1.75.79,1.44.69,3.12,1.23,4.63-.12.42-.24.84-.36,1.25-.72.99-1.91,1.63-2.17,2.96-.99-.12-1.51.94-2.44.95Z"/>
      <path class="cls-16" d="M165.57,332.48c-.74-.26-1.46-.56-2.17-.91-.08-.05-.14-.09-.2-.14.06.03.12.08.2.12.71.35,1.43.65,2.17.92Z"/>
      <path class="cls-16" d="M173.22,335.13v.02c-1.66-1.04-3.58-1.39-5.4-1.93-.75-.23-1.51-.47-2.25-.74.74.26,1.49.5,2.25.72,1.83.54,3.74.89,5.4,1.93Z"/>
      <path class="cls-1" d="M135.96,317.74c-.21,1.22-.41,2.43-.62,3.65-.03-.11-.2-.24-.45-.41-.14-.09-.3-.17-.5-.26-.57-.27-1.36-.59-2.25-.95-1.49-.57-3.26-1.24-4.78-1.9-.47-.2-.91-.39-1.3-.59-.27-.12-.51-.26-.75-.38-.57-.32-1.03-.62-1.28-.91-.77-1.28-.44-2.81-.88-4.16,4.16,2.2,8.51,3.97,12.81,5.9Z"/>
      <path class="cls-1" d="M262.17,260.4c-4.66,3.81-43.1-12.56-42.43-19.67,3.84,1.26,38.45,24.78,41.23,18.68.14.01.25.08.33.2.18.14.37.29.55.43.11.12.22.24.33.36Z"/>
      <path class="cls-3" d="M231.52,201.23h-.02v-.03s.02.02.02.03Z"/>
      <path class="cls-15" d="M235.81,212.79c-.72.56-4.13-1.81-4.72-1.9-1.16-1.63-1.81-3.44-1.74-5.46-1.75-3.52-2.94-7.24-4.27-10.92,1.57.62,2.1,2.61,3.86,2.94.59.84,1.16,1.66,1.74,2.5.42.32.69.74.83,1.25v.03h.02c.15.29.29.56.41.83l.02.02c.57.63.8,1.37.88,2.19.57,1.06,4.1,7.68,2.99,8.53Z"/>
      <path class="cls-8" d="M74.75,94.93c-.02.27-.03.53-.05.8-.54.15-1.22-.3-1.63.39-.74.14-1.43.06-2.1-.27-2.53-.88-4.9-1.99-7.15-3.49-1.21-.8-2.49-2.16-4.29-1.24-.26.02-.51.02-.77.03.27-1.33,1.46-1.98,2.19-2.96,2.46.29,4.53,1.46,6.44,2.96,2.13,1.63,4.09,3.56,6.99,3.76h.18l.18.02Z"/>
      <path class="cls-8" d="M230.68,232.34c-.39-.4-2.35-2.35-1.73-3.01.81-.86,5.08,3.03,7.18,1.41,2.27-1.74-3.14-10.13-1.72-11.42,1.17,1.71,2.7,3.21,3.05,5.38.26,1.58.58,3.17.37,4.76-.18,1.36.4,2.06,1.61,2.43.05.13.09.27.1.41-.27.01-.58.11-.82.02-2.69-1.05-5.36-.77-8.04.03Z"/>
      <path class="cls-1" d="M257.26,254.97c-7.67-1.32-25.82-8.05-29.59-15.45l.08-.09c1.97.49,3.96,3.09,5.68,4.24,2.83,1.9,6.08,3.18,9.15,4.65,2.72,1.3,10.11,6.19,13.38,5.27,0,0,0,.07,0,.07.1.41.42.49.77.52.18.26.35.53.53.79Z"/>
      <path class="cls-15" d="M121.84,6.62v.11c-.86.06-1.57-.33-2.34-.71-1.98-.98-3.79-2.35-6.05-2.72-1.57-.88-3.35-1.19-5.05-1.66-5.16-1.28-10.4-.78-15.62-.78-4.9.5-9.79,1.07-14.61,2.13-.18.68-.78.66-1.3.84-1.28.48-2.73.59-3.82,1.55-4.15,1.28-7.71,3.64-11.27,6.02-1.46,1.4-2.93,2.81-4.41,4.21-.59.62-1.22,1.21-1.55,2.02q-2.28,2.11-.85,4.26c.03.14.06.27.11.39.03.26.05.51.06.77-.08,1.45.5,3.03-.89,4.21.35-7.29-1.48-5.55-6.34-1.51-.27-1.46.85-2.28,1.6-3.18,2.04-2.53,3.88-5.24,6.37-7.38,1.58-2.1,3.67-3.62,5.85-5.02,4.86-3.52,10.23-5.98,16.01-7.56,9.72-2.32,19.49-3.53,29.45-1.75.39.08.77.27,1.16.41,4.93.66,9.32,2.72,13.47,5.36Z"/>
      <path class="cls-12" d="M59.53,91.13c1.8-.91,3.08.43,4.29,1.24,2.25,1.49,4.62,2.62,7.15,3.48-.42.55-1.29.11-1.67.75-2.12-.2-3.64-1.69-5.46-2.53-.49-2.36-2.74-2.15-4.3-2.95Z"/>
      <path class="cls-2" d="M299.6,291.98c-5.26-.14-10.55.43-15.8-.72,1.74,0,17.04-.95,17.07-.91.01.88-1.02.95-1.26,1.63Z"/>
      <path class="cls-12" d="M51.62,108.39c-.41.6-.83,1.22-1.24,1.83l-.02.02c-.27.33-.56.68-.84,1.01-1.31,1.28-2.29,2.81-3.38,4.27-.39.45-.78.91-1.18,1.37-.17-.29-.39-.47-.72-.48,2.23-2.87,4.48-5.73,7.38-8.01Z"/>
      <path class="cls-1" d="M270.62,270.08c-1.1.11-1.78-.65-2.55-1.22-.61-1.24-2.14-.77-2.97-1.6.91-.15,1.5-.67,1.76-1.55,1.74,1.04,2.69,2.76,3.77,4.37Z"/>
      <polygon class="cls-13" points="119.32 334 119.31 334.02 119.31 334 119.32 334"/>
      <path class="cls-12" d="M275.2,334.42c-2.87-.62-5.52-1.75-7.97-3.38.27-.11.54-.23.81-.33,2.38,1.24,4.77,2.47,7.15,3.71Z"/>
      <path class="cls-2" d="M283.09,334.91c1.79.96,3.67,1.79,4.73,3.69-1.11-.31-2.22-.63-3.33-.94-.2-1.05-1.48-1.55-1.4-2.75Z"/>
      <path class="cls-8" d="M297.08,327.64c-.1.51.17,1.53-.93.7-.98-.74-1.95-1.51-2.93-2.26l.14-.13c.83.16,1.65.32,2.48.47,0,0-.04,0-.04,0,.19.14.37.29.56.43.1.08.2.17.3.25.14.2.29.4.43.61v-.06Z"/>
      <path class="cls-15" d="M231.52,201.23h-.02v-.03s.02.02.02.03Z"/>
      <path class="cls-15" d="M231.52,201.23h-.02v-.03s.02.02.02.03Z"/>
      <path class="cls-1" d="M256.73,254.18c-.36-.03-.67-.11-.77-.52.39-.02.64.17.77.52Z"/>
      <path class="cls-8" d="M239.85,232.38c-.18.21-.28.1-.36-.09.12,0,.24.04.36.09Z"/>
      <path class="cls-2" d="M296.35,326.84c-.19-.14-.37-.29-.56-.43.19.14.37.29.56.43Z"/>
      <path class="cls-2" d="M297.08,327.7c-.14-.2-.29-.4-.43-.61.14.2.29.4.43.61Z"/>
      <path class="cls-9" d="M172.77,336.84c.06-.14.11-.29.17-.43-.06.14-.11.29-.17.43Z"/>
      <path class="cls-10" d="M261.84,260.04c-.18-.14-.37-.29-.55-.43.18.14.37.29.55.43Z"/>
      <path class="cls-2" d="M180.63,138.23c.15.13.3.26.45.39,0,0-.03.03-.03.03-.14-.14-.28-.27-.42-.41h0Z"/>
      <path class="cls-11" d="M158.39,303.75h-.03l.02.02s.09.05.12.08c-.03-.03-.06-.06-.11-.09Z"/>
      <path class="cls-12" d="M190.31,287.38v-.02c-.32-.8-.65-1.57-.98-2.37-2.23-1.15-11.02-11.08-13.07-12.61-.52-.61-.35-.97-1.09-1.38h0c-2.07-1.28-4.1-2.55-6.17-3.82-.95-.57-1.89-1.22-3.06-1.21-3.65-.38-8.4-3.43-11.89-4.63-4.18-1.43-8.19-4.3-11.8-7.02-7.68-5.81-12.67-15.5-20.37-20.78v-.02c-.09,0-3.95,4.95-3.53,4.95-.75.26-3.64-1-3.55-1.12-1.57,2.11,2.16,6.52,1.28,7.23-1.34,1.12-7.29-7.63-8.28-8.48-.95-.83-6.73-3.86-7.2-3.38-1.48,1.49,4.72,5.45,2.85,6.87-2.05,1.54-5.88-10.28-6.91-11.56-2.17-2.72-6.1-4.59-8.81-6.91-.45-.39-4.65-4.04-4.74-4.07-1.34-.29-2.47,2.17-3.35,1.71-1.6-.86-2.26-5.33-4.24-7-1.42-1.19-2.35-.54-3.65-2.1-1.83-2.2-.78-6.55-3.02-8.46-.86-.74-2.93.09-4.22-.38-.24-.8-.48-1.6-.72-2.4-.3-1.71-1.18-2.1-2.66-1.13-1.42-1.25-4.18-5.1-6.4-7.45-1.74-1.86-4.16-3.02-5.39-5.16-.57-1.01.05-4.35-1.1-4.6-.48.33-.91.74-1.28,1.19-2.08-.78-2.87-5.36-2.87.97-.47-.83-.41-5.98-1.64-5.66-2.01.51.24,3.85-1.49,4.22-1.81.38-1.16-6.34-2.91-6.2-2.73.2.81,2.38-3.35,1.34-1.33-.33-2.85-3.41-3.3-3.33-1.51.23-.53,6.53-1.13,7.65-.18.77.95,9.13,2.14,8.45.88-.5-3.29-8.36-.5-8.75,2.63-.38,1.78,5.4,3.65,5.25,4.06-.35-.03-1.75,4.47,2.53.53.5,1.12,1.61,1.61,2.19.72.78,1.52-1.69,2.34-1.13,1.37.94,3.64,12.06,5.1,12.07,1.92.02-.03-5.04,1.43-5.02,1.77.03,1.9,10.47,4.03,10.18,1.07-.15-.02-2.69.42-2.73,1.57-.12,2.29,7.35,3.65,6.71.86-.39-1.01-2.69.23-2.94,1.01-.21,2.67,5.55,3.27,6.23.71.78,1.77.01,1.99.01.02,0,.03,0,.03.02.24.26,1.31,1.51,1.31,1.55,3.23,2.52,4.8,8.57,6.87,12.06,2.84,4.83,7.02,10,10.7,14.27,2.02,2.35,4.35,3.94,6.1,4.8.27.14.74-1.24,1.51-.8,1.46.81,3.41,3.05,4.27,4.33,2.46,3.41,7.12,4.03,10.2,6.96,3.49,3.3,6.82,7.94,9.93,10.17.08,0,2.7,1.18,3.08,1.4,2.6,1.61,4.81,5.33,6.87,7.62,1.39,1.54,11.69,10.73,11.06,13.04.54.84,1.49,1.15,2.26,1.71,1.92,3.38,7.6,6.11,10.34,9.07,3.12,3.38,5.51,7.21,8.16,10.94.53,1.4,1.67,2.58,1.55,4.22.36.66.86,1.27.88,2.08,1.33,1.34.77,3.05.88,4.63.02.29.02.57.02.88.09.15.18.32.26.47-.09,1.24-.18,2.47-.29,3.71.29.97.57,1.92.84,2.87,1.71-.14.15-2.29,1.46-2.75,1.72-.6,2.6,2.35,3.47,2.35s2.72-5.76,3.46-6.62c.03.92.06,1.86.09,2.79,2.76-.94.75-8.15,2.32-8.6,3.47-1.01-.27,12.42-.27,12.43,2.04-1.72,2.29-4.38,3.44-6.56-.14-.53-.05-5.3,1.07-5.3,1.69,0,1.1,1.89,2.14,2.19.17-3.46.98-6.84,1.1-10.31.66,1.45.89,8.4,2.41,8.78,1.27-3.11.53-6.49,1.3-9.78.69,1.19.63,2.47.8,3.7,3.08.24,1.43-5.34,1.78-7,.68,1.75,1.24,3.52,1.03,5.45.23.97.44,1.93.66,2.88.15,0,.3,0,.44-.02.29-3.94,1.24-7.88-.15-11.8-.2-.54-.5-1.48.71-1.51.15.56.27,1.46.91,1.3.63-.15-.08-.89-.02-1.39.11-1.52.23-3.03.33-4.56-.68-1-1.36-1.99-2.04-2.99-.33-.38.08-6.31.35-6.47.2-.12,2.17,1.74,2.61,1.84ZM158.37,303.76l-.02-.02h.03s.08.06.11.09c-.03-.03-.08-.05-.12-.08Z"/>
      <path class="cls-12" d="M160.08,321.39c.02.29.02.57.02.88-2.72.17-5.37-.35-8.01-.89-4.12-.85-8.39-1.06-12.28-2.88-1.39-3.55-9.91-5.4-12.84-6.85-5.39-2.64-11.84-8.72-17.67-9.94-1.42-.21-2.07-1.52-3.15-2.23-3.7-2.4-7.45-4.72-10.85-7.56-1.9-1.01-3.5-2.4-4.9-4.03-1.52-.21-2.29-1.57-3.46-2.32-7.05-5.46-14.35-12.13-20.23-18.82-4.5-5.1-11.65-12.16-13.72-18.76-1.21-1.06-1.24-2.79-2.26-3.97.08-.54-.15-.89-.65-1.09-.05-.08-.09-.15-.15-.21-3.74-.98-5.9-8.19-7.57-11.24-2.1-3.79-6.64-7.62-6.64-12.09-1.22-.48-1.04-1.72-1.21-2.64-.33-1.81-.39-3.67-.57-5.51-3.68-.29-9.01-21.97-9.17-24.82-.24-3.91,5.6-16.07,5.01-7.08.05.38.12.72.5.92-.18.77.95,9.13,2.14,8.45.88-.5-3.29-8.36-.5-8.75,2.63-.38,1.78,5.4,3.65,5.25,4.06-.35-.03-1.75,4.47,2.53.53.5,1.12,1.61,1.61,2.19.72.78,1.52-1.69,2.34-1.13,1.37.94,3.64,12.06,5.1,12.07,1.92.02-.03-5.04,1.43-5.02,1.77.03,1.9,10.47,4.03,10.18,1.07-.15-.02-2.69.42-2.73,1.57-.12,2.29,7.35,3.65,6.71.86-.39-1.01-2.69.23-2.94,1.01-.21,2.67,5.55,3.27,6.23.71.78,1.77.01,1.99.01.02,0,.03,0,.03.02.24.26,1.31,1.51,1.31,1.55,3.23,2.52,4.8,8.57,6.87,12.06,2.84,4.83,7.02,10,10.7,14.27,2.02,2.35,4.35,3.94,6.1,4.8.27.14.74-1.24,1.51-.8,1.46.81,3.41,3.05,4.27,4.33,2.46,3.41,7.12,4.03,10.2,6.96,3.49,3.3,6.82,7.94,9.93,10.17.08,0,2.7,1.18,3.08,1.4,2.6,1.61,4.81,5.33,6.87,7.62,1.39,1.54,11.69,10.73,11.06,13.04.54.84,1.49,1.15,2.26,1.71,1.92,3.38,7.6,6.11,10.34,9.07,3.12,3.38,5.51,7.21,8.16,10.94.53,1.4,1.67,2.58,1.55,4.22.36.66.86,1.27.88,2.08,1.33,1.34.77,3.05.88,4.63Z"/>
      <path class="cls-8" d="M160.91,329.31c1.71-.14.15-2.29,1.46-2.75,1.72-.6,2.6,2.35,3.47,2.35s2.72-5.76,3.46-6.62c.03.92.06,1.86.09,2.79,2.76-.94.75-8.15,2.32-8.6,3.47-1.01-.27,12.42-.27,12.43,2.04-1.72,2.29-4.38,3.44-6.56-.14-.53-.05-5.3,1.07-5.3,1.69,0,1.1,1.89,2.14,2.19.17-3.46.98-6.84,1.1-10.31.66,1.45.89,8.4,2.41,8.78,1.27-3.11.53-6.49,1.3-9.78.69,1.19.63,2.47.8,3.7,3.08.24,1.43-5.34,1.78-7,.68,1.75,1.24,3.52,1.03,5.45.23.97.44,1.93.66,2.88.15,0,.3,0,.44-.02.29-3.94,1.24-7.88-.15-11.8-.2-.54-.5-1.48.71-1.51.15.56.27,1.46.91,1.3.63-.15-.08-.89-.02-1.39.11-1.52.23-3.03.33-4.56.32-.03.63-.05.95-.08-.95-1.01-1.25-2.7-2.99-2.91-.33-.38.08-6.31.35-6.47.2-.12,2.17,1.74,2.61,1.84v-.02c-.32-.8-.65-1.57-.98-2.37-2.23-1.15-10.45-9.74-13.07-12.61-.7-.69-.53-.68-1.09-1.38v.03c-2.07-1.28-4.1-2.58-6.17-3.85-.95-.57-1.89-1.22-3.06-1.21-3.65-.38-8.4-3.43-11.89-4.63-4.18-1.43-8.19-4.3-11.8-7.02-7.68-5.81-12.67-15.5-20.37-20.78v-.02c-3.11-4-12.34-13.16-11.74-18.47-2.84-6.22-12.98-28.03-7.79-34.72.21-2.6.91-5.05,2.17-7.33.05-.39.11-.78.15-1.18l-.05.02c.44-.33.39-.81.48-1.28.41-.32.41-.75.41-1.21.8-1.58,1.6-3.18,2.38-4.77.66.74.17,1.92.95,2.61-.42,2.52-.86,5.02-1.28,7.53-.35,1.99.68,3.88.42,5.87,6.64,22.15,20.93,52.31,41.52,64.85,8.84,5.3,17.68,9.2,26.99,13.53,8.18,3.82,15.18,10.05,15.06,19.96,0,.15.02.29.02.44,1.13,1.93.97,4.18,1.55,6.25-.74,1.3-.35,2.57.08,3.85.05.14.08.27.11.41.03.14.06.27.09.39-.09.42-.06.81.14,1.19.92,1.77,1.13,3.61.53,5.51-.95-2.13-.42-4.75-2.44-6.99.6,2.37.74,6.13,2.34,8-.11.65-.23,1.3-.33,1.96.06.53.2,6.25-.83,6.13-.08-.02-.14-.03-.2-.06-.08-.05-.15-.12-.21-.21-.03-.06-.06-.14-.09-.21-.05-.11-.08-.23-.09-.35-.03-.11-.05-.24-.06-.36-.02-.27-.03-.54-.05-.84,0-.3,0-.6-.02-.89,0-.3-.02-.57-.05-.83-.02-.17-.05-.33-.08-.47-.02-.03-.03-.06-.03-.08-.03-.06-.05-.12-.08-.18-.03-.06-.06-.12-.11-.17-.05-.06-.11-.11-.18-.15-.06-.03-.14-.05-.23-.05h-.05s.05.02.06.03c.03.03.05.06.06.09.06.2.05.59-.03,1.13,0,.11-.02.21-.05.32-.03.23-.08.47-.12.72-.02.12-.05.26-.08.39-.06.3-.12.6-.18.92-.03.12-.06.24-.09.36-.06.29-.14.6-.21.92-.02.12-.05.23-.08.35-.03.08-.05.15-.06.23-.06.27-.14.56-.21.83-.15.63-.32,1.25-.47,1.84-.14.48-.26.94-.38,1.34-.15.53-.29,1-.39,1.36-.11.35-.18.62-.24.77-.03.05-.03.09-.05.12s-.02.05-.03.06c-.09.42-.18.83-.29,1.25-.24.48-.32.89-.23,1.21.02.08.05.15.09.21.03.06.08.12.12.17.12.14.27.24.47.32.08.03.17.06.26.09.09.05.2.08.3.09.38.08.66.11.91.05.23-.03.39-.14.53-.32.05-.06.09-.12.12-.2.09-.2.17-.44.23-.77v-.02c.06-.24.15-.42.24-.54.05-.06.11-.11.15-.14.26-.15.56.08.81.53.77,1.34,1.86,2.25,3.33,2.69-2.02.2-3.43,1.04-5.3.98-1.57-.06-1.37-1.34-2.93-.57-.06.42-.11.84-.17,1.27-.16.56,0,.4-.27.86-.33.69-.47,1.49-1.09,2.02-.81.74-1.89.69-2.87.94v1.61c-.62,1.99-1.45,3.86-2.96,5.37-.35.57-.74,1.15-1.06,1.75-.59,1.13-1.21.81-1.86.09-.27,1.4-1.63,1.49-2.57,2.07-.39.54-.97.85-1.55,1.12v-.02c-1.66-1.04-3.58-1.39-5.4-1.93-.75-.23-1.51-.47-2.25-.72-.74-.27-1.46-.57-2.17-.92-.08-.05-.14-.09-.2-.12-.06-.05-.12-.08-.17-.11-.11-.06-.21-.09-.3-.12-.42-.14-.63.18-.62,1.04.05,2.82.76-.58.51,2.24l-.13-2.02-1.59-3.17Z"/>
      <path class="cls-8" d="M110.89,159.64c-.45,2.6-.94,5.16-2.04,7.57-.78-.69-.29-1.87-.95-2.61.57-1.95,1.3-3.82,2.53-5.43.15.15.3.32.45.47Z"/>
      <polygon class="cls-5" points="104.63 171.85 104.61 171.87 104.61 171.85 104.63 171.85"/>
      <path class="cls-1" d="M110.89,159.63c-.15-.15-.3-.32-.45-.47-.05-.5.23-.86.53-1.21,1.33.62.32,1.13-.08,1.67Z"/>
      <path class="cls-5" d="M50.71,244.01c-.74-.05-.75-.54-.65-1.09.5.2.72.54.65,1.09Z"/>
      <path class="cls-15" d="M176.49,151.27c-.32,1.46-17.28-3.05-17.64-.53-.05.3.69.68,1.61,1.04.09.05.18.08.26.11.14.05.26.11.39.15.17.06.33.12.5.18.3.09.59.2.86.29.14.03.27.08.39.12.5.17.88.29,1,.33-.41.95-1,1.37-2.11,1.03-1.1-.33-2.28-.54-3.36.17-3.12-1.21-6.29-2.26-9.6-2.9-3.8-.72-7.63-.56-11.45-.09.44-.88-.33-1.09-.78-1.04-4.9.45-9.26-1.78-13.9-2.69.27-4.78,24.17-3.26,28.8-3.03,2.25.11,25.27,5.81,25.03,6.87Z"/>
      <path class="cls-15" d="M199.76,170.53c-.67-.12-1.07-.8-1.37-1.08-1.55-1.44-3.92-1.52-5.85-2.52-.73-.38-3.94-.8-3.94-1.75-.03-.45,1.77-1.15,1.81-1.19,1.34-1.33-7.71-5.4-5.63-7.63,1.06-1.15,11.32,1.62,13.12,2.44,2.13,1.67,6.72,6.18,9.18,7.43.81.15.6,1.78,1.42,1.95.14,0,.29-.02.44-.02-.15-.12-.3-.24-.45-.36-.3-.6-1.19-.74-1.4-1.57,1.12.15,1.6,1.46,2.78,1.07,4.13,3.71,7.89,7.76,11.24,12.18q.47.51.88.88c1.84,1.9,11.12,15.47,8.4,17.59-.57-.12-1.16-.24-1.75-.36-1.77-.33-2.29-2.32-3.86-2.94-3.09-4.71-6.41-9.26-10.44-13.23-.94-.94-1.95-1.77-2.93-2.66-.18-.15-.36-.32-.54-.47-.12-.05-.21-.12-.27-.24-.66-.36-1.03-.97-1.67-1.45s-1.04-.84-1.69-1.25c-.5-.32-1-.33-1.25-.84-.14-.14-.24-.35-.42-.42-.56-.23-.75-.52-1.25-.83-.31-.19-.53-.25-.84-.42-.12-.06-.28.03-.42-.02-1.14-.36-1.98-1.36-2.97-2.04l-.29-.24Z"/>
      <path class="cls-15" d="M227.34,223.03c-3.09,1.64-4.93-6.68-8.06-7.05-.78-.09-.17,3.33-2.34,2.94-1.45-.27-3.76-3.92-4.33-5.12,1.15-.6,4.15-3.17,4.54-3.17,1.72.15,3.52,5.3,5.9,3.73-.51-6.32-3.79-11.48-6.94-16.7-.42-.69-1.1-1.28-1.1-2.2.05-.06.11-.12.15-.17,1.58.42,2.1,1.98,3.05,3.03,1.75,1.98,3.29,4.15,4.92,6.23,1.42,1.52,3.06,2.85,3.77,4.92.33,2.37,3.17,12.12.44,13.55Z"/>
      <path class="cls-9" d="M113.44,178.52c-.68,0-1.37,0-2.05-.02-.3-3.33-1.06-6.7.18-10.02.76.35.31.16,1.42,1.51,2.49,1.99.18,5.69.45,8.53Z"/>
      <path class="cls-7" d="M215.17,195.3s-.11.11-.15.17"/>
      <path class="cls-15" d="M206.31,207.93c-.06-.09-.12-.17-.17-.27,0-.03.09-.08.14-.12.02.14.02.26.03.39Z"/>
      <path class="cls-8" d="M199.14,252.91c-.11.49.13.83.44.84.14.12.07.27.2.41h.22s-.15.14-.1.16c.05,0,.05.11.1.13.09.02.15.08.23.13-.05.34.39.04.44.08.06.05.12-.16.17-.08.86.26,1.4.09,1.27-.97v-4.9c-.15-.15-.29-.27-.44-.42-.14-.69-.27-1.39-.42-2.08-.14-.15-.29-.3-.42-.44l.03.02c-.08-.08-.14-.15-.18-.24,0-.03.07-.07.1-.12.56-.92,1.29-1.6,2.38-1.91,2.87-.77,5.73-1.58,8.6-2.37.12-.14.24-.27.36-.41.15-1.12,1.04-1.48,1.93-1.63,2.73-.5,5.46-.91,8.21-1.34-.21-.75-2.73-4.78-4.19-4.01-1,.54,1.27,1.93-.03,2.5-2.81,1.24-8.49-14.44-10.12-13.7-2.66,1.19,5.45,7.44,3.56,8.9-2.79,2.19-8.28-8.75-8.25-8.77-.74.2.41,4.57-.06,5.45-1.3,2.43-2.02,1.16-4.03,1.74,0-.08-4.78.5-4.36.75-2.1-.62-3.88-3.55-5.28-5.01.24.18-6.55-11.63-7.59-10.09-1.22,1.8,0,4.81-1.77,6.05-1.51,1.04-4.63-1-4.95-2.69-.03-.8-1.27-13.08-3.8-12.27-.75.24,1.8,10.73,2.94,11.83.11,1.8-.29,3.33-2.05,4.19,0,1.28.78,4.3.06,5.36-.88,1.3-3.17.69-4.27,1.84.89,3.43,7.11,13.26,10.7,13.9.98-.77,1.98-1.51,3.02-2.19,1.27.77,2.11,1.9,2.5,3.43,1.64,1.9,4.25,6.67,4.42,9.16.69,0,1.09.6,1.63.88,2.22-2.41,5.13-2.2,8.01-2.1h.81ZM193.94,243.99c.5-.75,1.69,2.34,1.64,2.26.2,1.24-2.14-1.54-1.64-2.26Z"/>
      <path class="cls-1" d="M168.04,229.83c.9,3.43,7.1,13.27,10.71,13.9.97-.77,1.98-1.5,3.02-2.19,1.27.76,2.1,1.9,2.5,3.43,1.64,1.89,4.25,6.66,4.42,9.15-6.93.64-8.34-3.41-13.96-5.18-.39.66-.94,1.14-1.63,1.43-1.11-.26-2.19-.63-3.23-1.13-.98-.31-4.47-3.68-5.3-3.2-1.25.73,1.57,2.81-1.51,2.48-2.33-.25-3.54-2.39-5.25-3.6-.57-.41-7.73-4.8-7-5.24-1.77,1.07,6.55,6.32,6.63,7.19.36,3.66-11.44-5.82-12.52-6.83-9.49-8.87-17.39-20.83-22.65-32.54,1.06.05,4.62-1.61,3.35-1.84,2.36.43,5.55,6.04,7.95,7.35.61,2.79,4.41,4.99,6.62,6.51.88.6,2.09.18,3.11.93,1.49,1.1,2.2,3.32,4.17,3.88.85,1.68,5.76,3.27,7.54,4.2,2.46,5.69,4.95-3.3,4.88-3.28.97-.22,2.54,4.06,3.75,4.46,2.88.97.8-1.73,2.26-2.01.34-.07,2.13,2.07,2.16,2.11Z"/>
      <path class="cls-15" d="M185.09,156.22c-2.08,2.23,6.97,6.31,5.63,7.63-4.18-.8-8.81-4.96-12.76-6.68-4.6-1.99-9.23-3.12-14.09-4.22-.12-.05-.5-.17-1-.32-.12-.05-.26-.09-.39-.12-.27-.09-.56-.2-.86-.29-.17-.06-.33-.12-.5-.18-.14-.05-.26-.11-.39-.15-.08-.03-.17-.06-.26-.11-.92-.36-1.66-.74-1.61-1.04.36-2.52,17.32,1.99,17.64.53.24-1.06-22.78-6.76-25.03-6.87-4.63-.23-28.53-1.75-28.8,3.03-.18.32-.5.41-.83.44,1.03-4.15.57-2.87-1.67-5.24-.71-.77-.71-1.96-1.36-2.6-.39-.38-2.58.78-2.85.02-.42-1.25,3.15-1.49-.01-2.29.36-5.43,10.4-6.2,14.29-5.85.8.35,7.38-.05,7.45.8.09,1.03-3.23-.06-2.88,1.36.32,1.33,7.38-.21,8.19-.05,1.64.32.56,1.84.74,1.89.24.06.66.12,1.19.18.11.02.23.03.35.03.94.09,2.16.18,3.43.29.32.02.63.03.97.06.41.03.77.05,1.12.08,1.33.09,2.6.2,3.56.3.29.03.56.06.78.09.15.02.27.03.35.05.21.03.39.08.54.11.32.06.48.14.48.21-.39.33-.68.72-.88,1.19,1.95,2.04,9.29-.33,11.63,2.55,2.38,2.91.27.38-1.19,2.04,3.67,1.07,6.94.92,10.58,2.34,3.86,1.51,7.8,3.24,11.59,4.98,3.15,1.89,5.02,4.74,7.82,6.79,1.51,1.12,3.2,1.09,4.8,2.23,3.88,2.73,2.23,1.09-.89,3.15-1.8-.81-13.79-7.5-14.85-6.35Z"/>
      <path class="cls-1" d="M271.41,312.59c-4.59-2.74-8.81-2.56-13.44-4.41-.8-.32-12.43-8.22-12.16-4.88-.83.68-.88,1.63-.9,2.6-.8-.64-1.63-1.24-2.62-1.55-1-.32-1.76-.12-1.94,1.07-.98.14-1.57.69-1.7,1.69-.16.15-.31.3-.47.44-2.95,1.27-.3,3.59-1.5,4.67,1.6-1.45-21.37-6.6-20.99-6-1.09-1.69,1.37-4.6,2.69-5.81,1.2-1.1,1.98-1.81,3.41-2.71.51-.32,3.01,1.13,3.25.69,1.09-1.96,1.97-4.26,5.66-4.43,5.04-.24,13.28,3.42,18.08,4.78,4.99,1.42,28.12,5.04,25.12,13.04-.87.17-2.04-.6-2.5.82Z"/>
      <path class="cls-1" d="M71.4,131.48c-.06-.02-.11-.05-.15-.08.05.03.09.06.15.09.05.02.09.05.14.08-.05-.03-.09-.06-.14-.09ZM120.15,142.64c-.71-.77-.71-1.96-1.36-2.6-.39-.38-2.58.78-2.85.02-.42-1.25,3.15-1.49-.01-2.29-2.79,0-5.5-.17-8.31-.24-.68-.02-.95-.04-1.77-.56-.87-1.16-2.28-1.21-3.23-.72-2.61,1.31-4.72.39-6.85-.97.62,3.24-9.76.03-11.35-.39-.05-.02-.12-.05-.24-.08-.08-.02-.14-.05-.23-.08-.11-.05-.23-.09-.38-.14-.11-.05-.23-.09-.36-.12-.11-.05-.23-.09-.35-.14-1.92-.71-4.89-1.89-5.15-2.26-.02.11-.02.21-.05.32-.02.14-.06.27-.11.39-.09.23-.21.45-.36.65-2.88.15-5.79-3.49-9.57-3.23-.33,0-.63-.09-.86-.38-.12-.03-.26-.05-.39-.05.38,2.13,1.66,3.33,3.89,3.82,1,.23,2.26-.05,2.79,1.25h.02s.02.03.02.05c6.9,2.64,13.82,5.6,20.75,6.08,10.38.74,13.59,3.52,17.1,13.17,2.17-.38,3.88-1.78,5.75-2.78,1.83-.97,3.79-1.8,5.13-3.5,1.03-4.15.57-2.87-1.67-5.24Z"/>
      <path class="cls-15" d="M202.1,253.6c0-1.64,0-3.28,0-4.91,8.72,8.19,19.88,14.73,31.08,18.69,13.33,4.71,28.52,10.3,42.86,9.84,1.48,1.23,1.78,3.22,2.94,4.66-14.44.41-29.48-5.18-42.81-10.16-9.38-3.5-29.38-8.23-34.07-18.12Z"/>
      <path class="cls-15" d="M280.67,287.32c.47.94.52,1.93.37,2.95-14.52-1.15-29.06-7.03-42.62-12.06-3.74-1.39-36.68-13.52-32.62-17.97.54-.6,33.87,14.36,36.99,15.47,11.84,4.21,26.96,5.64,37.88,11.61Z"/>
      <path class="cls-8" d="M133.55,213.03c-.15-.09-.3-.18-.45-.3-.17-.11-.32-.24-.48-.38-.15-.14-.3-.27-.45-.42-.35-.33-.69-.71-1.04-1.1-.39-.44-.78-.91-1.18-1.36-.3-.35-.6-.71-.91-1.06-.09-.11-.17-.2-.26-.29-.35-.38-.68-.74-1.03-1.06-.06-.08-.14-.14-.21-.2-.48-.45-.95-.8-1.39-1.01-.12-.05-.23-.09-.33-.12-.03-.02-.05-.02-.08-.02.03,0,.05.02.06.03.02.02.03.03.05.05.08.12-.11.32-.41.53-.14.08-.29.17-.45.27-.44.23-.95.45-1.45.62-.2.08-.38.14-.56.18-.29.08-.54.12-.72.11-3.65-7.29-7.57-14.45-9.58-22.45-.54-2.17-1.04-4.33-1.3-6.55.68.02,1.37.02,2.05.02,1.03,2.49,2.32,4.78,4.16,6.76,1,1.18,2.28,1.83,3.76,2.11.03.27.05.53.06.8-1.25,1.06,2.97,9.69,3.58,10.83,1.89,3.55,3.76,7.63,6.49,4.74.42.54.86,1.1,1.28,1.66-.35,2.6,1.39,4.98.78,7.6Z"/>
      <path class="cls-1" d="M211.75,275.6c-2.74-.67-29.82-16.23-29.87-16.1.36-.95,12.82,2.12,14.62,2.46,5.76,1.08,9.35,3.25,14.42,5.96-.48,2.64,1.66,5,.83,7.67Z"/>
      <path class="cls-15" d="M240.35,305.42c.18-1.2.94-1.4,1.94-1.07.98.32,1.82.91,2.62,1.55,1.99,3.07,25.2,22.41,25.01,22.71-1.2,1.85-28.46-18.43-29.58-23.19Z"/>
      <path class="cls-12" d="M265.56,328.88c-3.2-1.98-6.43-3.91-9.64-5.85-3.39-2.49-7.27-6.58-11.23-8.03-2.26-.81-4.92.66-4.77.68-2.9-.18-8.71-3.83-10.94-1.33-2.08-1.1-4.56-1.16-6.5-2.57-.89-.65-1.64-.66-2.29.32-.03.06-.08.12-.12.18,4.51,3.85,10.2,5.37,15.71,7.14,3.85,1.25,10.59,6.05,14.58,5.79.03-.44.06-.86.08-1.3,1.78.53,3.55,1.1,5.33,1.57,1.61.42,3.14.98,4.38,2.13.88.09,1.55.59,2.29,1,1.58.84,2.99,2.07,4.81,2.43.27-.11.54-.23.81-.33-.83-.62-1.61-1.3-2.49-1.83ZM245.42,318.82c-.38.05-.68-.05-.89-.39.59-.53.74-.08.89.39Z"/>
      <path class="cls-15" d="M286.13,321.4c.19,2.4,2.09,3.78,3.31,5.57.38.56,1.06.89,1.3,1.57-1.12-.07-1.67-.98-2.3-1.68-4.35-4.76-9.29-8.84-14.5-12.6-.36-.47-.87-.45-1.38-.41-.1-.1-.2-.21-.3-.31-.14-.18-.28-.36-.43-.54,0,0,0,0,0,0-.14-.14-.29-.29-.43-.43,0,0,0,.01,0,.01.46-1.42,1.63-.65,2.5-.82,6.09,2.54,10.56,7.44,16.02,10.91.76.49,1.5,1.04,1.74,2l-.14.14c-2.07-.72-3.33-2.71-5.4-3.43h0Z"/>
      <path class="cls-1" d="M190.32,255.01c2.22-2.42,5.12-2.21,8-2.1.28,0,.55,0,.83,0,0,0,0,0,0,0,.02.35.12.65.43.85,0,0-.01-.01-.01-.01.14.14.29.29.43.43,0,0-.01-.01-.01-.01.2.31.5.42.85.43,0,0,0,0,0,0,4.11,7.11-7.73,4.47-10.51.44Z"/>
      <path class="cls-1" d="M211.75,275.6c.84-2.68-1.3-5.03-.83-7.67,1.98.52,3.76,1.47,5.46,2.58-.71,4.07-.83,2.84,2.57,5.09.91.61,2.23.39,2.92,1.45-.01.36-.02.71-.03,1.07-3.65.33-7.07-.29-10.08-2.52Z"/>
      <path class="cls-1" d="M221.86,277.05c-.68-1.06-2-.85-2.92-1.45-3.4-2.25-3.27-1.01-2.57-5.09,2.36,1.24,4.78,2.42,6.67,4.38.09.99-.1,1.82-1.19,2.16Z"/>
      <path class="cls-1" d="M278.92,283.21c1.24.58,1.5,1.74,1.75,2.92-1.03-.13-11.33-1.8-11.29-3.41.02-.8,8.92.43,9.54.49Z"/>
      <path class="cls-8" d="M238.18,307.55c.16-.15.31-.29.47-.44,6.78,4.94-.13,8.59-.47.44Z"/>
      <path class="cls-8" d="M194.07,296.99c-.03.33-.08.68-.11,1.01-1.6-1.87-1.74-5.63-2.34-8,2.02,2.23,1.49,4.86,2.44,6.99Z"/>
      <path class="cls-1" d="M193.21,289.49c-.42-1.28-.81-2.55-.08-3.85.86,1.27,2.01,2.52.08,3.85Z"/>
      <path class="cls-8" d="M293.21,326.08c-1.1-.36-.21-1.18.14-.13,0,0-.14.13-.14.13Z"/>
      <path class="cls-15" d="M291.68,324.68c.04.09.08.17.11.26-.09-.04-.17-.07-.26-.11,0,0,.14-.14.14-.14Z"/>
      <path class="cls-1" d="M193.48,290.15s-.05.09-.08.14c-.03-.12-.06-.26-.09-.39.06.08.14.17.17.26Z"/>
      <path class="cls-8" d="M294.12,330.65c-.14-.14-.29.14-.43,0,.14.14.29-.14.43,0Z"/>
      <path class="cls-8" d="M294.54,331.07c-.14-.14-.29-.29-.43-.43.14.14.29.29.43.43Z"/>
      <path class="cls-8" d="M296.64,332.75l-.42-.42c.14.14.28.28.42.42Z"/>
      <path class="cls-12" d="M97.63,32.06c-.12-.41-1.01-.14,0,0h0ZM134.76,75.04c1.19-2.2,3.24-4.84,4.42-6.85-1.31,2.07-3.8,4.95-4.42,6.85Z"/>
      <path class="cls-12" d="M144.08,41.57c-.65,1.67-1.78,6.73-3.62,7.77-1.8,1.03-7.21-.69-8.92-.94-6.26-.89-12.57-1.33-18.86-1.93-6.14-.59-11.35-.91-17.23,1.27-5.05,1.87-11.47,5.79-16.52,1.4-2.13-1.28-4.39-2.47-3.68-5.61,1.04-3.3,2.08-6.61,3.12-9.93.65-3.2,1.71-6.25,3.27-9.11.33-.59.68-1.21,1.4-1.45,4.41-3.74,3.46,4.78,3.79,6.44.95,4.57,3.68,10.09,7.65,12.8-.14-1.74-1.49-2.93-2.05-4.48-2.13-1.81-3.47-4.1-1.49-5.75,1.45-1.22,5.37,1.83,6.14,1.03.5-.51.6-.83.54-1.01-1.01-.14-.12-.41,0,0,.48.08,1.39.11,3.02.05,1.96-.08,5.49-.18,7.3,0,2.56.27,13.84,5.91,14.38,5.16-2.84-1.84-5.49-3.92-8.13-6.04-8.12-5.13-16.52-11.39-26.31-12.64-9.9-1.27-17.97,3.55-25.71,9.14-4.13,3.61-7.15,8.03-9.63,12.87-.78,1.3-1.3,2.07-1.72,4.04-.54,1.33-.59,1.51-.42,2.35,0,1.67.03,3.35-.02,5.01-.14,4.18,1.21,8.16,1.75,12.24,3.95.44,4.12-4.89,10.37-2.5,1.31.5,10.2,9.04,11.38,8.22,1.13-.78-1.42-2.23-.42-2.93-.42.3,7.26,2.41,7.36,2.43,1.27.14,9.14,1.33,9.23,1.18.56-.94-2.01-1.55-1.22-2.64.69-.97,2.19.92,2.82-.3.15-.27-.94-1.19-1.03-1.49,1.25-.32,2.34.53,3.35,1.18.15.09.29.18.44.26.33.21.66.35,1,.39-.14-.06.53-.3,1.42-.56.2-.06.42-.12.65-.17.35-.09.69-.18,1.04-.27,1.04-.24,1.95-.41,1.95-.29.77-1.13-2.2-1.86-.15-3.68,1.07-.95,6.84,2.93,7.29,1.31.29-1-2.91-.35-2.78-1.71.02-.23,4-2.41,4.18-2.49.06-.03,1.12-1.34,1.66-1.66.97-.54,3.29-.71,4.6-1.4,1.18-.63,1.49-2.1,2.93-2.64,1.99-.74,3.27.54,5.1.35,4.21-.44,7.11-2.87,11.57-1.89.41,0,.83-.02,1.25-.02.98-2.6,3.09-2.67,2.85.47-.15,2.13-.53,4.21-1.54,6.13-2.99,6.49-6.82,12.43-11.78,17.61-.38.41-.68.91-1.34.83-.15.2-.29.38-.44.57-.06.68-.65,1-.97,1.51-.83,1.46-1.58,3.02-3.58,3.17-.12,0-.24.03-.35.11-.54,1.18-1.24,2.17-2.69,2.31l-.2.03-.21-.02c-.05,1.06-.83.97-1.52,1.01,0,0,0,.02-.02.03-.05.14-.09.26-.17.35-.06.09-.14.17-.21.23-.05.05-.12.09-.18.11l-.03.03c-.08.03-.17.06-.26.08-.12.03-.26.03-.39.03,0,.03-.02.06-.03.09,0,.02,0,.03-.02.05,0,.09-.01.18-.06.26-.3.83-1.1,1.12-1.86,1.46-.86,1.61-2.67,1.81-4.03,2.66-.12.06-.2.11-.27.14l-.12.06c-.11.06-.08.05-.11.06l-.09.05-1.12.53c-1.43.51-2.02.78-2.46.97-.06.03-.12.05-.18.06-.06.03-.12.05-.2.06-.05.02-.11.03-.17.05-.15.03-.32.06-.51.09-.08.02-.15.02-.23.03-.74.02-1.45.09-2.1.48-1.33.48-.8.36-1.15.57-.06.03-.14.08-.21.11-1.37.27-2.75.56-4.12.83-.11.03-.21.06-.29.09-.06.03-.12.05-.18.06-.3.11-.29.11-.39.12-.02,0-.03,0-.05.02-.05,0-.08.02-.24.06-.05.02-.12.03-.2.05-2.22-.17-4.24.97-6.41,1-.08,0-.17,0-.24-.02-.14.02-.27,0-.41-.02-.21.02-.32,0-.38-.02-.02.02-.03.02-.05,0-.03,0-.05-.02-.06-.02-.06,0-.12-.02-.38-.02-.74,0-.98-.15-2.2-.21-.97.06-1.93.14-2.9.2-.12.42-.23.86.08,1.27,20.64,1.9,43.8-5.07,54.95-23.6.66-1.12,1.72-2.7,2.73-4.24.03-.05.06-.09.09-.14.29-.44.57-.88.84-1.28.14-.21.26-.42.39-.62.12-.2.24-.39.36-.57.18-.3.33-.59.47-.84,1.69-3.36,2.7-7.39,3.83-10.97.38-1.19,3.71-17.07.6-14.82ZM70.6,39.89c-5.21.5-9.01-7.45-5.27-11.04,1.25-1.19,10.59-2.79,11.21-2.07.15.18-.42,4.89-.48,5.27-.6,3.06-1.13,8.04-5.46,7.85Z"/>
      <path class="cls-15" d="M115.93,137.77c-2.8,0-5.63.44-8.4,0-1-.16-.94-.17-1.69-.8-.87-1.16-2.27-1.2-3.23-.72-2.61,1.31-4.54.69-6.67-.67-.38-.35-.71-.41-.17-.32.64,3.27-9.76.05-11.35-.38-.62-.16-7.14-2.59-6.71-2.88-.01.54-.18,1.02-.51,1.43-2.89.15-5.79-3.49-9.56-3.22-.62.1-.8-.02-.86-.39-.13-.02-.26-.03-.39-.04-.08-.33-.15-.84-.5-.83-.69.04-.25,1.35-.92,1.51-.31-.43-.61-.2-1.06-.22-.12-.71-.5-1.59-1.32-1.35-.76.22-1.47-.02-2.14-.37-.15.14-.3.27-.44.41-2.03.94-6.7-3.13-8.52-4.78-2.71-2.45-2.96-6.58-5.35-8.65,1.07-1.46,2.07-2.99,3.38-4.26l.84-1.02s0,0,0,0c2.98,1.33,14.06-3.91,17.26-4.66,7.57-1.79,15.16-2.94,22.9-3.69,5.61-.54,13.55-2.53,18.88-.03,4.8,2.25,6.31,8.07,12.41,7.83.29,1.13-.64,1.91-.85,2.89.46,2,2.88,2.02,2.35,4.09-.31,1.19-4.02-1.02-4,2.23-1.16,1.11-1.41,2.24-.05,3.39.89,7.44,14.96,3,15.34,6.63.16,1.53-4.06.91-4.39,3.02-3.89-.34-13.93.42-14.28,5.85Z"/>
      <path class="cls-1" d="M130.22,131.91c.34-2.1,4.55-1.49,4.39-3.02-.37-3.63-14.45.81-15.34-6.63-.04-1.56.95-1.78,2.19-1.7,4.58,5.17,13.57,4.7,19.79,5.44,5.73.68,12.89-1.18,18.12-.12.26.05,7.82,3.81,7.89,3.92-.16-.24,1.92,3.67.53,2.42-.52.18-.78.54-.79,1.09,1.09.97,2.42,1.33,3.99,1.07,2.82,1.22,6.67,3.47,9.65,3.85.14.14.28.27.42.41,0,.11.34,3.74-.67,2.98,2.15,1.6,10.66,3.64,7.84,8.77-3.79-1.73-7.73-3.46-11.6-4.97-3.63-1.42-6.9-1.27-10.58-2.34,1.47-1.66,3.58.88,1.2-2.04-2.34-2.87-9.69-.51-11.64-2.55.2-.46.49-.85.88-1.18.08-.6-10.99-.94-12.77-1.4-.18-.05.91-1.56-.73-1.88-.83-.16-7.88,1.38-8.2.04-.35-1.41,2.98-.33,2.89-1.35-.07-.85-6.65-.46-7.46-.81Z"/>
      <path class="cls-12" d="M137.83,46.45c-.57-.32-1.16-.63-1.74-.95,0,0-.32-.05-.88-.12.48.06.78.09.86.11-1.1-1.75-2.88-2.55-4.63-3.43-.98-.38-1.81-1.01-2.72-1.49-2.11-1.13-3.88-2.99-6.41-3.3-.54.75-11.81-4.89-14.38-5.16-1.81-.18-5.34-.08-7.3,0-1.63.06-2.53.03-3.02-.05.06.18-.05.5-.54,1.01-.77.8-4.69-2.25-6.14-1.03-1.98,1.64-.63,3.94,1.49,5.75.56,1.55,1.92,2.75,2.05,4.48.39.68,1.3.42,1.77.97,2.55,1.16,5.24.98,7.92.84,6.65.57,13.26,1.39,19.92,2.02.09.02.21.03.35.05.53.06,1.34.18,2.29.32.24.03.5.06.75.11.51.08,1.04.15,1.6.23h.02c.83.11,1.71.21,2.55.32,0,0,.02-.02.03,0,2.49.27,4.86.41,5.79.05.39-.14.54-.38.36-.71ZM103.49,43.92c-.54-.06-1.33-.14-2.08-.23.75.09,1.54.15,2.08.23.23.03.41.06.53.11-.12-.03-.3-.08-.53-.11Z"/>
      <path class="cls-5" d="M136.1,45.49v.02s-.32-.05-.88-.12c.48.06.78.09.86.11h.02Z"/>
      <path class="cls-5" d="M97.63,32.06c-.12-.41-1.01-.14,0,0h0Z"/>
      <path class="cls-1" d="M144.08,41.57c-.65,1.67-1.78,6.73-3.62,7.77-1.8,1.03-7.21-.69-8.92-.94-6.26-.89-12.57-1.33-18.86-1.93-6.14-.59-11.35-.91-17.23,1.27-5.05,1.87-11.47,5.79-16.52,1.4,2.96.47,5.93.88,8.89-.03h.02c.83-.33,8.77-2.76,8.48-4.04-.32-1.4-4.92-.12-5.58.09.12-.33.33-.54.59-.71.12-.08.24-.14.38-.2.24-.11.5-.2.74-.32h.02c.57.03,1.12.05,1.67.08.94.36,1.33-.77,2.13-.77,2.55,1.16,5.24.98,7.92.84,6.65.57,13.26,1.39,19.92,2.02.09.02.21.03.35.05.53.06,1.33.18,2.29.32.24.03.5.06.75.11.51.08,1.04.15,1.6.23h.02c.83.12,1.71.23,2.55.32,0,0,.02-.02.03,0,2.49.27,4.84.41,5.79.05.39-.14.54-.38.36-.71,1.87-.33,3.39-1.06,4.21-2.97.35-.86.86-1.81,2.04-1.92Z"/>
      <path class="cls-5" d="M137.83,46.45c-.57-.32-1.16-.63-1.74-.95,0,0-.32-.05-.88-.12.48.06.78.09.86.11h.02c.57.32,1.16.65,1.74.97Z"/>
      <path class="cls-15" d="M120.97,112.55c.21-.99,1.13-1.76.85-2.89,1.44.1,3-.45,4.21.82-1.17,1.96-3.34,1.46-5.06,2.07Z"/>
      <path class="cls-15" d="M121.46,120.56c-1.24-.09-2.23.14-2.19,1.7-1.36-1.15-1.12-2.28.05-3.39.75.52,1.85.58,2.14,1.69Z"/>
      <path class="cls-2" d="M73.08,134.86c-1.09-1.04-33.65-9.07-28.11-17.97.39-.47.78-.92,1.18-1.37,2.4,2.07,2.64,6.2,5.36,8.65,1.83,1.64,6.49,5.72,8.53,4.78.14-.14.29-.27.44-.41.68.36,1.39.59,2.14.38.81-.24,1.13.15,1.25.86.02.48.06-.09.62,0,.45.09.54.73.62.41.66-.17.12-1.18.8-1.22.35-.02.42.5.5.83.38,2.13,1.66,3.33,3.89,3.82,1,.23,2.26-.05,2.79,1.25Z"/>
      <path class="cls-14" d="M168.21,346.99c.12-2.04.83-9.29.29-10.8-.88-2.43-4.83-2.14-5.1-4.62v-.02c-.08-.05-.14-.09-.2-.12-.06-.05-.12-.08-.17-.11-.11-.06-.21-.09-.3-.12-.42-.14-.63.18-.62,1.04.05,2.82.23,5.64-.03,8.46v.02c-.02.29-.02.56-.03.83,0,.15-.02.29-.02.42.06.6.08,1.18-.23,1.72.02.6-.02,1.18-.44,1.66-.57,2.81-1.6,5.46-2.7,8.1-.92,2.22-2.5,3.79-4.59,4.92.36.29.77.54,1.12.86,1.13,1.04,1.69,2.14.26,3.39,1.54-.38,2.69-.05,3.43.98-1.37.33-9.73.42-10.26-1.12-4.5-3.64-16.61,2.38-21.29,3.49-7.23,1.69-18.44,2.69-24.78-2.22-2.81,1.51-5.6,3.05-8.43,4.5-1.43.74-3.64,1.15.03,1.96,5.37,1.18,8.11,1.75,10.22,2.01.62.08,1.54.19,2.66.3-.67.45-1.33.94-2.04,1.42-1.03.69-2.08,1.43-2.17,1.64,6.45.96,12.66.47,18.98-.21,1.21-.33,2.47-.44,3.61-1.04.06-.08.14-.15.23-.24s.21-.18.35-.26c.14-.09.32-.2.5-.29.09-.06.18-.11.29-.15.83-.42,1.96-.86,3.23-1.31.45-.17.92-.33,1.4-.48.35-.11.68-.23,1.01-.33.68-.21,1.37-.44,2.07-.65.8-.23,1.57-.47,2.31-.68.48-.14.97-.27,1.42-.41.92-.27,1.75-.51,2.41-.71.36-.11.66-.2.91-.27.66-.2,1.04-.35,1.04-.39.42,3.49-12.4,1.69-11,5.36.11.11-2.28,1.24-2.17,1.35,2.2.44,6.19,1.17,8.81,1.14,4.56.33,7,1.67,11.56-.21,4.22-1.75,7.57-4.51,11.15-7.32l.03-.03c.12-.14.26-.26.38-.38l.05-.05c.84-1.64,2.57-1.28,3.94-1.66.71-.18,1.45-.21,2.17-.45h.02c-.24-.3-.47-.56-.68-.75-1.42-1.39-2.17-.69-2.38-1.03-.02-.05-.03-.11-.03-.18-.05-.38.14-1.34.51-3.64.72-4.41,3.05-8.9,3.29-13.34Z"/>
      <path class="cls-14" d="M89.39,349.83c-1.69,3.59-14.58.59-14.27,6.4-.53,0-1.06.02-1.57.03-.35-.5-.81-.39-1.3-.27-.98-.06-1.96-.11-2.93-.17-4.04-.56-8.07-1.1-12.12-1.66,3.05-2.16,6.68-2.49,10.18-3.23,1.61-.35,3.29-.38,4.93-.56,5.7.08,11.38-.35,17.07-.54Z"/>
      <path class="cls-14" d="M116.38,340.05c-.17-.43-.13-1.03.02-1.46-1.4,1.27-2.91,2.41-4.63,3.21-.02,1.9.32,3.76.6,5.63.84-.8,4.77-5.42,4.01-7.38Z"/>
      <path class="cls-14" d="M158.88,363.62c-1.37.33-9.73.42-10.26-1.12,2.28.05,4.56.09,6.84.14,1.54-.38,2.69-.05,3.43.98Z"/>
      <path class="cls-14" d="M112.37,347.43c-1.18.62-1.12-.62-1.58-1.07l-.03-.03c-.12-.12-.24-.24-.36-.36.02-1.19,1.01-2.38.02-3.58.45-.2.91-.39,1.36-.59-.02,1.9.32,3.76.6,5.63Z"/>
      <polygon class="cls-13" points="119.32 334 119.31 334.02 119.31 334 119.32 334"/>
      <path class="cls-12" d="M79.81,98.64c-3.62-.09-7.15-.56-10.5-2.04.38-.65,1.25-.21,1.67-.75.66.33,1.36.41,2.1.27.62.78,1.48.89,2.38.86,1.45-.05,2.87.06,4.27.39-.12.42-.23.86.08,1.27Z"/>
      <path class="cls-1" d="M265.09,267.26c.83.83,2.36.36,2.97,1.6-9.72-2.42-19.17-5.73-28.53-9.29-5.33-2.03-21.47-8-23.26-14.21.18,0,.35-.01.53-.02,9.32,7.66,20.2,12.26,31.5,16.06,5.62,1.89,11.2,3.91,16.79,5.86Z"/>
      <path class="cls-1" d="M216.8,245.34c-.17,0,.47,1.69.29,1.69-1.94-.95-3.98-4.34-5.35-5.9.12-.14.24-.27.35-.41,1.78,1.32,3.28,2.77,4.7,4.61Z"/>
      <line class="cls-7" x1="219.74" y1="240.72" x2="219.73" y2="240.73"/>
      <path class="cls-1" d="M228.29,240.55c-.57-.08-1.6-1.4-1.84-1.92h0c.59,0,1.69.55,1.98,1.05,0,0-.15.87-.15.87Z"/>
      <path class="cls-8" d="M230.24,232.77c.14-.15.29-.3.43-.44-.14.15-.29.3-.43.44Z"/>
      <path class="cls-16" d="M226.45,238.63c-.05-.03-.1-.06-.15-.09.05.03.11.05.16.08,0,0,0,0,0,0Z"/>
      <path class="cls-2" d="M276.03,277.22c-14.34.47-29.54-5.13-42.86-9.84-11.21-3.96-22.36-10.5-31.08-18.69,0,0,.02.03.02.03-.15-.15-.29-.29-.44-.44-.14-.69-.28-1.39-.43-2.08,19.64,18.79,47.83,28.27,74.57,30.38.07.22.15.43.22.64Z"/>
      <path class="cls-1" d="M218.89,253.75c-.36.02-.67.14-.89.44-4.14-2.8-8.17-5.72-11.72-9.26,0,0,.02-.02.02-.02,4.77-.05,8.78,5.04,12.6,8.83Z"/>
      <path class="cls-2" d="M201.24,246.19c-.14-.15-.28-.29-.42-.44.14.15.28.29.42.44Z"/>
      <path class="cls-15" d="M116.68,10.54c.2,3.06-1.69,5.27-4.84,7-2.67,1.48-20.13-1.46-20.26.15-9.72-1.15-16.24.17-24.82,4.96-2.11.3-7.51,4.66-9.07,4.21-2.07-.59-.59-2.6-2.53-3.82-.02-.26-.14-.91-.17-1.16.11-.02.43.16.54.16,3.47,1,11.07-2.17,14.66-3.08,6.73-1.71,10.97-3.09,17.93-3.09,1.27,0,20.2-1.77,18.94-5.73-.39-1.21-4.25-5.08-5.3-5.93-2.02-1.67-7.79-1.43-8.96-3.36,5.22,0,10.46-.5,15.62.78,1.71.47,3.49.78,5.05,1.66-.41,1.98,3.08,4.98,3.23,7.24Z"/>
      <path class="cls-15" d="M66.75,22.66c-1.46,1.43-3.36,2.2-4.99,3.39-3.82-.69-9.63,11.51-9.22,14.55-.42,1.4-1.14,2.37-1.72,4.04-.15-.89-.52-1.81-.08-2.66.81-1.57,1.07-3.24,1.16-4.95-.01-.11.02-.21.09-.29,0,0,.16-.58.32-1.12.65-2.79,1.3-5.58,1.95-8.37,1.39-1.18.81-2.76.89-4.21,1.95,1.22.47,3.23,2.53,3.82,1.55.45,6.96-3.91,9.07-4.21Z"/>
      <path class="cls-15" d="M135.23,17.62c-3.82-4.44-8.28-8.09-13.38-11v.11c-.86.06-1.57-.33-2.34-.71-1.98-.98-3.79-2.35-6.05-2.72-.41,1.98,3.08,4.98,3.23,7.24.2,3.06-1.69,5.27-4.84,7-2.67,1.48-20.13-1.46-20.26.15-9.72-1.15-16.24.17-24.82,4.96-1.46,1.43-3.36,2.2-4.99,3.39-3.82-.69-9.63,11.51-9.22,14.55,2.47-4.84,5.49-9.26,9.63-12.87,7.74-5.6,15.81-10.41,25.71-9.14,9.79,1.25,18.2,7.51,26.31,12.64,1.28-1.89,20.67,9.78,26.36,6.82,7.97-4.15-6.14-20.17-5.33-20.43ZM104.64,23.47c.12.02.24.02.36.03-.14.2-.26.21-.36-.03Z"/>
      <path class="cls-8" d="M105,23.5c-.14.2-.26.21-.36-.03.12.02.24.02.36.03Z"/>
      <path class="cls-11" d="M40.75,63.61c-.86.27-3.47-.36-4.77-.23-2.07.2-4.89,2.79-6.61.03.02-.39-.06-.82.06-1.19.53-1.68.17-.36.36-.91.5-1.43,1.43-2.64.47-4.16l.24-.48c.14-.09,0,0,.15-.38.32-1.57,1.07-2.94,1.96-4.26,1.04-.41,1.28-1.63,2.2-2.17-.35,2.84-.12,3.06,2.75,3.06,2.5,0,4.69-.75,6.5-2.53,0,4.83,1.77,11.53-3.32,13.22Z"/>
      <path class="cls-15" d="M46.47,69.97c0,.17-.02.33-.05.5-.02.17-.06.35-.12.5-.06.21-.14.41-.24.6-.06.14-.14.26-.21.38-.08.12-.15.24-.24.36-.27.38-.59.74-.97,1.1-.56.54-1.24,1.06-1.98,1.54-.09.05-.18.11-.27.17-.2.12-.41.24-.6.36-.68.39-1.39.75-2.13,1.09-.26.12-.5.23-.75.33-.23.11-.44.18-.66.27-.74.29-1.48.54-2.22.77-.36.12-.72.23-1.09.32-1.09.3-2.14.51-3.09.63-.14.03-.26.03-.36.05-.12.02-.24.03-.36.05-.68.06-1.28.06-1.8.02-.18-.03-.35-.05-.5-.08-.05-.02-.09-.02-.12-.03-.08-.02-.15-.03-.21-.06-.14-.03-.24-.09-.35-.14-.11-.05-.21-.11-.29-.17-.97-.71-.89-1.83-.98-2.81-.57-6.49.68-12.67,3.38-18.57.97,1.52.24,2.9-.47,4.16-.31.36-.15.4-.36.91-.03.39-.05.8-.06,1.19-.72,1.16-2.63,8.15-.95,9.26,1.03.66,7.97-3.64,9.29-4.01,2.81-.8,4.62-1.01,8.13-.6.42.65.62,1.28.62,1.92Z"/>
      <path class="cls-15" d="M45.85,68.06c-3.52-.41-5.33-.2-8.13.6-1.33.38-8.27,4.68-9.29,4.01-1.67-1.12.23-8.1.95-9.26,1.72,2.76,4.54.17,6.61-.03,1.3-.14,3.91.5,4.77.23,5.09-1.69,3.32-8.39,3.32-13.22.02-.12.03-.26.05-.38.21-.02.44-.03.65-.05-.75,3.29.08,6.52.38,9.76.03.27.03.54.05.81-.35.39-.32.84-.33,1.34-.08,2.13.83,4.09,1,6.17Z"/>
      <path class="cls-2" d="M38.25,77.17c-.74.3-1.46.6-2.2.91-4.16,1.31-8.19,2.97-12.03,5.07-.89-1.72.36-2.31,1.54-2.93.69-.27,1.4-.53,2.1-.8.5-.18.62-.48.21-.89.08.06.18.12.29.17.11.05.21.11.35.14.06.03.14.05.21.06.03.02.08.02.12.03.15.03.32.05.5.08.51.05,1.12.05,1.8-.02.12-.02.24-.03.36-.05.11-.02.23-.02.36-.05.95-.12,2.01-.33,3.09-.63.36-.09.72-.2,1.09-.32.74-.23,1.48-.48,2.22-.77Z"/>
      <path class="cls-1" d="M49.87,76.45c-.11,0-.21,0-.32-.02.05-.53.05-1.04-.57-1.28-.03-.68-.36-.62-.8-.36-4.74,2.85-10.08,4.44-14.91,7.09-.05-.29-.09-.57-.14-.88,1.28-.81,2.55-1.64,3.83-2.47,3.26-1.45,6.67-2.61,9.82-4.3-.06-.15-.12-.3-.2-.45-2.57,1.04-5.12,2.08-7.68,3.12.26-.11.5-.21.75-.33.74-.33,1.45-.69,2.13-1.09.2-.12.41-.24.6-.36.09-.06.18-.12.27-.17.74-.5,1.42-1.01,1.98-1.54.38-.36.69-.72.97-1.1.09-.12.17-.24.24-.36.08-.12.15-.24.21-.38.11-.2.18-.39.24-.6.06-.15.11-.33.12-.5.03-.17.05-.33.05-.5,0-.63-.2-1.27-.62-1.92-.17-2.08-1.07-4.04-1-6.17.02-.5-.02-.95.33-1.34.65,3.7,1.78,7.26,3.11,10.76.09.26.2.48.32.66.06.09.14.18.2.24.09.11.17.18.26.23.09.08.2.12.3.15.09.05.18.06.27.08.21.05.44.05.69.03-.84,1.16-.45,2.49-.47,3.76Z"/>
      <path class="cls-1" d="M50.38,72.69h-.05s.02-.02.02-.03l.03.03Z"/>
      <path class="cls-9" d="M50.38,72.66v.03l-.03-.03h.03Z"/>
      <path class="cls-15" d="M51.75,70.32c-.05.74-.11,1.46-.17,2.2-.14.06-.27.11-.41.15-.14,0-.26-.02-.38-.05-.14.02-.29.03-.42.03-.68-4.39-1.43-8.8-1.8-13.25-.63-7.74.45-15.18,3.32-22.38-.09,1.71-.15,3.41-.97,4.98-.44.84-.27,1.74-.12,2.63-.42,2.35-.28,1.3-.42,2.35,0,1.67.03,3.35-.02,5.01-.14,4.18,1.21,8.16,1.75,12.24-.17,2.04.35,4.09-.38,6.08Z"/>
      <path class="cls-11" d="M50.49,30.57c-1.09,2.69-2.16,5.37-3.24,8.06-.23.42-.41.72-.62,1.27-.97,2.51-1.57,4.14-1.78,6.34-.12,1.26.21,2.49-.08,3.74-.21.02-.44.03-.65.05-.01.12-.03.26-.05.38-1.81,1.78-4,2.53-6.5,2.53-2.87,0-3.09-.23-2.75-3.06-.92.54-1.16,1.77-2.2,2.17,1.7-3.85,4.25-7.16,7.24-10.06.86-.83,1.1-1.29,1.67-2.1.24-.34.2-.66.45-.94.72-1.06,1.4-2.14,2.49-2.9.58-.61.78-.69,1.46-1.37.22-.22.49-.4.63-.68q.23-.46.58-.83c.09-.1.23-.31.26-.44.17-.38.24-.75.21-1.16-.71-.71-2.81,1.92-3.64,2.01-.09-.86,6.08-8.24,6.71-8.43,3.21-1.04,1.13,3.76-.23,5.43Z"/>
      <path class="cls-2" d="M272.56,313.85c.51-.04,1.02-.06,1.38.41-.15.15-.29.29-.44.44-.32-.28-.63-.57-.95-.85Z"/>
      <path class="cls-7" d="M263.88,311.28s-.05.05-.05.05"/>
      <path class="cls-1" d="M271.41,312.58c.14.14.29.29.43.43-.14-.14-.29-.29-.43-.43Z"/>
      <path class="cls-1" d="M271.83,313c.14.18.28.36.43.54-.14-.18-.28-.36-.43-.54Z"/>
      <path class="cls-6" d="M14.98,84.91v.02h-.02s-.02-.02-.02-.03c0,0,.02,0,.03.02Z"/>
      <path class="cls-12" d="M250.35,325.22c-1.45,1.63-17.07-2.81-19.75-3.23-7.38-1.15-14.68-3.09-22.06-4.04-.36-.23-.72-.47-1.07-.69-.6.06-1.13-.15-1.64-.45-.41.02-.71-.18-1-.45-.77-.33-1.42-1.42-2.37-.35.02-.03.03-.12.08-.27.02-.06.03-.12.05-.2,0-.02,0-.05.02-.08.02-.11.05-.23.08-.38.02-.06.03-.12.05-.18.05-.24.09-.51.15-.78.03-.2.06-.38.11-.56.02-.12.05-.26.08-.38.17-.98.35-1.96.45-2.55.03-.17.05-.33.08-.45.03-.21.05-.32.05-.32.59-.62,2.37.78,2.76.24.95-1.36-1.55-1.22.78-1.98,1.13-.38,3.53-1.01,4.65-.68,1.69,1.06,3.21,2.63,5.15,2.94,1.42.23,2.35.78,3.23,1.72-.03.06-.08.12-.12.18,4.51,3.85,10.2,5.37,15.71,7.14,3.85,1.25,10.59,6.05,14.58,5.79Z"/>
      <path class="cls-14" d="M40.85,92.39l.12-.02s.07.09.07.09c.37,4.77-21.63-1.27-20.44-3.97-.22.51,17.64,4.63,20.25,3.9Z"/>
      <path class="cls-6" d="M33.14,81.01c.04.29.09.58.13.87-.03.27-.06.55-.09.83-.88.04-1.77.03-2.6.37-.05-.2-.1-.41-.14-.61.9-.49,1.81-.97,2.71-1.46Z"/>
      <path class="cls-15" d="M289.91,336.52c-1.24-.2-1.81-1.24-2.58-2.03.06-.07.12-.14.17-.21,1.05.48,1.79,1.29,2.41,2.24h0Z"/>
      <path class="cls-15" d="M289.91,336.53c.06.03.11.07.17.1-.06-.04-.11-.07-.17-.11,0,0,0,0,0,0Z"/>
      <path class="cls-7" d="M208.81,168.04c-.02-.12-.02-.26-.02-.38"/>
      <path class="cls-8" d="M174.04,366.73c-.17-.07-.34-.14-.51-.22.17.07.34.14.51.22Z"/>
      <path class="cls-16" d="M15.5,84.43l-.05.05c-.03-.09-.05-.14-.05-.17.02,0,.02.02.03.03s.05.05.06.09Z"/>
      <path class="cls-12" d="M36.05,78.08c3.52-1.44,7.03-2.87,10.55-4.31.06.15.13.3.19.45-3.16,1.69-6.56,2.85-9.83,4.31-.2-.36-.58-.36-.91-.45Z"/>
      <path class="cls-14" d="M15.5,84.43l-.05.05c-.17.15-.3.29-.47.44v.02h-.02s-.02-.02-.02-.03c-.62-1.33-1.24-2.66-1.84-3.98-.21-.47-.24-.94.36-1.18,1.04,1.4,1.3,3.15,2.02,4.69Z"/>
      <path class="cls-8" d="M57.15,88.91c-.81,1.61-2.2,2.04-3.9,2.27-7.37.99-13.2-1.81-18.1-7.07.19-.64.63-1.05,1.19-1.37,3.47-1.98,6.93-3.98,10.62-5.54.1,1.18-.92,1.33-1.62,1.77-3.45,1.31-5.25,2.32-2.52,4.26,1.69,1.21,5.44.64,7.36,1.24,2.58.82,4.4,3.03,6.91,3.76.02.23.04.46.05.69Z"/>
      <path class="cls-2" d="M52,79.2c.65.89,1.37,1.4,2.25,1.87,1.46,1,2.91,2,4.37,3,.1,1.79-.25,3.45-1.47,4.84-.02-.23-.04-.46-.05-.69.74-5.78-12.07-4.36-11.76-9.27.71-.44,1.72-.59,1.62-1.76.09-.05.19-.08.29-.08.94.38,1.44-.77,2.3-.67.11,0,.21,0,.32,0,.28.83.9,1.36,1.36,2.13l.77.63Z"/>
      <path class="cls-2" d="M74.39,94.92c-2.9-.2-4.86-2.13-6.99-3.76-1.92-1.49-3.98-2.67-6.44-2.96.12-.42.24-.83.36-1.25,1.98-.14,3.92.14,5.87.42,2.69,2.25,5.1,4.74,7.2,7.54Z"/>
      <path class="cls-9" d="M47.25,77.11c-.1,0-.2.03-.29.08-3.69,1.56-7.16,3.56-10.63,5.54-.56.32-1,.73-1.19,1.37-.89-.13-1.45-.73-1.97-1.4.03-.28.06-.55.09-.83,4.83-2.66,10.17-4.24,14.91-7.09.44-.27.78-.32.81.35-.77.49-1.39,1.1-1.73,1.96Z"/>
      <path class="cls-2" d="M67.19,87.37c-1.95-.29-3.89-.56-5.87-.42-.54-1.51-.44-3.18-1.24-4.63.5-.12.41-.48.36-.83,2.79,1.34,4.78,3.58,6.74,5.88Z"/>
      <path class="cls-12" d="M60.08,82.32c-.97.18-.83,1.3-1.46,1.75-1.45-1-2.91-1.99-4.36-2.99,1.78-.11-1.54-5.34-2.55-5.91-.18-.83-.36-1.66-.53-2.49.14-.05.27-.09.41-.15.29.62.56,1.24.83,1.86,1.3,3,3.55,6.01,6.2,7.88.41-.63.05-1.36.21-2.01.26.27.53.54.78.81.18.32.5.38.83.42.05.35.14.71-.36.83Z"/>
      <path class="cls-12" d="M245.42,318.82c-.38.05-.68-.05-.89-.39.59-.53.74-.08.89.39Z"/>
      <path class="cls-6" d="M125.42,374.35c1.3-2.48,24.66-8.41,24.71-8.73-.38,2.47-13.72,5.03-18.55,7.91-2.11-.17-4.12.4-6.16.82Z"/>
      <path class="cls-15" d="M88.1,15.88c-6.96,0-11.2,1.39-17.93,3.09-3.59.91-12.1,5.28-14.79,3.27-.14-.12-.27-.24-.41-.36q-1.43-2.14.85-4.26c3.95.08,7.06-1.83,10.68-2.94,3.38-1.03,9.64-.86,12.42-3.11,5.7-4.65-4.83-4.16-5.87-6.2,1.09-.97,2.53-1.07,3.82-1.55.51-.18,1.12-.17,1.3-.84,4.81-1.06,9.7-1.63,14.61-2.13,1.18,1.93,6.94,1.69,8.96,3.36,1.04.84,4.9,4.72,5.3,5.93,1.27,3.97-17.67,5.73-18.94,5.73Z"/>
      <path class="cls-15" d="M78.93,11.58c-2.78,2.25-9.04,2.08-12.42,3.11-3.62,1.12-6.73,3.02-10.68,2.94.33-.81.97-1.4,1.55-2.02,1.48-1.4,2.94-2.81,4.41-4.21,3.56-2.38,7.12-4.74,11.27-6.02,1.04,2.04,11.57,1.55,5.87,6.2Z"/>
      <path class="cls-4" d="M158.36,303.75l.02.02.02-.02h-.03Z"/>
      <path class="cls-8" d="M190.34,294.92c-.32.03-.63.05-.95.08-.68-1-1.36-1.99-2.04-2.99,1.74.21,2.04,1.9,2.99,2.91Z"/>
      <path class="cls-4" d="M158.49,303.84s-.08-.05-.12-.08l.02-.02s.08.06.11.09Z"/>
      <path class="cls-5" d="M105.11,170.58c-.09.47-.05.95-.48,1.28l-.02.02v-.02c.05-.48-.03-1,.5-1.28Z"/>
      <path class="cls-15" d="M172.31,228c-.88,1.3-3.17.69-4.27,1.84-.05-.05-1.83-2.17-2.17-2.11-1.45.29.63,2.97-2.25,2.01-1.21-.39-2.78-4.68-3.74-4.47.06-.02-2.41,8.98-4.89,3.29,2.93-6.07-.36-2.11-1.67-2.79-1.63-.86-1.31-7.91-1.22-9.43,4.75,3.29,1.74-2.19,3.85-2.7,2.99-.72,3.06,8.84,6.99,4.07,1.21-1.46-1.92-13.25-.81-13.91-1.1.78,8.19,17.49,10.14,18.85,0,1.28.78,4.3.06,5.36Z"/>
      <path class="cls-15" d="M147.46,224.35c-1.98-.56-2.69-2.78-4.18-3.88-1.01-.75-2.23-.33-3.11-.94-2.2-1.51-6.01-3.71-6.62-6.5.6-2.63-1.13-5.01-.78-7.6,7.76,3.02.41-6.11,4.19-5.96.69.03,1.49,5.05,3.2,5.57,1.27.36,3.33-1.12,2.53-1.49,2.93,1.39,7.03,8.03,8.56,11.97-4.87,3-3.67,3.03-3.79,8.84Z"/>
      <path class="cls-15" d="M131.48,203.77c-2.73,2.9-4.6-1.19-6.49-4.74-.6-1.15-4.83-9.78-3.58-10.83,5.01,0,8.63,12.15,10.06,15.57Z"/>
      <path class="cls-8" d="M154.99,228.56c-1.77-.94-6.68-2.52-7.53-4.21.12-5.81-1.09-5.84,3.79-8.84.29.27.56.56.85.83-.09,1.52-.41,8.57,1.22,9.43,1.31.68,4.6-3.27,1.67,2.79Z"/>
      <path class="cls-9" d="M121.36,187.39c-1.48-.29-2.76-.94-3.76-2.11,1.57.14,3.43-.24,3.76,2.11Z"/>
      <path class="cls-15" d="M164.21,154.47c-.06-.12-.03-.18.12-.18.06.12.03.18-.12.18Z"/>
      <path class="cls-1" d="M195.58,246.26c.19,1.23-2.14-1.55-1.65-2.27.51-.75,1.7,2.34,1.65,2.27Z"/>
      <path class="cls-10" d="M201.67,248.28c.15.15.29.29.44.44-.15-.15-.29-.29-.44-.44Z"/>
      <path class="cls-2" d="M200,254.17c-.14-.14-.29-.29-.43-.43.14.14.29.29.43.43Z"/>
      <path class="cls-16" d="M71.39,131.49l.15.08s-.1-.05-.14-.08h0Z"/>
      <path class="cls-16" d="M71.4,131.48l-.15-.09s.1.06.15.09c0,0,0,0,0,0Z"/>
      <path class="cls-12" d="M138.97,53.4c-.15,2.13-.53,4.21-1.54,6.13-5.07,1.98-7.54,2.76-11.97,6.19-1.89,1.45-3.71,3.2-5.69,4.62-1,.71-6.65,3.08-6.94,3.62-.47.89,2.79,1.64.62,2.61-1.66.74-3.77-.27-5.4.36-.05.62.12,1.19.5,1.72-.27,1.09-2.57-.59-2.88.39-.44,1.36,1.74,1.43,1.87,2.46-.84-.03-1.69-.06-2.55-.11-4.19-2.49-2.61.29-2.55,2.13-.27,0-.53-.02-.8-.03-1.07-.35-9.52-1.71-9.85-1.22-.47.69,1.18.88.63,1.51-1.18,1.39-17.13-6.55-17.79-5.6-.63.89,1.81,2.08,1.83,2.91l-8.74-4.25c-.69-.74-1.37-1.48-2.07-2.22.05-1.83-.47-3.56-.88-5.31-1.72-3.08-3.67-6.82-7.74-5.67-3.59,1.01-2.7,5.18-5.28,6.7.72-1.99.21-4.04.38-6.08,3.95.44,4.12-4.89,10.37-2.5,1.31.5,10.2,9.04,11.38,8.22,1.13-.78-1.42-2.23-.42-2.93-.42.3,7.26,2.41,7.36,2.43,1.27.14,9.14,1.33,9.23,1.18.56-.94-2.01-1.55-1.22-2.64.69-.97,2.19.92,2.82-.3.15-.27-.94-1.19-1.03-1.49,1.25-.32,2.34.53,3.35,1.18.15.09.29.18.44.26.33.21.66.35,1,.39-.14-.06.53-.3,1.42-.56.21-.05.42-.11.65-.17.35-.09.69-.18,1.04-.27,1.04-.24,1.95-.41,1.95-.29.77-1.13-2.2-1.86-.15-3.68,1.07-.95,6.84,2.93,7.29,1.31.29-1-2.91-.35-2.78-1.71.02-.23,4-2.41,4.18-2.49.06-.03,1.12-1.34,1.66-1.66.97-.54,3.29-.71,4.6-1.4,1.18-.63,1.49-2.1,2.93-2.64,1.99-.74,3.27.54,5.1.35,4.21-.44,7.11-2.87,11.57-1.89.41,0,.83-.02,1.25-.02.98-2.6,3.09-2.67,2.85.47Z"/>
      <path class="cls-9" d="M87.4,86.36c-.02-.07-.07-.13-.13-.19.06.06.11.12.13.19Z"/>
      <path class="cls-9" d="M87.4,86.59c.03-.09.03-.16,0-.23.02.07.02.15,0,.23Z"/>
      <path class="cls-9" d="M120.62,76.39c0-.24-.17-.33-.41-.36.27-.09.44,0,.41.36Z"/>
      <path class="cls-4" d="M120.62,76.39c0-.24-.17-.33-.41-.36.27-.09.44,0,.41.36Z"/>
      <path class="cls-12" d="M76.06,32.04c-.6,3.06-1.13,8.04-5.46,7.85-5.21.5-9.01-7.45-5.27-11.04,1.25-1.19,10.59-2.79,11.21-2.07.15.18-.42,4.89-.48,5.27Z"/>
      <path class="cls-6" d="M89.79,40.34c-1.09-1.55-1.27-3.27-1.93-5.01-.98-2.53-1.64-10.47-3.41-11.87-3.27,3.08.12,8.75-6.08,10.14-1.04,3.32-2.08,6.62-3.12,9.93,1.16.42,1.37,1.95,2.63,2.25,1.33-.38,2.31.77,3.53.81,2.5.18,4.89.12,7.02-1.63,1.07-.86,2.46-1.55,4.01-1.03.57.03,1.13.05,1.69.08-.05-1.21-3.68-2.75-4.33-3.67ZM86.19,43.57c-.91.97-2.11,1.49-3.5,1.3-.3-.05-.62-.12-.94-.24-.18-.06-.36-.14-.54-.24-.36-.17-.72-.39-1.1-.69-.18-.12-.36-.29-.56-.47t-.02,0c-.18-.18-.38-.36-.56-.56-.08-.2-.15-.39-.2-.6-.23-.78-.3-1.69-.26-2.63,0-.15.02-.3.03-.45.03-.32.08-.63.12-.95.05-.24.09-.47.15-.71.05-.23.12-.47.18-.69.41-1.36,1.06-2.57,1.89-3.27.8-.68,1.78-1.07,2.88-.62,1.07.6,1.92,1.33,2.53,2.14.51.66.89,1.39,1.13,2.11.8,2.44.18,5.05-1.25,6.58Z"/>
      <path class="cls-1" d="M96.25,43.24c-.8,0-1.19,1.13-2.13.77-.05-1.21-3.68-2.75-4.33-3.67-1.09-1.55-1.27-3.27-1.93-5.01-.98-2.53-1.64-10.47-3.41-11.87-.39-.41-.94-.29-1.4-.42,4.41-3.74,3.46,4.78,3.79,6.44.95,4.57,3.68,10.09,7.65,12.8.39.68,1.3.42,1.77.97Z"/>
      <path class="cls-2" d="M84.45,23.46c-3.27,3.08.12,8.75-6.08,10.14.65-3.2,1.71-6.25,3.27-9.11.33-.59.68-1.21,1.4-1.45.47.14,1.01.02,1.4.42Z"/>
      <path class="cls-2" d="M87.82,49.11c-2.96.91-5.93.5-8.89.03-2.13-1.28-4.39-2.47-3.68-5.61,1.16.42,1.37,1.95,2.63,2.25.53,1.33,1.66,1.96,2.85,2.55,2.28,1.12,4.69.94,7.09.78Z"/>
      <path class="cls-9" d="M84.83,97.39c.26,0,.32.02.38.02.02,0,.03.02.06.02.02.02.03.02.05,0,.06.02.17.03.38.02.14.02.27.03.41.02.08.02.17.02.24.02,2.11.05,3.83-.71,6.41-1,.08-.02.15-.03.2-.05.17-.05.2-.06.24-.06.05-.03.12-.05.62-.2.08-.03.18-.06.29-.09,1.37-.27,2.75-.56,4.12-.84v.02c.08-.03.15-.08.21-.11.68-.3.59-.2,1.42-.51.86-.33,1.03-.33,1.83-.54.08-.02.15-.02.23-.03.2-.03.36-.06.51-.09.06-.02.12-.03.17-.05.08-.02.14-.03.2-.06.68-.18,1.3-.48,2.64-1.03.26-.11.56-.23.8-.35.65-.35.3-.17.51-.29l.12-.06c.08-.03.15-.08.27-.14,1.36-.84,3.17-1.04,4.03-2.66.75-.35,1.55-.63,1.86-1.46.05-.08.06-.17.06-.26.02-.02.02-.03.02-.05.02-.03.03-.06.03-.09l-28.28,9.9ZM125.46,65.71c-1.89,1.45-3.71,3.2-5.69,4.62-1,.71-6.65,3.08-6.94,3.62-.47.89,2.79,1.64.62,2.61-1.66.74-3.77-.27-5.4.36-.05.62.12,1.19.5,1.72-.27,1.09-2.57-.59-2.88.39-.44,1.36,1.74,1.43,1.87,2.46-.84-.03-1.69-.06-2.55-.11-4.19-2.49-2.61.29-2.55,2.13-.27,0-.53-.02-.8-.03-1.07-.35-9.52-1.71-9.85-1.22-.47.69,1.18.88.63,1.51-1.18,1.39-17.13-6.55-17.79-5.6-.63.89,1.81,2.08,1.83,2.91l-8.74-4.25c-.69-.74-1.37-1.48-2.07-2.22-.23,3.82-2.37,5.85-6.04,6.46.18.32.5.38.83.42,2.79,1.34,4.78,3.58,6.74,5.88,2.69,2.25,5.1,4.74,7.2,7.54h.18l.18.02c-.02.27-.03.53-.05.8-.54.15-1.22-.3-1.63.39.62.78,1.48.89,2.38.86,1.45-.05,2.87.06,4.27.39.97-.06,1.57,0,2.93,0,1.16.03,1.43.02,2.17.02l28.23-9.76.69-.24.03-.03c.11-.12.47-.57.56-.68.02-.02.02-.03.02-.03.69-.05,1.48.05,1.52-1.01l.21.02.2-.03c1.45-.14,2.14-1.13,2.69-2.31.11-.08.23-.11.35-.11,1.99-.15,2.75-1.71,3.58-3.17.32-.51.91-.83.97-1.51.15-.2.29-.38.44-.57.66.08.97-.42,1.34-.83,4.96-5.18,8.8-11.12,11.78-17.61-5.07,1.98-7.54,2.76-11.97,6.19Z"/>
      <path class="cls-7" d="M95.77,135.27s0-.01,0-.01"/>
      <path class="cls-1" d="M60.46,128.53c-.15.14-.3.27-.44.41.15-.14.3-.27.44-.41Z"/>
      <path class="cls-11" d="M87.82,49.11c-2.41.14-4.82.33-7.1-.79-1.19-.58-2.32-1.22-2.84-2.55,1.33-.39,2.3.77,3.52.81,3.44,1.68,6.39.21,9.32-1.44.66-.2,5.27-1.49,5.59-.08.29,1.28-7.66,3.71-8.49,4.04Z"/>
      <path class="cls-2" d="M90.72,45.15c-2.92,1.65-5.88,3.12-9.32,1.44,2.5.18,4.88.12,7.02-1.63,1.06-.87,2.46-1.55,4.02-1.03-.64.32-1.42.43-1.72,1.22Z"/>
      <path class="cls-8" d="M161.32,368.09c-.12.12-.25.25-.37.37.12-.12.25-.25.37-.37Z"/>
      <path class="cls-7" d="M115.95,339.89s-.01-.01-.01-.01"/>
      <path class="cls-12" d="M52,79.21c-.11-.11-.23-.21-.35-.3l-.41-.33c-.74-.54-1.09-1.31-1.37-2.13.02-1.27-.38-2.6.47-3.76,0-.02.02-.02.02-.03h.03c.14,0,.29-.02.42-.03.12.03.24.05.38.05.17.83.35,1.66.53,2.49.09,1.34.2,2.69.29,4.04Z"/>
      <path class="cls-2" d="M47.25,77.11c.34-.86.97-1.48,1.73-1.96.61.25.61.76.57,1.29-.86-.1-1.36,1.05-2.3.67Z"/>
      <path class="cls-2" d="M45.34,78.96c-.31,4.91,12.5,3.49,11.76,9.27-2.52-.72-4.34-2.94-6.91-3.76-1.92-.61-5.67-.04-7.36-1.24-2.73-1.94-.93-2.95,2.52-4.26Z"/>
      <path class="cls-12" d="M52,79.2c-.1-1.34-.2-2.69-.3-4.03,1.02.58,4.34,5.8,2.55,5.91-.88-.47-1.83-.86-2.25-1.87Z"/>
      <path class="cls-14" d="M64.77,69.3c-1.72-3.08-3.67-6.82-7.74-5.67-3.59,1.01-2.7,5.18-5.28,6.7-.05.74-.11,1.46-.17,2.2.29.62.56,1.24.83,1.86,2.13,1.96,4.27,3.91,6.41,5.87.26.27.53.54.78.81,3.67-.6,5.81-2.64,6.04-6.46.05-1.83-.47-3.56-.88-5.31ZM60.93,77.58c-2.47.48-5.78-3.88-6.35-6.22-.48-1.13.57-1.07.98-1.01,2.32.41,4.74.57,6.62,2.23.33.09.54-.06.98.29,0,0,0,.02,0,.02.08.08.11.12.17.17,1.95,1.04-1.09,4.29-2.4,4.53Z"/>
      <path class="cls-12" d="M52.42,74.39c2.14,1.95,4.27,3.9,6.41,5.86-.16.66.2,1.37-.2,2.01-2.65-1.87-4.91-4.87-6.2-7.87Z"/>
      <path class="cls-4" d="M87.4,86.36c.02.07.02.15,0,.23.03-.09.03-.16,0-.23Z"/>
      <path class="cls-4" d="M87.4,86.36c-.02-.07-.07-.13-.13-.19.06.06.11.12.13.19Z"/>
      <path class="cls-2" d="M83.78,32.73c8.35,4.68,2.16,17.27-4.79,9.94-.09-4.13.79-7.78,4.79-9.94Z"/>
      <path class="cls-11" d="M83.78,32.73c-4,2.15-4.89,5.81-4.79,9.94-1.13-2.65-.16-7.55,1.91-9.31.8-.68,1.78-1.07,2.88-.63Z"/>
      <path class="cls-6" d="M60.93,77.58c-2.47.48-5.78-3.88-6.35-6.22-.48-1.13.57-1.07.98-1.01,2.32.41,4.74.57,6.62,2.23.55-.06.67.14.98.29v.02c0,.11-.12-.14.17.17,1.95,1.04-1.09,4.29-2.4,4.53Z"/>
      <path class="cls-6" d="M137.44,352.53c-.36.12-1.84-.66-2.27-.72-.17-.08-.33-.15-.51-.21-.51-.26-.59-.46-1.01-.5-1.54-.72-3.04-.46-4.86-.23l-.86.12c-.24-.3.3-.03,0,0-1.68.18-1.55.23-2.45.27-.02-.05.07-2.13.07-2.21-.05-.38.14-1.34.51-3.64.72-4.41,3.05-8.9,3.29-13.34.12-2.04.83-9.29.29-10.8-.88-2.43-5.31-2.79-5.58-5.26l1.28.91c.71.35.64.37,1.38.65.74.26,1.49.5,2.25.72,1.83.54,3.74.89,5.4,1.93l1.05.86c-.09.42.03.34-.06.76,0,.47-.17,1.3-.23,1.45-.03.6-.05.31-.27.93-.45,1.19-.91,2.62-1.58,3.58-1.92,3.53-2.28,14.15-.52,17.61.45.86,6.7,6.4,4.69,7.14Z"/>
    </g>
  </g>
</svg>