<?xml version="1.0" encoding="UTF-8"?>
<svg id="Layer_1" data-name="Layer 1" xmlns="http://www.w3.org/2000/svg" viewBox="0 0 600 600">
  <defs>
    <style>
      .cls-1 {
        fill: #1f140f;
        stroke: #1f140f;
        stroke-miterlimit: 10;
      }
    </style>
  </defs>
  <path class="cls-1" d="m258.65,404.71c0,19.16,7.34,30.06,17.9,30.06,26.12,0,45.79-51.58,45.79-107.58,0-15.33-2.05-29.47-5.58-42.15-32.87,32.72-58.11,71.92-58.11,119.66Z"/>
  <path class="cls-1" d="m464.4,157.72c0-2.65-1.76-4.72-7.04-4.72-14.09,0-27,20.63-37.28,48.93,25.83-18.27,44.32-32.72,44.32-44.21Z"/>
  <path class="cls-1" d="m300.51,19.86C145.79,19.86,20.37,145.28,20.37,300.01s125.42,280.13,280.14,280.13,280.14-125.42,280.14-280.13S455.23,19.86,300.51,19.86Zm-163.37,423.75c-29.64,0-52.83-19.74-52.83-60.12,0-27.41,19.96-50.99,43.73-50.99,6.17,0,12.33,1.47,18.79,5.01l.58,2.65c-6.45-3.54-13.2-5.01-19.37-5.01-23.18,0-39.62,22.1-39.62,44.5,0,17.1,9.68,25.35,27.3,25.35,50.18,0,144.4-66.61,144.4-134.99,0-14.74-3.82-30.36-12.33-45.98l1.76-.88c10.28,16.5,14.68,34.78,14.68,53.64,0,101.1-78.95,166.82-127.09,166.82Zm273.55,5.9c-33.46,0-66.34-26.23-66.34-92.84,0-43.04,13.5-85.48,31.7-120.55-18.2,12.97-36.69,27.41-53.71,43.32,1.76,14.15,2.94,29.48,2.94,45.98,0,59.25-19.67,112-49.02,112-10.56,0-20.25-10.9-20.25-32.71,0-48.63,26.12-89.01,59.87-122.61-17.61-59.25-68.97-89.31-112.99-89.31-31.41,0-54.3,15.33-54.3,46.27s18.78,43.92,36.39,43.92c19.08,0,39.33-15.92,41.09-40.67h2.64c-1.46,29.47-27.29,43.32-45.2,43.32-19.66,0-37.56-15.62-37.56-45.39,0-58.06,35.8-90.78,76.01-90.78,43.44,0,88.05,38.91,100.09,126.74,18.2-17.09,38.15-32.42,57.23-46.27,26.12-47.16,59.88-79.88,78.07-79.88,7.93,0,9.69,3.54,9.69,7.08,0,13.85-20.55,29.77-48.72,49.22-12.92,37.72-21.14,87.24-21.14,122.61,0,41.26,11.16,72.21,44.91,72.21,20.55,0,32.87-16.8,32.87-32.13,0-13.26-11.15-23.87-23.48-23.87-4.11,0-8.8,1.18-12.62,3.83l-.29-2.36c4.11-2.65,8.51-3.83,12.91-3.83,16.44,0,29.35,13.27,29.35,38.02,0,40.38-35.51,68.68-70.14,68.68Zm103.43-229.9c0-9.8,7.94-17.75,17.75-17.75s17.75,7.95,17.75,17.75-7.95,17.75-17.75,17.75-17.75-7.95-17.75-17.75Zm28.76,47.56c-5.53,0-10.01-4.49-10.01-10.02s4.48-10.02,10.01-10.02,10.02,4.49,10.02,10.02-4.48,10.02-10.02,10.02Z"/>
</svg>